<svg xmlns="http://www.w3.org/2000/svg" width="512" height="512" viewBox="0 0 512 512">
  <defs>
    <clipPath id="hex-clip">
      <polygon points="48.0,256.0 152.0,75.9 360.0,75.9 464.0,256.0 360.0,436.1 152.0,436.1" />
    </clipPath>
    <linearGradient id="water-fill" x1="0%" y1="0%" x2="100%" y2="0%"
        gradientTransform="rotate(30 256 256)">
      <stop offset="0%" stop-color="#295f69" />
      <stop offset="20%" stop-color="#327884" />
      <stop offset="50%" stop-color="#5ea4af" />
      <stop offset="80%" stop-color="#327884" />
      <stop offset="100%" stop-color="#295f69" />
    </linearGradient>
    <linearGradient id="water-shade" x1="0%" y1="0%" x2="0%" y2="100%"
        gradientTransform="rotate(30 256 256)">
      <stop offset="0%" stop-color="#8dd6de" stop-opacity="0.38" />
      <stop offset="35%" stop-color="#ffffff" stop-opacity="0.06" />
      <stop offset="100%" stop-color="#11343e" stop-opacity="0.24" />
    </linearGradient>
  </defs>

  <g clip-path="url(#hex-clip)">
    <ellipse cx="356.2" cy="171.4" rx="2.3" ry="3.3" fill="#ada295" opacity="0.48" transform="rotate(144.2 356.2 171.4)" />
<ellipse cx="349.3" cy="104.0" rx="4.6" ry="4.8" fill="#8e857b" opacity="0.50" transform="rotate(119.8 349.3 104.0)" />
<ellipse cx="344.7" cy="92.2" rx="6.0" ry="1.7" fill="#c4baac" opacity="0.35" transform="rotate(136.0 344.7 92.2)" />
<ellipse cx="356.5" cy="417.3" rx="2.2" ry="3.7" fill="#8e857b" opacity="0.29" transform="rotate(69.1 356.5 417.3)" />
<ellipse cx="162.7" cy="193.2" rx="2.0" ry="3.3" fill="#8e857b" opacity="0.34" transform="rotate(50.6 162.7 193.2)" />
<ellipse cx="417.3" cy="241.8" rx="3.8" ry="2.3" fill="#ada295" opacity="0.65" transform="rotate(44.1 417.3 241.8)" />
<ellipse cx="388.9" cy="218.8" rx="5.3" ry="2.1" fill="#8e857b" opacity="0.34" transform="rotate(8.8 388.9 218.8)" />
<ellipse cx="433.7" cy="239.4" rx="5.0" ry="1.7" fill="#c4baac" opacity="0.36" transform="rotate(49.8 433.7 239.4)" />
<ellipse cx="175.9" cy="279.9" rx="3.3" ry="4.0" fill="#ada295" opacity="0.64" transform="rotate(137.8 175.9 279.9)" />
<ellipse cx="352.5" cy="180.3" rx="2.9" ry="3.5" fill="#8e857b" opacity="0.45" transform="rotate(51.6 352.5 180.3)" />
<ellipse cx="315.6" cy="388.8" rx="3.2" ry="1.9" fill="#8e857b" opacity="0.61" transform="rotate(28.3 315.6 388.8)" />
<ellipse cx="292.2" cy="411.7" rx="6.0" ry="3.0" fill="#8e857b" opacity="0.48" transform="rotate(149.8 292.2 411.7)" />
<ellipse cx="377.8" cy="216.4" rx="4.5" ry="2.7" fill="#ddd4c7" opacity="0.53" transform="rotate(73.0 377.8 216.4)" />
<ellipse cx="402.1" cy="228.9" rx="5.9" ry="4.2" fill="#c4baac" opacity="0.60" transform="rotate(153.1 402.1 228.9)" />
<ellipse cx="225.6" cy="347.9" rx="3.7" ry="1.8" fill="#ada295" opacity="0.41" transform="rotate(121.2 225.6 347.9)" />
<ellipse cx="180.1" cy="256.2" rx="4.7" ry="1.9" fill="#ada295" opacity="0.55" transform="rotate(38.3 180.1 256.2)" />
<ellipse cx="386.4" cy="200.0" rx="5.2" ry="4.5" fill="#8e857b" opacity="0.69" transform="rotate(152.6 386.4 200.0)" />
<ellipse cx="408.6" cy="237.2" rx="2.8" ry="2.0" fill="#c4baac" opacity="0.51" transform="rotate(8.8 408.6 237.2)" />
<ellipse cx="366.1" cy="207.3" rx="3.5" ry="1.7" fill="#ddd4c7" opacity="0.53" transform="rotate(66.1 366.1 207.3)" />
<ellipse cx="376.4" cy="182.4" rx="5.6" ry="1.5" fill="#c4baac" opacity="0.32" transform="rotate(154.0 376.4 182.4)" />
<ellipse cx="346.9" cy="96.5" rx="2.0" ry="4.5" fill="#c4baac" opacity="0.39" transform="rotate(130.5 346.9 96.5)" />
<ellipse cx="251.4" cy="343.2" rx="5.9" ry="2.1" fill="#ada295" opacity="0.66" transform="rotate(98.4 251.4 343.2)" />
<ellipse cx="361.9" cy="93.9" rx="5.7" ry="1.9" fill="#ddd4c7" opacity="0.36" transform="rotate(30.8 361.9 93.9)" />
<ellipse cx="348.7" cy="141.0" rx="5.6" ry="2.1" fill="#8e857b" opacity="0.58" transform="rotate(32.9 348.7 141.0)" />
<ellipse cx="374.5" cy="182.4" rx="3.4" ry="4.2" fill="#8e857b" opacity="0.43" transform="rotate(94.1 374.5 182.4)" />
<ellipse cx="378.2" cy="197.4" rx="2.8" ry="3.3" fill="#ada295" opacity="0.60" transform="rotate(61.3 378.2 197.4)" />
<ellipse cx="349.6" cy="168.6" rx="2.7" ry="3.6" fill="#8e857b" opacity="0.54" transform="rotate(13.1 349.6 168.6)" />
<ellipse cx="237.0" cy="343.8" rx="4.8" ry="2.3" fill="#ddd4c7" opacity="0.63" transform="rotate(77.8 237.0 343.8)" />
<ellipse cx="385.8" cy="190.9" rx="3.1" ry="3.6" fill="#c4baac" opacity="0.46" transform="rotate(173.3 385.8 190.9)" />
<ellipse cx="314.2" cy="396.9" rx="6.1" ry="3.8" fill="#ada295" opacity="0.49" transform="rotate(87.7 314.2 396.9)" />
<ellipse cx="161.4" cy="234.6" rx="3.4" ry="4.4" fill="#c4baac" opacity="0.43" transform="rotate(178.2 161.4 234.6)" />
<ellipse cx="378.4" cy="182.9" rx="4.1" ry="2.4" fill="#ddd4c7" opacity="0.44" transform="rotate(126.4 378.4 182.9)" />
<ellipse cx="446.7" cy="256.2" rx="2.9" ry="1.5" fill="#c4baac" opacity="0.55" transform="rotate(163.3 446.7 256.2)" />
<ellipse cx="379.7" cy="192.8" rx="3.3" ry="4.5" fill="#c4baac" opacity="0.53" transform="rotate(59.8 379.7 192.8)" />
<ellipse cx="367.5" cy="140.6" rx="3.4" ry="4.1" fill="#8e857b" opacity="0.49" transform="rotate(54.6 367.5 140.6)" />
<ellipse cx="188.2" cy="264.5" rx="2.5" ry="2.0" fill="#c4baac" opacity="0.63" transform="rotate(26.7 188.2 264.5)" />
<ellipse cx="388.9" cy="229.1" rx="2.1" ry="2.0" fill="#ada295" opacity="0.67" transform="rotate(176.3 388.9 229.1)" />
<ellipse cx="153.5" cy="75.5" rx="3.6" ry="4.8" fill="#c4baac" opacity="0.46" transform="rotate(4.3 153.5 75.5)" />
<ellipse cx="366.5" cy="131.3" rx="4.6" ry="2.2" fill="#c4baac" opacity="0.43" transform="rotate(82.5 366.5 131.3)" />
<ellipse cx="323.0" cy="421.8" rx="3.8" ry="1.9" fill="#ada295" opacity="0.69" transform="rotate(60.4 323.0 421.8)" />
<ellipse cx="352.8" cy="421.9" rx="4.0" ry="3.9" fill="#ddd4c7" opacity="0.31" transform="rotate(73.9 352.8 421.9)" />
<ellipse cx="387.0" cy="195.3" rx="4.9" ry="3.5" fill="#ada295" opacity="0.56" transform="rotate(128.5 387.0 195.3)" />
<ellipse cx="393.0" cy="221.8" rx="3.0" ry="2.1" fill="#c4baac" opacity="0.43" transform="rotate(70.4 393.0 221.8)" />
<ellipse cx="397.3" cy="213.0" rx="4.1" ry="3.6" fill="#8e857b" opacity="0.44" transform="rotate(138.1 397.3 213.0)" />
<ellipse cx="150.2" cy="85.8" rx="3.0" ry="2.6" fill="#8e857b" opacity="0.55" transform="rotate(113.5 150.2 85.8)" />
<ellipse cx="368.3" cy="138.6" rx="5.2" ry="4.7" fill="#8e857b" opacity="0.39" transform="rotate(49.8 368.3 138.6)" />
<ellipse cx="369.8" cy="165.6" rx="3.5" ry="2.9" fill="#8e857b" opacity="0.68" transform="rotate(158.3 369.8 165.6)" />
<ellipse cx="169.5" cy="171.9" rx="2.4" ry="2.6" fill="#ddd4c7" opacity="0.66" transform="rotate(89.3 169.5 171.9)" />
<ellipse cx="167.3" cy="209.8" rx="4.2" ry="3.5" fill="#ada295" opacity="0.32" transform="rotate(44.0 167.3 209.8)" />
<ellipse cx="383.8" cy="210.5" rx="4.2" ry="3.6" fill="#ada295" opacity="0.65" transform="rotate(93.5 383.8 210.5)" />
<ellipse cx="350.2" cy="182.1" rx="3.5" ry="4.1" fill="#ada295" opacity="0.53" transform="rotate(6.8 350.2 182.1)" />
<ellipse cx="311.5" cy="407.5" rx="5.4" ry="3.1" fill="#ada295" opacity="0.52" transform="rotate(57.8 311.5 407.5)" />
<ellipse cx="168.9" cy="204.5" rx="5.3" ry="2.1" fill="#ada295" opacity="0.66" transform="rotate(85.0 168.9 204.5)" />
<ellipse cx="363.8" cy="79.6" rx="5.6" ry="2.0" fill="#8e857b" opacity="0.33" transform="rotate(141.0 363.8 79.6)" />
<ellipse cx="356.3" cy="140.0" rx="5.6" ry="3.2" fill="#ada295" opacity="0.35" transform="rotate(24.4 356.3 140.0)" />
<ellipse cx="155.2" cy="200.0" rx="2.7" ry="4.0" fill="#ddd4c7" opacity="0.31" transform="rotate(37.0 155.2 200.0)" />
<ellipse cx="189.6" cy="297.1" rx="5.5" ry="1.6" fill="#ddd4c7" opacity="0.41" transform="rotate(60.3 189.6 297.1)" />
<ellipse cx="160.0" cy="169.6" rx="5.8" ry="1.8" fill="#ddd4c7" opacity="0.54" transform="rotate(17.9 160.0 169.6)" />
<ellipse cx="188.8" cy="264.2" rx="2.6" ry="3.9" fill="#c4baac" opacity="0.59" transform="rotate(119.1 188.8 264.2)" />
<ellipse cx="161.4" cy="162.6" rx="5.4" ry="2.2" fill="#ada295" opacity="0.61" transform="rotate(58.5 161.4 162.6)" />
<ellipse cx="151.4" cy="101.4" rx="4.7" ry="4.2" fill="#ddd4c7" opacity="0.62" transform="rotate(72.8 151.4 101.4)" />
<ellipse cx="364.3" cy="430.4" rx="2.4" ry="1.7" fill="#8e857b" opacity="0.65" transform="rotate(121.1 364.3 430.4)" />
<ellipse cx="154.0" cy="189.9" rx="2.5" ry="2.3" fill="#8e857b" opacity="0.42" transform="rotate(64.2 154.0 189.9)" />
<ellipse cx="362.1" cy="165.6" rx="3.5" ry="4.3" fill="#ddd4c7" opacity="0.32" transform="rotate(122.9 362.1 165.6)" />
<ellipse cx="365.0" cy="173.2" rx="6.0" ry="3.6" fill="#8e857b" opacity="0.30" transform="rotate(173.9 365.0 173.2)" />
<ellipse cx="158.8" cy="110.8" rx="5.6" ry="4.5" fill="#8e857b" opacity="0.66" transform="rotate(89.3 158.8 110.8)" />
<ellipse cx="313.6" cy="395.3" rx="3.3" ry="2.0" fill="#8e857b" opacity="0.67" transform="rotate(169.9 313.6 395.3)" />
<ellipse cx="352.7" cy="143.5" rx="3.6" ry="4.1" fill="#ada295" opacity="0.35" transform="rotate(76.5 352.7 143.5)" />
<ellipse cx="385.4" cy="206.5" rx="3.0" ry="3.2" fill="#8e857b" opacity="0.68" transform="rotate(60.5 385.4 206.5)" />
<ellipse cx="161.8" cy="114.8" rx="2.3" ry="3.1" fill="#ddd4c7" opacity="0.69" transform="rotate(157.6 161.8 114.8)" />
<ellipse cx="225.2" cy="325.7" rx="4.5" ry="3.3" fill="#8e857b" opacity="0.31" transform="rotate(132.8 225.2 325.7)" />
<ellipse cx="380.3" cy="225.6" rx="5.1" ry="2.8" fill="#ddd4c7" opacity="0.60" transform="rotate(1.7 380.3 225.6)" />
<ellipse cx="379.5" cy="185.4" rx="2.8" ry="1.6" fill="#ddd4c7" opacity="0.52" transform="rotate(115.2 379.5 185.4)" />
<ellipse cx="336.5" cy="433.6" rx="3.4" ry="4.1" fill="#8e857b" opacity="0.66" transform="rotate(84.9 336.5 433.6)" />
<ellipse cx="167.5" cy="186.5" rx="5.0" ry="4.2" fill="#ada295" opacity="0.52" transform="rotate(168.9 167.5 186.5)" />
<ellipse cx="361.1" cy="174.1" rx="5.5" ry="4.4" fill="#ada295" opacity="0.64" transform="rotate(46.8 361.1 174.1)" />
<ellipse cx="405.1" cy="219.3" rx="5.8" ry="2.7" fill="#ada295" opacity="0.35" transform="rotate(106.3 405.1 219.3)" />
<ellipse cx="381.5" cy="215.1" rx="4.4" ry="1.4" fill="#c4baac" opacity="0.69" transform="rotate(147.0 381.5 215.1)" />
<ellipse cx="372.7" cy="181.1" rx="6.2" ry="2.0" fill="#ddd4c7" opacity="0.44" transform="rotate(37.2 372.7 181.1)" />
<ellipse cx="358.6" cy="428.1" rx="5.8" ry="3.5" fill="#ddd4c7" opacity="0.62" transform="rotate(65.2 358.6 428.1)" />
<ellipse cx="391.5" cy="228.8" rx="2.7" ry="1.8" fill="#ddd4c7" opacity="0.32" transform="rotate(115.5 391.5 228.8)" />
<ellipse cx="320.4" cy="409.5" rx="5.0" ry="2.3" fill="#ada295" opacity="0.54" transform="rotate(60.1 320.4 409.5)" />
<ellipse cx="362.0" cy="133.3" rx="3.7" ry="4.2" fill="#c4baac" opacity="0.65" transform="rotate(81.4 362.0 133.3)" />
<ellipse cx="462.8" cy="263.2" rx="6.2" ry="2.7" fill="#c4baac" opacity="0.42" transform="rotate(162.1 462.8 263.2)" />
<ellipse cx="352.5" cy="158.9" rx="2.6" ry="3.5" fill="#ddd4c7" opacity="0.33" transform="rotate(2.8 352.5 158.9)" />
<ellipse cx="346.0" cy="436.4" rx="2.9" ry="3.5" fill="#8e857b" opacity="0.30" transform="rotate(130.3 346.0 436.4)" />
<ellipse cx="384.5" cy="194.4" rx="2.4" ry="4.7" fill="#c4baac" opacity="0.59" transform="rotate(148.9 384.5 194.4)" />
<ellipse cx="267.7" cy="362.8" rx="6.0" ry="3.6" fill="#c4baac" opacity="0.63" transform="rotate(35.0 267.7 362.8)" />
<ellipse cx="391.0" cy="210.2" rx="3.1" ry="3.2" fill="#c4baac" opacity="0.63" transform="rotate(176.5 391.0 210.2)" />
<ellipse cx="142.8" cy="105.6" rx="5.9" ry="2.5" fill="#ddd4c7" opacity="0.66" transform="rotate(166.6 142.8 105.6)" />
<ellipse cx="346.1" cy="153.0" rx="3.3" ry="4.4" fill="#c4baac" opacity="0.52" transform="rotate(138.1 346.1 153.0)" />
<ellipse cx="354.3" cy="427.0" rx="5.1" ry="3.4" fill="#c4baac" opacity="0.29" transform="rotate(105.9 354.3 427.0)" />
<ellipse cx="379.0" cy="191.4" rx="3.9" ry="1.4" fill="#ddd4c7" opacity="0.39" transform="rotate(13.1 379.0 191.4)" />
<ellipse cx="401.4" cy="217.4" rx="4.1" ry="1.7" fill="#8e857b" opacity="0.41" transform="rotate(143.7 401.4 217.4)" />
<ellipse cx="200.9" cy="287.5" rx="5.7" ry="2.7" fill="#c4baac" opacity="0.57" transform="rotate(128.1 200.9 287.5)" />
<ellipse cx="242.7" cy="342.9" rx="3.7" ry="1.6" fill="#ddd4c7" opacity="0.68" transform="rotate(78.8 242.7 342.9)" />
<ellipse cx="364.2" cy="183.8" rx="5.3" ry="2.7" fill="#8e857b" opacity="0.54" transform="rotate(0.6 364.2 183.8)" />
<ellipse cx="165.1" cy="229.0" rx="3.8" ry="3.3" fill="#c4baac" opacity="0.57" transform="rotate(141.7 165.1 229.0)" />
<ellipse cx="191.2" cy="283.5" rx="6.4" ry="2.8" fill="#ada295" opacity="0.31" transform="rotate(152.2 191.2 283.5)" />
<ellipse cx="362.1" cy="194.2" rx="6.2" ry="2.6" fill="#ada295" opacity="0.36" transform="rotate(57.3 362.1 194.2)" />
<ellipse cx="214.4" cy="323.8" rx="4.3" ry="2.5" fill="#ddd4c7" opacity="0.44" transform="rotate(167.1 214.4 323.8)" />
<ellipse cx="172.9" cy="266.5" rx="2.5" ry="2.0" fill="#ddd4c7" opacity="0.33" transform="rotate(93.1 172.9 266.5)" />
<ellipse cx="389.7" cy="225.4" rx="3.3" ry="2.6" fill="#ddd4c7" opacity="0.44" transform="rotate(85.2 389.7 225.4)" />
<ellipse cx="362.0" cy="148.3" rx="2.2" ry="3.2" fill="#8e857b" opacity="0.62" transform="rotate(87.0 362.0 148.3)" />
<ellipse cx="159.5" cy="192.1" rx="4.1" ry="3.8" fill="#ddd4c7" opacity="0.62" transform="rotate(49.1 159.5 192.1)" />
<ellipse cx="267.3" cy="360.7" rx="3.0" ry="1.9" fill="#8e857b" opacity="0.57" transform="rotate(153.8 267.3 360.7)" />
<ellipse cx="367.6" cy="170.8" rx="2.2" ry="1.8" fill="#ada295" opacity="0.47" transform="rotate(26.0 367.6 170.8)" />
<ellipse cx="187.6" cy="248.6" rx="2.5" ry="4.5" fill="#8e857b" opacity="0.58" transform="rotate(78.9 187.6 248.6)" />
<ellipse cx="213.4" cy="322.5" rx="6.1" ry="3.0" fill="#ddd4c7" opacity="0.39" transform="rotate(91.5 213.4 322.5)" />
<ellipse cx="329.5" cy="412.5" rx="5.9" ry="1.4" fill="#ddd4c7" opacity="0.42" transform="rotate(3.8 329.5 412.5)" />
<ellipse cx="164.1" cy="83.1" rx="6.1" ry="3.0" fill="#ddd4c7" opacity="0.39" transform="rotate(24.9 164.1 83.1)" />
<ellipse cx="152.6" cy="177.8" rx="5.0" ry="4.3" fill="#8e857b" opacity="0.55" transform="rotate(73.6 152.6 177.8)" />
<ellipse cx="171.7" cy="238.1" rx="2.8" ry="4.1" fill="#8e857b" opacity="0.41" transform="rotate(73.0 171.7 238.1)" />
<ellipse cx="356.3" cy="166.1" rx="2.3" ry="4.7" fill="#ada295" opacity="0.30" transform="rotate(10.0 356.3 166.1)" />
<ellipse cx="157.8" cy="183.4" rx="4.4" ry="3.0" fill="#ddd4c7" opacity="0.54" transform="rotate(0.0 157.8 183.4)" />
<ellipse cx="160.2" cy="133.2" rx="3.2" ry="2.9" fill="#8e857b" opacity="0.55" transform="rotate(153.8 160.2 133.2)" />
<ellipse cx="329.0" cy="422.2" rx="6.1" ry="2.9" fill="#ddd4c7" opacity="0.61" transform="rotate(56.2 329.0 422.2)" />
<ellipse cx="164.4" cy="134.1" rx="5.7" ry="4.2" fill="#c4baac" opacity="0.65" transform="rotate(49.6 164.4 134.1)" />
<ellipse cx="359.4" cy="89.5" rx="4.7" ry="4.2" fill="#8e857b" opacity="0.33" transform="rotate(125.8 359.4 89.5)" />
<ellipse cx="363.9" cy="91.8" rx="2.7" ry="3.6" fill="#ddd4c7" opacity="0.45" transform="rotate(85.2 363.9 91.8)" />
<ellipse cx="405.3" cy="227.7" rx="4.9" ry="1.5" fill="#ada295" opacity="0.48" transform="rotate(67.2 405.3 227.7)" />
<ellipse cx="201.0" cy="324.0" rx="6.0" ry="3.7" fill="#c4baac" opacity="0.44" transform="rotate(44.8 201.0 324.0)" />
<ellipse cx="349.8" cy="139.2" rx="2.8" ry="2.6" fill="#ddd4c7" opacity="0.65" transform="rotate(96.8 349.8 139.2)" />
<ellipse cx="228.2" cy="316.1" rx="5.0" ry="3.6" fill="#ada295" opacity="0.43" transform="rotate(12.7 228.2 316.1)" />
<ellipse cx="156.1" cy="80.5" rx="4.4" ry="2.6" fill="#ddd4c7" opacity="0.46" transform="rotate(103.5 156.1 80.5)" />
<ellipse cx="355.7" cy="187.7" rx="2.5" ry="3.1" fill="#8e857b" opacity="0.65" transform="rotate(132.0 355.7 187.7)" />
<ellipse cx="192.3" cy="271.3" rx="2.1" ry="1.5" fill="#8e857b" opacity="0.39" transform="rotate(126.6 192.3 271.3)" />
<ellipse cx="193.2" cy="261.5" rx="5.1" ry="3.8" fill="#8e857b" opacity="0.54" transform="rotate(90.7 193.2 261.5)" />
<ellipse cx="304.5" cy="384.8" rx="3.6" ry="2.5" fill="#8e857b" opacity="0.53" transform="rotate(29.4 304.5 384.8)" />
<ellipse cx="150.8" cy="102.0" rx="2.3" ry="1.9" fill="#ddd4c7" opacity="0.30" transform="rotate(57.8 150.8 102.0)" />
<ellipse cx="372.9" cy="182.2" rx="4.9" ry="4.2" fill="#8e857b" opacity="0.46" transform="rotate(122.3 372.9 182.2)" />
<ellipse cx="360.0" cy="146.4" rx="6.0" ry="1.8" fill="#ddd4c7" opacity="0.60" transform="rotate(69.1 360.0 146.4)" />
<ellipse cx="315.9" cy="418.4" rx="6.4" ry="2.5" fill="#ddd4c7" opacity="0.53" transform="rotate(14.0 315.9 418.4)" />
<ellipse cx="455.7" cy="241.0" rx="5.2" ry="3.1" fill="#ada295" opacity="0.58" transform="rotate(12.5 455.7 241.0)" />
<ellipse cx="366.0" cy="188.8" rx="3.4" ry="4.7" fill="#8e857b" opacity="0.47" transform="rotate(47.4 366.0 188.8)" />
<ellipse cx="364.2" cy="196.1" rx="4.2" ry="2.8" fill="#ada295" opacity="0.61" transform="rotate(34.9 364.2 196.1)" />
<ellipse cx="375.0" cy="191.1" rx="3.3" ry="4.6" fill="#8e857b" opacity="0.57" transform="rotate(103.7 375.0 191.1)" />
<ellipse cx="211.4" cy="332.2" rx="6.1" ry="3.0" fill="#c4baac" opacity="0.44" transform="rotate(14.1 211.4 332.2)" />
<ellipse cx="368.1" cy="88.6" rx="3.8" ry="2.2" fill="#ddd4c7" opacity="0.64" transform="rotate(135.2 368.1 88.6)" />
<ellipse cx="216.5" cy="312.8" rx="6.2" ry="3.3" fill="#ada295" opacity="0.53" transform="rotate(137.6 216.5 312.8)" />
<ellipse cx="158.3" cy="82.7" rx="4.7" ry="3.1" fill="#c4baac" opacity="0.49" transform="rotate(66.2 158.3 82.7)" />
<ellipse cx="387.4" cy="193.4" rx="2.2" ry="4.6" fill="#ada295" opacity="0.50" transform="rotate(83.6 387.4 193.4)" />
<ellipse cx="354.2" cy="178.2" rx="5.2" ry="3.1" fill="#c4baac" opacity="0.30" transform="rotate(141.0 354.2 178.2)" />
<ellipse cx="144.8" cy="100.8" rx="5.2" ry="2.7" fill="#ddd4c7" opacity="0.66" transform="rotate(127.4 144.8 100.8)" />
<ellipse cx="245.8" cy="353.9" rx="6.1" ry="2.8" fill="#ddd4c7" opacity="0.67" transform="rotate(57.9 245.8 353.9)" />
<ellipse cx="438.4" cy="253.7" rx="2.4" ry="3.3" fill="#ada295" opacity="0.42" transform="rotate(82.9 438.4 253.7)" />
<ellipse cx="187.1" cy="262.4" rx="4.8" ry="2.1" fill="#ddd4c7" opacity="0.59" transform="rotate(112.9 187.1 262.4)" />
<ellipse cx="339.4" cy="417.7" rx="5.3" ry="3.2" fill="#ddd4c7" opacity="0.69" transform="rotate(150.3 339.4 417.7)" />
<ellipse cx="396.7" cy="217.9" rx="2.9" ry="1.5" fill="#8e857b" opacity="0.60" transform="rotate(57.4 396.7 217.9)" />
<ellipse cx="185.1" cy="282.0" rx="5.9" ry="1.8" fill="#ddd4c7" opacity="0.54" transform="rotate(175.9 185.1 282.0)" />
<ellipse cx="365.4" cy="172.4" rx="5.1" ry="1.6" fill="#ada295" opacity="0.67" transform="rotate(25.6 365.4 172.4)" />
<ellipse cx="365.3" cy="171.0" rx="5.4" ry="3.2" fill="#ada295" opacity="0.46" transform="rotate(171.6 365.3 171.0)" />
<ellipse cx="152.6" cy="130.0" rx="4.8" ry="3.9" fill="#c4baac" opacity="0.33" transform="rotate(165.6 152.6 130.0)" />
<ellipse cx="370.2" cy="205.8" rx="3.9" ry="3.3" fill="#8e857b" opacity="0.69" transform="rotate(31.0 370.2 205.8)" />
<ellipse cx="391.3" cy="213.0" rx="2.2" ry="1.8" fill="#c4baac" opacity="0.61" transform="rotate(34.6 391.3 213.0)" />
<ellipse cx="367.6" cy="433.8" rx="5.1" ry="4.5" fill="#c4baac" opacity="0.44" transform="rotate(38.0 367.6 433.8)" />
<ellipse cx="336.4" cy="431.9" rx="3.6" ry="3.4" fill="#c4baac" opacity="0.69" transform="rotate(157.2 336.4 431.9)" />
<ellipse cx="359.6" cy="179.7" rx="5.1" ry="4.7" fill="#c4baac" opacity="0.68" transform="rotate(148.0 359.6 179.7)" />
<ellipse cx="204.8" cy="301.0" rx="2.7" ry="4.5" fill="#ada295" opacity="0.30" transform="rotate(148.0 204.8 301.0)" />
<ellipse cx="296.6" cy="401.7" rx="5.9" ry="4.1" fill="#ddd4c7" opacity="0.36" transform="rotate(57.6 296.6 401.7)" />
<ellipse cx="312.7" cy="404.2" rx="2.8" ry="2.5" fill="#ddd4c7" opacity="0.34" transform="rotate(21.8 312.7 404.2)" />
<ellipse cx="169.4" cy="195.6" rx="4.6" ry="3.3" fill="#ada295" opacity="0.65" transform="rotate(31.4 169.4 195.6)" />
<ellipse cx="215.7" cy="320.7" rx="4.0" ry="2.0" fill="#c4baac" opacity="0.31" transform="rotate(77.1 215.7 320.7)" />
<ellipse cx="284.7" cy="383.1" rx="5.9" ry="4.6" fill="#ada295" opacity="0.38" transform="rotate(95.3 284.7 383.1)" />
<ellipse cx="362.9" cy="176.6" rx="2.0" ry="1.8" fill="#ada295" opacity="0.55" transform="rotate(139.3 362.9 176.6)" />
<ellipse cx="172.0" cy="202.8" rx="5.8" ry="4.6" fill="#c4baac" opacity="0.62" transform="rotate(173.9 172.0 202.8)" />
<ellipse cx="201.4" cy="307.7" rx="4.8" ry="4.4" fill="#8e857b" opacity="0.57" transform="rotate(79.2 201.4 307.7)" />
<ellipse cx="437.8" cy="255.0" rx="3.0" ry="3.5" fill="#8e857b" opacity="0.29" transform="rotate(141.6 437.8 255.0)" />
<ellipse cx="239.7" cy="371.1" rx="4.0" ry="1.8" fill="#ddd4c7" opacity="0.38" transform="rotate(171.2 239.7 371.1)" />
<ellipse cx="397.3" cy="212.0" rx="3.3" ry="2.3" fill="#8e857b" opacity="0.39" transform="rotate(122.6 397.3 212.0)" />
<ellipse cx="359.9" cy="167.8" rx="6.3" ry="4.4" fill="#8e857b" opacity="0.39" transform="rotate(129.0 359.9 167.8)" />
<ellipse cx="240.5" cy="356.7" rx="2.8" ry="1.8" fill="#c4baac" opacity="0.43" transform="rotate(30.3 240.5 356.7)" />
<ellipse cx="364.8" cy="122.3" rx="6.2" ry="4.5" fill="#ddd4c7" opacity="0.34" transform="rotate(33.5 364.8 122.3)" />
<ellipse cx="386.5" cy="203.3" rx="5.7" ry="3.6" fill="#8e857b" opacity="0.64" transform="rotate(49.8 386.5 203.3)" />
<ellipse cx="172.2" cy="197.5" rx="5.9" ry="2.7" fill="#ddd4c7" opacity="0.43" transform="rotate(178.2 172.2 197.5)" />
<ellipse cx="236.6" cy="341.4" rx="5.2" ry="3.4" fill="#ada295" opacity="0.42" transform="rotate(50.9 236.6 341.4)" />
<ellipse cx="437.4" cy="244.2" rx="5.8" ry="4.7" fill="#c4baac" opacity="0.46" transform="rotate(41.6 437.4 244.2)" />
<ellipse cx="354.7" cy="151.4" rx="4.2" ry="3.3" fill="#ddd4c7" opacity="0.28" transform="rotate(12.9 354.7 151.4)" />
<ellipse cx="158.0" cy="72.1" rx="5.8" ry="4.4" fill="#8e857b" opacity="0.55" transform="rotate(91.9 158.0 72.1)" />
<ellipse cx="353.1" cy="137.6" rx="6.3" ry="1.4" fill="#ddd4c7" opacity="0.52" transform="rotate(121.0 353.1 137.6)" />
    <path d="M 418.3 196.9 Q 422.1 194.4 425.2 189.7" stroke="#63875e" stroke-width="2.4" stroke-linecap="round" opacity="0.32" fill="none" />
<path d="M 395.7 165.8 Q 399.8 163.2 403.2 158.5" stroke="#63875e" stroke-width="2.4" stroke-linecap="round" opacity="0.32" fill="none" />
<path d="M 396.0 85.4 Q 400.2 84.3 403.6 82.3" stroke="#63875e" stroke-width="2.4" stroke-linecap="round" opacity="0.32" fill="none" />
<path d="M 310.4 443.9 Q 305.7 446.4 301.9 451.3" stroke="#63875e" stroke-width="2.4" stroke-linecap="round" opacity="0.32" fill="none" />
<path d="M 196.5 360.9 Q 191.4 362.5 187.1 365.5" stroke="#63875e" stroke-width="2.4" stroke-linecap="round" opacity="0.32" fill="none" />
<path d="M 119.8 163.6 Q 115.5 165.1 111.9 167.8" stroke="#63875e" stroke-width="2.4" stroke-linecap="round" opacity="0.32" fill="none" />
<path d="M 395.8 136.0 Q 400.9 134.9 405.1 133.0" stroke="#63875e" stroke-width="2.4" stroke-linecap="round" opacity="0.32" fill="none" />
<path d="M 291.9 433.9 Q 291.4 437.5 291.1 444.2" stroke="#63875e" stroke-width="2.4" stroke-linecap="round" opacity="0.32" fill="none" />
<path d="M 435.6 203.0 Q 440.8 199.6 445.0 193.5" stroke="#63875e" stroke-width="2.4" stroke-linecap="round" opacity="0.32" fill="none" />
<path d="M 406.3 186.1 Q 412.0 184.2 416.7 180.7" stroke="#63875e" stroke-width="2.4" stroke-linecap="round" opacity="0.32" fill="none" />
<path d="M 221.4 375.7 Q 216.5 377.1 212.5 379.8" stroke="#63875e" stroke-width="2.4" stroke-linecap="round" opacity="0.32" fill="none" />
<path d="M 132.6 236.4 Q 125.8 238.2 120.3 241.5" stroke="#63875e" stroke-width="2.4" stroke-linecap="round" opacity="0.32" fill="none" />
<path d="M 415.6 196.0 Q 418.5 191.9 420.9 184.3" stroke="#63875e" stroke-width="2.4" stroke-linecap="round" opacity="0.32" fill="none" />
<path d="M 396.8 167.7 Q 402.4 165.6 406.9 161.6" stroke="#63875e" stroke-width="2.4" stroke-linecap="round" opacity="0.32" fill="none" />
<path d="M 120.5 113.8 Q 115.7 112.5 111.7 109.9" stroke="#63875e" stroke-width="2.4" stroke-linecap="round" opacity="0.32" fill="none" />
<path d="M 115.7 101.2 Q 108.3 102.2 102.1 104.1" stroke="#63875e" stroke-width="2.4" stroke-linecap="round" opacity="0.32" fill="none" />
<path d="M 256.5 404.7 Q 251.9 408.0 248.1 414.2" stroke="#63875e" stroke-width="2.4" stroke-linecap="round" opacity="0.32" fill="none" />
<path d="M 390.6 136.0 Q 395.5 136.2 399.4 136.5" stroke="#63875e" stroke-width="2.4" stroke-linecap="round" opacity="0.32" fill="none" />
<path d="M 245.7 396.4 Q 240.5 399.6 236.3 405.4" stroke="#63875e" stroke-width="2.4" stroke-linecap="round" opacity="0.32" fill="none" />
<path d="M 403.5 174.4 Q 407.8 170.7 411.4 163.7" stroke="#63875e" stroke-width="2.4" stroke-linecap="round" opacity="0.32" fill="none" />
<path d="M 455.7 216.2 Q 459.8 212.5 463.1 205.6" stroke="#63875e" stroke-width="2.4" stroke-linecap="round" opacity="0.32" fill="none" />
<path d="M 297.5 436.2 Q 292.0 440.1 287.6 447.3" stroke="#63875e" stroke-width="2.4" stroke-linecap="round" opacity="0.32" fill="none" />
<path d="M 400.0 165.7 Q 404.4 163.7 408.0 160.1" stroke="#63875e" stroke-width="2.4" stroke-linecap="round" opacity="0.32" fill="none" />
<path d="M 312.9 451.6 Q 309.9 456.4 307.5 465.3" stroke="#63875e" stroke-width="2.4" stroke-linecap="round" opacity="0.32" fill="none" />
<path d="M 464.2 225.6 Q 468.1 222.7 471.3 217.5" stroke="#63875e" stroke-width="2.4" stroke-linecap="round" opacity="0.32" fill="none" />
<path d="M 115.1 94.9 Q 109.4 93.9 104.6 92.0" stroke="#63875e" stroke-width="2.4" stroke-linecap="round" opacity="0.32" fill="none" />
<path d="M 394.9 113.8 Q 401.7 112.1 407.3 109.0" stroke="#63875e" stroke-width="2.4" stroke-linecap="round" opacity="0.32" fill="none" />
<path d="M 125.0 107.5 Q 118.2 108.9 112.6 111.4" stroke="#63875e" stroke-width="2.4" stroke-linecap="round" opacity="0.32" fill="none" />
<path d="M 252.3 402.7 Q 249.1 405.8 246.5 411.5" stroke="#63875e" stroke-width="2.4" stroke-linecap="round" opacity="0.32" fill="none" />
<path d="M 260.9 414.1 Q 257.0 416.4 253.8 420.5" stroke="#63875e" stroke-width="2.4" stroke-linecap="round" opacity="0.32" fill="none" />
<path d="M 151.4 289.3 Q 145.5 291.0 140.7 294.2" stroke="#63875e" stroke-width="2.4" stroke-linecap="round" opacity="0.32" fill="none" />
<path d="M 219.8 377.3 Q 213.2 380.3 207.8 385.8" stroke="#63875e" stroke-width="2.4" stroke-linecap="round" opacity="0.32" fill="none" />
<path d="M 118.5 85.4 Q 113.0 85.2 108.5 85.0" stroke="#63875e" stroke-width="2.4" stroke-linecap="round" opacity="0.32" fill="none" />
<path d="M 121.4 126.5 Q 114.5 125.2 108.8 122.7" stroke="#63875e" stroke-width="2.4" stroke-linecap="round" opacity="0.32" fill="none" />
<path d="M 401.2 174.4 Q 406.8 173.7 411.3 172.4" stroke="#63875e" stroke-width="2.4" stroke-linecap="round" opacity="0.32" fill="none" />
<path d="M 126.4 163.1 Q 121.7 164.3 117.9 166.3" stroke="#63875e" stroke-width="2.4" stroke-linecap="round" opacity="0.32" fill="none" />
<path d="M 391.7 168.1 Q 396.1 167.4 399.6 166.2" stroke="#63875e" stroke-width="2.4" stroke-linecap="round" opacity="0.32" fill="none" />
<path d="M 291.5 434.5 Q 290.1 437.1 288.9 441.8" stroke="#63875e" stroke-width="2.4" stroke-linecap="round" opacity="0.32" fill="none" />
<path d="M 128.1 176.6 Q 122.8 176.7 118.5 176.8" stroke="#63875e" stroke-width="2.4" stroke-linecap="round" opacity="0.32" fill="none" />
<path d="M 298.7 434.1 Q 294.6 437.6 291.3 444.2" stroke="#63875e" stroke-width="2.4" stroke-linecap="round" opacity="0.32" fill="none" />
<path d="M 164.0 314.6 Q 160.5 315.6 157.6 317.5" stroke="#63875e" stroke-width="2.4" stroke-linecap="round" opacity="0.32" fill="none" />
<path d="M 387.2 137.6 Q 391.6 137.7 395.3 137.9" stroke="#63875e" stroke-width="2.4" stroke-linecap="round" opacity="0.32" fill="none" />
<path d="M 420.8 198.2 Q 422.8 193.4 424.3 184.5" stroke="#63875e" stroke-width="2.4" stroke-linecap="round" opacity="0.32" fill="none" />
<path d="M 460.3 220.3 Q 462.5 216.5 464.2 209.5" stroke="#63875e" stroke-width="2.4" stroke-linecap="round" opacity="0.32" fill="none" />
<path d="M 399.6 176.3 Q 401.4 174.0 403.0 169.7" stroke="#63875e" stroke-width="2.4" stroke-linecap="round" opacity="0.32" fill="none" />
<path d="M 146.3 281.2 Q 140.7 281.2 136.2 281.3" stroke="#63875e" stroke-width="2.4" stroke-linecap="round" opacity="0.32" fill="none" />
<path d="M 125.9 101.2 Q 119.6 101.7 114.4 102.7" stroke="#63875e" stroke-width="2.4" stroke-linecap="round" opacity="0.32" fill="none" />
<path d="M 294.0 436.2 Q 290.2 439.8 287.0 446.3" stroke="#63875e" stroke-width="2.4" stroke-linecap="round" opacity="0.32" fill="none" />
    <path d="M 256.0 55.9 L 256.0 136.0 Q 256.0 256.0 359.9 316.0 L 429.3 356.1" fill="none" stroke="url(#water-fill)" stroke-width="140.0"
          stroke-linecap="butt" />
    <path d="M 256.0 55.9 L 256.0 136.0 Q 256.0 256.0 359.9 316.0 L 429.3 356.1" fill="none" stroke="url(#water-shade)" stroke-width="140.0"
          stroke-linecap="butt" />
    <path d="M 256.0 55.9 L 256.0 136.0 Q 256.0 256.0 359.9 316.0 L 429.3 356.1" fill="none" stroke="#d5f3f6" stroke-width="140.0"
          stroke-linecap="butt" opacity="0.28" />
    <path d="M 334.5 321.3 Q 349.4 303.0 360.8 282.3" stroke="#81cbd8" stroke-width="1.26" stroke-linecap="round" opacity="0.26" fill="none" />
<path d="M 223.9 163.1 Q 254.6 160.3 285.3 157.3" stroke="#a6dde9" stroke-width="1.92" stroke-linecap="round" opacity="0.28" fill="none" />
<path d="M 394.5 352.3 Q 403.3 339.9 409.7 326.0" stroke="#a6dde9" stroke-width="1.61" stroke-linecap="round" opacity="0.23" fill="none" />
<path d="M 230.6 215.3 Q 265.4 206.9 298.6 193.8" stroke="#81cbd8" stroke-width="1.44" stroke-linecap="round" opacity="0.27" fill="none" />
<path d="M 227.0 216.4 Q 262.0 203.3 298.2 194.0" stroke="#c6eef8" stroke-width="1.59" stroke-linecap="round" opacity="0.24" fill="none" />
<path d="M 294.4 300.8 Q 314.3 285.5 329.1 265.2" stroke="#a6dde9" stroke-width="1.32" stroke-linecap="round" opacity="0.26" fill="none" />
<path d="M 224.0 206.9 Q 265.9 191.8 309.6 183.8" stroke="#c6eef8" stroke-width="1.63" stroke-linecap="round" opacity="0.26" fill="none" />
<path d="M 293.8 297.0 Q 321.1 274.4 343.8 247.1" stroke="#81cbd8" stroke-width="1.01" stroke-linecap="round" opacity="0.17" fill="none" />
<path d="M 287.2 286.3 Q 306.7 272.6 322.6 254.8" stroke="#c6eef8" stroke-width="1.89" stroke-linecap="round" opacity="0.32" fill="none" />
<path d="M 242.2 205.2 Q 267.3 199.3 291.7 191.1" stroke="#a6dde9" stroke-width="1.25" stroke-linecap="round" opacity="0.16" fill="none" />
<path d="M 247.6 253.5 Q 279.7 240.1 308.6 220.6" stroke="#c6eef8" stroke-width="1.36" stroke-linecap="round" opacity="0.32" fill="none" />
<path d="M 282.0 295.2 Q 303.0 271.1 328.9 252.2" stroke="#a6dde9" stroke-width="1.74" stroke-linecap="round" opacity="0.18" fill="none" />
<path d="M 301.6 321.9 Q 324.8 288.0 353.8 259.0" stroke="#a6dde9" stroke-width="1.14" stroke-linecap="round" opacity="0.34" fill="none" />
<path d="M 331.9 325.2 Q 351.8 301.0 366.7 273.6" stroke="#81cbd8" stroke-width="1.63" stroke-linecap="round" opacity="0.22" fill="none" />
<path d="M 239.7 136.0 Q 258.4 139.7 277.2 136.0" stroke="#a6dde9" stroke-width="1.48" stroke-linecap="round" opacity="0.34" fill="none" />
<path d="M 222.4 136.0 Q 256.4 138.6 290.4 136.0" stroke="#c6eef8" stroke-width="1.88" stroke-linecap="round" opacity="0.29" fill="none" />
<path d="M 387.9 363.7 Q 401.3 338.2 416.7 313.9" stroke="#81cbd8" stroke-width="1.84" stroke-linecap="round" opacity="0.21" fill="none" />
<path d="M 231.1 165.7 Q 265.2 163.5 298.9 158.5" stroke="#a6dde9" stroke-width="2.02" stroke-linecap="round" opacity="0.20" fill="none" />
<path d="M 277.6 303.7 Q 299.5 282.3 322.2 261.7" stroke="#81cbd8" stroke-width="1.32" stroke-linecap="round" opacity="0.23" fill="none" />
<path d="M 218.0 123.3 Q 250.9 120.3 283.7 123.3" stroke="#a6dde9" stroke-width="1.96" stroke-linecap="round" opacity="0.15" fill="none" />
<path d="M 235.7 113.8 Q 257.8 116.5 279.9 113.8" stroke="#c6eef8" stroke-width="1.33" stroke-linecap="round" opacity="0.23" fill="none" />
<path d="M 231.1 191.8 Q 256.2 189.1 280.1 181.4" stroke="#81cbd8" stroke-width="2.05" stroke-linecap="round" opacity="0.28" fill="none" />
<path d="M 367.7 362.6 Q 382.4 333.6 400.2 306.4" stroke="#81cbd8" stroke-width="1.00" stroke-linecap="round" opacity="0.22" fill="none" />
<path d="M 246.2 176.3 Q 259.9 176.4 272.9 172.1" stroke="#81cbd8" stroke-width="1.99" stroke-linecap="round" opacity="0.29" fill="none" />
<path d="M 368.9 354.6 Q 385.7 329.8 398.8 302.9" stroke="#a6dde9" stroke-width="1.52" stroke-linecap="round" opacity="0.17" fill="none" />
<path d="M 316.2 304.3 Q 324.4 289.8 337.2 279.0" stroke="#c6eef8" stroke-width="1.50" stroke-linecap="round" opacity="0.34" fill="none" />
<path d="M 224.2 104.4 Q 252.9 107.8 281.7 104.4" stroke="#c6eef8" stroke-width="1.07" stroke-linecap="round" opacity="0.21" fill="none" />
<path d="M 269.3 251.7 Q 286.7 242.4 303.1 231.5" stroke="#a6dde9" stroke-width="1.90" stroke-linecap="round" opacity="0.29" fill="none" />
    <path d="M 256.0 83.9 L 256.0 136.0 Q 256.0 256.0 359.9 316.0 L 405.1 342.1" fill="none" stroke="#142e36" stroke-width="1.8" opacity="0.18" />
  </g>
</svg>
