<svg xmlns="http://www.w3.org/2000/svg" width="512" height="512" viewBox="0 0 512 512">
  <defs>
    <clipPath id="hex-clip">
      <polygon points="48.0,256.0 152.0,75.9 360.0,75.9 464.0,256.0 360.0,436.1 152.0,436.1" />
    </clipPath>
    <linearGradient id="bank-fill" x1="0%" y1="0%" x2="100%" y2="0%">
      <stop offset="0%" stop-color="#8f8a7d" />
      <stop offset="12%" stop-color="#b7b0a2" />
      <stop offset="50%" stop-color="#dfd6c9" />
      <stop offset="88%" stop-color="#b7b0a2" />
      <stop offset="100%" stop-color="#8f8a7d" />
    </linearGradient>
    <linearGradient id="water-fill" x1="0%" y1="0%" x2="100%" y2="0%">
      <stop offset="0%" stop-color="#295f69" />
      <stop offset="20%" stop-color="#327884" />
      <stop offset="50%" stop-color="#5ea4af" />
      <stop offset="80%" stop-color="#327884" />
      <stop offset="100%" stop-color="#295f69" />
    </linearGradient>
    <linearGradient id="water-shade" x1="0%" y1="0%" x2="0%" y2="100%">
      <stop offset="0%" stop-color="#8dd6de" stop-opacity="0.38" />
      <stop offset="35%" stop-color="#ffffff" stop-opacity="0.06" />
      <stop offset="100%" stop-color="#11343e" stop-opacity="0.24" />
    </linearGradient>
    <filter id="soft-shadow" x="-20%" y="-20%" width="140%" height="140%">
      <feDropShadow dx="0" dy="6" stdDeviation="8" flood-color="#2b2418" flood-opacity="0.35" />
    </filter>
  </defs>

  <g clip-path="url(#hex-clip)">
    <path d="M 256.0 55.9 L 256.0 456.1" fill="none" stroke="url(#bank-fill)" stroke-width="148.0"
          stroke-linecap="butt" opacity="0.95" filter="url(#soft-shadow)" />
    <ellipse cx="196.6" cy="335.8" rx="5.3" ry="4.0" fill="#ada295" opacity="0.54" transform="rotate(133.0 196.6 335.8)" />
<ellipse cx="202.7" cy="363.7" rx="3.5" ry="2.8" fill="#c4baac" opacity="0.67" transform="rotate(122.1 202.7 363.7)" />
<ellipse cx="195.2" cy="354.4" rx="3.6" ry="2.2" fill="#8e857b" opacity="0.59" transform="rotate(9.5 195.2 354.4)" />
<ellipse cx="311.6" cy="359.5" rx="5.4" ry="3.1" fill="#ada295" opacity="0.67" transform="rotate(15.5 311.6 359.5)" />
<ellipse cx="309.1" cy="324.3" rx="3.3" ry="3.5" fill="#c4baac" opacity="0.51" transform="rotate(37.1 309.1 324.3)" />
<ellipse cx="202.6" cy="388.5" rx="5.5" ry="3.1" fill="#ada295" opacity="0.32" transform="rotate(50.6 202.6 388.5)" />
<ellipse cx="198.2" cy="377.8" rx="4.3" ry="2.3" fill="#c4baac" opacity="0.66" transform="rotate(5.8 198.2 377.8)" />
<ellipse cx="196.4" cy="242.8" rx="2.5" ry="3.7" fill="#ddd4c7" opacity="0.42" transform="rotate(142.7 196.4 242.8)" />
<ellipse cx="194.5" cy="382.0" rx="2.8" ry="3.7" fill="#ddd4c7" opacity="0.58" transform="rotate(163.6 194.5 382.0)" />
<ellipse cx="195.4" cy="180.9" rx="3.3" ry="1.9" fill="#ada295" opacity="0.68" transform="rotate(31.9 195.4 180.9)" />
<ellipse cx="308.0" cy="113.1" rx="2.2" ry="1.9" fill="#8e857b" opacity="0.44" transform="rotate(79.9 308.0 113.1)" />
<ellipse cx="315.3" cy="172.7" rx="5.2" ry="3.3" fill="#ddd4c7" opacity="0.42" transform="rotate(39.4 315.3 172.7)" />
<ellipse cx="308.7" cy="135.8" rx="2.6" ry="1.8" fill="#8e857b" opacity="0.37" transform="rotate(151.1 308.7 135.8)" />
<ellipse cx="203.1" cy="410.5" rx="2.9" ry="2.6" fill="#ddd4c7" opacity="0.55" transform="rotate(27.0 203.1 410.5)" />
<ellipse cx="201.0" cy="348.6" rx="5.2" ry="2.8" fill="#8e857b" opacity="0.59" transform="rotate(78.7 201.0 348.6)" />
<ellipse cx="312.1" cy="325.5" rx="3.9" ry="3.7" fill="#ddd4c7" opacity="0.47" transform="rotate(62.1 312.1 325.5)" />
<ellipse cx="195.6" cy="99.4" rx="5.4" ry="3.4" fill="#ada295" opacity="0.66" transform="rotate(18.2 195.6 99.4)" />
<ellipse cx="311.1" cy="370.2" rx="2.4" ry="1.8" fill="#ada295" opacity="0.57" transform="rotate(174.0 311.1 370.2)" />
<ellipse cx="311.2" cy="240.6" rx="2.5" ry="2.5" fill="#8e857b" opacity="0.63" transform="rotate(18.3 311.2 240.6)" />
<ellipse cx="311.1" cy="211.4" rx="2.5" ry="2.2" fill="#ddd4c7" opacity="0.58" transform="rotate(72.7 311.1 211.4)" />
<ellipse cx="314.0" cy="84.4" rx="3.1" ry="2.1" fill="#8e857b" opacity="0.30" transform="rotate(103.4 314.0 84.4)" />
<ellipse cx="310.3" cy="395.9" rx="3.9" ry="2.4" fill="#ada295" opacity="0.32" transform="rotate(141.3 310.3 395.9)" />
<ellipse cx="202.1" cy="398.8" rx="2.5" ry="1.8" fill="#8e857b" opacity="0.64" transform="rotate(0.8 202.1 398.8)" />
<ellipse cx="199.0" cy="433.0" rx="3.4" ry="3.3" fill="#ada295" opacity="0.40" transform="rotate(32.8 199.0 433.0)" />
<ellipse cx="201.1" cy="207.8" rx="5.0" ry="1.7" fill="#c4baac" opacity="0.45" transform="rotate(97.4 201.1 207.8)" />
<ellipse cx="199.6" cy="174.4" rx="5.4" ry="1.6" fill="#ada295" opacity="0.59" transform="rotate(166.4 199.6 174.4)" />
<ellipse cx="197.3" cy="389.3" rx="4.3" ry="3.3" fill="#ddd4c7" opacity="0.33" transform="rotate(103.8 197.3 389.3)" />
<ellipse cx="312.3" cy="375.9" rx="3.1" ry="1.7" fill="#ddd4c7" opacity="0.69" transform="rotate(136.0 312.3 375.9)" />
<ellipse cx="317.2" cy="149.2" rx="4.9" ry="2.3" fill="#ada295" opacity="0.34" transform="rotate(122.9 317.2 149.2)" />
<ellipse cx="315.8" cy="171.7" rx="3.1" ry="3.0" fill="#ada295" opacity="0.53" transform="rotate(45.3 315.8 171.7)" />
<ellipse cx="196.2" cy="229.4" rx="2.9" ry="2.9" fill="#c4baac" opacity="0.69" transform="rotate(23.1 196.2 229.4)" />
<ellipse cx="198.0" cy="253.1" rx="2.2" ry="1.8" fill="#ada295" opacity="0.48" transform="rotate(137.8 198.0 253.1)" />
<ellipse cx="317.0" cy="189.7" rx="2.6" ry="3.7" fill="#ddd4c7" opacity="0.33" transform="rotate(68.5 317.0 189.7)" />
<ellipse cx="196.4" cy="156.1" rx="3.1" ry="2.6" fill="#8e857b" opacity="0.60" transform="rotate(153.7 196.4 156.1)" />
<ellipse cx="198.5" cy="219.6" rx="5.5" ry="2.9" fill="#c4baac" opacity="0.38" transform="rotate(151.6 198.5 219.6)" />
<ellipse cx="194.9" cy="251.2" rx="2.4" ry="2.7" fill="#ddd4c7" opacity="0.51" transform="rotate(101.8 194.9 251.2)" />
<ellipse cx="201.6" cy="177.4" rx="3.0" ry="2.1" fill="#c4baac" opacity="0.62" transform="rotate(95.9 201.6 177.4)" />
<ellipse cx="317.4" cy="313.5" rx="2.3" ry="1.8" fill="#ada295" opacity="0.65" transform="rotate(123.1 317.4 313.5)" />
<ellipse cx="310.9" cy="235.1" rx="5.1" ry="3.6" fill="#ddd4c7" opacity="0.32" transform="rotate(41.0 310.9 235.1)" />
<ellipse cx="309.6" cy="363.1" rx="2.0" ry="3.0" fill="#c4baac" opacity="0.42" transform="rotate(114.2 309.6 363.1)" />
<ellipse cx="310.9" cy="136.9" rx="3.6" ry="3.3" fill="#8e857b" opacity="0.36" transform="rotate(141.8 310.9 136.9)" />
<ellipse cx="308.1" cy="160.0" rx="2.0" ry="1.8" fill="#ada295" opacity="0.45" transform="rotate(147.8 308.1 160.0)" />
<ellipse cx="200.9" cy="299.5" rx="3.0" ry="3.6" fill="#c4baac" opacity="0.41" transform="rotate(175.9 200.9 299.5)" />
<ellipse cx="315.3" cy="282.7" rx="3.6" ry="2.0" fill="#8e857b" opacity="0.66" transform="rotate(84.0 315.3 282.7)" />
<ellipse cx="202.9" cy="265.6" rx="5.3" ry="3.7" fill="#c4baac" opacity="0.31" transform="rotate(169.2 202.9 265.6)" />
<ellipse cx="200.7" cy="147.3" rx="3.9" ry="1.5" fill="#ddd4c7" opacity="0.60" transform="rotate(135.8 200.7 147.3)" />
<ellipse cx="194.1" cy="147.4" rx="5.0" ry="3.0" fill="#c4baac" opacity="0.35" transform="rotate(9.8 194.1 147.4)" />
<ellipse cx="310.1" cy="218.8" rx="4.2" ry="2.9" fill="#ddd4c7" opacity="0.39" transform="rotate(147.8 310.1 218.8)" />
<ellipse cx="203.8" cy="423.4" rx="4.8" ry="2.7" fill="#ada295" opacity="0.47" transform="rotate(129.6 203.8 423.4)" />
<ellipse cx="194.8" cy="212.4" rx="3.6" ry="2.2" fill="#8e857b" opacity="0.49" transform="rotate(150.6 194.8 212.4)" />
<ellipse cx="198.3" cy="96.5" rx="2.9" ry="2.5" fill="#ddd4c7" opacity="0.35" transform="rotate(151.4 198.3 96.5)" />
<ellipse cx="196.9" cy="196.2" rx="4.1" ry="3.6" fill="#c4baac" opacity="0.66" transform="rotate(61.8 196.9 196.2)" />
<ellipse cx="194.4" cy="434.8" rx="4.0" ry="2.0" fill="#ada295" opacity="0.50" transform="rotate(125.2 194.4 434.8)" />
<ellipse cx="308.1" cy="194.0" rx="5.0" ry="2.5" fill="#ada295" opacity="0.51" transform="rotate(146.7 308.1 194.0)" />
<ellipse cx="195.2" cy="395.2" rx="5.4" ry="3.8" fill="#c4baac" opacity="0.54" transform="rotate(58.7 195.2 395.2)" />
<ellipse cx="194.6" cy="418.3" rx="4.5" ry="2.6" fill="#c4baac" opacity="0.54" transform="rotate(39.8 194.6 418.3)" />
<ellipse cx="198.9" cy="342.6" rx="3.3" ry="3.9" fill="#8e857b" opacity="0.56" transform="rotate(10.0 198.9 342.6)" />
<ellipse cx="308.7" cy="324.2" rx="3.7" ry="3.9" fill="#ddd4c7" opacity="0.33" transform="rotate(6.8 308.7 324.2)" />
<ellipse cx="199.6" cy="218.4" rx="4.7" ry="3.0" fill="#8e857b" opacity="0.37" transform="rotate(70.1 199.6 218.4)" />
<ellipse cx="315.3" cy="94.6" rx="3.1" ry="3.3" fill="#ada295" opacity="0.68" transform="rotate(116.7 315.3 94.6)" />
<ellipse cx="311.6" cy="389.5" rx="3.1" ry="3.4" fill="#8e857b" opacity="0.29" transform="rotate(46.3 311.6 389.5)" />
<ellipse cx="202.0" cy="321.0" rx="2.6" ry="3.4" fill="#ddd4c7" opacity="0.59" transform="rotate(76.4 202.0 321.0)" />
<ellipse cx="197.0" cy="113.4" rx="2.3" ry="3.8" fill="#ada295" opacity="0.38" transform="rotate(44.5 197.0 113.4)" />
<ellipse cx="202.7" cy="342.6" rx="5.1" ry="2.4" fill="#c4baac" opacity="0.58" transform="rotate(13.4 202.7 342.6)" />
<ellipse cx="314.3" cy="79.4" rx="3.9" ry="1.6" fill="#ada295" opacity="0.33" transform="rotate(118.6 314.3 79.4)" />
<ellipse cx="200.1" cy="243.1" rx="3.5" ry="2.6" fill="#c4baac" opacity="0.50" transform="rotate(152.9 200.1 243.1)" />
<ellipse cx="310.5" cy="328.2" rx="4.6" ry="2.7" fill="#ddd4c7" opacity="0.68" transform="rotate(162.0 310.5 328.2)" />
<ellipse cx="309.0" cy="89.3" rx="3.6" ry="3.6" fill="#8e857b" opacity="0.43" transform="rotate(69.0 309.0 89.3)" />
<ellipse cx="196.9" cy="183.0" rx="4.0" ry="2.1" fill="#8e857b" opacity="0.59" transform="rotate(141.1 196.9 183.0)" />
<ellipse cx="311.1" cy="323.4" rx="5.0" ry="3.4" fill="#ddd4c7" opacity="0.43" transform="rotate(100.7 311.1 323.4)" />
<ellipse cx="197.4" cy="217.0" rx="4.7" ry="3.1" fill="#c4baac" opacity="0.56" transform="rotate(79.2 197.4 217.0)" />
<ellipse cx="312.4" cy="97.3" rx="4.6" ry="1.6" fill="#ddd4c7" opacity="0.64" transform="rotate(27.8 312.4 97.3)" />
<ellipse cx="201.6" cy="342.8" rx="4.6" ry="2.1" fill="#8e857b" opacity="0.55" transform="rotate(164.0 201.6 342.8)" />
<ellipse cx="316.2" cy="294.5" rx="4.6" ry="2.0" fill="#ada295" opacity="0.45" transform="rotate(173.3 316.2 294.5)" />
<ellipse cx="317.8" cy="329.6" rx="3.0" ry="2.7" fill="#ddd4c7" opacity="0.67" transform="rotate(30.3 317.8 329.6)" />
<ellipse cx="195.4" cy="319.6" rx="4.2" ry="2.8" fill="#8e857b" opacity="0.63" transform="rotate(74.0 195.4 319.6)" />
<ellipse cx="194.6" cy="410.5" rx="2.5" ry="2.0" fill="#ada295" opacity="0.61" transform="rotate(25.8 194.6 410.5)" />
<ellipse cx="311.5" cy="201.4" rx="2.1" ry="3.3" fill="#ddd4c7" opacity="0.39" transform="rotate(159.4 311.5 201.4)" />
<ellipse cx="202.1" cy="174.8" rx="2.9" ry="3.9" fill="#c4baac" opacity="0.54" transform="rotate(42.2 202.1 174.8)" />
<ellipse cx="311.4" cy="159.6" rx="4.4" ry="2.9" fill="#ada295" opacity="0.53" transform="rotate(86.6 311.4 159.6)" />
<ellipse cx="310.6" cy="172.0" rx="4.9" ry="2.2" fill="#ddd4c7" opacity="0.52" transform="rotate(31.2 310.6 172.0)" />
<ellipse cx="196.2" cy="261.3" rx="3.1" ry="3.7" fill="#8e857b" opacity="0.58" transform="rotate(27.9 196.2 261.3)" />
<ellipse cx="311.8" cy="201.0" rx="4.5" ry="1.5" fill="#ada295" opacity="0.63" transform="rotate(35.8 311.8 201.0)" />
<ellipse cx="195.2" cy="118.3" rx="5.0" ry="2.5" fill="#ada295" opacity="0.58" transform="rotate(86.6 195.2 118.3)" />
<ellipse cx="203.2" cy="162.3" rx="5.0" ry="2.6" fill="#ddd4c7" opacity="0.38" transform="rotate(39.4 203.2 162.3)" />
<ellipse cx="316.3" cy="136.8" rx="3.9" ry="2.7" fill="#8e857b" opacity="0.50" transform="rotate(125.3 316.3 136.8)" />
<ellipse cx="200.6" cy="142.7" rx="3.0" ry="2.0" fill="#ddd4c7" opacity="0.62" transform="rotate(69.1 200.6 142.7)" />
<ellipse cx="199.6" cy="131.4" rx="4.0" ry="3.3" fill="#8e857b" opacity="0.30" transform="rotate(100.1 199.6 131.4)" />
<ellipse cx="312.7" cy="132.9" rx="3.1" ry="2.4" fill="#8e857b" opacity="0.56" transform="rotate(17.1 312.7 132.9)" />
<ellipse cx="194.5" cy="170.0" rx="4.3" ry="3.8" fill="#ddd4c7" opacity="0.33" transform="rotate(56.7 194.5 170.0)" />
<ellipse cx="202.8" cy="365.9" rx="2.5" ry="2.6" fill="#ada295" opacity="0.42" transform="rotate(81.1 202.8 365.9)" />
<ellipse cx="197.0" cy="151.7" rx="5.3" ry="3.5" fill="#ada295" opacity="0.48" transform="rotate(15.0 197.0 151.7)" />
<ellipse cx="315.6" cy="129.7" rx="3.2" ry="3.1" fill="#8e857b" opacity="0.64" transform="rotate(29.9 315.6 129.7)" />
<ellipse cx="311.7" cy="360.3" rx="2.7" ry="2.6" fill="#ddd4c7" opacity="0.38" transform="rotate(86.3 311.7 360.3)" />
<ellipse cx="197.5" cy="202.4" rx="4.4" ry="1.5" fill="#c4baac" opacity="0.48" transform="rotate(167.4 197.5 202.4)" />
<ellipse cx="195.7" cy="136.7" rx="2.7" ry="3.2" fill="#8e857b" opacity="0.66" transform="rotate(15.7 195.7 136.7)" />
<ellipse cx="200.2" cy="382.8" rx="4.9" ry="2.3" fill="#ada295" opacity="0.58" transform="rotate(176.3 200.2 382.8)" />
<ellipse cx="197.1" cy="242.7" rx="2.4" ry="2.5" fill="#ada295" opacity="0.63" transform="rotate(63.8 197.1 242.7)" />
<ellipse cx="200.3" cy="115.6" rx="4.2" ry="3.1" fill="#ddd4c7" opacity="0.55" transform="rotate(87.4 200.3 115.6)" />
<ellipse cx="310.6" cy="313.5" rx="4.0" ry="1.5" fill="#8e857b" opacity="0.62" transform="rotate(16.1 310.6 313.5)" />
<ellipse cx="200.9" cy="330.3" rx="2.2" ry="3.2" fill="#ddd4c7" opacity="0.65" transform="rotate(29.6 200.9 330.3)" />
<ellipse cx="197.8" cy="318.7" rx="4.2" ry="2.7" fill="#c4baac" opacity="0.51" transform="rotate(35.3 197.8 318.7)" />
<ellipse cx="309.7" cy="307.8" rx="2.6" ry="1.4" fill="#ada295" opacity="0.56" transform="rotate(24.7 309.7 307.8)" />
<ellipse cx="194.8" cy="431.4" rx="5.5" ry="1.5" fill="#8e857b" opacity="0.36" transform="rotate(11.0 194.8 431.4)" />
<ellipse cx="198.1" cy="382.5" rx="3.2" ry="3.2" fill="#ddd4c7" opacity="0.51" transform="rotate(7.8 198.1 382.5)" />
<ellipse cx="197.0" cy="81.2" rx="3.6" ry="3.0" fill="#8e857b" opacity="0.28" transform="rotate(42.4 197.0 81.2)" />
<ellipse cx="199.1" cy="165.0" rx="5.1" ry="2.6" fill="#c4baac" opacity="0.51" transform="rotate(166.0 199.1 165.0)" />
<ellipse cx="195.0" cy="162.4" rx="4.2" ry="1.6" fill="#ddd4c7" opacity="0.34" transform="rotate(131.7 195.0 162.4)" />
<ellipse cx="198.0" cy="123.0" rx="3.9" ry="1.7" fill="#ddd4c7" opacity="0.42" transform="rotate(155.2 198.0 123.0)" />
<ellipse cx="203.2" cy="103.8" rx="3.9" ry="1.8" fill="#ada295" opacity="0.41" transform="rotate(96.4 203.2 103.8)" />
<ellipse cx="194.5" cy="281.5" rx="3.9" ry="3.5" fill="#ddd4c7" opacity="0.63" transform="rotate(169.3 194.5 281.5)" />
<ellipse cx="316.1" cy="346.7" rx="3.2" ry="1.7" fill="#ddd4c7" opacity="0.61" transform="rotate(120.7 316.1 346.7)" />
<ellipse cx="308.4" cy="101.7" rx="2.4" ry="2.2" fill="#8e857b" opacity="0.33" transform="rotate(86.1 308.4 101.7)" />
<ellipse cx="316.8" cy="185.6" rx="4.5" ry="2.5" fill="#ada295" opacity="0.49" transform="rotate(86.5 316.8 185.6)" />
<ellipse cx="311.2" cy="167.2" rx="2.2" ry="1.9" fill="#ada295" opacity="0.37" transform="rotate(114.7 311.2 167.2)" />
<ellipse cx="315.8" cy="385.5" rx="4.0" ry="1.7" fill="#ddd4c7" opacity="0.39" transform="rotate(143.8 315.8 385.5)" />
<ellipse cx="202.1" cy="366.0" rx="3.8" ry="3.9" fill="#c4baac" opacity="0.45" transform="rotate(162.4 202.1 366.0)" />
<ellipse cx="309.6" cy="396.6" rx="3.0" ry="2.2" fill="#c4baac" opacity="0.34" transform="rotate(92.4 309.6 396.6)" />
<ellipse cx="311.6" cy="155.5" rx="4.3" ry="2.3" fill="#8e857b" opacity="0.45" transform="rotate(170.8 311.6 155.5)" />
<ellipse cx="200.4" cy="330.7" rx="4.4" ry="2.4" fill="#ddd4c7" opacity="0.46" transform="rotate(117.9 200.4 330.7)" />
<ellipse cx="311.0" cy="384.0" rx="5.5" ry="1.5" fill="#ada295" opacity="0.43" transform="rotate(167.7 311.0 384.0)" />
<ellipse cx="314.4" cy="140.0" rx="2.3" ry="3.4" fill="#ada295" opacity="0.53" transform="rotate(167.7 314.4 140.0)" />
<ellipse cx="197.5" cy="312.8" rx="2.4" ry="3.7" fill="#ddd4c7" opacity="0.37" transform="rotate(59.7 197.5 312.8)" />
<ellipse cx="310.6" cy="80.2" rx="4.6" ry="1.7" fill="#ddd4c7" opacity="0.53" transform="rotate(161.6 310.6 80.2)" />
<ellipse cx="316.9" cy="431.9" rx="5.4" ry="2.5" fill="#ddd4c7" opacity="0.43" transform="rotate(70.7 316.9 431.9)" />
<ellipse cx="197.0" cy="289.7" rx="3.3" ry="1.6" fill="#c4baac" opacity="0.39" transform="rotate(86.9 197.0 289.7)" />
<ellipse cx="314.8" cy="377.4" rx="3.9" ry="2.9" fill="#c4baac" opacity="0.35" transform="rotate(54.4 314.8 377.4)" />
<ellipse cx="198.0" cy="289.1" rx="3.8" ry="4.0" fill="#c4baac" opacity="0.52" transform="rotate(107.2 198.0 289.1)" />
<ellipse cx="315.6" cy="413.0" rx="2.5" ry="3.1" fill="#ddd4c7" opacity="0.51" transform="rotate(9.9 315.6 413.0)" />
<ellipse cx="197.0" cy="266.7" rx="2.9" ry="2.8" fill="#8e857b" opacity="0.48" transform="rotate(102.8 197.0 266.7)" />
<ellipse cx="195.4" cy="171.1" rx="3.3" ry="1.9" fill="#c4baac" opacity="0.35" transform="rotate(126.7 195.4 171.1)" />
<ellipse cx="203.6" cy="395.1" rx="4.2" ry="2.2" fill="#c4baac" opacity="0.52" transform="rotate(127.5 203.6 395.1)" />
<ellipse cx="316.3" cy="192.8" rx="3.1" ry="4.0" fill="#ada295" opacity="0.43" transform="rotate(53.0 316.3 192.8)" />
<ellipse cx="315.4" cy="403.7" rx="3.8" ry="1.6" fill="#ada295" opacity="0.42" transform="rotate(46.6 315.4 403.7)" />
<ellipse cx="201.0" cy="169.0" rx="5.0" ry="2.1" fill="#c4baac" opacity="0.70" transform="rotate(57.9 201.0 169.0)" />
<ellipse cx="199.2" cy="185.7" rx="3.6" ry="2.1" fill="#ada295" opacity="0.51" transform="rotate(152.1 199.2 185.7)" />
<ellipse cx="195.1" cy="210.9" rx="2.7" ry="2.0" fill="#c4baac" opacity="0.43" transform="rotate(158.2 195.1 210.9)" />
<ellipse cx="202.0" cy="418.3" rx="2.9" ry="2.8" fill="#c4baac" opacity="0.56" transform="rotate(114.1 202.0 418.3)" />
<ellipse cx="313.2" cy="406.3" rx="2.2" ry="3.6" fill="#c4baac" opacity="0.53" transform="rotate(121.4 313.2 406.3)" />
<ellipse cx="203.1" cy="339.0" rx="3.1" ry="3.9" fill="#8e857b" opacity="0.57" transform="rotate(163.4 203.1 339.0)" />
<ellipse cx="195.4" cy="114.8" rx="4.8" ry="3.9" fill="#ada295" opacity="0.45" transform="rotate(38.0 195.4 114.8)" />
<ellipse cx="311.1" cy="203.9" rx="5.5" ry="3.3" fill="#ddd4c7" opacity="0.33" transform="rotate(169.6 311.1 203.9)" />
<ellipse cx="200.8" cy="403.6" rx="2.1" ry="2.2" fill="#ada295" opacity="0.64" transform="rotate(97.3 200.8 403.6)" />
<ellipse cx="199.6" cy="402.1" rx="3.1" ry="1.8" fill="#8e857b" opacity="0.28" transform="rotate(4.9 199.6 402.1)" />
    <path d="M 174.8 375.6 Q 169.1 376.6 164.5 378.4" stroke="#63875e" stroke-width="2.4" stroke-linecap="round" opacity="0.32" fill="none" />
<path d="M 174.3 290.8 Q 168.0 289.1 162.8 285.9" stroke="#63875e" stroke-width="2.4" stroke-linecap="round" opacity="0.32" fill="none" />
<path d="M 335.5 421.0 Q 341.4 422.5 346.3 425.2" stroke="#63875e" stroke-width="2.4" stroke-linecap="round" opacity="0.32" fill="none" />
<path d="M 168.9 118.3 Q 162.4 117.3 157.1 115.6" stroke="#63875e" stroke-width="2.4" stroke-linecap="round" opacity="0.32" fill="none" />
<path d="M 340.3 430.1 Q 347.6 428.5 353.5 425.6" stroke="#63875e" stroke-width="2.4" stroke-linecap="round" opacity="0.32" fill="none" />
<path d="M 170.4 333.2 Q 162.9 332.8 156.7 332.2" stroke="#63875e" stroke-width="2.4" stroke-linecap="round" opacity="0.32" fill="none" />
<path d="M 171.9 133.4 Q 165.2 133.9 159.8 134.9" stroke="#63875e" stroke-width="2.4" stroke-linecap="round" opacity="0.32" fill="none" />
<path d="M 344.0 157.6 Q 350.0 159.0 354.8 161.6" stroke="#63875e" stroke-width="2.4" stroke-linecap="round" opacity="0.32" fill="none" />
<path d="M 340.5 257.5 Q 346.6 255.8 351.6 252.6" stroke="#63875e" stroke-width="2.4" stroke-linecap="round" opacity="0.32" fill="none" />
<path d="M 170.7 381.6 Q 163.7 380.8 157.9 379.2" stroke="#63875e" stroke-width="2.4" stroke-linecap="round" opacity="0.32" fill="none" />
<path d="M 335.6 248.4 Q 342.9 249.5 348.9 251.4" stroke="#63875e" stroke-width="2.4" stroke-linecap="round" opacity="0.32" fill="none" />
<path d="M 343.0 81.9 Q 349.5 80.6 354.7 78.2" stroke="#63875e" stroke-width="2.4" stroke-linecap="round" opacity="0.32" fill="none" />
<path d="M 335.6 115.2 Q 343.3 115.8 349.6 116.8" stroke="#63875e" stroke-width="2.4" stroke-linecap="round" opacity="0.32" fill="none" />
<path d="M 173.5 345.3 Q 166.2 344.4 160.2 342.7" stroke="#63875e" stroke-width="2.4" stroke-linecap="round" opacity="0.32" fill="none" />
<path d="M 342.8 287.8 Q 347.7 288.2 351.7 289.0" stroke="#63875e" stroke-width="2.4" stroke-linecap="round" opacity="0.32" fill="none" />
<path d="M 168.9 78.9 Q 163.2 78.2 158.6 77.0" stroke="#63875e" stroke-width="2.4" stroke-linecap="round" opacity="0.32" fill="none" />
<path d="M 174.6 163.7 Q 170.4 162.3 166.9 159.8" stroke="#63875e" stroke-width="2.4" stroke-linecap="round" opacity="0.32" fill="none" />
<path d="M 168.3 293.8 Q 161.2 295.4 155.4 298.4" stroke="#63875e" stroke-width="2.4" stroke-linecap="round" opacity="0.32" fill="none" />
<path d="M 177.7 109.2 Q 172.1 107.9 167.4 105.6" stroke="#63875e" stroke-width="2.4" stroke-linecap="round" opacity="0.32" fill="none" />
<path d="M 167.5 366.5 Q 160.0 366.0 153.8 365.1" stroke="#63875e" stroke-width="2.4" stroke-linecap="round" opacity="0.32" fill="none" />
<path d="M 340.9 124.3 Q 348.6 123.1 354.8 120.8" stroke="#63875e" stroke-width="2.4" stroke-linecap="round" opacity="0.32" fill="none" />
<path d="M 175.7 287.8 Q 170.4 289.0 166.0 291.4" stroke="#63875e" stroke-width="2.4" stroke-linecap="round" opacity="0.32" fill="none" />
<path d="M 337.6 78.9 Q 342.4 78.3 346.3 77.1" stroke="#63875e" stroke-width="2.4" stroke-linecap="round" opacity="0.32" fill="none" />
<path d="M 336.3 160.6 Q 341.4 161.9 345.6 164.3" stroke="#63875e" stroke-width="2.4" stroke-linecap="round" opacity="0.32" fill="none" />
<path d="M 169.8 366.5 Q 165.6 366.4 162.1 366.3" stroke="#63875e" stroke-width="2.4" stroke-linecap="round" opacity="0.32" fill="none" />
<path d="M 343.7 242.4 Q 347.6 242.9 350.9 243.8" stroke="#63875e" stroke-width="2.4" stroke-linecap="round" opacity="0.32" fill="none" />
<path d="M 343.7 160.6 Q 350.5 161.1 356.0 162.0" stroke="#63875e" stroke-width="2.4" stroke-linecap="round" opacity="0.32" fill="none" />
<path d="M 176.0 315.0 Q 169.3 313.8 163.8 311.5" stroke="#63875e" stroke-width="2.4" stroke-linecap="round" opacity="0.32" fill="none" />
<path d="M 170.0 402.8 Q 163.6 404.1 158.4 406.6" stroke="#63875e" stroke-width="2.4" stroke-linecap="round" opacity="0.32" fill="none" />
<path d="M 340.6 184.9 Q 346.0 184.7 350.4 184.3" stroke="#63875e" stroke-width="2.4" stroke-linecap="round" opacity="0.32" fill="none" />
<path d="M 337.1 257.5 Q 343.3 256.2 348.3 253.8" stroke="#63875e" stroke-width="2.4" stroke-linecap="round" opacity="0.32" fill="none" />
<path d="M 173.4 293.8 Q 169.3 292.5 165.9 290.0" stroke="#63875e" stroke-width="2.4" stroke-linecap="round" opacity="0.32" fill="none" />
<path d="M 174.6 336.2 Q 167.7 336.4 162.2 336.7" stroke="#63875e" stroke-width="2.4" stroke-linecap="round" opacity="0.32" fill="none" />
<path d="M 175.2 160.6 Q 171.3 161.4 168.1 162.8" stroke="#63875e" stroke-width="2.4" stroke-linecap="round" opacity="0.32" fill="none" />
<path d="M 176.7 130.4 Q 171.9 129.8 167.9 128.8" stroke="#63875e" stroke-width="2.4" stroke-linecap="round" opacity="0.32" fill="none" />
<path d="M 338.7 342.3 Q 343.4 341.3 347.2 339.6" stroke="#63875e" stroke-width="2.4" stroke-linecap="round" opacity="0.32" fill="none" />
<path d="M 171.4 414.9 Q 167.3 416.7 164.0 419.8" stroke="#63875e" stroke-width="2.4" stroke-linecap="round" opacity="0.32" fill="none" />
<path d="M 173.3 372.6 Q 165.6 373.5 159.4 375.4" stroke="#63875e" stroke-width="2.4" stroke-linecap="round" opacity="0.32" fill="none" />
<path d="M 342.7 427.1 Q 347.4 426.4 351.3 425.1" stroke="#63875e" stroke-width="2.4" stroke-linecap="round" opacity="0.32" fill="none" />
<path d="M 174.4 405.9 Q 168.6 405.7 163.9 405.3" stroke="#63875e" stroke-width="2.4" stroke-linecap="round" opacity="0.32" fill="none" />
<path d="M 174.4 218.2 Q 170.2 218.3 166.7 218.5" stroke="#63875e" stroke-width="2.4" stroke-linecap="round" opacity="0.32" fill="none" />
<path d="M 167.6 330.2 Q 161.3 330.9 156.1 332.2" stroke="#63875e" stroke-width="2.4" stroke-linecap="round" opacity="0.32" fill="none" />
<path d="M 339.9 290.8 Q 344.0 290.2 347.3 289.1" stroke="#63875e" stroke-width="2.4" stroke-linecap="round" opacity="0.32" fill="none" />
<path d="M 177.6 302.9 Q 172.4 302.6 168.1 302.1" stroke="#63875e" stroke-width="2.4" stroke-linecap="round" opacity="0.32" fill="none" />
<path d="M 336.4 91.0 Q 341.7 91.5 345.9 92.4" stroke="#63875e" stroke-width="2.4" stroke-linecap="round" opacity="0.32" fill="none" />
<path d="M 167.2 75.9 Q 161.6 76.5 157.0 77.6" stroke="#63875e" stroke-width="2.4" stroke-linecap="round" opacity="0.32" fill="none" />
<path d="M 169.1 390.7 Q 163.1 390.7 158.2 390.7" stroke="#63875e" stroke-width="2.4" stroke-linecap="round" opacity="0.32" fill="none" />
<path d="M 334.5 106.1 Q 338.9 107.7 342.6 110.7" stroke="#63875e" stroke-width="2.4" stroke-linecap="round" opacity="0.32" fill="none" />
    <path d="M 256.0 55.9 L 256.0 456.1" fill="none" stroke="url(#water-fill)" stroke-width="68.0"
          stroke-linecap="butt" />
    <path d="M 256.0 55.9 L 256.0 456.1" fill="none" stroke="url(#water-shade)" stroke-width="68.0"
          stroke-linecap="butt" />
    <path d="M 256.0 55.9 L 256.0 456.1" fill="none" stroke="#d5f3f6" stroke-width="68.0"
          stroke-linecap="butt" opacity="0.28" />
    <path d="M 250.0 372.6 Q 256.4 371.7 262.9 372.6" stroke="#a6dde9" stroke-width="1.41" stroke-linecap="round" opacity="0.31" fill="none" />
<path d="M 246.1 278.7 Q 255.4 275.5 264.7 278.7" stroke="#81cbd8" stroke-width="1.32" stroke-linecap="round" opacity="0.34" fill="none" />
<path d="M 248.6 190.9 Q 254.7 192.2 260.8 190.9" stroke="#81cbd8" stroke-width="1.54" stroke-linecap="round" opacity="0.34" fill="none" />
<path d="M 243.8 97.1 Q 258.1 93.4 272.4 97.1" stroke="#c6eef8" stroke-width="1.55" stroke-linecap="round" opacity="0.23" fill="none" />
<path d="M 246.4 430.1 Q 258.4 432.8 270.4 430.1" stroke="#81cbd8" stroke-width="1.05" stroke-linecap="round" opacity="0.32" fill="none" />
<path d="M 242.8 327.1 Q 255.0 325.1 267.1 327.1" stroke="#a6dde9" stroke-width="1.09" stroke-linecap="round" opacity="0.19" fill="none" />
<path d="M 244.4 299.9 Q 255.1 296.6 265.8 299.9" stroke="#c6eef8" stroke-width="1.06" stroke-linecap="round" opacity="0.29" fill="none" />
<path d="M 247.2 372.6 Q 255.3 375.3 263.4 372.6" stroke="#a6dde9" stroke-width="1.24" stroke-linecap="round" opacity="0.22" fill="none" />
<path d="M 249.1 266.6 Q 256.2 265.2 263.2 266.6" stroke="#81cbd8" stroke-width="1.40" stroke-linecap="round" opacity="0.31" fill="none" />
<path d="M 244.9 206.0 Q 254.3 203.8 263.7 206.0" stroke="#81cbd8" stroke-width="1.73" stroke-linecap="round" opacity="0.25" fill="none" />
<path d="M 241.8 360.4 Q 253.6 361.1 265.5 360.4" stroke="#a6dde9" stroke-width="1.15" stroke-linecap="round" opacity="0.28" fill="none" />
<path d="M 249.1 369.5 Q 258.8 365.9 268.5 369.5" stroke="#81cbd8" stroke-width="1.93" stroke-linecap="round" opacity="0.30" fill="none" />
<path d="M 244.2 315.0 Q 253.7 311.4 263.2 315.0" stroke="#a6dde9" stroke-width="1.78" stroke-linecap="round" opacity="0.23" fill="none" />
<path d="M 239.4 372.6 Q 252.8 371.6 266.2 372.6" stroke="#a6dde9" stroke-width="1.48" stroke-linecap="round" opacity="0.22" fill="none" />
<path d="M 239.8 127.3 Q 255.4 124.1 271.1 127.3" stroke="#81cbd8" stroke-width="1.83" stroke-linecap="round" opacity="0.25" fill="none" />
<path d="M 243.4 78.9 Q 255.1 79.3 266.8 78.9" stroke="#81cbd8" stroke-width="1.52" stroke-linecap="round" opacity="0.34" fill="none" />
<path d="M 237.8 124.3 Q 254.4 124.9 271.0 124.3" stroke="#c6eef8" stroke-width="1.85" stroke-linecap="round" opacity="0.26" fill="none" />
<path d="M 250.9 233.3 Q 259.2 232.2 267.4 233.3" stroke="#a6dde9" stroke-width="1.64" stroke-linecap="round" opacity="0.28" fill="none" />
<path d="M 243.5 357.4 Q 254.0 357.0 264.5 357.4" stroke="#c6eef8" stroke-width="1.19" stroke-linecap="round" opacity="0.18" fill="none" />
<path d="M 239.9 421.0 Q 253.8 422.2 267.8 421.0" stroke="#c6eef8" stroke-width="1.06" stroke-linecap="round" opacity="0.24" fill="none" />
<path d="M 245.9 433.1 Q 256.5 434.3 267.2 433.1" stroke="#81cbd8" stroke-width="1.51" stroke-linecap="round" opacity="0.21" fill="none" />
<path d="M 241.8 284.8 Q 253.3 284.4 264.9 284.8" stroke="#c6eef8" stroke-width="1.37" stroke-linecap="round" opacity="0.24" fill="none" />
<path d="M 247.1 408.9 Q 257.8 407.7 268.5 408.9" stroke="#a6dde9" stroke-width="1.78" stroke-linecap="round" opacity="0.27" fill="none" />
<path d="M 249.4 318.1 Q 258.3 320.2 267.3 318.1" stroke="#a6dde9" stroke-width="1.20" stroke-linecap="round" opacity="0.27" fill="none" />
<path d="M 237.3 381.6 Q 257.6 385.3 277.9 381.6" stroke="#81cbd8" stroke-width="1.94" stroke-linecap="round" opacity="0.15" fill="none" />
<path d="M 235.4 142.5 Q 252.5 141.6 269.6 142.5" stroke="#c6eef8" stroke-width="1.14" stroke-linecap="round" opacity="0.26" fill="none" />
<path d="M 248.5 193.9 Q 257.4 192.7 266.3 193.9" stroke="#a6dde9" stroke-width="1.71" stroke-linecap="round" opacity="0.16" fill="none" />
<path d="M 248.3 299.9 Q 257.9 299.3 267.4 299.9" stroke="#81cbd8" stroke-width="1.60" stroke-linecap="round" opacity="0.16" fill="none" />
    <path d="M 256.0 83.9 L 256.0 428.1" fill="none" stroke="#142e36" stroke-width="1.8" opacity="0.18" />
  </g>
</svg>
