<svg xmlns="http://www.w3.org/2000/svg" width="512" height="512" viewBox="0 0 512 512">
  <defs>
    <clipPath id="hex-clip">
      <polygon points="48.0,256.0 152.0,75.9 360.0,75.9 464.0,256.0 360.0,436.1 152.0,436.1" />
    </clipPath>
    <linearGradient id="water-fill" x1="0%" y1="0%" x2="100%" y2="0%"
        gradientTransform="rotate(30 256 256)">
      <stop offset="0%" stop-color="#295f69" />
      <stop offset="20%" stop-color="#327884" />
      <stop offset="50%" stop-color="#5ea4af" />
      <stop offset="80%" stop-color="#327884" />
      <stop offset="100%" stop-color="#295f69" />
    </linearGradient>
    <linearGradient id="water-shade" x1="0%" y1="0%" x2="0%" y2="100%"
        gradientTransform="rotate(30 256 256)">
      <stop offset="0%" stop-color="#8dd6de" stop-opacity="0.38" />
      <stop offset="35%" stop-color="#ffffff" stop-opacity="0.06" />
      <stop offset="100%" stop-color="#11343e" stop-opacity="0.24" />
    </linearGradient>
  </defs>

  <g clip-path="url(#hex-clip)">
    <ellipse cx="175.7" cy="171.6" rx="5.7" ry="3.1" fill="#ada295" opacity="0.53" transform="rotate(61.8 175.7 171.6)" />
<ellipse cx="174.5" cy="104.9" rx="4.7" ry="4.3" fill="#ada295" opacity="0.67" transform="rotate(36.2 174.5 104.9)" />
<ellipse cx="190.3" cy="230.4" rx="5.7" ry="3.7" fill="#ada295" opacity="0.64" transform="rotate(7.0 190.3 230.4)" />
<ellipse cx="432.1" cy="266.8" rx="2.1" ry="3.4" fill="#ddd4c7" opacity="0.32" transform="rotate(148.3 432.1 266.8)" />
<ellipse cx="372.0" cy="217.9" rx="3.7" ry="2.4" fill="#8e857b" opacity="0.56" transform="rotate(60.6 372.0 217.9)" />
<ellipse cx="186.6" cy="118.4" rx="4.3" ry="2.9" fill="#ada295" opacity="0.62" transform="rotate(161.2 186.6 118.4)" />
<ellipse cx="390.5" cy="237.6" rx="4.1" ry="1.9" fill="#ada295" opacity="0.39" transform="rotate(0.3 390.5 237.6)" />
<ellipse cx="348.0" cy="207.2" rx="3.2" ry="4.1" fill="#ddd4c7" opacity="0.69" transform="rotate(166.8 348.0 207.2)" />
<ellipse cx="398.3" cy="251.8" rx="2.7" ry="2.2" fill="#8e857b" opacity="0.55" transform="rotate(56.2 398.3 251.8)" />
<ellipse cx="185.7" cy="171.7" rx="5.4" ry="3.2" fill="#ada295" opacity="0.50" transform="rotate(164.8 185.7 171.7)" />
<ellipse cx="250.5" cy="327.7" rx="4.1" ry="2.9" fill="#ada295" opacity="0.68" transform="rotate(111.6 250.5 327.7)" />
<ellipse cx="222.6" cy="299.7" rx="4.7" ry="4.2" fill="#ada295" opacity="0.66" transform="rotate(44.0 222.6 299.7)" />
<ellipse cx="310.2" cy="378.8" rx="3.4" ry="4.0" fill="#ada295" opacity="0.34" transform="rotate(150.8 310.2 378.8)" />
<ellipse cx="194.9" cy="207.7" rx="6.2" ry="3.8" fill="#8e857b" opacity="0.42" transform="rotate(25.1 194.9 207.7)" />
<ellipse cx="341.8" cy="138.6" rx="5.5" ry="2.5" fill="#ada295" opacity="0.36" transform="rotate(170.0 341.8 138.6)" />
<ellipse cx="338.0" cy="160.9" rx="5.1" ry="4.7" fill="#c4baac" opacity="0.68" transform="rotate(109.2 338.0 160.9)" />
<ellipse cx="343.4" cy="393.8" rx="2.5" ry="3.9" fill="#ada295" opacity="0.34" transform="rotate(150.3 343.4 393.8)" />
<ellipse cx="198.3" cy="270.0" rx="3.4" ry="4.0" fill="#c4baac" opacity="0.34" transform="rotate(159.1 198.3 270.0)" />
<ellipse cx="376.5" cy="243.8" rx="2.2" ry="3.6" fill="#c4baac" opacity="0.29" transform="rotate(74.0 376.5 243.8)" />
<ellipse cx="174.7" cy="109.3" rx="3.9" ry="2.6" fill="#8e857b" opacity="0.54" transform="rotate(31.2 174.7 109.3)" />
<ellipse cx="172.9" cy="138.4" rx="3.3" ry="4.7" fill="#ddd4c7" opacity="0.49" transform="rotate(4.2 172.9 138.4)" />
<ellipse cx="296.5" cy="361.1" rx="4.9" ry="3.6" fill="#ada295" opacity="0.31" transform="rotate(52.9 296.5 361.1)" />
<ellipse cx="227.8" cy="304.9" rx="2.7" ry="2.9" fill="#ada295" opacity="0.60" transform="rotate(55.4 227.8 304.9)" />
<ellipse cx="332.2" cy="110.3" rx="3.6" ry="1.9" fill="#ada295" opacity="0.58" transform="rotate(21.5 332.2 110.3)" />
<ellipse cx="420.7" cy="262.4" rx="3.7" ry="4.7" fill="#ddd4c7" opacity="0.55" transform="rotate(76.6 420.7 262.4)" />
<ellipse cx="331.0" cy="182.4" rx="2.2" ry="2.0" fill="#8e857b" opacity="0.45" transform="rotate(113.9 331.0 182.4)" />
<ellipse cx="212.4" cy="253.2" rx="4.9" ry="2.7" fill="#8e857b" opacity="0.65" transform="rotate(178.3 212.4 253.2)" />
<ellipse cx="396.0" cy="244.0" rx="5.5" ry="4.2" fill="#ddd4c7" opacity="0.42" transform="rotate(124.1 396.0 244.0)" />
<ellipse cx="334.8" cy="382.6" rx="4.3" ry="1.8" fill="#ada295" opacity="0.41" transform="rotate(120.5 334.8 382.6)" />
<ellipse cx="346.0" cy="199.5" rx="5.0" ry="1.9" fill="#8e857b" opacity="0.28" transform="rotate(65.0 346.0 199.5)" />
<ellipse cx="358.8" cy="197.7" rx="4.9" ry="2.0" fill="#ddd4c7" opacity="0.59" transform="rotate(23.4 358.8 197.7)" />
<ellipse cx="345.6" cy="201.4" rx="3.7" ry="4.3" fill="#c4baac" opacity="0.42" transform="rotate(9.7 345.6 201.4)" />
<ellipse cx="326.4" cy="119.6" rx="2.3" ry="1.5" fill="#ddd4c7" opacity="0.40" transform="rotate(154.9 326.4 119.6)" />
<ellipse cx="336.8" cy="190.0" rx="6.1" ry="3.4" fill="#c4baac" opacity="0.30" transform="rotate(33.8 336.8 190.0)" />
<ellipse cx="226.6" cy="303.6" rx="3.7" ry="3.1" fill="#ddd4c7" opacity="0.37" transform="rotate(147.8 226.6 303.6)" />
<ellipse cx="265.8" cy="349.6" rx="4.3" ry="3.9" fill="#8e857b" opacity="0.28" transform="rotate(11.0 265.8 349.6)" />
<ellipse cx="275.5" cy="348.6" rx="3.6" ry="1.6" fill="#ddd4c7" opacity="0.32" transform="rotate(153.7 275.5 348.6)" />
<ellipse cx="381.1" cy="221.9" rx="6.2" ry="4.2" fill="#ddd4c7" opacity="0.61" transform="rotate(45.1 381.1 221.9)" />
<ellipse cx="337.7" cy="173.2" rx="2.7" ry="3.7" fill="#ada295" opacity="0.64" transform="rotate(177.6 337.7 173.2)" />
<ellipse cx="306.9" cy="365.7" rx="3.3" ry="1.8" fill="#8e857b" opacity="0.44" transform="rotate(3.2 306.9 365.7)" />
<ellipse cx="330.3" cy="176.3" rx="3.5" ry="4.2" fill="#ada295" opacity="0.45" transform="rotate(2.9 330.3 176.3)" />
<ellipse cx="226.2" cy="290.5" rx="3.4" ry="3.4" fill="#ada295" opacity="0.46" transform="rotate(168.2 226.2 290.5)" />
<ellipse cx="336.3" cy="71.6" rx="5.7" ry="1.8" fill="#c4baac" opacity="0.31" transform="rotate(163.8 336.3 71.6)" />
<ellipse cx="348.7" cy="202.9" rx="5.5" ry="4.5" fill="#ddd4c7" opacity="0.42" transform="rotate(62.1 348.7 202.9)" />
<ellipse cx="271.3" cy="345.4" rx="5.0" ry="4.3" fill="#c4baac" opacity="0.56" transform="rotate(14.7 271.3 345.4)" />
<ellipse cx="396.1" cy="250.2" rx="4.5" ry="4.4" fill="#ada295" opacity="0.32" transform="rotate(12.2 396.1 250.2)" />
<ellipse cx="299.4" cy="360.6" rx="3.4" ry="3.3" fill="#ddd4c7" opacity="0.34" transform="rotate(149.8 299.4 360.6)" />
<ellipse cx="367.2" cy="235.6" rx="3.6" ry="3.6" fill="#ddd4c7" opacity="0.44" transform="rotate(94.1 367.2 235.6)" />
<ellipse cx="435.4" cy="275.6" rx="5.4" ry="3.4" fill="#ada295" opacity="0.52" transform="rotate(67.4 435.4 275.6)" />
<ellipse cx="196.7" cy="244.8" rx="3.3" ry="3.7" fill="#c4baac" opacity="0.29" transform="rotate(91.6 196.7 244.8)" />
<ellipse cx="197.5" cy="253.2" rx="3.6" ry="2.7" fill="#ada295" opacity="0.32" transform="rotate(177.6 197.5 253.2)" />
<ellipse cx="207.3" cy="255.7" rx="5.6" ry="3.4" fill="#8e857b" opacity="0.32" transform="rotate(121.4 207.3 255.7)" />
<ellipse cx="454.1" cy="273.4" rx="4.3" ry="4.4" fill="#8e857b" opacity="0.44" transform="rotate(18.8 454.1 273.4)" />
<ellipse cx="397.6" cy="255.3" rx="3.4" ry="3.1" fill="#ada295" opacity="0.32" transform="rotate(52.2 397.6 255.3)" />
<ellipse cx="219.9" cy="299.8" rx="3.7" ry="4.6" fill="#8e857b" opacity="0.63" transform="rotate(165.7 219.9 299.8)" />
<ellipse cx="297.0" cy="364.2" rx="4.7" ry="2.2" fill="#ada295" opacity="0.32" transform="rotate(5.7 297.0 364.2)" />
<ellipse cx="329.0" cy="162.1" rx="3.4" ry="3.6" fill="#c4baac" opacity="0.68" transform="rotate(116.9 329.0 162.1)" />
<ellipse cx="197.6" cy="251.7" rx="4.3" ry="2.2" fill="#c4baac" opacity="0.37" transform="rotate(10.3 197.6 251.7)" />
<ellipse cx="337.2" cy="167.5" rx="6.1" ry="4.0" fill="#c4baac" opacity="0.66" transform="rotate(82.1 337.2 167.5)" />
<ellipse cx="356.7" cy="194.8" rx="6.4" ry="2.2" fill="#c4baac" opacity="0.41" transform="rotate(161.0 356.7 194.8)" />
<ellipse cx="421.2" cy="272.7" rx="6.3" ry="3.5" fill="#c4baac" opacity="0.43" transform="rotate(140.1 421.2 272.7)" />
<ellipse cx="340.8" cy="396.3" rx="4.0" ry="3.1" fill="#ada295" opacity="0.53" transform="rotate(177.2 340.8 396.3)" />
<ellipse cx="181.4" cy="200.8" rx="6.1" ry="4.1" fill="#8e857b" opacity="0.34" transform="rotate(27.8 181.4 200.8)" />
<ellipse cx="272.2" cy="336.2" rx="5.7" ry="1.9" fill="#8e857b" opacity="0.35" transform="rotate(80.2 272.2 336.2)" />
<ellipse cx="218.7" cy="296.3" rx="4.2" ry="2.7" fill="#c4baac" opacity="0.59" transform="rotate(51.9 218.7 296.3)" />
<ellipse cx="428.4" cy="263.4" rx="6.2" ry="4.0" fill="#c4baac" opacity="0.46" transform="rotate(116.7 428.4 263.4)" />
<ellipse cx="444.8" cy="271.3" rx="4.4" ry="1.7" fill="#ddd4c7" opacity="0.39" transform="rotate(28.4 444.8 271.3)" />
<ellipse cx="184.5" cy="214.0" rx="2.1" ry="3.2" fill="#ada295" opacity="0.60" transform="rotate(67.3 184.5 214.0)" />
<ellipse cx="377.4" cy="235.1" rx="4.8" ry="3.7" fill="#ada295" opacity="0.33" transform="rotate(115.6 377.4 235.1)" />
<ellipse cx="193.6" cy="216.9" rx="4.7" ry="1.4" fill="#ddd4c7" opacity="0.43" transform="rotate(143.2 193.6 216.9)" />
<ellipse cx="182.1" cy="211.0" rx="2.3" ry="3.8" fill="#c4baac" opacity="0.66" transform="rotate(156.0 182.1 211.0)" />
<ellipse cx="353.8" cy="415.3" rx="5.5" ry="4.3" fill="#c4baac" opacity="0.40" transform="rotate(123.7 353.8 415.3)" />
<ellipse cx="186.1" cy="221.8" rx="3.9" ry="3.5" fill="#ddd4c7" opacity="0.36" transform="rotate(1.4 186.1 221.8)" />
<ellipse cx="398.8" cy="245.8" rx="4.7" ry="1.8" fill="#ada295" opacity="0.39" transform="rotate(85.6 398.8 245.8)" />
<ellipse cx="202.9" cy="270.5" rx="5.0" ry="3.0" fill="#c4baac" opacity="0.47" transform="rotate(83.8 202.9 270.5)" />
<ellipse cx="344.9" cy="203.0" rx="5.4" ry="4.1" fill="#8e857b" opacity="0.66" transform="rotate(113.4 344.9 203.0)" />
<ellipse cx="349.3" cy="207.0" rx="4.1" ry="4.6" fill="#c4baac" opacity="0.55" transform="rotate(126.8 349.3 207.0)" />
<ellipse cx="398.1" cy="239.7" rx="6.3" ry="4.0" fill="#ada295" opacity="0.42" transform="rotate(57.8 398.1 239.7)" />
<ellipse cx="371.5" cy="240.0" rx="5.5" ry="4.3" fill="#8e857b" opacity="0.45" transform="rotate(176.1 371.5 240.0)" />
<ellipse cx="342.6" cy="199.8" rx="3.9" ry="3.3" fill="#ada295" opacity="0.50" transform="rotate(106.7 342.6 199.8)" />
<ellipse cx="182.9" cy="115.6" rx="4.3" ry="3.3" fill="#c4baac" opacity="0.39" transform="rotate(40.3 182.9 115.6)" />
<ellipse cx="360.0" cy="229.3" rx="2.5" ry="4.5" fill="#ada295" opacity="0.61" transform="rotate(120.7 360.0 229.3)" />
<ellipse cx="257.6" cy="343.1" rx="2.7" ry="1.9" fill="#ada295" opacity="0.60" transform="rotate(11.2 257.6 343.1)" />
<ellipse cx="283.8" cy="361.3" rx="6.1" ry="2.6" fill="#8e857b" opacity="0.70" transform="rotate(141.2 283.8 361.3)" />
<ellipse cx="325.7" cy="381.1" rx="3.0" ry="2.2" fill="#ada295" opacity="0.60" transform="rotate(166.5 325.7 381.1)" />
<ellipse cx="186.8" cy="205.7" rx="2.8" ry="2.4" fill="#8e857b" opacity="0.68" transform="rotate(0.2 186.8 205.7)" />
<ellipse cx="171.0" cy="127.0" rx="3.3" ry="3.6" fill="#c4baac" opacity="0.37" transform="rotate(59.8 171.0 127.0)" />
<ellipse cx="255.7" cy="324.8" rx="6.2" ry="3.2" fill="#ada295" opacity="0.68" transform="rotate(118.9 255.7 324.8)" />
<ellipse cx="349.6" cy="189.6" rx="6.1" ry="1.7" fill="#ddd4c7" opacity="0.40" transform="rotate(39.8 349.6 189.6)" />
<ellipse cx="265.5" cy="346.6" rx="5.0" ry="1.5" fill="#c4baac" opacity="0.57" transform="rotate(21.7 265.5 346.6)" />
<ellipse cx="366.0" cy="409.5" rx="3.6" ry="1.6" fill="#c4baac" opacity="0.35" transform="rotate(107.1 366.0 409.5)" />
<ellipse cx="386.1" cy="251.2" rx="4.9" ry="3.5" fill="#ddd4c7" opacity="0.31" transform="rotate(4.4 386.1 251.2)" />
<ellipse cx="351.1" cy="216.0" rx="6.3" ry="4.4" fill="#ada295" opacity="0.45" transform="rotate(163.3 351.1 216.0)" />
<ellipse cx="417.6" cy="256.8" rx="4.7" ry="2.6" fill="#8e857b" opacity="0.54" transform="rotate(83.4 417.6 256.8)" />
<ellipse cx="174.1" cy="131.7" rx="4.5" ry="4.3" fill="#ada295" opacity="0.55" transform="rotate(143.7 174.1 131.7)" />
<ellipse cx="362.5" cy="228.1" rx="4.4" ry="3.9" fill="#c4baac" opacity="0.61" transform="rotate(70.7 362.5 228.1)" />
<ellipse cx="375.2" cy="238.1" rx="5.9" ry="1.8" fill="#c4baac" opacity="0.54" transform="rotate(66.6 375.2 238.1)" />
<ellipse cx="352.3" cy="187.7" rx="2.8" ry="2.3" fill="#ada295" opacity="0.68" transform="rotate(173.8 352.3 187.7)" />
<ellipse cx="391.1" cy="251.4" rx="4.8" ry="2.9" fill="#ada295" opacity="0.49" transform="rotate(29.6 391.1 251.4)" />
<ellipse cx="194.8" cy="219.8" rx="4.0" ry="4.5" fill="#ddd4c7" opacity="0.41" transform="rotate(77.8 194.8 219.8)" />
<ellipse cx="350.8" cy="204.4" rx="4.6" ry="2.9" fill="#c4baac" opacity="0.34" transform="rotate(45.5 350.8 204.4)" />
<ellipse cx="190.7" cy="207.2" rx="3.9" ry="1.9" fill="#c4baac" opacity="0.54" transform="rotate(11.1 190.7 207.2)" />
<ellipse cx="296.5" cy="364.5" rx="3.8" ry="4.4" fill="#8e857b" opacity="0.68" transform="rotate(48.6 296.5 364.5)" />
<ellipse cx="182.9" cy="198.0" rx="3.1" ry="2.4" fill="#ddd4c7" opacity="0.68" transform="rotate(67.0 182.9 198.0)" />
<ellipse cx="446.0" cy="276.0" rx="3.6" ry="3.9" fill="#ada295" opacity="0.54" transform="rotate(76.6 446.0 276.0)" />
<ellipse cx="438.0" cy="273.5" rx="4.5" ry="4.0" fill="#ddd4c7" opacity="0.35" transform="rotate(161.1 438.0 273.5)" />
<ellipse cx="184.8" cy="185.5" rx="2.6" ry="2.2" fill="#ddd4c7" opacity="0.69" transform="rotate(174.0 184.8 185.5)" />
<ellipse cx="442.3" cy="271.6" rx="5.4" ry="3.2" fill="#8e857b" opacity="0.64" transform="rotate(151.4 442.3 271.6)" />
<ellipse cx="342.0" cy="194.1" rx="2.5" ry="2.3" fill="#8e857b" opacity="0.36" transform="rotate(160.1 342.0 194.1)" />
<ellipse cx="250.8" cy="317.8" rx="3.8" ry="3.0" fill="#c4baac" opacity="0.67" transform="rotate(108.9 250.8 317.8)" />
<ellipse cx="331.0" cy="148.6" rx="2.0" ry="4.7" fill="#8e857b" opacity="0.45" transform="rotate(71.6 331.0 148.6)" />
<ellipse cx="341.0" cy="168.5" rx="5.3" ry="4.6" fill="#8e857b" opacity="0.58" transform="rotate(34.2 341.0 168.5)" />
<ellipse cx="180.5" cy="122.7" rx="5.6" ry="2.2" fill="#ddd4c7" opacity="0.53" transform="rotate(158.2 180.5 122.7)" />
<ellipse cx="177.9" cy="107.5" rx="3.6" ry="2.0" fill="#ada295" opacity="0.48" transform="rotate(14.1 177.9 107.5)" />
<ellipse cx="354.5" cy="210.3" rx="4.8" ry="1.7" fill="#ada295" opacity="0.63" transform="rotate(27.4 354.5 210.3)" />
<ellipse cx="327.7" cy="376.2" rx="2.4" ry="3.2" fill="#ada295" opacity="0.45" transform="rotate(103.1 327.7 376.2)" />
<ellipse cx="341.9" cy="125.3" rx="3.5" ry="2.2" fill="#c4baac" opacity="0.53" transform="rotate(49.9 341.9 125.3)" />
<ellipse cx="175.8" cy="145.6" rx="6.2" ry="4.3" fill="#ddd4c7" opacity="0.39" transform="rotate(41.8 175.8 145.6)" />
<ellipse cx="340.0" cy="189.0" rx="5.1" ry="2.6" fill="#ada295" opacity="0.69" transform="rotate(165.4 340.0 189.0)" />
<ellipse cx="374.4" cy="227.6" rx="5.3" ry="4.5" fill="#c4baac" opacity="0.47" transform="rotate(62.8 374.4 227.6)" />
<ellipse cx="185.9" cy="92.1" rx="5.9" ry="1.5" fill="#ddd4c7" opacity="0.55" transform="rotate(178.3 185.9 92.1)" />
<ellipse cx="177.9" cy="181.5" rx="3.8" ry="2.3" fill="#8e857b" opacity="0.41" transform="rotate(159.0 177.9 181.5)" />
<ellipse cx="440.7" cy="272.3" rx="2.2" ry="4.6" fill="#c4baac" opacity="0.66" transform="rotate(72.5 440.7 272.3)" />
<ellipse cx="346.5" cy="186.0" rx="4.2" ry="3.8" fill="#ddd4c7" opacity="0.36" transform="rotate(75.2 346.5 186.0)" />
<ellipse cx="279.9" cy="349.6" rx="4.8" ry="3.5" fill="#ddd4c7" opacity="0.34" transform="rotate(144.1 279.9 349.6)" />
<ellipse cx="354.2" cy="205.7" rx="2.4" ry="2.0" fill="#8e857b" opacity="0.42" transform="rotate(134.6 354.2 205.7)" />
<ellipse cx="188.3" cy="153.5" rx="5.9" ry="4.1" fill="#8e857b" opacity="0.66" transform="rotate(26.2 188.3 153.5)" />
<ellipse cx="392.7" cy="243.1" rx="5.1" ry="1.6" fill="#c4baac" opacity="0.41" transform="rotate(124.9 392.7 243.1)" />
<ellipse cx="176.8" cy="128.0" rx="3.6" ry="1.9" fill="#c4baac" opacity="0.43" transform="rotate(151.3 176.8 128.0)" />
<ellipse cx="173.8" cy="140.6" rx="3.8" ry="3.3" fill="#ada295" opacity="0.39" transform="rotate(90.2 173.8 140.6)" />
<ellipse cx="370.7" cy="235.1" rx="5.5" ry="2.3" fill="#8e857b" opacity="0.52" transform="rotate(177.8 370.7 235.1)" />
<ellipse cx="313.6" cy="367.9" rx="5.9" ry="4.4" fill="#ada295" opacity="0.42" transform="rotate(146.7 313.6 367.9)" />
<ellipse cx="333.5" cy="166.8" rx="4.9" ry="3.5" fill="#ddd4c7" opacity="0.37" transform="rotate(121.7 333.5 166.8)" />
<ellipse cx="190.2" cy="178.9" rx="4.4" ry="3.9" fill="#8e857b" opacity="0.45" transform="rotate(92.2 190.2 178.9)" />
<ellipse cx="445.6" cy="279.1" rx="5.9" ry="2.1" fill="#ddd4c7" opacity="0.45" transform="rotate(38.5 445.6 279.1)" />
<ellipse cx="175.8" cy="111.5" rx="3.1" ry="4.0" fill="#c4baac" opacity="0.62" transform="rotate(41.9 175.8 111.5)" />
<ellipse cx="223.9" cy="293.5" rx="2.4" ry="2.8" fill="#c4baac" opacity="0.47" transform="rotate(173.3 223.9 293.5)" />
<ellipse cx="177.8" cy="112.1" rx="3.9" ry="2.5" fill="#ada295" opacity="0.64" transform="rotate(131.6 177.8 112.1)" />
<ellipse cx="337.2" cy="91.9" rx="4.0" ry="3.1" fill="#ada295" opacity="0.34" transform="rotate(4.0 337.2 91.9)" />
<ellipse cx="212.0" cy="283.8" rx="6.3" ry="4.0" fill="#ddd4c7" opacity="0.47" transform="rotate(75.1 212.0 283.8)" />
<ellipse cx="352.7" cy="222.4" rx="5.3" ry="1.8" fill="#ada295" opacity="0.42" transform="rotate(156.1 352.7 222.4)" />
<ellipse cx="327.4" cy="102.1" rx="5.9" ry="2.2" fill="#8e857b" opacity="0.41" transform="rotate(14.7 327.4 102.1)" />
<ellipse cx="337.5" cy="384.3" rx="2.9" ry="2.5" fill="#c4baac" opacity="0.40" transform="rotate(153.7 337.5 384.3)" />
<ellipse cx="332.6" cy="141.1" rx="2.7" ry="2.5" fill="#ddd4c7" opacity="0.32" transform="rotate(59.4 332.6 141.1)" />
<ellipse cx="339.2" cy="404.8" rx="3.8" ry="2.1" fill="#ada295" opacity="0.48" transform="rotate(101.7 339.2 404.8)" />
<ellipse cx="341.6" cy="167.8" rx="4.7" ry="3.5" fill="#c4baac" opacity="0.59" transform="rotate(143.2 341.6 167.8)" />
<ellipse cx="327.7" cy="102.5" rx="5.7" ry="3.6" fill="#ada295" opacity="0.65" transform="rotate(130.0 327.7 102.5)" />
<ellipse cx="372.7" cy="227.4" rx="6.0" ry="3.5" fill="#ada295" opacity="0.48" transform="rotate(169.1 372.7 227.4)" />
<ellipse cx="222.5" cy="297.5" rx="2.4" ry="3.7" fill="#c4baac" opacity="0.42" transform="rotate(177.2 222.5 297.5)" />
<ellipse cx="185.4" cy="76.5" rx="4.6" ry="3.9" fill="#c4baac" opacity="0.62" transform="rotate(60.8 185.4 76.5)" />
<ellipse cx="245.1" cy="317.3" rx="4.4" ry="1.4" fill="#c4baac" opacity="0.60" transform="rotate(8.6 245.1 317.3)" />
<ellipse cx="283.1" cy="350.4" rx="2.3" ry="4.3" fill="#c4baac" opacity="0.61" transform="rotate(73.7 283.1 350.4)" />
<ellipse cx="370.1" cy="411.5" rx="4.3" ry="3.5" fill="#ddd4c7" opacity="0.33" transform="rotate(77.2 370.1 411.5)" />
<ellipse cx="335.8" cy="193.1" rx="4.9" ry="4.6" fill="#8e857b" opacity="0.63" transform="rotate(109.2 335.8 193.1)" />
<ellipse cx="339.9" cy="193.2" rx="5.5" ry="2.1" fill="#8e857b" opacity="0.53" transform="rotate(179.7 339.9 193.2)" />
<ellipse cx="358.2" cy="225.7" rx="4.9" ry="2.7" fill="#8e857b" opacity="0.67" transform="rotate(96.6 358.2 225.7)" />
<ellipse cx="390.6" cy="238.4" rx="6.0" ry="4.8" fill="#c4baac" opacity="0.40" transform="rotate(158.7 390.6 238.4)" />
<ellipse cx="342.4" cy="199.7" rx="5.7" ry="3.3" fill="#c4baac" opacity="0.69" transform="rotate(39.8 342.4 199.7)" />
<ellipse cx="239.9" cy="320.0" rx="3.0" ry="1.5" fill="#ddd4c7" opacity="0.69" transform="rotate(122.8 239.9 320.0)" />
<ellipse cx="177.7" cy="152.2" rx="4.6" ry="4.1" fill="#ada295" opacity="0.62" transform="rotate(141.3 177.7 152.2)" />
<ellipse cx="351.7" cy="220.3" rx="4.6" ry="2.3" fill="#ddd4c7" opacity="0.34" transform="rotate(132.8 351.7 220.3)" />
<ellipse cx="328.9" cy="96.2" rx="3.6" ry="4.6" fill="#c4baac" opacity="0.51" transform="rotate(96.5 328.9 96.2)" />
<ellipse cx="342.0" cy="190.7" rx="3.1" ry="4.0" fill="#c4baac" opacity="0.28" transform="rotate(57.9 342.0 190.7)" />
<ellipse cx="191.0" cy="240.9" rx="3.0" ry="1.7" fill="#c4baac" opacity="0.45" transform="rotate(32.0 191.0 240.9)" />
<ellipse cx="176.4" cy="121.1" rx="2.8" ry="2.5" fill="#ddd4c7" opacity="0.56" transform="rotate(83.1 176.4 121.1)" />
<ellipse cx="331.2" cy="80.3" rx="5.1" ry="4.7" fill="#c4baac" opacity="0.35" transform="rotate(133.9 331.2 80.3)" />
<ellipse cx="202.5" cy="239.2" rx="5.1" ry="1.6" fill="#ddd4c7" opacity="0.69" transform="rotate(159.4 202.5 239.2)" />
<ellipse cx="175.7" cy="112.3" rx="6.0" ry="3.2" fill="#8e857b" opacity="0.36" transform="rotate(84.4 175.7 112.3)" />
<ellipse cx="426.8" cy="268.0" rx="5.3" ry="2.5" fill="#8e857b" opacity="0.52" transform="rotate(61.5 426.8 268.0)" />
<ellipse cx="347.5" cy="393.2" rx="6.2" ry="3.0" fill="#ddd4c7" opacity="0.62" transform="rotate(9.1 347.5 393.2)" />
<ellipse cx="186.3" cy="115.4" rx="5.7" ry="2.7" fill="#c4baac" opacity="0.56" transform="rotate(150.7 186.3 115.4)" />
<ellipse cx="239.3" cy="307.3" rx="4.9" ry="4.6" fill="#8e857b" opacity="0.32" transform="rotate(27.7 239.3 307.3)" />
    <path d="M 382.5 204.8 Q 383.9 203.4 385.1 200.8" stroke="#63875e" stroke-width="2.4" stroke-linecap="round" opacity="0.32" fill="none" />
<path d="M 380.1 200.2 Q 384.4 197.6 387.8 192.7" stroke="#63875e" stroke-width="2.4" stroke-linecap="round" opacity="0.32" fill="none" />
<path d="M 368.7 176.8 Q 374.6 174.6 379.4 170.6" stroke="#63875e" stroke-width="2.4" stroke-linecap="round" opacity="0.32" fill="none" />
<path d="M 414.2 222.0 Q 415.5 219.3 416.6 214.4" stroke="#63875e" stroke-width="2.4" stroke-linecap="round" opacity="0.32" fill="none" />
<path d="M 364.0 173.3 Q 368.7 170.7 372.5 165.9" stroke="#63875e" stroke-width="2.4" stroke-linecap="round" opacity="0.32" fill="none" />
<path d="M 360.5 435.3 Q 357.5 438.9 355.0 445.6" stroke="#63875e" stroke-width="2.4" stroke-linecap="round" opacity="0.32" fill="none" />
<path d="M 155.5 194.9 Q 150.0 193.9 145.4 192.2" stroke="#63875e" stroke-width="2.4" stroke-linecap="round" opacity="0.32" fill="none" />
<path d="M 206.4 324.0 Q 202.8 327.8 199.9 334.7" stroke="#63875e" stroke-width="2.4" stroke-linecap="round" opacity="0.32" fill="none" />
<path d="M 164.2 254.3 Q 158.3 254.7 153.4 255.6" stroke="#63875e" stroke-width="2.4" stroke-linecap="round" opacity="0.32" fill="none" />
<path d="M 366.1 149.8 Q 373.2 148.5 378.9 146.0" stroke="#63875e" stroke-width="2.4" stroke-linecap="round" opacity="0.32" fill="none" />
<path d="M 192.3 302.6 Q 188.9 304.6 186.1 308.3" stroke="#63875e" stroke-width="2.4" stroke-linecap="round" opacity="0.32" fill="none" />
<path d="M 163.2 241.0 Q 158.1 243.2 153.8 247.4" stroke="#63875e" stroke-width="2.4" stroke-linecap="round" opacity="0.32" fill="none" />
<path d="M 367.7 104.4 Q 372.3 105.8 376.2 108.5" stroke="#63875e" stroke-width="2.4" stroke-linecap="round" opacity="0.32" fill="none" />
<path d="M 397.0 211.6 Q 402.6 209.1 407.1 204.4" stroke="#63875e" stroke-width="2.4" stroke-linecap="round" opacity="0.32" fill="none" />
<path d="M 361.7 167.0 Q 368.7 164.8 374.4 160.7" stroke="#63875e" stroke-width="2.4" stroke-linecap="round" opacity="0.32" fill="none" />
<path d="M 365.3 156.1 Q 370.7 155.2 375.2 153.5" stroke="#63875e" stroke-width="2.4" stroke-linecap="round" opacity="0.32" fill="none" />
<path d="M 305.5 410.3 Q 302.2 414.0 299.5 420.9" stroke="#63875e" stroke-width="2.4" stroke-linecap="round" opacity="0.32" fill="none" />
<path d="M 397.2 206.7 Q 404.0 205.3 409.5 202.6" stroke="#63875e" stroke-width="2.4" stroke-linecap="round" opacity="0.32" fill="none" />
<path d="M 382.2 203.3 Q 387.8 200.9 392.5 196.5" stroke="#63875e" stroke-width="2.4" stroke-linecap="round" opacity="0.32" fill="none" />
<path d="M 301.5 400.4 Q 296.6 403.7 292.6 409.6" stroke="#63875e" stroke-width="2.4" stroke-linecap="round" opacity="0.32" fill="none" />
<path d="M 376.4 181.8 Q 382.4 180.1 387.3 177.0" stroke="#63875e" stroke-width="2.4" stroke-linecap="round" opacity="0.32" fill="none" />
<path d="M 347.9 427.0 Q 345.0 431.7 342.5 440.4" stroke="#63875e" stroke-width="2.4" stroke-linecap="round" opacity="0.32" fill="none" />
<path d="M 361.5 167.0 Q 367.0 165.4 371.5 162.3" stroke="#63875e" stroke-width="2.4" stroke-linecap="round" opacity="0.32" fill="none" />
<path d="M 151.3 132.8 Q 147.1 132.2 143.6 130.9" stroke="#63875e" stroke-width="2.4" stroke-linecap="round" opacity="0.32" fill="none" />
<path d="M 388.4 202.7 Q 390.1 200.1 391.5 195.2" stroke="#63875e" stroke-width="2.4" stroke-linecap="round" opacity="0.32" fill="none" />
<path d="M 365.0 168.9 Q 370.4 166.7 374.8 162.6" stroke="#63875e" stroke-width="2.4" stroke-linecap="round" opacity="0.32" fill="none" />
<path d="M 147.3 132.8 Q 140.1 134.0 134.3 136.1" stroke="#63875e" stroke-width="2.4" stroke-linecap="round" opacity="0.32" fill="none" />
<path d="M 203.4 310.6 Q 195.8 313.4 189.6 318.6" stroke="#63875e" stroke-width="2.4" stroke-linecap="round" opacity="0.32" fill="none" />
<path d="M 392.6 205.7 Q 397.4 201.8 401.2 194.5" stroke="#63875e" stroke-width="2.4" stroke-linecap="round" opacity="0.32" fill="none" />
<path d="M 426.9 230.0 Q 432.4 228.1 436.8 224.6" stroke="#63875e" stroke-width="2.4" stroke-linecap="round" opacity="0.32" fill="none" />
<path d="M 428.6 233.2 Q 430.1 229.9 431.3 223.7" stroke="#63875e" stroke-width="2.4" stroke-linecap="round" opacity="0.32" fill="none" />
<path d="M 149.2 107.5 Q 142.7 108.4 137.4 110.2" stroke="#63875e" stroke-width="2.4" stroke-linecap="round" opacity="0.32" fill="none" />
<path d="M 393.2 203.1 Q 398.2 200.9 402.3 196.9" stroke="#63875e" stroke-width="2.4" stroke-linecap="round" opacity="0.32" fill="none" />
<path d="M 274.8 394.6 Q 271.6 398.5 269.1 405.6" stroke="#63875e" stroke-width="2.4" stroke-linecap="round" opacity="0.32" fill="none" />
<path d="M 369.8 165.0 Q 375.9 164.9 381.0 164.6" stroke="#63875e" stroke-width="2.4" stroke-linecap="round" opacity="0.32" fill="none" />
<path d="M 251.5 369.0 Q 247.3 371.5 243.8 376.0" stroke="#63875e" stroke-width="2.4" stroke-linecap="round" opacity="0.32" fill="none" />
<path d="M 361.5 148.5 Q 368.6 148.9 374.5 149.5" stroke="#63875e" stroke-width="2.4" stroke-linecap="round" opacity="0.32" fill="none" />
<path d="M 274.9 394.4 Q 273.6 397.8 272.6 404.0" stroke="#63875e" stroke-width="2.4" stroke-linecap="round" opacity="0.32" fill="none" />
<path d="M 266.8 376.9 Q 260.2 380.2 254.8 386.4" stroke="#63875e" stroke-width="2.4" stroke-linecap="round" opacity="0.32" fill="none" />
<path d="M 331.2 419.9 Q 329.0 423.3 327.1 429.5" stroke="#63875e" stroke-width="2.4" stroke-linecap="round" opacity="0.32" fill="none" />
<path d="M 379.7 186.9 Q 382.6 185.3 385.0 182.3" stroke="#63875e" stroke-width="2.4" stroke-linecap="round" opacity="0.32" fill="none" />
<path d="M 375.6 184.5 Q 380.1 181.9 383.8 177.0" stroke="#63875e" stroke-width="2.4" stroke-linecap="round" opacity="0.32" fill="none" />
<path d="M 179.6 270.9 Q 174.7 272.6 170.7 275.8" stroke="#63875e" stroke-width="2.4" stroke-linecap="round" opacity="0.32" fill="none" />
<path d="M 358.6 88.5 Q 364.2 88.9 368.7 89.6" stroke="#63875e" stroke-width="2.4" stroke-linecap="round" opacity="0.32" fill="none" />
<path d="M 153.7 82.2 Q 146.3 82.4 140.2 82.7" stroke="#63875e" stroke-width="2.4" stroke-linecap="round" opacity="0.32" fill="none" />
<path d="M 174.5 268.6 Q 168.3 270.3 163.2 273.6" stroke="#63875e" stroke-width="2.4" stroke-linecap="round" opacity="0.32" fill="none" />
<path d="M 150.6 91.7 Q 145.6 91.4 141.5 91.0" stroke="#63875e" stroke-width="2.4" stroke-linecap="round" opacity="0.32" fill="none" />
<path d="M 370.1 177.5 Q 376.9 174.6 382.4 169.3" stroke="#63875e" stroke-width="2.4" stroke-linecap="round" opacity="0.32" fill="none" />
    <path d="M 256.0 55.9 L 256.0 136.0 Q 256.0 256.0 359.9 316.0 L 429.3 356.1" fill="none" stroke="url(#water-fill)" stroke-width="100.0"
          stroke-linecap="butt" />
    <path d="M 256.0 55.9 L 256.0 136.0 Q 256.0 256.0 359.9 316.0 L 429.3 356.1" fill="none" stroke="url(#water-shade)" stroke-width="100.0"
          stroke-linecap="butt" />
    <path d="M 256.0 55.9 L 256.0 136.0 Q 256.0 256.0 359.9 316.0 L 429.3 356.1" fill="none" stroke="#d5f3f6" stroke-width="100.0"
          stroke-linecap="butt" opacity="0.28" />
    <path d="M 352.3 335.2 Q 366.4 314.0 377.8 291.1" stroke="#81cbd8" stroke-width="1.11" stroke-linecap="round" opacity="0.26" fill="none" />
<path d="M 325.1 312.8 Q 332.8 298.4 344.4 287.0" stroke="#c6eef8" stroke-width="1.19" stroke-linecap="round" opacity="0.17" fill="none" />
<path d="M 273.3 270.3 Q 288.1 256.5 305.9 246.7" stroke="#81cbd8" stroke-width="1.17" stroke-linecap="round" opacity="0.23" fill="none" />
<path d="M 261.1 229.9 Q 275.2 227.1 286.8 218.4" stroke="#c6eef8" stroke-width="1.31" stroke-linecap="round" opacity="0.29" fill="none" />
<path d="M 244.0 214.2 Q 265.8 206.7 287.8 199.8" stroke="#a6dde9" stroke-width="1.98" stroke-linecap="round" opacity="0.29" fill="none" />
<path d="M 240.6 170.9 Q 258.7 165.5 277.6 166.1" stroke="#a6dde9" stroke-width="1.56" stroke-linecap="round" opacity="0.30" fill="none" />
<path d="M 282.3 271.0 Q 292.8 262.1 304.0 254.3" stroke="#c6eef8" stroke-width="1.56" stroke-linecap="round" opacity="0.33" fill="none" />
<path d="M 317.5 302.7 Q 326.6 292.6 334.9 281.8" stroke="#c6eef8" stroke-width="1.26" stroke-linecap="round" opacity="0.24" fill="none" />
<path d="M 240.4 193.0 Q 257.1 186.3 275.1 185.1" stroke="#a6dde9" stroke-width="2.06" stroke-linecap="round" opacity="0.35" fill="none" />
<path d="M 355.2 342.1 Q 371.0 321.0 381.4 296.8" stroke="#81cbd8" stroke-width="1.30" stroke-linecap="round" opacity="0.20" fill="none" />
<path d="M 236.8 168.3 Q 257.1 168.2 276.8 163.5" stroke="#81cbd8" stroke-width="1.25" stroke-linecap="round" opacity="0.27" fill="none" />
<path d="M 278.0 256.4 Q 290.7 247.0 304.3 239.0" stroke="#c6eef8" stroke-width="1.08" stroke-linecap="round" opacity="0.23" fill="none" />
<path d="M 238.1 123.3 Q 260.0 123.6 281.8 123.3" stroke="#a6dde9" stroke-width="1.67" stroke-linecap="round" opacity="0.20" fill="none" />
<path d="M 241.1 117.0 Q 261.2 119.0 281.4 117.0" stroke="#c6eef8" stroke-width="1.34" stroke-linecap="round" opacity="0.18" fill="none" />
<path d="M 305.3 298.3 Q 314.1 284.8 326.8 275.0" stroke="#81cbd8" stroke-width="1.71" stroke-linecap="round" opacity="0.20" fill="none" />
<path d="M 328.2 319.3 Q 341.0 301.8 353.3 283.9" stroke="#81cbd8" stroke-width="1.14" stroke-linecap="round" opacity="0.32" fill="none" />
<path d="M 242.0 167.7 Q 257.2 168.4 271.9 164.1" stroke="#c6eef8" stroke-width="1.96" stroke-linecap="round" opacity="0.16" fill="none" />
<path d="M 326.8 305.5 Q 335.6 294.8 343.7 283.5" stroke="#81cbd8" stroke-width="1.48" stroke-linecap="round" opacity="0.34" fill="none" />
<path d="M 252.4 193.3 Q 263.5 186.9 276.3 187.5" stroke="#a6dde9" stroke-width="1.48" stroke-linecap="round" opacity="0.21" fill="none" />
<path d="M 320.3 330.4 Q 337.0 310.3 350.4 287.9" stroke="#81cbd8" stroke-width="1.56" stroke-linecap="round" opacity="0.31" fill="none" />
<path d="M 295.2 279.2 Q 304.1 267.4 316.8 260.0" stroke="#a6dde9" stroke-width="1.07" stroke-linecap="round" opacity="0.19" fill="none" />
<path d="M 404.4 353.2 Q 409.2 337.3 420.6 325.2" stroke="#a6dde9" stroke-width="1.09" stroke-linecap="round" opacity="0.24" fill="none" />
<path d="M 249.5 231.7 Q 273.2 223.3 295.6 211.9" stroke="#a6dde9" stroke-width="1.42" stroke-linecap="round" opacity="0.33" fill="none" />
<path d="M 347.0 319.5 Q 354.7 310.1 359.7 299.0" stroke="#a6dde9" stroke-width="2.02" stroke-linecap="round" opacity="0.34" fill="none" />
<path d="M 329.7 322.7 Q 341.6 305.3 353.7 288.0" stroke="#81cbd8" stroke-width="1.29" stroke-linecap="round" opacity="0.23" fill="none" />
<path d="M 358.9 329.8 Q 367.4 321.9 370.0 310.6" stroke="#81cbd8" stroke-width="1.91" stroke-linecap="round" opacity="0.25" fill="none" />
<path d="M 244.0 211.1 Q 259.3 202.6 276.8 200.7" stroke="#c6eef8" stroke-width="1.76" stroke-linecap="round" opacity="0.32" fill="none" />
<path d="M 261.1 253.0 Q 287.1 242.0 309.6 225.0" stroke="#a6dde9" stroke-width="1.44" stroke-linecap="round" opacity="0.32" fill="none" />
    <path d="M 256.0 83.9 L 256.0 136.0 Q 256.0 256.0 359.9 316.0 L 405.1 342.1" fill="none" stroke="#142e36" stroke-width="1.8" opacity="0.18" />
  </g>
</svg>
