<svg xmlns="http://www.w3.org/2000/svg" width="512" height="512" viewBox="0 0 512 512">
  <defs>
    <clipPath id="hex-clip">
      <polygon points="48.0,256.0 152.0,75.9 360.0,75.9 464.0,256.0 360.0,436.1 152.0,436.1" />
    </clipPath>
    <linearGradient id="bank-fill" x1="0%" y1="0%" x2="100%" y2="0%">
      <stop offset="0%" stop-color="#8f8a7d" />
      <stop offset="12%" stop-color="#b7b0a2" />
      <stop offset="50%" stop-color="#dfd6c9" />
      <stop offset="88%" stop-color="#b7b0a2" />
      <stop offset="100%" stop-color="#8f8a7d" />
    </linearGradient>
    <linearGradient id="water-fill" x1="0%" y1="0%" x2="100%" y2="0%">
      <stop offset="0%" stop-color="#295f69" />
      <stop offset="20%" stop-color="#327884" />
      <stop offset="50%" stop-color="#5ea4af" />
      <stop offset="80%" stop-color="#327884" />
      <stop offset="100%" stop-color="#295f69" />
    </linearGradient>
    <linearGradient id="water-shade" x1="0%" y1="0%" x2="0%" y2="100%">
      <stop offset="0%" stop-color="#8dd6de" stop-opacity="0.38" />
      <stop offset="35%" stop-color="#ffffff" stop-opacity="0.06" />
      <stop offset="100%" stop-color="#11343e" stop-opacity="0.24" />
    </linearGradient>
    <filter id="soft-shadow" x="-20%" y="-20%" width="140%" height="140%">
      <feDropShadow dx="0" dy="6" stdDeviation="8" flood-color="#2b2418" flood-opacity="0.35" />
    </filter>
  </defs>

  <g clip-path="url(#hex-clip)">
    <path d="M 256.0 55.9 L 256.0 456.1" fill="none" stroke="url(#bank-fill)" stroke-width="196.0"
          stroke-linecap="butt" opacity="0.95" filter="url(#soft-shadow)" />
    <ellipse cx="173.9" cy="163.7" rx="5.7" ry="3.1" fill="#ada295" opacity="0.53" transform="rotate(61.8 173.9 163.7)" />
<ellipse cx="174.5" cy="103.8" rx="4.7" ry="4.3" fill="#ada295" opacity="0.67" transform="rotate(36.2 174.5 103.8)" />
<ellipse cx="176.7" cy="211.6" rx="5.7" ry="3.7" fill="#ada295" opacity="0.64" transform="rotate(7.0 176.7 211.6)" />
<ellipse cx="338.4" cy="420.2" rx="2.1" ry="3.4" fill="#ddd4c7" opacity="0.32" transform="rotate(148.3 338.4 420.2)" />
<ellipse cx="341.5" cy="305.9" rx="3.7" ry="2.4" fill="#8e857b" opacity="0.56" transform="rotate(60.6 341.5 305.9)" />
<ellipse cx="186.6" cy="116.4" rx="4.3" ry="2.9" fill="#ada295" opacity="0.62" transform="rotate(161.2 186.6 116.4)" />
<ellipse cx="338.9" cy="356.4" rx="4.1" ry="1.9" fill="#ada295" opacity="0.39" transform="rotate(0.3 338.9 356.4)" />
<ellipse cx="328.2" cy="264.2" rx="3.2" ry="4.1" fill="#ddd4c7" opacity="0.69" transform="rotate(166.8 328.2 264.2)" />
<ellipse cx="327.5" cy="368.1" rx="2.7" ry="2.2" fill="#8e857b" opacity="0.55" transform="rotate(56.2 327.5 368.1)" />
<ellipse cx="183.6" cy="164.0" rx="5.4" ry="3.2" fill="#ada295" opacity="0.50" transform="rotate(164.8 183.6 164.0)" />
<ellipse cx="181.4" cy="304.6" rx="4.1" ry="2.9" fill="#ada295" opacity="0.68" transform="rotate(111.6 181.4 304.6)" />
<ellipse cx="176.4" cy="272.0" rx="4.7" ry="4.2" fill="#ada295" opacity="0.66" transform="rotate(44.0 176.4 272.0)" />
<ellipse cx="175.8" cy="362.5" rx="3.4" ry="4.0" fill="#ada295" opacity="0.34" transform="rotate(150.8 175.8 362.5)" />
<ellipse cx="187.6" cy="195.5" rx="6.2" ry="3.8" fill="#8e857b" opacity="0.42" transform="rotate(25.1 187.6 195.5)" />
<ellipse cx="341.6" cy="140.9" rx="5.5" ry="2.5" fill="#ada295" opacity="0.36" transform="rotate(170.0 341.6 140.9)" />
<ellipse cx="336.3" cy="174.8" rx="5.1" ry="4.7" fill="#c4baac" opacity="0.68" transform="rotate(109.2 336.3 174.8)" />
<ellipse cx="178.2" cy="396.4" rx="2.5" ry="3.9" fill="#ada295" opacity="0.34" transform="rotate(150.3 178.2 396.4)" />
<ellipse cx="172.5" cy="244.3" rx="3.4" ry="4.0" fill="#c4baac" opacity="0.34" transform="rotate(159.1 172.5 244.3)" />
<ellipse cx="325.3" cy="342.7" rx="2.2" ry="3.6" fill="#c4baac" opacity="0.29" transform="rotate(74.0 325.3 342.7)" />
<ellipse cx="174.7" cy="107.6" rx="3.9" ry="2.6" fill="#8e857b" opacity="0.54" transform="rotate(31.2 174.7 107.6)" />
<ellipse cx="172.8" cy="136.9" rx="3.3" ry="4.7" fill="#ddd4c7" opacity="0.49" transform="rotate(4.2 172.8 136.9)" />
<ellipse cx="187.6" cy="352.1" rx="4.9" ry="3.6" fill="#ada295" opacity="0.31" transform="rotate(52.9 187.6 352.1)" />
<ellipse cx="176.1" cy="278.1" rx="2.7" ry="2.9" fill="#ada295" opacity="0.60" transform="rotate(55.4 176.1 278.1)" />
<ellipse cx="332.2" cy="108.7" rx="3.6" ry="1.9" fill="#ada295" opacity="0.58" transform="rotate(21.5 332.2 108.7)" />
<ellipse cx="331.5" cy="399.3" rx="3.7" ry="4.7" fill="#ddd4c7" opacity="0.55" transform="rotate(76.6 331.5 399.3)" />
<ellipse cx="325.3" cy="204.3" rx="2.2" ry="2.0" fill="#8e857b" opacity="0.45" transform="rotate(113.9 325.3 204.3)" />
<ellipse cx="188.0" cy="234.5" rx="4.9" ry="2.7" fill="#8e857b" opacity="0.65" transform="rotate(178.3 188.0 234.5)" />
<ellipse cx="337.6" cy="366.2" rx="5.5" ry="4.2" fill="#ddd4c7" opacity="0.42" transform="rotate(124.1 337.6 366.2)" />
<ellipse cx="183.3" cy="382.8" rx="4.3" ry="1.8" fill="#ada295" opacity="0.41" transform="rotate(120.5 183.3 382.8)" />
<ellipse cx="334.9" cy="244.5" rx="5.0" ry="1.9" fill="#8e857b" opacity="0.28" transform="rotate(65.0 334.9 244.5)" />
<ellipse cx="341.7" cy="258.7" rx="4.9" ry="2.0" fill="#ddd4c7" opacity="0.59" transform="rotate(23.4 341.7 258.7)" />
<ellipse cx="330.0" cy="251.5" rx="3.7" ry="4.3" fill="#c4baac" opacity="0.42" transform="rotate(9.7 330.0 251.5)" />
<ellipse cx="326.4" cy="117.6" rx="2.3" ry="1.5" fill="#ddd4c7" opacity="0.40" transform="rotate(154.9 326.4 117.6)" />
<ellipse cx="326.8" cy="226.0" rx="6.1" ry="3.4" fill="#c4baac" opacity="0.30" transform="rotate(33.8 326.8 226.0)" />
<ellipse cx="172.9" cy="273.5" rx="3.7" ry="3.1" fill="#ddd4c7" opacity="0.37" transform="rotate(147.8 172.9 273.5)" />
<ellipse cx="175.1" cy="324.7" rx="4.3" ry="3.9" fill="#8e857b" opacity="0.28" transform="rotate(11.0 175.1 324.7)" />
<ellipse cx="176.2" cy="322.8" rx="3.6" ry="1.6" fill="#ddd4c7" opacity="0.32" transform="rotate(153.7 176.2 322.8)" />
<ellipse cx="341.3" cy="319.8" rx="6.2" ry="4.2" fill="#ddd4c7" opacity="0.61" transform="rotate(45.1 341.3 319.8)" />
<ellipse cx="333.9" cy="198.5" rx="2.7" ry="3.7" fill="#ada295" opacity="0.64" transform="rotate(177.6 333.9 198.5)" />
<ellipse cx="186.7" cy="356.8" rx="3.3" ry="1.8" fill="#8e857b" opacity="0.44" transform="rotate(3.2 186.7 356.8)" />
<ellipse cx="325.4" cy="194.4" rx="3.5" ry="4.2" fill="#ada295" opacity="0.45" transform="rotate(2.9 325.4 194.4)" />
<ellipse cx="184.0" cy="268.2" rx="3.4" ry="3.4" fill="#ada295" opacity="0.46" transform="rotate(168.2 184.0 268.2)" />
<ellipse cx="336.3" cy="71.6" rx="5.7" ry="1.8" fill="#c4baac" opacity="0.31" transform="rotate(163.8 336.3 71.6)" />
<ellipse cx="331.4" cy="252.5" rx="5.5" ry="4.5" fill="#ddd4c7" opacity="0.42" transform="rotate(62.1 331.4 252.5)" />
<ellipse cx="178.2" cy="321.8" rx="5.0" ry="4.3" fill="#c4baac" opacity="0.56" transform="rotate(14.7 178.2 321.8)" />
<ellipse cx="333.4" cy="378.1" rx="4.5" ry="4.4" fill="#ada295" opacity="0.32" transform="rotate(12.2 333.4 378.1)" />
<ellipse cx="184.9" cy="346.6" rx="3.4" ry="3.3" fill="#ddd4c7" opacity="0.34" transform="rotate(149.8 184.9 346.6)" />
<ellipse cx="325.8" cy="321.9" rx="3.6" ry="3.6" fill="#ddd4c7" opacity="0.44" transform="rotate(94.1 325.8 321.9)" />
<ellipse cx="326.6" cy="417.5" rx="5.4" ry="3.4" fill="#ada295" opacity="0.52" transform="rotate(67.4 326.6 417.5)" />
<ellipse cx="177.3" cy="223.9" rx="3.3" ry="3.7" fill="#c4baac" opacity="0.29" transform="rotate(91.6 177.3 223.9)" />
<ellipse cx="174.6" cy="229.4" rx="3.6" ry="2.7" fill="#ada295" opacity="0.32" transform="rotate(177.6 174.6 229.4)" />
<ellipse cx="186.1" cy="236.4" rx="5.6" ry="3.4" fill="#8e857b" opacity="0.32" transform="rotate(121.4 186.1 236.4)" />
<ellipse cx="340.1" cy="436.6" rx="4.3" ry="4.4" fill="#8e857b" opacity="0.44" transform="rotate(18.8 340.1 436.6)" />
<ellipse cx="326.1" cy="375.6" rx="3.4" ry="3.1" fill="#ada295" opacity="0.32" transform="rotate(52.2 326.1 375.6)" />
<ellipse cx="173.6" cy="270.2" rx="3.7" ry="4.6" fill="#8e857b" opacity="0.63" transform="rotate(165.7 173.6 270.2)" />
<ellipse cx="180.1" cy="346.1" rx="4.7" ry="2.2" fill="#ada295" opacity="0.32" transform="rotate(5.7 180.1 346.1)" />
<ellipse cx="328.3" cy="172.6" rx="3.4" ry="3.6" fill="#c4baac" opacity="0.68" transform="rotate(116.9 328.3 172.6)" />
<ellipse cx="174.0" cy="228.3" rx="4.3" ry="2.2" fill="#c4baac" opacity="0.37" transform="rotate(10.3 174.0 228.3)" />
<ellipse cx="334.9" cy="185.0" rx="6.1" ry="4.0" fill="#c4baac" opacity="0.66" transform="rotate(82.1 334.9 185.0)" />
<ellipse cx="338.8" cy="249.0" rx="6.4" ry="2.2" fill="#c4baac" opacity="0.41" transform="rotate(161.0 338.8 249.0)" />
<ellipse cx="324.0" cy="407.0" rx="6.3" ry="3.5" fill="#c4baac" opacity="0.43" transform="rotate(140.1 324.0 407.0)" />
<ellipse cx="172.5" cy="391.8" rx="4.0" ry="3.1" fill="#ada295" opacity="0.53" transform="rotate(177.2 172.5 391.8)" />
<ellipse cx="173.3" cy="185.2" rx="6.1" ry="4.1" fill="#8e857b" opacity="0.34" transform="rotate(27.8 173.3 185.2)" />
<ellipse cx="183.2" cy="314.5" rx="5.7" ry="1.9" fill="#8e857b" opacity="0.35" transform="rotate(80.2 183.2 314.5)" />
<ellipse cx="172.4" cy="267.6" rx="4.2" ry="2.7" fill="#c4baac" opacity="0.59" transform="rotate(51.9 172.4 267.6)" />
<ellipse cx="334.2" cy="405.9" rx="6.2" ry="4.0" fill="#c4baac" opacity="0.46" transform="rotate(116.7 334.2 405.9)" />
<ellipse cx="337.3" cy="427.3" rx="4.4" ry="1.7" fill="#ddd4c7" opacity="0.39" transform="rotate(28.4 337.3 427.3)" />
<ellipse cx="175.2" cy="196.5" rx="2.1" ry="3.2" fill="#ada295" opacity="0.60" transform="rotate(67.3 175.2 196.5)" />
<ellipse cx="329.2" cy="330.6" rx="4.8" ry="3.7" fill="#ada295" opacity="0.33" transform="rotate(115.6 329.2 330.6)" />
<ellipse cx="183.5" cy="201.8" rx="4.7" ry="1.4" fill="#ddd4c7" opacity="0.43" transform="rotate(143.2 183.5 201.8)" />
<ellipse cx="173.3" cy="194.8" rx="2.3" ry="3.8" fill="#c4baac" opacity="0.66" transform="rotate(156.0 173.3 194.8)" />
<ellipse cx="170.0" cy="425.7" rx="5.5" ry="4.3" fill="#c4baac" opacity="0.40" transform="rotate(123.7 170.0 425.7)" />
<ellipse cx="172.7" cy="202.2" rx="3.9" ry="3.5" fill="#ddd4c7" opacity="0.36" transform="rotate(1.4 172.7 202.2)" />
<ellipse cx="333.4" cy="364.6" rx="4.7" ry="1.8" fill="#ada295" opacity="0.39" transform="rotate(85.6 333.4 364.6)" />
<ellipse cx="175.6" cy="245.6" rx="5.0" ry="3.0" fill="#c4baac" opacity="0.47" transform="rotate(83.8 175.6 245.6)" />
<ellipse cx="328.5" cy="252.5" rx="5.4" ry="4.1" fill="#8e857b" opacity="0.66" transform="rotate(113.4 328.5 252.5)" />
<ellipse cx="331.4" cy="260.3" rx="4.1" ry="4.6" fill="#c4baac" opacity="0.55" transform="rotate(126.8 331.4 260.3)" />
<ellipse cx="341.8" cy="365.7" rx="6.3" ry="4.0" fill="#ada295" opacity="0.42" transform="rotate(57.8 341.8 365.7)" />
<ellipse cx="326.9" cy="336.5" rx="5.5" ry="4.3" fill="#8e857b" opacity="0.45" transform="rotate(176.1 326.9 336.5)" />
<ellipse cx="328.3" cy="243.1" rx="3.9" ry="3.3" fill="#ada295" opacity="0.50" transform="rotate(106.7 328.3 243.1)" />
<ellipse cx="182.9" cy="113.8" rx="4.3" ry="3.3" fill="#c4baac" opacity="0.39" transform="rotate(40.3 182.9 113.8)" />
<ellipse cx="329.1" cy="309.9" rx="2.5" ry="4.5" fill="#ada295" opacity="0.61" transform="rotate(120.7 329.1 309.9)" />
<ellipse cx="172.2" cy="314.6" rx="2.7" ry="1.9" fill="#ada295" opacity="0.60" transform="rotate(11.2 172.2 314.6)" />
<ellipse cx="179.1" cy="343.1" rx="6.1" ry="2.6" fill="#8e857b" opacity="0.70" transform="rotate(141.2 179.1 343.1)" />
<ellipse cx="181.8" cy="377.1" rx="3.0" ry="2.2" fill="#ada295" opacity="0.60" transform="rotate(166.5 181.8 377.1)" />
<ellipse cx="181.4" cy="192.8" rx="2.8" ry="2.4" fill="#8e857b" opacity="0.68" transform="rotate(0.2 181.4 192.8)" />
<ellipse cx="171.0" cy="124.8" rx="3.3" ry="3.6" fill="#c4baac" opacity="0.37" transform="rotate(59.8 171.0 124.8)" />
<ellipse cx="183.7" cy="301.9" rx="6.2" ry="3.2" fill="#ada295" opacity="0.68" transform="rotate(118.9 183.7 301.9)" />
<ellipse cx="338.1" cy="233.4" rx="6.1" ry="1.7" fill="#ddd4c7" opacity="0.40" transform="rotate(39.8 338.1 233.4)" />
<ellipse cx="171.6" cy="316.4" rx="5.0" ry="1.5" fill="#c4baac" opacity="0.57" transform="rotate(21.7 171.6 316.4)" />
<ellipse cx="176.4" cy="425.1" rx="3.6" ry="1.6" fill="#c4baac" opacity="0.35" transform="rotate(107.1 176.4 425.1)" />
<ellipse cx="328.8" cy="366.7" rx="4.9" ry="3.5" fill="#ddd4c7" opacity="0.31" transform="rotate(4.4 328.8 366.7)" />
<ellipse cx="327.3" cy="279.8" rx="6.3" ry="4.4" fill="#ada295" opacity="0.45" transform="rotate(163.3 327.3 279.8)" />
<ellipse cx="337.8" cy="399.0" rx="4.7" ry="2.6" fill="#8e857b" opacity="0.54" transform="rotate(83.4 337.8 399.0)" />
<ellipse cx="174.1" cy="129.1" rx="4.5" ry="4.3" fill="#ada295" opacity="0.55" transform="rotate(143.7 174.1 129.1)" />
<ellipse cx="326.8" cy="309.6" rx="4.4" ry="3.9" fill="#c4baac" opacity="0.61" transform="rotate(70.7 326.8 309.6)" />
<ellipse cx="327.1" cy="333.8" rx="5.9" ry="1.8" fill="#c4baac" opacity="0.54" transform="rotate(66.6 327.1 333.8)" />
<ellipse cx="341.9" cy="233.2" rx="2.8" ry="2.3" fill="#ada295" opacity="0.68" transform="rotate(173.8 341.9 233.2)" />
<ellipse cx="324.9" cy="361.5" rx="4.8" ry="2.9" fill="#ada295" opacity="0.49" transform="rotate(29.6 324.9 361.5)" />
<ellipse cx="183.8" cy="204.9" rx="4.0" ry="4.5" fill="#ddd4c7" opacity="0.41" transform="rotate(77.8 183.8 204.9)" />
<ellipse cx="332.2" cy="260.7" rx="4.6" ry="2.9" fill="#c4baac" opacity="0.34" transform="rotate(45.5 332.2 260.7)" />
<ellipse cx="181.3" cy="192.8" rx="3.9" ry="1.9" fill="#c4baac" opacity="0.54" transform="rotate(11.1 181.3 192.8)" />
<ellipse cx="179.1" cy="346.9" rx="3.8" ry="4.4" fill="#8e857b" opacity="0.68" transform="rotate(48.6 179.1 346.9)" />
<ellipse cx="177.3" cy="184.1" rx="3.1" ry="2.4" fill="#ddd4c7" opacity="0.68" transform="rotate(67.0 177.3 184.1)" />
<ellipse cx="334.2" cy="431.4" rx="3.6" ry="3.9" fill="#ada295" opacity="0.54" transform="rotate(76.6 334.2 431.4)" />
<ellipse cx="330.0" cy="419.1" rx="4.5" ry="4.0" fill="#ddd4c7" opacity="0.35" transform="rotate(161.1 330.0 419.1)" />
<ellipse cx="182.1" cy="176.2" rx="2.6" ry="2.2" fill="#ddd4c7" opacity="0.69" transform="rotate(174.0 182.1 176.2)" />
<ellipse cx="333.5" cy="421.3" rx="5.4" ry="3.2" fill="#8e857b" opacity="0.64" transform="rotate(151.4 333.5 421.3)" />
<ellipse cx="331.1" cy="239.4" rx="2.5" ry="2.3" fill="#8e857b" opacity="0.36" transform="rotate(160.1 331.1 239.4)" />
<ellipse cx="186.8" cy="297.5" rx="3.8" ry="3.0" fill="#c4baac" opacity="0.67" transform="rotate(108.9 186.8 297.5)" />
<ellipse cx="331.0" cy="152.4" rx="2.0" ry="4.7" fill="#8e857b" opacity="0.45" transform="rotate(71.6 331.0 152.4)" />
<ellipse cx="337.6" cy="185.3" rx="5.3" ry="4.6" fill="#8e857b" opacity="0.58" transform="rotate(34.2 337.6 185.3)" />
<ellipse cx="180.5" cy="120.5" rx="5.6" ry="2.2" fill="#ddd4c7" opacity="0.53" transform="rotate(158.2 180.5 120.5)" />
<ellipse cx="177.9" cy="106.2" rx="3.6" ry="2.0" fill="#ada295" opacity="0.48" transform="rotate(14.1 177.9 106.2)" />
<ellipse cx="331.6" cy="273.2" rx="4.8" ry="1.7" fill="#ada295" opacity="0.63" transform="rotate(27.4 331.6 273.2)" />
<ellipse cx="187.1" cy="376.7" rx="2.4" ry="3.2" fill="#ada295" opacity="0.45" transform="rotate(103.1 187.1 376.7)" />
<ellipse cx="341.9" cy="123.2" rx="3.5" ry="2.2" fill="#c4baac" opacity="0.53" transform="rotate(49.9 341.9 123.2)" />
<ellipse cx="175.9" cy="144.1" rx="6.2" ry="4.3" fill="#ddd4c7" opacity="0.39" transform="rotate(41.8 175.9 144.1)" />
<ellipse cx="330.6" cy="225.1" rx="5.1" ry="2.6" fill="#ada295" opacity="0.69" transform="rotate(165.4 330.6 225.1)" />
<ellipse cx="338.6" cy="322.6" rx="5.3" ry="4.5" fill="#c4baac" opacity="0.47" transform="rotate(62.8 338.6 322.6)" />
<ellipse cx="185.9" cy="91.3" rx="5.9" ry="1.5" fill="#ddd4c7" opacity="0.55" transform="rotate(178.3 185.9 91.3)" />
<ellipse cx="174.5" cy="172.0" rx="3.8" ry="2.3" fill="#8e857b" opacity="0.41" transform="rotate(159.0 174.5 172.0)" />
<ellipse cx="335.6" cy="426.5" rx="2.2" ry="4.6" fill="#c4baac" opacity="0.66" transform="rotate(72.5 335.6 426.5)" />
<ellipse cx="338.3" cy="220.5" rx="4.2" ry="3.8" fill="#ddd4c7" opacity="0.36" transform="rotate(75.2 338.3 220.5)" />
<ellipse cx="183.5" cy="332.2" rx="4.8" ry="3.5" fill="#ddd4c7" opacity="0.34" transform="rotate(144.1 183.5 332.2)" />
<ellipse cx="336.0" cy="264.6" rx="2.4" ry="2.0" fill="#8e857b" opacity="0.42" transform="rotate(134.6 336.0 264.6)" />
<ellipse cx="187.7" cy="149.2" rx="5.9" ry="4.1" fill="#8e857b" opacity="0.66" transform="rotate(26.2 187.7 149.2)" />
<ellipse cx="331.1" cy="353.4" rx="5.1" ry="1.6" fill="#c4baac" opacity="0.41" transform="rotate(124.9 331.1 353.4)" />
<ellipse cx="176.8" cy="125.5" rx="3.6" ry="1.9" fill="#c4baac" opacity="0.43" transform="rotate(151.3 176.8 125.5)" />
<ellipse cx="173.8" cy="138.0" rx="3.8" ry="3.3" fill="#ada295" opacity="0.39" transform="rotate(90.2 173.8 138.0)" />
<ellipse cx="327.9" cy="323.4" rx="5.5" ry="2.3" fill="#8e857b" opacity="0.52" transform="rotate(177.8 327.9 323.4)" />
<ellipse cx="186.0" cy="358.1" rx="5.9" ry="4.4" fill="#ada295" opacity="0.42" transform="rotate(146.7 186.0 358.1)" />
<ellipse cx="329.8" cy="185.7" rx="4.9" ry="3.5" fill="#ddd4c7" opacity="0.37" transform="rotate(121.7 329.8 185.7)" />
<ellipse cx="187.4" cy="171.1" rx="4.4" ry="3.9" fill="#8e857b" opacity="0.45" transform="rotate(92.2 187.4 171.1)" />
<ellipse cx="331.8" cy="433.4" rx="5.9" ry="2.1" fill="#ddd4c7" opacity="0.45" transform="rotate(38.5 331.8 433.4)" />
<ellipse cx="175.8" cy="110.0" rx="3.1" ry="4.0" fill="#c4baac" opacity="0.62" transform="rotate(41.9 175.8 110.0)" />
<ellipse cx="182.4" cy="270.2" rx="2.4" ry="2.8" fill="#c4baac" opacity="0.47" transform="rotate(173.3 182.4 270.2)" />
<ellipse cx="177.8" cy="110.3" rx="3.9" ry="2.5" fill="#ada295" opacity="0.64" transform="rotate(131.6 177.8 110.3)" />
<ellipse cx="337.2" cy="91.2" rx="4.0" ry="3.1" fill="#ada295" opacity="0.34" transform="rotate(4.0 337.2 91.2)" />
<ellipse cx="171.1" cy="253.9" rx="6.3" ry="4.0" fill="#ddd4c7" opacity="0.47" transform="rotate(75.1 171.1 253.9)" />
<ellipse cx="327.2" cy="290.8" rx="5.3" ry="1.8" fill="#ada295" opacity="0.42" transform="rotate(156.1 327.2 290.8)" />
<ellipse cx="327.4" cy="100.7" rx="5.9" ry="2.2" fill="#8e857b" opacity="0.41" transform="rotate(14.7 327.4 100.7)" />
<ellipse cx="185.7" cy="390.6" rx="2.9" ry="2.5" fill="#c4baac" opacity="0.40" transform="rotate(153.7 185.7 390.6)" />
<ellipse cx="332.6" cy="142.4" rx="2.7" ry="2.5" fill="#ddd4c7" opacity="0.32" transform="rotate(59.4 332.6 142.4)" />
<ellipse cx="172.4" cy="408.7" rx="3.8" ry="2.1" fill="#ada295" opacity="0.48" transform="rotate(101.7 172.4 408.7)" />
<ellipse cx="338.4" cy="187.3" rx="4.7" ry="3.5" fill="#c4baac" opacity="0.59" transform="rotate(143.2 338.4 187.3)" />
<ellipse cx="327.7" cy="101.3" rx="5.7" ry="3.6" fill="#ada295" opacity="0.65" transform="rotate(130.0 327.7 101.3)" />
<ellipse cx="335.6" cy="321.8" rx="6.0" ry="3.5" fill="#ada295" opacity="0.48" transform="rotate(169.1 335.6 321.8)" />
<ellipse cx="176.6" cy="270.3" rx="2.4" ry="3.7" fill="#c4baac" opacity="0.42" transform="rotate(177.2 176.6 270.3)" />
<ellipse cx="185.4" cy="76.2" rx="4.6" ry="3.9" fill="#c4baac" opacity="0.62" transform="rotate(60.8 185.4 76.2)" />
<ellipse cx="179.9" cy="292.2" rx="4.4" ry="1.4" fill="#c4baac" opacity="0.60" transform="rotate(8.6 179.9 292.2)" />
<ellipse cx="182.6" cy="330.7" rx="2.3" ry="4.3" fill="#c4baac" opacity="0.61" transform="rotate(73.7 182.6 330.7)" />
<ellipse cx="178.5" cy="432.7" rx="4.3" ry="3.5" fill="#ddd4c7" opacity="0.33" transform="rotate(77.2 178.5 432.7)" />
<ellipse cx="325.5" cy="226.1" rx="4.9" ry="4.6" fill="#8e857b" opacity="0.63" transform="rotate(109.2 325.5 226.1)" />
<ellipse cx="330.4" cy="231.0" rx="5.5" ry="2.1" fill="#8e857b" opacity="0.53" transform="rotate(179.7 330.4 231.0)" />
<ellipse cx="329.8" cy="301.5" rx="4.9" ry="2.7" fill="#8e857b" opacity="0.67" transform="rotate(96.6 329.8 301.5)" />
<ellipse cx="338.8" cy="355.6" rx="6.0" ry="4.8" fill="#c4baac" opacity="0.40" transform="rotate(158.7 338.8 355.6)" />
<ellipse cx="327.3" cy="243.9" rx="5.7" ry="3.3" fill="#c4baac" opacity="0.69" transform="rotate(39.8 327.3 243.9)" />
<ellipse cx="172.8" cy="288.8" rx="3.0" ry="1.5" fill="#ddd4c7" opacity="0.69" transform="rotate(122.8 172.8 288.8)" />
<ellipse cx="177.2" cy="148.1" rx="4.6" ry="4.1" fill="#ada295" opacity="0.62" transform="rotate(141.3 177.2 148.1)" />
<ellipse cx="327.5" cy="286.8" rx="4.6" ry="2.3" fill="#ddd4c7" opacity="0.34" transform="rotate(132.8 327.5 286.8)" />
<ellipse cx="328.9" cy="95.4" rx="3.6" ry="4.6" fill="#c4baac" opacity="0.51" transform="rotate(96.5 328.9 95.4)" />
<ellipse cx="332.2" cy="226.1" rx="3.1" ry="4.0" fill="#c4baac" opacity="0.28" transform="rotate(57.9 332.2 226.1)" />
<ellipse cx="175.6" cy="220.7" rx="3.0" ry="1.7" fill="#c4baac" opacity="0.45" transform="rotate(32.0 175.6 220.7)" />
<ellipse cx="176.4" cy="119.3" rx="2.8" ry="2.5" fill="#ddd4c7" opacity="0.56" transform="rotate(83.1 176.4 119.3)" />
<ellipse cx="331.2" cy="80.1" rx="5.1" ry="4.7" fill="#c4baac" opacity="0.35" transform="rotate(133.9 331.2 80.1)" />
<ellipse cx="183.2" cy="219.4" rx="5.1" ry="1.6" fill="#ddd4c7" opacity="0.69" transform="rotate(159.4 183.2 219.4)" />
<ellipse cx="175.7" cy="110.9" rx="6.0" ry="3.2" fill="#8e857b" opacity="0.36" transform="rotate(84.4 175.7 110.9)" />
<ellipse cx="331.6" cy="410.7" rx="5.3" ry="2.5" fill="#8e857b" opacity="0.52" transform="rotate(61.5 331.6 410.7)" />
<ellipse cx="180.4" cy="399.3" rx="6.2" ry="3.0" fill="#ddd4c7" opacity="0.62" transform="rotate(9.1 180.4 399.3)" />
<ellipse cx="186.3" cy="113.8" rx="5.7" ry="2.7" fill="#c4baac" opacity="0.56" transform="rotate(150.7 186.3 113.8)" />
<ellipse cx="183.0" cy="282.5" rx="4.9" ry="4.6" fill="#8e857b" opacity="0.32" transform="rotate(27.7 183.0 282.5)" />
    <path d="M 358.9 302.9 Q 363.3 303.6 367.0 304.8" stroke="#63875e" stroke-width="2.4" stroke-linecap="round" opacity="0.32" fill="none" />
<path d="M 360.2 290.8 Q 365.4 291.5 369.7 292.7" stroke="#63875e" stroke-width="2.4" stroke-linecap="round" opacity="0.32" fill="none" />
<path d="M 362.1 221.2 Q 368.8 220.5 374.3 219.1" stroke="#63875e" stroke-width="2.4" stroke-linecap="round" opacity="0.32" fill="none" />
<path d="M 364.6 372.6 Q 369.7 372.3 374.0 371.8" stroke="#63875e" stroke-width="2.4" stroke-linecap="round" opacity="0.32" fill="none" />
<path d="M 358.9 209.1 Q 363.8 207.4 367.8 204.3" stroke="#63875e" stroke-width="2.4" stroke-linecap="round" opacity="0.32" fill="none" />
<path d="M 153.0 436.1 Q 148.1 437.9 144.1 441.1" stroke="#63875e" stroke-width="2.4" stroke-linecap="round" opacity="0.32" fill="none" />
<path d="M 150.7 178.8 Q 144.7 177.3 139.7 174.5" stroke="#63875e" stroke-width="2.4" stroke-linecap="round" opacity="0.32" fill="none" />
<path d="M 147.0 278.7 Q 142.0 280.3 137.9 283.3" stroke="#63875e" stroke-width="2.4" stroke-linecap="round" opacity="0.32" fill="none" />
<path d="M 143.6 221.2 Q 137.7 220.5 133.0 219.2" stroke="#63875e" stroke-width="2.4" stroke-linecap="round" opacity="0.32" fill="none" />
<path d="M 365.5 160.6 Q 372.4 159.7 378.1 157.9" stroke="#63875e" stroke-width="2.4" stroke-linecap="round" opacity="0.32" fill="none" />
<path d="M 147.4 260.5 Q 141.9 261.3 137.3 262.7" stroke="#63875e" stroke-width="2.4" stroke-linecap="round" opacity="0.32" fill="none" />
<path d="M 147.0 212.1 Q 141.0 213.1 136.0 215.1" stroke="#63875e" stroke-width="2.4" stroke-linecap="round" opacity="0.32" fill="none" />
<path d="M 367.7 103.1 Q 372.3 104.6 376.2 107.3" stroke="#63875e" stroke-width="2.4" stroke-linecap="round" opacity="0.32" fill="none" />
<path d="M 363.6 336.2 Q 370.5 335.4 376.1 333.8" stroke="#63875e" stroke-width="2.4" stroke-linecap="round" opacity="0.32" fill="none" />
<path d="M 358.4 193.9 Q 366.1 192.5 372.3 189.7" stroke="#63875e" stroke-width="2.4" stroke-linecap="round" opacity="0.32" fill="none" />
<path d="M 364.0 172.7 Q 369.6 172.2 374.3 171.3" stroke="#63875e" stroke-width="2.4" stroke-linecap="round" opacity="0.32" fill="none" />
<path d="M 147.1 375.6 Q 141.2 374.9 136.4 373.7" stroke="#63875e" stroke-width="2.4" stroke-linecap="round" opacity="0.32" fill="none" />
<path d="M 367.5 330.2 Q 375.2 331.4 381.5 333.7" stroke="#63875e" stroke-width="2.4" stroke-linecap="round" opacity="0.32" fill="none" />
<path d="M 359.7 299.9 Q 365.3 300.9 369.9 302.8" stroke="#63875e" stroke-width="2.4" stroke-linecap="round" opacity="0.32" fill="none" />
<path d="M 153.6 366.5 Q 147.4 365.7 142.4 364.2" stroke="#63875e" stroke-width="2.4" stroke-linecap="round" opacity="0.32" fill="none" />
<path d="M 367.3 242.4 Q 373.9 242.2 379.3 242.0" stroke="#63875e" stroke-width="2.4" stroke-linecap="round" opacity="0.32" fill="none" />
<path d="M 153.9 421.0 Q 149.1 422.1 145.2 424.2" stroke="#63875e" stroke-width="2.4" stroke-linecap="round" opacity="0.32" fill="none" />
<path d="M 358.2 193.9 Q 363.8 193.3 368.5 192.1" stroke="#63875e" stroke-width="2.4" stroke-linecap="round" opacity="0.32" fill="none" />
<path d="M 151.3 130.4 Q 147.1 129.7 143.6 128.4" stroke="#63875e" stroke-width="2.4" stroke-linecap="round" opacity="0.32" fill="none" />
<path d="M 364.6 309.0 Q 369.2 308.9 373.0 308.9" stroke="#63875e" stroke-width="2.4" stroke-linecap="round" opacity="0.32" fill="none" />
<path d="M 361.1 200.0 Q 366.3 198.9 370.6 196.8" stroke="#63875e" stroke-width="2.4" stroke-linecap="round" opacity="0.32" fill="none" />
<path d="M 147.3 130.4 Q 140.1 131.5 134.3 133.6" stroke="#63875e" stroke-width="2.4" stroke-linecap="round" opacity="0.32" fill="none" />
<path d="M 152.3 269.6 Q 144.8 270.4 138.6 271.8" stroke="#63875e" stroke-width="2.4" stroke-linecap="round" opacity="0.32" fill="none" />
<path d="M 365.3 321.1 Q 372.1 319.5 377.6 316.5" stroke="#63875e" stroke-width="2.4" stroke-linecap="round" opacity="0.32" fill="none" />
<path d="M 364.0 390.7 Q 371.3 391.4 377.2 392.8" stroke="#63875e" stroke-width="2.4" stroke-linecap="round" opacity="0.32" fill="none" />
<path d="M 362.0 393.7 Q 368.6 393.0 373.9 391.6" stroke="#63875e" stroke-width="2.4" stroke-linecap="round" opacity="0.32" fill="none" />
<path d="M 149.2 106.1 Q 142.7 107.1 137.4 108.8" stroke="#63875e" stroke-width="2.4" stroke-linecap="round" opacity="0.32" fill="none" />
<path d="M 367.6 318.1 Q 374.0 319.6 379.2 322.5" stroke="#63875e" stroke-width="2.4" stroke-linecap="round" opacity="0.32" fill="none" />
<path d="M 143.8 348.3 Q 137.4 349.8 132.2 352.5" stroke="#63875e" stroke-width="2.4" stroke-linecap="round" opacity="0.32" fill="none" />
<path d="M 366.7 193.9 Q 373.6 194.5 379.3 195.5" stroke="#63875e" stroke-width="2.4" stroke-linecap="round" opacity="0.32" fill="none" />
<path d="M 149.4 324.1 Q 143.4 323.1 138.5 321.1" stroke="#63875e" stroke-width="2.4" stroke-linecap="round" opacity="0.32" fill="none" />
<path d="M 361.0 157.6 Q 368.1 158.2 374.0 159.2" stroke="#63875e" stroke-width="2.4" stroke-linecap="round" opacity="0.32" fill="none" />
<path d="M 144.0 348.3 Q 138.2 349.8 133.5 352.4" stroke="#63875e" stroke-width="2.4" stroke-linecap="round" opacity="0.32" fill="none" />
<path d="M 153.2 336.2 Q 145.6 335.9 139.3 335.4" stroke="#63875e" stroke-width="2.4" stroke-linecap="round" opacity="0.32" fill="none" />
<path d="M 151.6 402.8 Q 144.4 402.9 138.4 403.1" stroke="#63875e" stroke-width="2.4" stroke-linecap="round" opacity="0.32" fill="none" />
<path d="M 367.6 260.5 Q 372.6 260.6 376.7 260.7" stroke="#63875e" stroke-width="2.4" stroke-linecap="round" opacity="0.32" fill="none" />
<path d="M 365.2 248.4 Q 369.2 246.9 372.4 244.1" stroke="#63875e" stroke-width="2.4" stroke-linecap="round" opacity="0.32" fill="none" />
<path d="M 151.3 236.3 Q 145.8 236.5 141.3 236.9" stroke="#63875e" stroke-width="2.4" stroke-linecap="round" opacity="0.32" fill="none" />
<path d="M 358.6 88.0 Q 364.2 88.3 368.7 89.0" stroke="#63875e" stroke-width="2.4" stroke-linecap="round" opacity="0.32" fill="none" />
<path d="M 153.7 81.9 Q 146.3 82.1 140.2 82.4" stroke="#63875e" stroke-width="2.4" stroke-linecap="round" opacity="0.32" fill="none" />
<path d="M 147.6 233.3 Q 140.5 233.6 134.7 234.2" stroke="#63875e" stroke-width="2.4" stroke-linecap="round" opacity="0.32" fill="none" />
<path d="M 150.6 91.0 Q 145.6 90.8 141.5 90.3" stroke="#63875e" stroke-width="2.4" stroke-linecap="round" opacity="0.32" fill="none" />
<path d="M 363.2 224.2 Q 369.5 222.6 374.6 219.6" stroke="#63875e" stroke-width="2.4" stroke-linecap="round" opacity="0.32" fill="none" />
    <path d="M 256.0 55.9 L 256.0 456.1" fill="none" stroke="url(#water-fill)" stroke-width="100.0"
          stroke-linecap="butt" />
    <path d="M 256.0 55.9 L 256.0 456.1" fill="none" stroke="url(#water-shade)" stroke-width="100.0"
          stroke-linecap="butt" />
    <path d="M 256.0 55.9 L 256.0 456.1" fill="none" stroke="#d5f3f6" stroke-width="100.0"
          stroke-linecap="butt" opacity="0.28" />
    <path d="M 235.5 378.6 Q 261.0 380.2 286.5 378.6" stroke="#81cbd8" stroke-width="1.11" stroke-linecap="round" opacity="0.26" fill="none" />
<path d="M 239.6 342.3 Q 255.7 339.8 271.7 342.3" stroke="#c6eef8" stroke-width="1.19" stroke-linecap="round" opacity="0.17" fill="none" />
<path d="M 232.8 275.7 Q 252.9 273.2 273.0 275.7" stroke="#81cbd8" stroke-width="1.17" stroke-linecap="round" opacity="0.23" fill="none" />
<path d="M 242.4 233.3 Q 256.5 236.5 270.5 233.3" stroke="#c6eef8" stroke-width="1.31" stroke-linecap="round" opacity="0.29" fill="none" />
<path d="M 232.2 212.1 Q 255.2 211.8 278.3 212.1" stroke="#a6dde9" stroke-width="1.98" stroke-linecap="round" opacity="0.29" fill="none" />
<path d="M 238.4 169.7 Q 257.0 166.7 275.7 169.7" stroke="#a6dde9" stroke-width="1.56" stroke-linecap="round" opacity="0.30" fill="none" />
<path d="M 239.6 281.7 Q 253.3 281.0 267.0 281.7" stroke="#c6eef8" stroke-width="1.56" stroke-linecap="round" opacity="0.33" fill="none" />
<path d="M 242.8 330.2 Q 256.3 330.8 269.9 330.2" stroke="#c6eef8" stroke-width="1.26" stroke-linecap="round" opacity="0.24" fill="none" />
<path d="M 234.3 190.9 Q 252.1 188.1 270.0 190.9" stroke="#a6dde9" stroke-width="2.06" stroke-linecap="round" opacity="0.35" fill="none" />
<path d="M 231.0 384.7 Q 257.2 387.7 283.4 384.7" stroke="#81cbd8" stroke-width="1.30" stroke-linecap="round" opacity="0.20" fill="none" />
<path d="M 235.0 166.7 Q 255.1 169.0 275.2 166.7" stroke="#81cbd8" stroke-width="1.25" stroke-linecap="round" opacity="0.27" fill="none" />
<path d="M 244.5 266.6 Q 260.3 265.7 276.0 266.6" stroke="#c6eef8" stroke-width="1.08" stroke-linecap="round" opacity="0.23" fill="none" />
<path d="M 238.1 121.3 Q 260.0 121.5 281.8 121.3" stroke="#a6dde9" stroke-width="1.67" stroke-linecap="round" opacity="0.20" fill="none" />
<path d="M 241.1 115.2 Q 261.2 117.2 281.4 115.2" stroke="#c6eef8" stroke-width="1.34" stroke-linecap="round" opacity="0.18" fill="none" />
<path d="M 238.0 318.1 Q 253.9 315.4 269.7 318.1" stroke="#81cbd8" stroke-width="1.71" stroke-linecap="round" opacity="0.20" fill="none" />
<path d="M 236.1 348.3 Q 257.8 348.7 279.5 348.3" stroke="#81cbd8" stroke-width="1.14" stroke-linecap="round" opacity="0.32" fill="none" />
<path d="M 240.1 166.7 Q 255.2 169.2 270.3 166.7" stroke="#c6eef8" stroke-width="1.96" stroke-linecap="round" opacity="0.16" fill="none" />
<path d="M 246.4 339.3 Q 260.2 339.7 274.1 339.3" stroke="#81cbd8" stroke-width="1.48" stroke-linecap="round" opacity="0.34" fill="none" />
<path d="M 245.9 193.9 Q 258.2 190.4 270.5 193.9" stroke="#a6dde9" stroke-width="1.48" stroke-linecap="round" opacity="0.21" fill="none" />
<path d="M 222.5 348.3 Q 248.5 350.3 274.5 348.3" stroke="#81cbd8" stroke-width="1.56" stroke-linecap="round" opacity="0.31" fill="none" />
<path d="M 244.3 296.9 Q 258.7 293.9 273.2 296.9" stroke="#a6dde9" stroke-width="1.07" stroke-linecap="round" opacity="0.19" fill="none" />
<path d="M 246.1 433.1 Q 262.2 429.3 278.4 433.1" stroke="#a6dde9" stroke-width="1.09" stroke-linecap="round" opacity="0.24" fill="none" />
<path d="M 231.1 230.3 Q 256.2 231.9 281.3 230.3" stroke="#a6dde9" stroke-width="1.42" stroke-linecap="round" opacity="0.33" fill="none" />
<path d="M 246.4 363.5 Q 258.4 365.1 270.5 363.5" stroke="#a6dde9" stroke-width="2.02" stroke-linecap="round" opacity="0.34" fill="none" />
<path d="M 234.1 351.4 Q 255.3 351.2 276.4 351.4" stroke="#81cbd8" stroke-width="1.29" stroke-linecap="round" opacity="0.23" fill="none" />
<path d="M 243.6 381.6 Q 254.7 385.0 265.7 381.6" stroke="#81cbd8" stroke-width="1.91" stroke-linecap="round" opacity="0.25" fill="none" />
<path d="M 233.1 209.1 Q 250.3 205.6 267.5 209.1" stroke="#c6eef8" stroke-width="1.76" stroke-linecap="round" opacity="0.32" fill="none" />
<path d="M 231.9 254.5 Q 259.9 257.9 287.9 254.5" stroke="#a6dde9" stroke-width="1.44" stroke-linecap="round" opacity="0.32" fill="none" />
    <path d="M 256.0 83.9 L 256.0 428.1" fill="none" stroke="#142e36" stroke-width="1.8" opacity="0.18" />
  </g>
</svg>
