<svg xmlns="http://www.w3.org/2000/svg" width="512" height="512" viewBox="0 0 512 512">
  <defs>
    <clipPath id="hex-clip">
      <polygon points="48.0,256.0 152.0,75.9 360.0,75.9 464.0,256.0 360.0,436.1 152.0,436.1" />
    </clipPath>
    <linearGradient id="water-fill" x1="0%" y1="0%" x2="100%" y2="0%">
      <stop offset="0%" stop-color="#295f69" />
      <stop offset="20%" stop-color="#327884" />
      <stop offset="50%" stop-color="#5ea4af" />
      <stop offset="80%" stop-color="#327884" />
      <stop offset="100%" stop-color="#295f69" />
    </linearGradient>
    <linearGradient id="water-shade" x1="0%" y1="0%" x2="0%" y2="100%">
      <stop offset="0%" stop-color="#8dd6de" stop-opacity="0.38" />
      <stop offset="35%" stop-color="#ffffff" stop-opacity="0.06" />
      <stop offset="100%" stop-color="#11343e" stop-opacity="0.24" />
    </linearGradient>
  </defs>
  <g clip-path="url(#hex-clip)">
<ellipse cx="367.8" cy="113.0" rx="4.5" ry="2.1" fill="#c4baac" opacity="0.35" transform="rotate(58.4 367.8 113.0)" />
<ellipse cx="428.4" cy="255.6" rx="3.6" ry="3.6" fill="#ada295" opacity="0.33" transform="rotate(13.7 428.4 255.6)" />
<ellipse cx="89.6" cy="252.6" rx="2.2" ry="3.2" fill="#ada295" opacity="0.47" transform="rotate(26.3 89.6 252.6)" />
<ellipse cx="405.8" cy="265.1" rx="2.9" ry="1.8" fill="#c4baac" opacity="0.41" transform="rotate(130.5 405.8 265.1)" />
<ellipse cx="185.5" cy="384.5" rx="3.5" ry="1.9" fill="#ddd4c7" opacity="0.35" transform="rotate(1.8 185.5 384.5)" />
<ellipse cx="171.3" cy="398.4" rx="2.2" ry="1.9" fill="#c4baac" opacity="0.31" transform="rotate(51.4 171.3 398.4)" />
<ellipse cx="192.9" cy="94.6" rx="4.9" ry="2.4" fill="#c4baac" opacity="0.52" transform="rotate(115.4 192.9 94.6)" />
<ellipse cx="179.4" cy="396.3" rx="3.9" ry="2.2" fill="#ada295" opacity="0.39" transform="rotate(49.1 179.4 396.3)" />
<ellipse cx="192.5" cy="388.6" rx="4.3" ry="4.0" fill="#ddd4c7" opacity="0.31" transform="rotate(83.5 192.5 388.6)" />
<ellipse cx="373.7" cy="109.9" rx="4.6" ry="3.4" fill="#8e857b" opacity="0.63" transform="rotate(123.0 373.7 109.9)" />
<ellipse cx="79.3" cy="253.5" rx="2.9" ry="1.8" fill="#ada295" opacity="0.62" transform="rotate(8.2 79.3 253.5)" />
<ellipse cx="174.0" cy="385.8" rx="3.6" ry="1.6" fill="#ddd4c7" opacity="0.68" transform="rotate(130.3 174.0 385.8)" />
<ellipse cx="111.2" cy="238.0" rx="2.8" ry="2.5" fill="#ada295" opacity="0.55" transform="rotate(123.2 111.2 238.0)" />
<ellipse cx="190.7" cy="88.7" rx="4.3" ry="2.9" fill="#ada295" opacity="0.41" transform="rotate(101.7 190.7 88.7)" />
<ellipse cx="322.3" cy="127.7" rx="2.9" ry="2.7" fill="#ddd4c7" opacity="0.31" transform="rotate(11.3 322.3 127.7)" />
<ellipse cx="344.7" cy="391.4" rx="3.4" ry="2.4" fill="#c4baac" opacity="0.34" transform="rotate(79.7 344.7 391.4)" />
<ellipse cx="59.1" cy="269.4" rx="5.6" ry="2.7" fill="#8e857b" opacity="0.53" transform="rotate(99.1 59.1 269.4)" />
<ellipse cx="130.0" cy="250.9" rx="3.7" ry="2.2" fill="#8e857b" opacity="0.53" transform="rotate(171.0 130.0 250.9)" />
<ellipse cx="343.9" cy="133.4" rx="5.4" ry="3.5" fill="#ada295" opacity="0.42" transform="rotate(65.8 343.9 133.4)" />
<ellipse cx="331.7" cy="138.5" rx="3.5" ry="2.7" fill="#ddd4c7" opacity="0.35" transform="rotate(161.9 331.7 138.5)" />
<ellipse cx="100.4" cy="250.5" rx="5.2" ry="2.2" fill="#ddd4c7" opacity="0.46" transform="rotate(119.5 100.4 250.5)" />
<ellipse cx="148.8" cy="420.4" rx="4.4" ry="2.5" fill="#ada295" opacity="0.44" transform="rotate(66.4 148.8 420.4)" />
<ellipse cx="142.7" cy="422.0" rx="3.2" ry="2.0" fill="#ada295" opacity="0.56" transform="rotate(39.9 142.7 422.0)" />
<ellipse cx="331.1" cy="77.7" rx="5.5" ry="2.2" fill="#8e857b" opacity="0.34" transform="rotate(15.5 331.1 77.7)" />
<ellipse cx="150.1" cy="398.7" rx="4.2" ry="1.5" fill="#c4baac" opacity="0.62" transform="rotate(47.2 150.1 398.7)" />
<ellipse cx="82.4" cy="273.6" rx="2.3" ry="2.0" fill="#8e857b" opacity="0.34" transform="rotate(92.2 82.4 273.6)" />
<ellipse cx="325.7" cy="135.8" rx="2.1" ry="3.2" fill="#ddd4c7" opacity="0.69" transform="rotate(162.8 325.7 135.8)" />
<ellipse cx="440.5" cy="226.7" rx="4.8" ry="3.2" fill="#c4baac" opacity="0.61" transform="rotate(1.0 440.5 226.7)" />
<ellipse cx="193.9" cy="365.9" rx="3.7" ry="2.6" fill="#ddd4c7" opacity="0.58" transform="rotate(85.1 193.9 365.9)" />
<ellipse cx="336.7" cy="108.3" rx="4.0" ry="3.8" fill="#c4baac" opacity="0.31" transform="rotate(170.2 336.7 108.3)" />
<ellipse cx="73.9" cy="270.2" rx="5.3" ry="1.5" fill="#ddd4c7" opacity="0.37" transform="rotate(0.5 73.9 270.2)" />
<ellipse cx="331.5" cy="374.5" rx="4.6" ry="3.1" fill="#c4baac" opacity="0.50" transform="rotate(31.2 331.5 374.5)" />
<ellipse cx="141.4" cy="400.2" rx="4.3" ry="3.1" fill="#8e857b" opacity="0.47" transform="rotate(21.1 141.4 400.2)" />
<ellipse cx="154.3" cy="398.1" rx="4.1" ry="3.0" fill="#ddd4c7" opacity="0.30" transform="rotate(105.6 154.3 398.1)" />
<ellipse cx="319.1" cy="147.5" rx="3.1" ry="3.8" fill="#ada295" opacity="0.40" transform="rotate(76.5 319.1 147.5)" />
<ellipse cx="189.7" cy="113.7" rx="3.9" ry="3.5" fill="#8e857b" opacity="0.50" transform="rotate(173.5 189.7 113.7)" />
<ellipse cx="108.3" cy="244.1" rx="2.2" ry="3.0" fill="#c4baac" opacity="0.40" transform="rotate(114.6 108.3 244.1)" />
<ellipse cx="322.5" cy="384.6" rx="4.1" ry="1.6" fill="#8e857b" opacity="0.41" transform="rotate(3.2 322.5 384.6)" />
<ellipse cx="144.4" cy="417.9" rx="3.3" ry="1.6" fill="#ada295" opacity="0.42" transform="rotate(114.3 144.4 417.9)" />
<ellipse cx="409.7" cy="263.4" rx="4.7" ry="1.4" fill="#8e857b" opacity="0.38" transform="rotate(58.9 409.7 263.4)" />
<ellipse cx="178.2" cy="423.3" rx="5.3" ry="3.8" fill="#c4baac" opacity="0.46" transform="rotate(82.5 178.2 423.3)" />
<ellipse cx="344.6" cy="366.4" rx="3.4" ry="1.8" fill="#ddd4c7" opacity="0.50" transform="rotate(98.5 344.6 366.4)" />
<ellipse cx="326.9" cy="101.8" rx="3.7" ry="3.1" fill="#ada295" opacity="0.66" transform="rotate(39.2 326.9 101.8)" />
<ellipse cx="338.8" cy="116.1" rx="5.3" ry="2.7" fill="#8e857b" opacity="0.65" transform="rotate(140.1 338.8 116.1)" />
<ellipse cx="313.2" cy="149.4" rx="4.6" ry="2.7" fill="#ddd4c7" opacity="0.46" transform="rotate(122.3 313.2 149.4)" />
<ellipse cx="173.7" cy="436.6" rx="3.1" ry="2.0" fill="#8e857b" opacity="0.48" transform="rotate(107.8 173.7 436.6)" />
<ellipse cx="323.6" cy="414.8" rx="2.5" ry="1.9" fill="#ddd4c7" opacity="0.48" transform="rotate(164.9 323.6 414.8)" />
<ellipse cx="178.8" cy="388.1" rx="5.0" ry="1.8" fill="#8e857b" opacity="0.62" transform="rotate(140.4 178.8 388.1)" />
<ellipse cx="111.8" cy="238.5" rx="5.4" ry="1.5" fill="#ada295" opacity="0.32" transform="rotate(163.9 111.8 238.5)" />
<ellipse cx="183.7" cy="88.8" rx="2.3" ry="1.5" fill="#ddd4c7" opacity="0.36" transform="rotate(76.7 183.7 88.8)" />
<ellipse cx="417.5" cy="256.1" rx="4.9" ry="2.8" fill="#ddd4c7" opacity="0.64" transform="rotate(150.1 417.5 256.1)" />
<ellipse cx="81.9" cy="278.2" rx="4.1" ry="2.5" fill="#ada295" opacity="0.33" transform="rotate(109.7 81.9 278.2)" />
<ellipse cx="391.1" cy="272.3" rx="4.6" ry="2.8" fill="#c4baac" opacity="0.56" transform="rotate(129.3 391.1 272.3)" />
<ellipse cx="320.4" cy="152.4" rx="2.1" ry="3.6" fill="#8e857b" opacity="0.30" transform="rotate(143.4 320.4 152.4)" />
<ellipse cx="386.2" cy="275.5" rx="2.2" ry="3.7" fill="#c4baac" opacity="0.44" transform="rotate(166.7 386.2 275.5)" />
<ellipse cx="190.5" cy="414.2" rx="5.0" ry="2.0" fill="#c4baac" opacity="0.62" transform="rotate(109.5 190.5 414.2)" />
<ellipse cx="72.7" cy="281.0" rx="2.5" ry="2.1" fill="#8e857b" opacity="0.68" transform="rotate(62.7 72.7 281.0)" />
<ellipse cx="185.9" cy="377.5" rx="2.3" ry="3.6" fill="#8e857b" opacity="0.60" transform="rotate(104.9 185.9 377.5)" />
<ellipse cx="323.3" cy="94.2" rx="3.2" ry="1.4" fill="#ddd4c7" opacity="0.69" transform="rotate(60.1 323.3 94.2)" />
<ellipse cx="186.9" cy="108.9" rx="4.4" ry="2.6" fill="#ddd4c7" opacity="0.33" transform="rotate(178.5 186.9 108.9)" />
<ellipse cx="321.5" cy="122.4" rx="4.7" ry="3.3" fill="#ada295" opacity="0.61" transform="rotate(110.0 321.5 122.4)" />
<ellipse cx="74.3" cy="265.3" rx="4.8" ry="1.6" fill="#c4baac" opacity="0.41" transform="rotate(8.5 74.3 265.3)" />
<ellipse cx="369.2" cy="107.2" rx="4.5" ry="2.1" fill="#c4baac" opacity="0.53" transform="rotate(15.3 369.2 107.2)" />
<ellipse cx="178.4" cy="124.9" rx="4.6" ry="1.5" fill="#ddd4c7" opacity="0.33" transform="rotate(6.4 178.4 124.9)" />
<ellipse cx="114.2" cy="246.8" rx="4.6" ry="2.9" fill="#ada295" opacity="0.40" transform="rotate(124.7 114.2 246.8)" />
<ellipse cx="319.2" cy="368.5" rx="2.5" ry="3.2" fill="#8e857b" opacity="0.56" transform="rotate(113.8 319.2 368.5)" />
<ellipse cx="188.8" cy="427.0" rx="2.3" ry="2.3" fill="#8e857b" opacity="0.50" transform="rotate(112.3 188.8 427.0)" />
<ellipse cx="452.9" cy="237.7" rx="5.1" ry="2.5" fill="#ddd4c7" opacity="0.54" transform="rotate(142.4 452.9 237.7)" />
<ellipse cx="78.7" cy="278.1" rx="4.6" ry="1.9" fill="#8e857b" opacity="0.60" transform="rotate(90.5 78.7 278.1)" />
<ellipse cx="174.1" cy="142.3" rx="2.5" ry="1.6" fill="#ddd4c7" opacity="0.64" transform="rotate(3.7 174.1 142.3)" />
<ellipse cx="362.6" cy="96.1" rx="2.3" ry="2.3" fill="#ddd4c7" opacity="0.59" transform="rotate(78.0 362.6 96.1)" />
<ellipse cx="196.2" cy="382.2" rx="4.3" ry="3.1" fill="#ddd4c7" opacity="0.63" transform="rotate(80.6 196.2 382.2)" />
<ellipse cx="164.7" cy="378.5" rx="5.6" ry="2.9" fill="#c4baac" opacity="0.34" transform="rotate(116.4 164.7 378.5)" />
<ellipse cx="75.4" cy="252.8" rx="3.1" ry="3.8" fill="#ddd4c7" opacity="0.42" transform="rotate(139.9 75.4 252.8)" />
<ellipse cx="179.7" cy="363.7" rx="3.7" ry="3.2" fill="#c4baac" opacity="0.36" transform="rotate(53.1 179.7 363.7)" />
<ellipse cx="175.4" cy="139.4" rx="2.8" ry="2.3" fill="#8e857b" opacity="0.37" transform="rotate(174.1 175.4 139.4)" />
<ellipse cx="124.3" cy="253.0" rx="4.0" ry="4.0" fill="#ada295" opacity="0.29" transform="rotate(96.3 124.3 253.0)" />
<ellipse cx="383.2" cy="275.2" rx="5.4" ry="3.7" fill="#8e857b" opacity="0.61" transform="rotate(146.4 383.2 275.2)" />
<ellipse cx="184.6" cy="384.9" rx="4.3" ry="3.9" fill="#ddd4c7" opacity="0.47" transform="rotate(36.4 184.6 384.9)" />
<ellipse cx="345.2" cy="92.3" rx="2.9" ry="3.8" fill="#c4baac" opacity="0.49" transform="rotate(143.7 345.2 92.3)" />
<ellipse cx="191.8" cy="386.0" rx="2.8" ry="2.8" fill="#ddd4c7" opacity="0.38" transform="rotate(69.9 191.8 386.0)" />
<ellipse cx="343.8" cy="354.3" rx="2.4" ry="2.9" fill="#8e857b" opacity="0.50" transform="rotate(39.1 343.8 354.3)" />
<ellipse cx="333.8" cy="377.0" rx="2.0" ry="1.8" fill="#ada295" opacity="0.68" transform="rotate(161.9 333.8 377.0)" />
<ellipse cx="330.0" cy="114.3" rx="2.7" ry="1.6" fill="#8e857b" opacity="0.37" transform="rotate(162.8 330.0 114.3)" />
<ellipse cx="410.5" cy="235.2" rx="2.8" ry="1.8" fill="#8e857b" opacity="0.58" transform="rotate(127.8 410.5 235.2)" />
<ellipse cx="350.1" cy="128.5" rx="2.1" ry="3.9" fill="#c4baac" opacity="0.59" transform="rotate(170.6 350.1 128.5)" />
<ellipse cx="169.8" cy="110.7" rx="3.7" ry="3.7" fill="#c4baac" opacity="0.58" transform="rotate(156.8 169.8 110.7)" />
<ellipse cx="333.2" cy="394.0" rx="4.9" ry="2.7" fill="#ddd4c7" opacity="0.67" transform="rotate(2.6 333.2 394.0)" />
<ellipse cx="393.1" cy="255.0" rx="2.5" ry="1.7" fill="#8e857b" opacity="0.57" transform="rotate(1.9 393.1 255.0)" />
<ellipse cx="321.7" cy="127.5" rx="2.6" ry="1.7" fill="#c4baac" opacity="0.69" transform="rotate(127.3 321.7 127.5)" />
<ellipse cx="124.2" cy="234.4" rx="4.9" ry="1.5" fill="#8e857b" opacity="0.63" transform="rotate(167.5 124.2 234.4)" />
<path d="M 149.8 79.7 Q 144.6 80.8 140.3 82.8" stroke="#63875e" stroke-width="2.4" stroke-linecap="round" opacity="0.32" fill="none" />
<path d="M 364.3 363.6 Q 370.1 363.6 374.8 363.4" stroke="#63875e" stroke-width="2.4" stroke-linecap="round" opacity="0.32" fill="none" />
<path d="M 147.3 91.1 Q 143.0 91.4 139.5 91.9" stroke="#63875e" stroke-width="2.4" stroke-linecap="round" opacity="0.32" fill="none" />
<path d="M 364.9 398.0 Q 369.7 397.8 373.7 397.5" stroke="#63875e" stroke-width="2.4" stroke-linecap="round" opacity="0.32" fill="none" />
<path d="M 358.3 394.2 Q 362.6 393.2 366.0 391.4" stroke="#63875e" stroke-width="2.4" stroke-linecap="round" opacity="0.32" fill="none" />
<path d="M 153.2 133.1 Q 146.3 134.4 140.7 136.7" stroke="#63875e" stroke-width="2.4" stroke-linecap="round" opacity="0.32" fill="none" />
<path d="M 403.9 297.0 Q 407.0 300.8 409.4 307.8" stroke="#63875e" stroke-width="2.4" stroke-linecap="round" opacity="0.32" fill="none" />
<path d="M 444.8 268.5 Q 448.6 273.3 451.7 282.3" stroke="#63875e" stroke-width="2.4" stroke-linecap="round" opacity="0.32" fill="none" />
<path d="M 53.3 249.9 Q 47.6 245.4 42.9 237.0" stroke="#63875e" stroke-width="2.4" stroke-linecap="round" opacity="0.32" fill="none" />
<path d="M 363.2 428.5 Q 367.3 427.7 370.6 426.1" stroke="#63875e" stroke-width="2.4" stroke-linecap="round" opacity="0.32" fill="none" />
<path d="M 359.9 87.3 Q 364.3 88.6 367.8 90.9" stroke="#63875e" stroke-width="2.4" stroke-linecap="round" opacity="0.32" fill="none" />
<path d="M 49.3 250.5 Q 47.5 246.3 46.1 238.3" stroke="#63875e" stroke-width="2.4" stroke-linecap="round" opacity="0.32" fill="none" />
<path d="M 400.7 291.3 Q 402.8 294.6 404.5 300.6" stroke="#63875e" stroke-width="2.4" stroke-linecap="round" opacity="0.32" fill="none" />
<path d="M 446.8 272.0 Q 451.2 275.4 454.7 281.6" stroke="#63875e" stroke-width="2.4" stroke-linecap="round" opacity="0.32" fill="none" />
<path d="M 147.1 110.2 Q 140.9 109.8 135.8 109.1" stroke="#63875e" stroke-width="2.4" stroke-linecap="round" opacity="0.32" fill="none" />
<path d="M 145.2 91.1 Q 139.4 92.1 134.6 94.0" stroke="#63875e" stroke-width="2.4" stroke-linecap="round" opacity="0.32" fill="none" />
<path d="M 145.0 133.1 Q 140.9 133.5 137.6 134.1" stroke="#63875e" stroke-width="2.4" stroke-linecap="round" opacity="0.32" fill="none" />
<path d="M 100.1 224.1 Q 94.8 221.8 90.5 217.5" stroke="#63875e" stroke-width="2.4" stroke-linecap="round" opacity="0.32" fill="none" />
<path d="M 66.7 242.5 Q 61.3 238.3 56.9 230.4" stroke="#63875e" stroke-width="2.4" stroke-linecap="round" opacity="0.32" fill="none" />
<path d="M 151.7 435.6 Q 153.7 439.8 155.4 447.6" stroke="#63875e" stroke-width="2.4" stroke-linecap="round" opacity="0.32" fill="none" />
<path d="M 106.8 212.8 Q 102.7 210.0 99.3 204.9" stroke="#63875e" stroke-width="2.4" stroke-linecap="round" opacity="0.32" fill="none" />
<path d="M 458.0 268.6 Q 462.1 271.7 465.4 277.6" stroke="#63875e" stroke-width="2.4" stroke-linecap="round" opacity="0.32" fill="none" />
<path d="M 368.7 382.7 Q 375.7 384.3 381.5 387.3" stroke="#63875e" stroke-width="2.4" stroke-linecap="round" opacity="0.32" fill="none" />
<path d="M 363.5 75.9 Q 370.0 75.9 375.3 75.9" stroke="#63875e" stroke-width="2.4" stroke-linecap="round" opacity="0.32" fill="none" />
    <path d="M 256.0 256.0 L 256.0 55.9 M 256.0 256.0 L 429.3 155.9 M 256.0 256.0 L 256.0 456.1 M 256.0 256.0 L 82.7 356.1" fill="none" stroke="url(#water-fill)" stroke-width="100.0" stroke-linecap="butt" />
    <circle cx="256.0" cy="256.0" r="100.0" fill="url(#water-fill)" />
    <path d="M 256.0 256.0 L 256.0 55.9 M 256.0 256.0 L 429.3 155.9 M 256.0 256.0 L 256.0 456.1 M 256.0 256.0 L 82.7 356.1" fill="none" stroke="url(#water-shade)" stroke-width="100.0" stroke-linecap="butt" />
    <circle cx="256.0" cy="256.0" r="100.0" fill="url(#water-shade)" />
    <circle cx="256.0" cy="256.0" r="100.0" fill="none" stroke="#d5f3f6" stroke-width="2" opacity="0.22" />
<path d="M 386.6 198.3 Q 382.2 183.2 371.3 171.7" stroke="#81cbd8" stroke-width="1.38" stroke-linecap="round" opacity="0.29" fill="none" />
<path d="M 414.3 192.8 Q 400.3 172.7 389.9 150.5" stroke="#c6eef8" stroke-width="1.75" stroke-linecap="round" opacity="0.23" fill="none" />
<path d="M 403.9 213.0 Q 384.4 181.9 367.2 149.4" stroke="#a6dde9" stroke-width="1.73" stroke-linecap="round" opacity="0.18" fill="none" />
<path d="M 106.8 319.7 Q 113.8 338.1 126.3 353.4" stroke="#c6eef8" stroke-width="1.06" stroke-linecap="round" opacity="0.28" fill="none" />
<path d="M 401.7 193.9 Q 390.1 178.6 382.6 160.8" stroke="#c6eef8" stroke-width="1.79" stroke-linecap="round" opacity="0.16" fill="none" />
<path d="M 278.5 136.9 Q 256.0 135.6 233.5 136.9" stroke="#c6eef8" stroke-width="1.54" stroke-linecap="round" opacity="0.26" fill="none" />
<path d="M 273.7 110.2 Q 256.0 107.4 238.3 110.2" stroke="#c6eef8" stroke-width="1.25" stroke-linecap="round" opacity="0.20" fill="none" />
<path d="M 387.0 221.8 Q 365.7 192.7 351.1 159.7" stroke="#c6eef8" stroke-width="1.19" stroke-linecap="round" opacity="0.18" fill="none" />
<path d="M 424.6 195.4 Q 408.6 167.9 392.8 140.3" stroke="#a6dde9" stroke-width="1.28" stroke-linecap="round" opacity="0.26" fill="none" />
<path d="M 227.1 363.6 Q 256.0 364.0 284.9 363.6" stroke="#81cbd8" stroke-width="1.82" stroke-linecap="round" opacity="0.19" fill="none" />
<path d="M 223.2 432.3 Q 256.0 428.8 288.8 432.3" stroke="#c6eef8" stroke-width="1.89" stroke-linecap="round" opacity="0.22" fill="none" />
<path d="M 221.4 428.5 Q 256.0 429.1 290.6 428.5" stroke="#a6dde9" stroke-width="1.60" stroke-linecap="round" opacity="0.19" fill="none" />
<path d="M 226.3 371.3 Q 256.0 369.3 285.7 371.3" stroke="#a6dde9" stroke-width="1.88" stroke-linecap="round" opacity="0.17" fill="none" />
<path d="M 286.4 110.2 Q 256.0 109.9 225.6 110.2" stroke="#a6dde9" stroke-width="1.84" stroke-linecap="round" opacity="0.26" fill="none" />
<path d="M 93.2 326.6 Q 105.2 343.1 113.4 361.7" stroke="#81cbd8" stroke-width="1.31" stroke-linecap="round" opacity="0.22" fill="none" />
<path d="M 151.5 297.8 Q 159.6 311.7 167.5 325.6" stroke="#a6dde9" stroke-width="1.72" stroke-linecap="round" opacity="0.30" fill="none" />
<path d="M 416.1 203.5 Q 395.7 175.4 381.5 143.6" stroke="#c6eef8" stroke-width="1.67" stroke-linecap="round" opacity="0.28" fill="none" />
<path d="M 279.7 83.5 Q 256.0 86.6 232.3 83.5" stroke="#c6eef8" stroke-width="1.51" stroke-linecap="round" opacity="0.24" fill="none" />
<path d="M 108.0 314.1 Q 119.8 334.7 131.7 355.2" stroke="#a6dde9" stroke-width="1.42" stroke-linecap="round" opacity="0.23" fill="none" />
<path d="M 218.5 420.9 Q 256.0 423.2 293.5 420.9" stroke="#a6dde9" stroke-width="1.54" stroke-linecap="round" opacity="0.16" fill="none" />
<path d="M 222.7 417.1 Q 256.0 414.6 289.3 417.1" stroke="#c6eef8" stroke-width="1.38" stroke-linecap="round" opacity="0.17" fill="none" />
<path d="M 143.7 276.8 Q 163.4 309.5 181.8 342.8" stroke="#81cbd8" stroke-width="1.47" stroke-linecap="round" opacity="0.24" fill="none" />
<path d="M 90.5 314.4 Q 109.8 340.4 122.7 370.1" stroke="#81cbd8" stroke-width="1.36" stroke-linecap="round" opacity="0.25" fill="none" />
<path d="M 233.0 371.3 Q 256.0 373.9 279.0 371.3" stroke="#c6eef8" stroke-width="1.50" stroke-linecap="round" opacity="0.30" fill="none" />
<path d="M 210.0 215.7 Q 205.7 222.0 201.5 228.3" stroke="#a6dde9" stroke-width="1.43" stroke-linecap="round" opacity="0.14" fill="none" />
<path d="M 244.0 212.6 Q 232.0 220.8 219.9 229.1" stroke="#81cbd8" stroke-width="1.78" stroke-linecap="round" opacity="0.12" fill="none" />
<path d="M 220.4 267.8 Q 223.6 273.6 226.7 279.4" stroke="#c6eef8" stroke-width="1.02" stroke-linecap="round" opacity="0.19" fill="none" />
<path d="M 273.5 266.3 Q 273.6 256.2 273.7 246.1" stroke="#81cbd8" stroke-width="1.53" stroke-linecap="round" opacity="0.16" fill="none" />
<path d="M 207.2 285.3 Q 216.6 294.8 226.0 304.3" stroke="#c6eef8" stroke-width="1.03" stroke-linecap="round" opacity="0.16" fill="none" />
<path d="M 237.8 247.3 Q 238.6 257.4 239.4 267.5" stroke="#81cbd8" stroke-width="1.39" stroke-linecap="round" opacity="0.20" fill="none" />
<path d="M 259.0 277.0 Q 267.2 270.8 275.4 264.6" stroke="#a6dde9" stroke-width="1.06" stroke-linecap="round" opacity="0.17" fill="none" />
<path d="M 244.0 278.7 Q 258.2 277.2 272.5 275.7" stroke="#a6dde9" stroke-width="1.74" stroke-linecap="round" opacity="0.13" fill="none" />
    <line x1="256.0" y1="150.0" x2="256.0" y2="83.9" stroke="#142e36" stroke-width="1.8" opacity="0.18" />
    <line x1="347.8" y1="203.0" x2="405.1" y2="169.9" stroke="#142e36" stroke-width="1.8" opacity="0.18" />
    <line x1="256.0" y1="362.0" x2="256.0" y2="428.1" stroke="#142e36" stroke-width="1.8" opacity="0.18" />
    <line x1="164.2" y1="309.0" x2="106.9" y2="342.1" stroke="#142e36" stroke-width="1.8" opacity="0.18" />
  </g>
</svg>
