<svg xmlns="http://www.w3.org/2000/svg" width="512" height="512" viewBox="0 0 512 512">
  <defs>
    <clipPath id="hex-clip">
      <polygon points="48.0,256.0 152.0,75.9 360.0,75.9 464.0,256.0 360.0,436.1 152.0,436.1" />
    </clipPath>
    <linearGradient id="water-fill" x1="0%" y1="0%" x2="100%" y2="0%">
      <stop offset="0%" stop-color="#295f69" />
      <stop offset="20%" stop-color="#327884" />
      <stop offset="50%" stop-color="#5ea4af" />
      <stop offset="80%" stop-color="#327884" />
      <stop offset="100%" stop-color="#295f69" />
    </linearGradient>
    <linearGradient id="water-shade" x1="0%" y1="0%" x2="0%" y2="100%">
      <stop offset="0%" stop-color="#8dd6de" stop-opacity="0.38" />
      <stop offset="35%" stop-color="#ffffff" stop-opacity="0.06" />
      <stop offset="100%" stop-color="#11343e" stop-opacity="0.24" />
    </linearGradient>
  </defs>
  <g clip-path="url(#hex-clip)">
<ellipse cx="215.0" cy="333.0" rx="3.9" ry="2.1" fill="#ddd4c7" opacity="0.51" transform="rotate(19.3 215.0 333.0)" />
<ellipse cx="302.4" cy="113.4" rx="5.0" ry="3.9" fill="#8e857b" opacity="0.33" transform="rotate(162.7 302.4 113.4)" />
<ellipse cx="198.1" cy="159.3" rx="2.8" ry="2.1" fill="#c4baac" opacity="0.44" transform="rotate(59.6 198.1 159.3)" />
<ellipse cx="368.4" cy="248.4" rx="4.6" ry="3.0" fill="#ada295" opacity="0.58" transform="rotate(171.8 368.4 248.4)" />
<ellipse cx="191.2" cy="235.6" rx="2.3" ry="3.9" fill="#ada295" opacity="0.31" transform="rotate(107.5 191.2 235.6)" />
<ellipse cx="442.4" cy="285.5" rx="3.6" ry="1.6" fill="#ddd4c7" opacity="0.40" transform="rotate(106.1 442.4 285.5)" />
<ellipse cx="194.3" cy="107.9" rx="5.3" ry="3.1" fill="#8e857b" opacity="0.58" transform="rotate(80.4 194.3 107.9)" />
<ellipse cx="400.5" cy="276.5" rx="2.7" ry="3.3" fill="#c4baac" opacity="0.42" transform="rotate(1.9 400.5 276.5)" />
<ellipse cx="321.6" cy="156.3" rx="4.8" ry="3.1" fill="#ddd4c7" opacity="0.41" transform="rotate(161.6 321.6 156.3)" />
<ellipse cx="172.3" cy="231.8" rx="3.3" ry="2.6" fill="#8e857b" opacity="0.70" transform="rotate(94.1 172.3 231.8)" />
<ellipse cx="367.4" cy="377.4" rx="3.8" ry="1.6" fill="#ddd4c7" opacity="0.44" transform="rotate(73.8 367.4 377.4)" />
<ellipse cx="192.7" cy="194.0" rx="3.6" ry="2.2" fill="#ada295" opacity="0.46" transform="rotate(74.4 192.7 194.0)" />
<ellipse cx="323.2" cy="349.6" rx="4.1" ry="2.0" fill="#ddd4c7" opacity="0.48" transform="rotate(54.2 323.2 349.6)" />
<ellipse cx="316.7" cy="208.5" rx="5.3" ry="2.6" fill="#ddd4c7" opacity="0.46" transform="rotate(160.6 316.7 208.5)" />
<ellipse cx="142.6" cy="246.6" rx="2.5" ry="3.7" fill="#c4baac" opacity="0.48" transform="rotate(148.0 142.6 246.6)" />
<ellipse cx="180.8" cy="236.3" rx="5.2" ry="2.0" fill="#ddd4c7" opacity="0.41" transform="rotate(23.1 180.8 236.3)" />
<ellipse cx="316.3" cy="124.9" rx="4.3" ry="1.6" fill="#c4baac" opacity="0.63" transform="rotate(78.5 316.3 124.9)" />
<ellipse cx="318.8" cy="125.1" rx="4.6" ry="3.3" fill="#ada295" opacity="0.38" transform="rotate(154.4 318.8 125.1)" />
<ellipse cx="381.9" cy="273.7" rx="5.4" ry="3.6" fill="#ada295" opacity="0.61" transform="rotate(26.7 381.9 273.7)" />
<ellipse cx="302.8" cy="92.1" rx="3.7" ry="2.6" fill="#ada295" opacity="0.29" transform="rotate(175.7 302.8 92.1)" />
<ellipse cx="351.4" cy="370.6" rx="2.7" ry="2.7" fill="#ddd4c7" opacity="0.52" transform="rotate(170.3 351.4 370.6)" />
<ellipse cx="276.8" cy="326.2" rx="5.2" ry="2.7" fill="#8e857b" opacity="0.60" transform="rotate(13.5 276.8 326.2)" />
<ellipse cx="149.4" cy="248.2" rx="4.4" ry="2.5" fill="#ada295" opacity="0.39" transform="rotate(46.1 149.4 248.2)" />
<ellipse cx="305.5" cy="352.2" rx="2.6" ry="3.8" fill="#ddd4c7" opacity="0.56" transform="rotate(18.1 305.5 352.2)" />
<ellipse cx="207.1" cy="199.9" rx="3.3" ry="2.4" fill="#ada295" opacity="0.70" transform="rotate(149.8 207.1 199.9)" />
<ellipse cx="322.0" cy="236.7" rx="3.4" ry="2.9" fill="#ada295" opacity="0.35" transform="rotate(74.4 322.0 236.7)" />
<ellipse cx="350.8" cy="378.9" rx="3.3" ry="2.1" fill="#ddd4c7" opacity="0.49" transform="rotate(45.0 350.8 378.9)" />
<ellipse cx="201.9" cy="348.2" rx="5.3" ry="4.0" fill="#ddd4c7" opacity="0.50" transform="rotate(1.4 201.9 348.2)" />
<ellipse cx="302.5" cy="94.9" rx="5.2" ry="2.5" fill="#c4baac" opacity="0.54" transform="rotate(94.9 302.5 94.9)" />
<ellipse cx="324.1" cy="227.4" rx="3.0" ry="3.6" fill="#c4baac" opacity="0.58" transform="rotate(2.0 324.1 227.4)" />
<ellipse cx="166.0" cy="253.3" rx="2.6" ry="3.3" fill="#8e857b" opacity="0.60" transform="rotate(94.1 166.0 253.3)" />
<ellipse cx="373.0" cy="253.5" rx="3.5" ry="3.8" fill="#ddd4c7" opacity="0.43" transform="rotate(159.6 373.0 253.5)" />
<ellipse cx="225.8" cy="341.0" rx="3.4" ry="2.7" fill="#c4baac" opacity="0.70" transform="rotate(108.6 225.8 341.0)" />
<ellipse cx="286.8" cy="328.0" rx="3.0" ry="3.8" fill="#8e857b" opacity="0.68" transform="rotate(93.7 286.8 328.0)" />
<ellipse cx="277.9" cy="336.9" rx="4.1" ry="2.9" fill="#ddd4c7" opacity="0.49" transform="rotate(68.0 277.9 336.9)" />
<ellipse cx="316.3" cy="188.5" rx="4.8" ry="1.9" fill="#8e857b" opacity="0.60" transform="rotate(157.7 316.3 188.5)" />
<ellipse cx="269.5" cy="325.5" rx="3.8" ry="3.6" fill="#ada295" opacity="0.68" transform="rotate(92.2 269.5 325.5)" />
<ellipse cx="395.4" cy="266.9" rx="5.5" ry="1.8" fill="#ada295" opacity="0.40" transform="rotate(44.5 395.4 266.9)" />
<ellipse cx="319.8" cy="221.3" rx="5.1" ry="2.1" fill="#8e857b" opacity="0.51" transform="rotate(150.7 319.8 221.3)" />
<ellipse cx="106.4" cy="277.9" rx="4.5" ry="2.7" fill="#8e857b" opacity="0.35" transform="rotate(19.1 106.4 277.9)" />
<ellipse cx="318.0" cy="361.2" rx="2.3" ry="2.0" fill="#8e857b" opacity="0.32" transform="rotate(167.0 318.0 361.2)" />
<ellipse cx="208.0" cy="354.5" rx="5.5" ry="3.4" fill="#ada295" opacity="0.40" transform="rotate(46.4 208.0 354.5)" />
<ellipse cx="351.7" cy="246.0" rx="4.8" ry="1.7" fill="#c4baac" opacity="0.68" transform="rotate(138.5 351.7 246.0)" />
<ellipse cx="243.9" cy="322.0" rx="5.2" ry="3.8" fill="#8e857b" opacity="0.61" transform="rotate(32.1 243.9 322.0)" />
<ellipse cx="86.9" cy="296.1" rx="2.8" ry="2.4" fill="#c4baac" opacity="0.43" transform="rotate(27.5 86.9 296.1)" />
<ellipse cx="183.3" cy="244.3" rx="3.8" ry="2.6" fill="#c4baac" opacity="0.65" transform="rotate(87.5 183.3 244.3)" />
<ellipse cx="447.2" cy="292.3" rx="4.3" ry="2.1" fill="#c4baac" opacity="0.59" transform="rotate(103.7 447.2 292.3)" />
<ellipse cx="177.2" cy="232.5" rx="3.1" ry="1.8" fill="#c4baac" opacity="0.62" transform="rotate(44.4 177.2 232.5)" />
<ellipse cx="387.1" cy="271.6" rx="5.0" ry="1.8" fill="#c4baac" opacity="0.69" transform="rotate(30.2 387.1 271.6)" />
<ellipse cx="392.3" cy="262.9" rx="3.7" ry="3.6" fill="#8e857b" opacity="0.30" transform="rotate(74.4 392.3 262.9)" />
<ellipse cx="262.8" cy="323.8" rx="5.6" ry="2.9" fill="#8e857b" opacity="0.63" transform="rotate(119.9 262.8 323.8)" />
<ellipse cx="334.7" cy="374.4" rx="4.2" ry="1.7" fill="#ddd4c7" opacity="0.43" transform="rotate(30.5 334.7 374.4)" />
<ellipse cx="196.4" cy="367.0" rx="5.0" ry="3.2" fill="#8e857b" opacity="0.58" transform="rotate(135.9 196.4 367.0)" />
<ellipse cx="127.1" cy="383.1" rx="5.6" ry="2.3" fill="#8e857b" opacity="0.39" transform="rotate(136.2 127.1 383.1)" />
<ellipse cx="132.2" cy="386.3" rx="2.1" ry="2.0" fill="#ddd4c7" opacity="0.36" transform="rotate(81.6 132.2 386.3)" />
<ellipse cx="193.8" cy="158.4" rx="5.3" ry="1.8" fill="#c4baac" opacity="0.51" transform="rotate(76.5 193.8 158.4)" />
<ellipse cx="159.7" cy="363.5" rx="2.9" ry="3.5" fill="#8e857b" opacity="0.44" transform="rotate(16.3 159.7 363.5)" />
<ellipse cx="307.6" cy="84.9" rx="5.2" ry="2.1" fill="#ada295" opacity="0.34" transform="rotate(76.9 307.6 84.9)" />
<ellipse cx="310.9" cy="85.4" rx="4.1" ry="2.4" fill="#ada295" opacity="0.35" transform="rotate(151.9 310.9 85.4)" />
<ellipse cx="345.0" cy="255.0" rx="5.5" ry="2.3" fill="#c4baac" opacity="0.37" transform="rotate(120.3 345.0 255.0)" />
<ellipse cx="378.5" cy="394.9" rx="5.1" ry="2.9" fill="#ddd4c7" opacity="0.43" transform="rotate(2.4 378.5 394.9)" />
<ellipse cx="304.3" cy="171.2" rx="4.1" ry="1.6" fill="#ada295" opacity="0.70" transform="rotate(8.6 304.3 171.2)" />
<ellipse cx="134.1" cy="397.4" rx="5.1" ry="2.5" fill="#ddd4c7" opacity="0.29" transform="rotate(60.3 134.1 397.4)" />
<ellipse cx="205.6" cy="114.3" rx="4.0" ry="4.0" fill="#8e857b" opacity="0.33" transform="rotate(153.0 205.6 114.3)" />
<ellipse cx="194.1" cy="348.6" rx="3.0" ry="3.7" fill="#ddd4c7" opacity="0.36" transform="rotate(152.0 194.1 348.6)" />
<ellipse cx="190.3" cy="88.5" rx="4.1" ry="1.6" fill="#ada295" opacity="0.53" transform="rotate(93.1 190.3 88.5)" />
<ellipse cx="195.7" cy="131.6" rx="3.3" ry="4.0" fill="#8e857b" opacity="0.42" transform="rotate(172.6 195.7 131.6)" />
<ellipse cx="302.1" cy="178.7" rx="4.2" ry="3.6" fill="#ada295" opacity="0.66" transform="rotate(119.7 302.1 178.7)" />
<ellipse cx="152.8" cy="368.2" rx="3.5" ry="3.7" fill="#ada295" opacity="0.47" transform="rotate(143.7 152.8 368.2)" />
<ellipse cx="319.4" cy="359.8" rx="2.0" ry="2.9" fill="#ada295" opacity="0.56" transform="rotate(76.2 319.4 359.8)" />
<ellipse cx="332.6" cy="367.6" rx="3.7" ry="2.8" fill="#c4baac" opacity="0.69" transform="rotate(56.3 332.6 367.6)" />
<ellipse cx="261.8" cy="316.3" rx="3.7" ry="2.8" fill="#ddd4c7" opacity="0.64" transform="rotate(150.2 261.8 316.3)" />
<ellipse cx="164.3" cy="367.8" rx="5.1" ry="2.4" fill="#ada295" opacity="0.29" transform="rotate(179.6 164.3 367.8)" />
<ellipse cx="93.3" cy="290.9" rx="2.1" ry="3.0" fill="#8e857b" opacity="0.67" transform="rotate(46.7 93.3 290.9)" />
<ellipse cx="93.2" cy="272.0" rx="4.3" ry="2.7" fill="#ddd4c7" opacity="0.68" transform="rotate(109.8 93.2 272.0)" />
<ellipse cx="129.4" cy="394.6" rx="3.2" ry="2.8" fill="#8e857b" opacity="0.68" transform="rotate(131.8 129.4 394.6)" />
<ellipse cx="182.4" cy="370.7" rx="2.3" ry="4.0" fill="#c4baac" opacity="0.38" transform="rotate(51.5 182.4 370.7)" />
<ellipse cx="86.3" cy="289.8" rx="5.5" ry="1.4" fill="#ada295" opacity="0.62" transform="rotate(11.0 86.3 289.8)" />
<ellipse cx="129.3" cy="267.4" rx="2.7" ry="2.8" fill="#c4baac" opacity="0.44" transform="rotate(62.6 129.3 267.4)" />
<ellipse cx="182.1" cy="229.0" rx="3.0" ry="3.3" fill="#ada295" opacity="0.48" transform="rotate(7.6 182.1 229.0)" />
<ellipse cx="318.9" cy="157.3" rx="2.9" ry="3.2" fill="#ddd4c7" opacity="0.37" transform="rotate(86.9 318.9 157.3)" />
<ellipse cx="219.0" cy="338.1" rx="2.2" ry="2.4" fill="#8e857b" opacity="0.51" transform="rotate(115.9 219.0 338.1)" />
<ellipse cx="209.8" cy="180.4" rx="3.2" ry="3.9" fill="#ada295" opacity="0.60" transform="rotate(152.1 209.8 180.4)" />
<ellipse cx="404.3" cy="286.6" rx="3.6" ry="1.6" fill="#8e857b" opacity="0.35" transform="rotate(8.5 404.3 286.6)" />
<ellipse cx="211.2" cy="350.4" rx="3.5" ry="1.7" fill="#c4baac" opacity="0.69" transform="rotate(87.5 211.2 350.4)" />
<ellipse cx="305.9" cy="117.5" rx="2.3" ry="2.2" fill="#8e857b" opacity="0.67" transform="rotate(51.0 305.9 117.5)" />
<ellipse cx="183.0" cy="240.6" rx="3.0" ry="2.3" fill="#8e857b" opacity="0.33" transform="rotate(142.4 183.0 240.6)" />
<ellipse cx="438.7" cy="285.7" rx="4.3" ry="1.4" fill="#8e857b" opacity="0.47" transform="rotate(146.7 438.7 285.7)" />
<ellipse cx="129.9" cy="267.4" rx="2.6" ry="3.8" fill="#ada295" opacity="0.68" transform="rotate(162.5 129.9 267.4)" />
<ellipse cx="190.8" cy="150.4" rx="2.7" ry="3.5" fill="#8e857b" opacity="0.30" transform="rotate(30.8 190.8 150.4)" />
<ellipse cx="353.2" cy="257.2" rx="4.2" ry="2.2" fill="#ddd4c7" opacity="0.50" transform="rotate(33.7 353.2 257.2)" />
<ellipse cx="320.5" cy="119.7" rx="4.5" ry="2.1" fill="#ada295" opacity="0.40" transform="rotate(31.5 320.5 119.7)" />
<ellipse cx="88.4" cy="286.6" rx="4.7" ry="2.2" fill="#ddd4c7" opacity="0.52" transform="rotate(146.9 88.4 286.6)" />
<ellipse cx="302.6" cy="186.8" rx="5.1" ry="3.5" fill="#ada295" opacity="0.41" transform="rotate(79.8 302.6 186.8)" />
<ellipse cx="83.7" cy="284.2" rx="4.8" ry="2.4" fill="#c4baac" opacity="0.44" transform="rotate(68.7 83.7 284.2)" />
<ellipse cx="123.1" cy="267.7" rx="2.9" ry="3.9" fill="#c4baac" opacity="0.31" transform="rotate(173.7 123.1 267.7)" />
<ellipse cx="339.2" cy="245.4" rx="4.0" ry="2.3" fill="#ddd4c7" opacity="0.55" transform="rotate(80.3 339.2 245.4)" />
<ellipse cx="320.0" cy="114.1" rx="5.3" ry="1.4" fill="#ada295" opacity="0.31" transform="rotate(83.0 320.0 114.1)" />
<ellipse cx="361.6" cy="256.6" rx="3.0" ry="2.9" fill="#ada295" opacity="0.59" transform="rotate(38.9 361.6 256.6)" />
<ellipse cx="343.9" cy="359.9" rx="3.5" ry="3.0" fill="#ddd4c7" opacity="0.44" transform="rotate(126.1 343.9 359.9)" />
<path d="M 131.2 225.8 Q 127.1 223.0 123.7 218.0" stroke="#63875e" stroke-width="2.4" stroke-linecap="round" opacity="0.32" fill="none" />
<path d="M 70.4 268.0 Q 68.0 264.9 66.0 259.1" stroke="#63875e" stroke-width="2.4" stroke-linecap="round" opacity="0.32" fill="none" />
<path d="M 295.6 373.2 Q 295.3 377.4 295.0 385.2" stroke="#63875e" stroke-width="2.4" stroke-linecap="round" opacity="0.32" fill="none" />
<path d="M 98.0 248.6 Q 97.4 244.0 96.9 235.5" stroke="#63875e" stroke-width="2.4" stroke-linecap="round" opacity="0.32" fill="none" />
<path d="M 246.1 357.7 Q 251.7 360.6 256.2 366.0" stroke="#63875e" stroke-width="2.4" stroke-linecap="round" opacity="0.32" fill="none" />
<path d="M 172.5 189.9 Q 167.3 190.8 162.9 192.5" stroke="#63875e" stroke-width="2.4" stroke-linecap="round" opacity="0.32" fill="none" />
<path d="M 198.5 382.5 Q 201.2 384.6 203.4 388.4" stroke="#63875e" stroke-width="2.4" stroke-linecap="round" opacity="0.32" fill="none" />
<path d="M 342.7 129.5 Q 349.8 130.4 355.6 132.1" stroke="#63875e" stroke-width="2.4" stroke-linecap="round" opacity="0.32" fill="none" />
<path d="M 336.6 122.8 Q 341.0 121.7 344.5 119.6" stroke="#63875e" stroke-width="2.4" stroke-linecap="round" opacity="0.32" fill="none" />
<path d="M 340.5 142.9 Q 344.7 141.8 348.2 139.7" stroke="#63875e" stroke-width="2.4" stroke-linecap="round" opacity="0.32" fill="none" />
<path d="M 142.9 420.3 Q 147.5 424.0 151.2 430.7" stroke="#63875e" stroke-width="2.4" stroke-linecap="round" opacity="0.32" fill="none" />
<path d="M 343.0 169.8 Q 350.6 170.1 356.9 170.8" stroke="#63875e" stroke-width="2.4" stroke-linecap="round" opacity="0.32" fill="none" />
<path d="M 175.1 183.2 Q 169.3 184.0 164.6 185.6" stroke="#63875e" stroke-width="2.4" stroke-linecap="round" opacity="0.32" fill="none" />
<path d="M 343.3 163.1 Q 347.4 164.4 350.7 166.8" stroke="#63875e" stroke-width="2.4" stroke-linecap="round" opacity="0.32" fill="none" />
<path d="M 182.1 394.3 Q 185.1 398.7 187.6 406.7" stroke="#63875e" stroke-width="2.4" stroke-linecap="round" opacity="0.32" fill="none" />
<path d="M 432.9 256.3 Q 436.4 254.7 439.3 251.6" stroke="#63875e" stroke-width="2.4" stroke-linecap="round" opacity="0.32" fill="none" />
<path d="M 362.2 418.9 Q 360.0 422.0 358.2 427.8" stroke="#63875e" stroke-width="2.4" stroke-linecap="round" opacity="0.32" fill="none" />
<path d="M 331.4 203.9 Q 335.5 200.4 338.9 194.0" stroke="#63875e" stroke-width="2.4" stroke-linecap="round" opacity="0.32" fill="none" />
<path d="M 343.4 210.0 Q 344.7 206.0 345.8 198.5" stroke="#63875e" stroke-width="2.4" stroke-linecap="round" opacity="0.32" fill="none" />
<path d="M 329.2 207.8 Q 334.7 204.3 339.2 198.0" stroke="#63875e" stroke-width="2.4" stroke-linecap="round" opacity="0.32" fill="none" />
<path d="M 167.6 142.9 Q 163.0 143.1 159.3 143.4" stroke="#63875e" stroke-width="2.4" stroke-linecap="round" opacity="0.32" fill="none" />
<path d="M 358.3 224.4 Q 361.6 221.4 364.3 215.8" stroke="#63875e" stroke-width="2.4" stroke-linecap="round" opacity="0.32" fill="none" />
<path d="M 170.7 401.5 Q 172.5 404.3 174.0 409.7" stroke="#63875e" stroke-width="2.4" stroke-linecap="round" opacity="0.32" fill="none" />
<path d="M 337.8 122.8 Q 343.3 121.2 347.8 118.1" stroke="#63875e" stroke-width="2.4" stroke-linecap="round" opacity="0.32" fill="none" />
<path d="M 412.2 251.8 Q 415.1 248.9 417.4 243.7" stroke="#63875e" stroke-width="2.4" stroke-linecap="round" opacity="0.32" fill="none" />
<path d="M 257.4 359.0 Q 255.4 363.1 253.8 370.7" stroke="#63875e" stroke-width="2.4" stroke-linecap="round" opacity="0.32" fill="none" />
<path d="M 402.5 241.8 Q 406.4 238.6 409.6 232.6" stroke="#63875e" stroke-width="2.4" stroke-linecap="round" opacity="0.32" fill="none" />
<path d="M 63.8 269.9 Q 63.8 266.5 63.9 260.2" stroke="#63875e" stroke-width="2.4" stroke-linecap="round" opacity="0.32" fill="none" />
<path d="M 334.4 203.3 Q 340.0 203.8 344.5 204.8" stroke="#63875e" stroke-width="2.4" stroke-linecap="round" opacity="0.32" fill="none" />
<path d="M 257.6 350.7 Q 260.7 353.2 263.3 357.9" stroke="#63875e" stroke-width="2.4" stroke-linecap="round" opacity="0.32" fill="none" />
<path d="M 342.5 109.4 Q 349.1 109.8 354.5 110.6" stroke="#63875e" stroke-width="2.4" stroke-linecap="round" opacity="0.32" fill="none" />
<path d="M 58.5 274.3 Q 55.1 269.5 52.2 260.8" stroke="#63875e" stroke-width="2.4" stroke-linecap="round" opacity="0.32" fill="none" />
    <path d="M 256.0 256.0 L 256.0 55.9 M 256.0 256.0 L 429.3 356.1 M 256.0 256.0 L 82.7 356.1" fill="none" stroke="url(#water-fill)" stroke-width="68.0" stroke-linecap="butt" />
    <circle cx="256.0" cy="256.0" r="39.3" fill="url(#water-fill)" />
    <path d="M 256.0 256.0 L 256.0 55.9 M 256.0 256.0 L 429.3 356.1 M 256.0 256.0 L 82.7 356.1" fill="none" stroke="url(#water-shade)" stroke-width="68.0" stroke-linecap="butt" />
    <circle cx="256.0" cy="256.0" r="39.3" fill="url(#water-shade)" />
    <circle cx="256.0" cy="256.0" r="39.3" fill="none" stroke="#d5f3f6" stroke-width="2" opacity="0.22" />
<path d="M 323.3 311.9 Q 334.1 301.1 338.1 286.3" stroke="#c6eef8" stroke-width="1.13" stroke-linecap="round" opacity="0.17" fill="none" />
<path d="M 283.0 122.8 Q 256.0 120.7 229.0 122.8" stroke="#81cbd8" stroke-width="1.17" stroke-linecap="round" opacity="0.28" fill="none" />
<path d="M 276.7 75.9 Q 256.0 72.0 235.3 75.9" stroke="#81cbd8" stroke-width="1.45" stroke-linecap="round" opacity="0.23" fill="none" />
<path d="M 152.6 289.6 Q 166.9 307.4 175.2 328.7" stroke="#a6dde9" stroke-width="1.55" stroke-linecap="round" opacity="0.19" fill="none" />
<path d="M 94.5 336.6 Q 102.8 344.4 105.5 355.5" stroke="#a6dde9" stroke-width="1.63" stroke-linecap="round" opacity="0.27" fill="none" />
<path d="M 274.6 116.1 Q 256.0 117.7 237.4 116.1" stroke="#a6dde9" stroke-width="1.66" stroke-linecap="round" opacity="0.15" fill="none" />
<path d="M 389.4 358.4 Q 398.9 338.5 411.4 320.3" stroke="#81cbd8" stroke-width="1.55" stroke-linecap="round" opacity="0.29" fill="none" />
<path d="M 289.5 290.0 Q 298.7 280.7 302.1 268.0" stroke="#c6eef8" stroke-width="1.37" stroke-linecap="round" opacity="0.16" fill="none" />
<path d="M 164.6 296.9 Q 167.8 306.9 174.9 314.7" stroke="#81cbd8" stroke-width="1.50" stroke-linecap="round" opacity="0.25" fill="none" />
<path d="M 140.2 308.3 Q 146.4 319.3 152.8 330.1" stroke="#c6eef8" stroke-width="1.92" stroke-linecap="round" opacity="0.26" fill="none" />
<path d="M 286.0 295.9 Q 298.8 280.7 305.6 262.0" stroke="#a6dde9" stroke-width="1.72" stroke-linecap="round" opacity="0.16" fill="none" />
<path d="M 146.6 306.1 Q 155.3 314.1 157.9 325.6" stroke="#c6eef8" stroke-width="1.24" stroke-linecap="round" opacity="0.24" fill="none" />
<path d="M 146.8 306.3 Q 152.7 315.6 157.8 325.4" stroke="#81cbd8" stroke-width="1.69" stroke-linecap="round" opacity="0.23" fill="none" />
<path d="M 282.2 122.8 Q 256.0 126.5 229.8 122.8" stroke="#c6eef8" stroke-width="1.31" stroke-linecap="round" opacity="0.28" fill="none" />
<path d="M 394.5 363.0 Q 407.3 343.3 417.9 322.5" stroke="#a6dde9" stroke-width="1.80" stroke-linecap="round" opacity="0.22" fill="none" />
<path d="M 158.7 300.2 Q 162.6 310.0 169.1 318.2" stroke="#a6dde9" stroke-width="1.55" stroke-linecap="round" opacity="0.17" fill="none" />
<path d="M 288.1 305.7 Q 299.1 280.9 315.1 259.0" stroke="#81cbd8" stroke-width="1.46" stroke-linecap="round" opacity="0.24" fill="none" />
<path d="M 154.9 293.5 Q 164.1 309.1 172.9 324.8" stroke="#a6dde9" stroke-width="1.21" stroke-linecap="round" opacity="0.23" fill="none" />
<path d="M 274.3 254.3 Q 269.0 246.8 263.7 239.3" stroke="#81cbd8" stroke-width="1.76" stroke-linecap="round" opacity="0.17" fill="none" />
<path d="M 232.2 255.9 Q 235.0 263.5 237.7 271.1" stroke="#81cbd8" stroke-width="1.70" stroke-linecap="round" opacity="0.22" fill="none" />
<path d="M 232.0 252.6 Q 234.2 261.4 236.4 270.2" stroke="#81cbd8" stroke-width="1.69" stroke-linecap="round" opacity="0.20" fill="none" />
<path d="M 251.1 279.0 Q 260.0 277.3 268.8 275.7" stroke="#81cbd8" stroke-width="1.51" stroke-linecap="round" opacity="0.18" fill="none" />
<path d="M 264.4 248.8 Q 255.3 249.9 246.1 251.0" stroke="#c6eef8" stroke-width="1.49" stroke-linecap="round" opacity="0.25" fill="none" />
<path d="M 237.7 263.9 Q 248.9 269.7 260.1 275.5" stroke="#c6eef8" stroke-width="1.61" stroke-linecap="round" opacity="0.18" fill="none" />
    <line x1="256.0" y1="210.7" x2="256.0" y2="83.9" stroke="#142e36" stroke-width="1.8" opacity="0.18" />
    <line x1="295.2" y1="278.6" x2="405.1" y2="342.1" stroke="#142e36" stroke-width="1.8" opacity="0.18" />
    <line x1="216.8" y1="278.6" x2="106.9" y2="342.1" stroke="#142e36" stroke-width="1.8" opacity="0.18" />
  </g>
</svg>
