<svg xmlns="http://www.w3.org/2000/svg" width="512" height="512" viewBox="0 0 512 512">
  <defs>
    <clipPath id="hex-clip">
      <polygon points="48.0,256.0 152.0,75.9 360.0,75.9 464.0,256.0 360.0,436.1 152.0,436.1" />
    </clipPath>
    <linearGradient id="water-fill" x1="0%" y1="0%" x2="100%" y2="0%">
      <stop offset="0%" stop-color="#295f69" />
      <stop offset="20%" stop-color="#327884" />
      <stop offset="50%" stop-color="#5ea4af" />
      <stop offset="80%" stop-color="#327884" />
      <stop offset="100%" stop-color="#295f69" />
    </linearGradient>
    <linearGradient id="water-shade" x1="0%" y1="0%" x2="0%" y2="100%">
      <stop offset="0%" stop-color="#8dd6de" stop-opacity="0.38" />
      <stop offset="35%" stop-color="#ffffff" stop-opacity="0.06" />
      <stop offset="100%" stop-color="#11343e" stop-opacity="0.24" />
    </linearGradient>
  </defs>
  <g clip-path="url(#hex-clip)">
<ellipse cx="344.9" cy="427.3" rx="4.2" ry="3.5" fill="#8e857b" opacity="0.47" transform="rotate(106.9 344.9 427.3)" />
<ellipse cx="337.5" cy="407.6" rx="3.8" ry="2.9" fill="#ada295" opacity="0.51" transform="rotate(147.5 337.5 407.6)" />
<ellipse cx="341.9" cy="414.4" rx="3.5" ry="3.9" fill="#c4baac" opacity="0.33" transform="rotate(141.7 341.9 414.4)" />
<ellipse cx="165.6" cy="81.9" rx="3.0" ry="2.8" fill="#8e857b" opacity="0.46" transform="rotate(83.3 165.6 81.9)" />
<ellipse cx="354.3" cy="81.9" rx="4.4" ry="2.9" fill="#c4baac" opacity="0.41" transform="rotate(60.9 354.3 81.9)" />
<ellipse cx="70.0" cy="248.5" rx="3.8" ry="2.6" fill="#8e857b" opacity="0.31" transform="rotate(27.6 70.0 248.5)" />
<ellipse cx="89.1" cy="258.5" rx="4.2" ry="1.6" fill="#ddd4c7" opacity="0.52" transform="rotate(33.4 89.1 258.5)" />
<ellipse cx="432.9" cy="257.8" rx="5.5" ry="3.3" fill="#ada295" opacity="0.49" transform="rotate(143.5 432.9 257.8)" />
<ellipse cx="344.8" cy="86.2" rx="2.1" ry="3.0" fill="#c4baac" opacity="0.46" transform="rotate(159.4 344.8 86.2)" />
<ellipse cx="327.5" cy="425.3" rx="3.2" ry="1.7" fill="#ada295" opacity="0.47" transform="rotate(168.3 327.5 425.3)" />
<ellipse cx="343.3" cy="89.9" rx="4.6" ry="3.7" fill="#8e857b" opacity="0.30" transform="rotate(114.4 343.3 89.9)" />
<ellipse cx="155.5" cy="415.1" rx="3.7" ry="2.2" fill="#ddd4c7" opacity="0.43" transform="rotate(30.7 155.5 415.1)" />
<ellipse cx="452.3" cy="240.5" rx="5.4" ry="3.6" fill="#c4baac" opacity="0.38" transform="rotate(11.5 452.3 240.5)" />
<ellipse cx="334.7" cy="89.5" rx="4.4" ry="3.5" fill="#c4baac" opacity="0.43" transform="rotate(84.5 334.7 89.5)" />
<ellipse cx="366.5" cy="421.1" rx="5.5" ry="3.3" fill="#ada295" opacity="0.54" transform="rotate(160.6 366.5 421.1)" />
<ellipse cx="171.7" cy="93.6" rx="5.1" ry="3.4" fill="#ada295" opacity="0.36" transform="rotate(26.9 171.7 93.6)" />
<ellipse cx="167.9" cy="425.3" rx="5.2" ry="1.8" fill="#ada295" opacity="0.35" transform="rotate(50.3 167.9 425.3)" />
<ellipse cx="367.3" cy="417.5" rx="3.6" ry="2.0" fill="#ada295" opacity="0.56" transform="rotate(123.2 367.3 417.5)" />
<ellipse cx="79.6" cy="240.8" rx="2.1" ry="2.1" fill="#ddd4c7" opacity="0.47" transform="rotate(156.3 79.6 240.8)" />
<ellipse cx="66.9" cy="268.5" rx="2.0" ry="3.7" fill="#c4baac" opacity="0.34" transform="rotate(155.6 66.9 268.5)" />
<ellipse cx="331.6" cy="407.2" rx="3.4" ry="1.6" fill="#ddd4c7" opacity="0.66" transform="rotate(72.4 331.6 407.2)" />
<ellipse cx="369.3" cy="90.0" rx="2.9" ry="1.8" fill="#8e857b" opacity="0.51" transform="rotate(118.6 369.3 90.0)" />
<ellipse cx="158.9" cy="89.6" rx="3.5" ry="1.8" fill="#8e857b" opacity="0.39" transform="rotate(18.5 158.9 89.6)" />
<ellipse cx="165.9" cy="413.4" rx="4.3" ry="3.7" fill="#ada295" opacity="0.59" transform="rotate(122.4 165.9 413.4)" />
<ellipse cx="333.6" cy="94.8" rx="2.1" ry="3.2" fill="#ada295" opacity="0.32" transform="rotate(90.7 333.6 94.8)" />
<ellipse cx="79.0" cy="253.4" rx="3.9" ry="2.5" fill="#ada295" opacity="0.33" transform="rotate(146.4 79.0 253.4)" />
<ellipse cx="170.7" cy="101.5" rx="4.9" ry="1.7" fill="#ddd4c7" opacity="0.38" transform="rotate(128.6 170.7 101.5)" />
<ellipse cx="366.4" cy="99.0" rx="4.2" ry="3.6" fill="#ada295" opacity="0.50" transform="rotate(99.3 366.4 99.0)" />
<ellipse cx="342.6" cy="100.5" rx="3.4" ry="1.7" fill="#ddd4c7" opacity="0.48" transform="rotate(170.3 342.6 100.5)" />
<ellipse cx="434.5" cy="252.5" rx="3.3" ry="2.4" fill="#ddd4c7" opacity="0.29" transform="rotate(64.0 434.5 252.5)" />
<ellipse cx="445.0" cy="252.5" rx="4.5" ry="2.5" fill="#ada295" opacity="0.46" transform="rotate(55.3 445.0 252.5)" />
<ellipse cx="442.5" cy="245.1" rx="4.8" ry="1.8" fill="#8e857b" opacity="0.28" transform="rotate(141.4 442.5 245.1)" />
<ellipse cx="454.2" cy="265.7" rx="4.8" ry="2.3" fill="#8e857b" opacity="0.29" transform="rotate(164.5 454.2 265.7)" />
<ellipse cx="57.7" cy="243.2" rx="5.4" ry="3.9" fill="#ddd4c7" opacity="0.45" transform="rotate(175.9 57.7 243.2)" />
<ellipse cx="182.0" cy="427.2" rx="4.6" ry="2.4" fill="#ada295" opacity="0.45" transform="rotate(165.4 182.0 427.2)" />
<ellipse cx="346.9" cy="92.2" rx="4.0" ry="1.8" fill="#8e857b" opacity="0.40" transform="rotate(7.8 346.9 92.2)" />
<ellipse cx="162.9" cy="85.9" rx="5.6" ry="3.4" fill="#8e857b" opacity="0.40" transform="rotate(74.5 162.9 85.9)" />
<ellipse cx="449.2" cy="236.5" rx="2.2" ry="3.3" fill="#c4baac" opacity="0.62" transform="rotate(8.5 449.2 236.5)" />
<ellipse cx="152.9" cy="102.6" rx="3.3" ry="3.2" fill="#ada295" opacity="0.33" transform="rotate(51.4 152.9 102.6)" />
<ellipse cx="354.4" cy="69.7" rx="3.9" ry="3.3" fill="#8e857b" opacity="0.51" transform="rotate(121.8 354.4 69.7)" />
<ellipse cx="347.1" cy="443.5" rx="3.2" ry="2.8" fill="#8e857b" opacity="0.32" transform="rotate(128.3 347.1 443.5)" />
<ellipse cx="361.9" cy="87.0" rx="2.7" ry="1.6" fill="#ddd4c7" opacity="0.67" transform="rotate(77.9 361.9 87.0)" />
<ellipse cx="454.7" cy="247.4" rx="3.2" ry="3.3" fill="#c4baac" opacity="0.41" transform="rotate(160.3 454.7 247.4)" />
<ellipse cx="342.4" cy="84.8" rx="3.1" ry="1.9" fill="#ada295" opacity="0.61" transform="rotate(152.7 342.4 84.8)" />
<ellipse cx="443.8" cy="257.4" rx="4.6" ry="2.9" fill="#ddd4c7" opacity="0.45" transform="rotate(85.9 443.8 257.4)" />
<ellipse cx="191.3" cy="414.0" rx="2.8" ry="3.4" fill="#ddd4c7" opacity="0.54" transform="rotate(166.1 191.3 414.0)" />
<ellipse cx="451.6" cy="253.9" rx="3.9" ry="2.2" fill="#ddd4c7" opacity="0.47" transform="rotate(110.3 451.6 253.9)" />
<ellipse cx="346.7" cy="440.7" rx="4.5" ry="2.3" fill="#ddd4c7" opacity="0.41" transform="rotate(83.8 346.7 440.7)" />
<ellipse cx="468.4" cy="244.6" rx="4.2" ry="3.4" fill="#c4baac" opacity="0.65" transform="rotate(84.9 468.4 244.6)" />
<ellipse cx="75.5" cy="253.9" rx="4.3" ry="3.1" fill="#c4baac" opacity="0.56" transform="rotate(105.5 75.5 253.9)" />
<ellipse cx="170.3" cy="403.8" rx="2.7" ry="3.0" fill="#ada295" opacity="0.36" transform="rotate(1.8 170.3 403.8)" />
<ellipse cx="351.6" cy="419.1" rx="2.8" ry="3.6" fill="#c4baac" opacity="0.65" transform="rotate(124.8 351.6 419.1)" />
<ellipse cx="456.1" cy="257.8" rx="4.9" ry="1.7" fill="#ddd4c7" opacity="0.51" transform="rotate(55.2 456.1 257.8)" />
<path d="M 329.8 450.2 Q 327.9 453.5 326.4 459.7" stroke="#63875e" stroke-width="2.4" stroke-linecap="round" opacity="0.32" fill="none" />
<path d="M 334.8 460.7 Q 332.5 462.9 330.6 466.8" stroke="#63875e" stroke-width="2.4" stroke-linecap="round" opacity="0.32" fill="none" />
<path d="M 43.6 225.4 Q 41.6 223.4 40.1 219.7" stroke="#63875e" stroke-width="2.4" stroke-linecap="round" opacity="0.32" fill="none" />
<path d="M 317.5 452.4 Q 314.1 455.6 311.4 461.6" stroke="#63875e" stroke-width="2.4" stroke-linecap="round" opacity="0.32" fill="none" />
<path d="M 117.0 87.3 Q 109.6 86.1 103.6 83.9" stroke="#63875e" stroke-width="2.4" stroke-linecap="round" opacity="0.32" fill="none" />
<path d="M 169.6 459.0 Q 173.4 462.8 176.5 469.7" stroke="#63875e" stroke-width="2.4" stroke-linecap="round" opacity="0.32" fill="none" />
<path d="M 66.2 214.8 Q 65.4 212.0 64.8 206.7" stroke="#63875e" stroke-width="2.4" stroke-linecap="round" opacity="0.32" fill="none" />
<path d="M 51.1 215.4 Q 45.3 212.0 40.6 205.6" stroke="#63875e" stroke-width="2.4" stroke-linecap="round" opacity="0.32" fill="none" />
<path d="M 169.3 462.3 Q 170.9 466.3 172.2 473.8" stroke="#63875e" stroke-width="2.4" stroke-linecap="round" opacity="0.32" fill="none" />
<path d="M 182.9 455.3 Q 184.6 459.8 186.1 468.1" stroke="#63875e" stroke-width="2.4" stroke-linecap="round" opacity="0.32" fill="none" />
<path d="M 123.8 106.4 Q 119.2 105.0 115.4 102.2" stroke="#63875e" stroke-width="2.4" stroke-linecap="round" opacity="0.32" fill="none" />
<path d="M 35.3 230.1 Q 31.1 228.0 27.7 224.2" stroke="#63875e" stroke-width="2.4" stroke-linecap="round" opacity="0.32" fill="none" />
    <path d="M 256.0 256.0 L 256.0 55.9 M 256.0 256.0 L 429.3 155.9 M 256.0 256.0 L 429.3 356.1 M 256.0 256.0 L 82.7 356.1" fill="none" stroke="url(#water-fill)" stroke-width="140.0" stroke-linecap="butt" />
    <circle cx="256.0" cy="256.0" r="140.0" fill="url(#water-fill)" />
    <path d="M 256.0 256.0 L 256.0 55.9 M 256.0 256.0 L 429.3 155.9 M 256.0 256.0 L 429.3 356.1 M 256.0 256.0 L 82.7 356.1" fill="none" stroke="url(#water-shade)" stroke-width="140.0" stroke-linecap="butt" />
    <circle cx="256.0" cy="256.0" r="140.0" fill="url(#water-shade)" />
    <circle cx="256.0" cy="256.0" r="140.0" fill="none" stroke="#d5f3f6" stroke-width="2" opacity="0.22" />
<path d="M 409.1 195.2 Q 397.6 174.2 385.2 153.8" stroke="#81cbd8" stroke-width="1.40" stroke-linecap="round" opacity="0.28" fill="none" />
<path d="M 389.9 204.1 Q 381.4 183.6 367.9 166.0" stroke="#a6dde9" stroke-width="1.33" stroke-linecap="round" opacity="0.16" fill="none" />
<path d="M 425.4 196.8 Q 406.8 169.0 392.0 138.9" stroke="#a6dde9" stroke-width="1.53" stroke-linecap="round" opacity="0.16" fill="none" />
<path d="M 96.5 313.3 Q 111.1 339.7 126.7 365.5" stroke="#c6eef8" stroke-width="1.25" stroke-linecap="round" opacity="0.29" fill="none" />
<path d="M 359.2 368.7 Q 384.9 330.4 405.2 289.0" stroke="#c6eef8" stroke-width="1.18" stroke-linecap="round" opacity="0.28" fill="none" />
<path d="M 369.9 346.3 Q 380.9 328.1 391.2 309.5" stroke="#c6eef8" stroke-width="1.65" stroke-linecap="round" opacity="0.24" fill="none" />
<path d="M 363.3 380.7 Q 389.4 333.0 417.6 286.6" stroke="#c6eef8" stroke-width="1.95" stroke-linecap="round" opacity="0.22" fill="none" />
<path d="M 390.1 380.1 Q 410.8 345.4 430.6 310.1" stroke="#a6dde9" stroke-width="1.37" stroke-linecap="round" opacity="0.29" fill="none" />
<path d="M 420.3 203.2 Q 403.2 171.0 383.9 140.1" stroke="#c6eef8" stroke-width="1.55" stroke-linecap="round" opacity="0.21" fill="none" />
<path d="M 88.3 295.2 Q 114.4 337.8 138.2 381.6" stroke="#81cbd8" stroke-width="1.41" stroke-linecap="round" opacity="0.25" fill="none" />
<path d="M 285.4 114.1 Q 256.0 113.7 226.6 114.1" stroke="#a6dde9" stroke-width="1.90" stroke-linecap="round" opacity="0.22" fill="none" />
<path d="M 423.6 197.5 Q 409.7 167.3 390.5 140.1" stroke="#c6eef8" stroke-width="1.60" stroke-linecap="round" opacity="0.25" fill="none" />
<path d="M 396.4 361.6 Q 405.8 342.5 417.6 324.8" stroke="#a6dde9" stroke-width="1.48" stroke-linecap="round" opacity="0.21" fill="none" />
<path d="M 295.1 77.8 Q 256.0 77.9 216.9 77.8" stroke="#81cbd8" stroke-width="1.88" stroke-linecap="round" opacity="0.20" fill="none" />
<path d="M 427.6 219.7 Q 403.1 171.1 373.2 125.6" stroke="#c6eef8" stroke-width="1.70" stroke-linecap="round" opacity="0.26" fill="none" />
<path d="M 81.3 313.6 Q 97.9 347.3 118.7 378.5" stroke="#81cbd8" stroke-width="1.06" stroke-linecap="round" opacity="0.28" fill="none" />
<path d="M 311.3 110.3 Q 256.0 112.1 200.7 110.3" stroke="#c6eef8" stroke-width="1.11" stroke-linecap="round" opacity="0.17" fill="none" />
<path d="M 277.5 77.8 Q 256.0 79.2 234.5 77.8" stroke="#81cbd8" stroke-width="1.92" stroke-linecap="round" opacity="0.21" fill="none" />
<path d="M 381.2 387.9 Q 409.2 344.4 432.8 298.5" stroke="#a6dde9" stroke-width="1.57" stroke-linecap="round" opacity="0.23" fill="none" />
<path d="M 304.5 104.5 Q 256.0 102.9 207.5 104.5" stroke="#a6dde9" stroke-width="1.31" stroke-linecap="round" opacity="0.20" fill="none" />
<path d="M 406.6 229.3 Q 377.7 185.8 354.5 138.9" stroke="#a6dde9" stroke-width="1.88" stroke-linecap="round" opacity="0.15" fill="none" />
<path d="M 79.8 299.6 Q 102.3 344.8 130.1 386.8" stroke="#a6dde9" stroke-width="1.28" stroke-linecap="round" opacity="0.17" fill="none" />
<path d="M 356.3 377.5 Q 382.9 329.3 411.4 282.2" stroke="#a6dde9" stroke-width="1.98" stroke-linecap="round" opacity="0.24" fill="none" />
<path d="M 377.3 360.3 Q 390.8 333.8 407.0 308.9" stroke="#a6dde9" stroke-width="1.12" stroke-linecap="round" opacity="0.20" fill="none" />
<path d="M 190.3 272.4 Q 195.1 283.1 199.8 293.7" stroke="#c6eef8" stroke-width="1.11" stroke-linecap="round" opacity="0.14" fill="none" />
<path d="M 189.9 270.0 Q 193.5 279.5 197.1 289.1" stroke="#81cbd8" stroke-width="1.64" stroke-linecap="round" opacity="0.23" fill="none" />
<path d="M 233.6 282.4 Q 247.8 286.3 261.9 290.1" stroke="#c6eef8" stroke-width="1.25" stroke-linecap="round" opacity="0.15" fill="none" />
<path d="M 301.9 193.1 Q 290.8 187.5 279.6 181.8" stroke="#c6eef8" stroke-width="1.01" stroke-linecap="round" opacity="0.23" fill="none" />
<path d="M 192.5 222.0 Q 189.2 230.4 186.0 238.9" stroke="#a6dde9" stroke-width="1.61" stroke-linecap="round" opacity="0.25" fill="none" />
<path d="M 208.6 225.0 Q 205.3 231.9 202.0 238.8" stroke="#81cbd8" stroke-width="1.74" stroke-linecap="round" opacity="0.13" fill="none" />
<path d="M 222.5 223.7 Q 216.8 233.6 211.1 243.6" stroke="#c6eef8" stroke-width="1.64" stroke-linecap="round" opacity="0.22" fill="none" />
<path d="M 253.8 170.1 Q 247.4 170.7 241.1 171.4" stroke="#81cbd8" stroke-width="1.61" stroke-linecap="round" opacity="0.21" fill="none" />
    <line x1="256.0" y1="110.0" x2="256.0" y2="83.9" stroke="#142e36" stroke-width="1.8" opacity="0.18" />
    <line x1="382.4" y1="183.0" x2="405.1" y2="169.9" stroke="#142e36" stroke-width="1.8" opacity="0.18" />
    <line x1="382.4" y1="329.0" x2="405.1" y2="342.1" stroke="#142e36" stroke-width="1.8" opacity="0.18" />
    <line x1="129.6" y1="329.0" x2="106.9" y2="342.1" stroke="#142e36" stroke-width="1.8" opacity="0.18" />
  </g>
</svg>
