<svg xmlns="http://www.w3.org/2000/svg" width="512" height="512" viewBox="0 0 512 512">
  <defs>
    <clipPath id="hex-clip">
      <polygon points="48.0,256.0 152.0,75.9 360.0,75.9 464.0,256.0 360.0,436.1 152.0,436.1" />
    </clipPath>
    <linearGradient id="water-fill" x1="0%" y1="0%" x2="100%" y2="0%">
      <stop offset="0%" stop-color="#295f69" />
      <stop offset="20%" stop-color="#327884" />
      <stop offset="50%" stop-color="#5ea4af" />
      <stop offset="80%" stop-color="#327884" />
      <stop offset="100%" stop-color="#295f69" />
    </linearGradient>
    <linearGradient id="water-shade" x1="0%" y1="0%" x2="0%" y2="100%">
      <stop offset="0%" stop-color="#8dd6de" stop-opacity="0.38" />
      <stop offset="35%" stop-color="#ffffff" stop-opacity="0.06" />
      <stop offset="100%" stop-color="#11343e" stop-opacity="0.24" />
    </linearGradient>
  </defs>
  <g clip-path="url(#hex-clip)">
<ellipse cx="303.6" cy="349.4" rx="3.9" ry="2.1" fill="#ddd4c7" opacity="0.51" transform="rotate(19.3 303.6 349.4)" />
<ellipse cx="302.4" cy="106.6" rx="5.0" ry="3.9" fill="#8e857b" opacity="0.33" transform="rotate(162.7 302.4 106.6)" />
<ellipse cx="198.1" cy="141.5" rx="2.8" ry="2.1" fill="#c4baac" opacity="0.44" transform="rotate(59.6 198.1 141.5)" />
<ellipse cx="320.6" cy="145.2" rx="4.6" ry="3.0" fill="#ada295" opacity="0.58" transform="rotate(171.8 320.6 145.2)" />
<ellipse cx="207.9" cy="325.7" rx="2.3" ry="3.9" fill="#ada295" opacity="0.31" transform="rotate(107.5 207.9 325.7)" />
<ellipse cx="379.7" cy="115.2" rx="3.6" ry="1.6" fill="#ddd4c7" opacity="0.40" transform="rotate(106.1 379.7 115.2)" />
<ellipse cx="194.3" cy="102.4" rx="5.3" ry="3.1" fill="#8e857b" opacity="0.58" transform="rotate(80.4 194.3 102.4)" />
<ellipse cx="351.5" cy="134.3" rx="2.7" ry="3.3" fill="#c4baac" opacity="0.42" transform="rotate(1.9 351.5 134.3)" />
<ellipse cx="321.6" cy="139.9" rx="4.8" ry="3.1" fill="#ddd4c7" opacity="0.41" transform="rotate(161.6 321.6 139.9)" />
<ellipse cx="194.5" cy="338.8" rx="3.3" ry="2.6" fill="#8e857b" opacity="0.70" transform="rotate(94.1 194.5 338.8)" />
<ellipse cx="421.9" cy="218.1" rx="3.8" ry="1.6" fill="#ddd4c7" opacity="0.44" transform="rotate(73.8 421.9 218.1)" />
<ellipse cx="192.7" cy="169.4" rx="3.6" ry="2.2" fill="#ada295" opacity="0.46" transform="rotate(74.4 192.7 169.4)" />
<ellipse cx="385.6" cy="240.4" rx="4.1" ry="2.0" fill="#ddd4c7" opacity="0.48" transform="rotate(54.2 385.6 240.4)" />
<ellipse cx="190.7" cy="368.1" rx="2.5" ry="3.7" fill="#c4baac" opacity="0.48" transform="rotate(148.0 190.7 368.1)" />
<ellipse cx="200.3" cy="339.1" rx="5.2" ry="2.0" fill="#ddd4c7" opacity="0.41" transform="rotate(23.1 200.3 339.1)" />
<ellipse cx="316.3" cy="115.3" rx="4.3" ry="1.6" fill="#c4baac" opacity="0.63" transform="rotate(78.5 316.3 115.3)" />
<ellipse cx="318.8" cy="115.6" rx="4.6" ry="3.3" fill="#ada295" opacity="0.38" transform="rotate(154.4 318.8 115.6)" />
<ellipse cx="345.2" cy="150.0" rx="5.4" ry="3.6" fill="#ada295" opacity="0.61" transform="rotate(26.7 345.2 150.0)" />
<ellipse cx="302.8" cy="89.4" rx="3.7" ry="2.6" fill="#ada295" opacity="0.29" transform="rotate(175.7 302.8 89.4)" />
<ellipse cx="409.3" cy="225.3" rx="2.7" ry="2.7" fill="#ddd4c7" opacity="0.52" transform="rotate(170.3 409.3 225.3)" />
<ellipse cx="349.8" cy="260.2" rx="5.2" ry="2.7" fill="#8e857b" opacity="0.60" transform="rotate(13.5 349.8 260.2)" />
<ellipse cx="196.1" cy="363.4" rx="4.4" ry="2.5" fill="#ada295" opacity="0.39" transform="rotate(46.1 196.1 363.4)" />
<ellipse cx="380.1" cy="253.3" rx="2.6" ry="3.8" fill="#ddd4c7" opacity="0.56" transform="rotate(18.1 380.1 253.3)" />
<ellipse cx="207.1" cy="173.9" rx="3.3" ry="2.4" fill="#ada295" opacity="0.70" transform="rotate(149.8 207.1 173.9)" />
<ellipse cx="296.7" cy="176.7" rx="3.4" ry="2.9" fill="#ada295" opacity="0.35" transform="rotate(74.4 296.7 176.7)" />
<ellipse cx="415.6" cy="231.7" rx="3.3" ry="2.1" fill="#ddd4c7" opacity="0.49" transform="rotate(45.0 415.6 231.7)" />
<ellipse cx="305.7" cy="372.2" rx="5.3" ry="4.0" fill="#ddd4c7" opacity="0.50" transform="rotate(1.4 305.7 372.2)" />
<ellipse cx="302.5" cy="90.8" rx="5.2" ry="2.5" fill="#c4baac" opacity="0.54" transform="rotate(94.9 302.5 90.8)" />
<ellipse cx="412.9" cy="241.3" rx="3.4" ry="1.7" fill="#c4baac" opacity="0.32" transform="rotate(23.3 412.9 241.3)" />
<ellipse cx="329.7" cy="150.7" rx="3.5" ry="3.8" fill="#ddd4c7" opacity="0.43" transform="rotate(159.6 329.7 150.7)" />
<ellipse cx="313.3" cy="350.1" rx="3.4" ry="2.7" fill="#c4baac" opacity="0.70" transform="rotate(108.6 313.3 350.1)" />
<ellipse cx="354.9" cy="255.4" rx="3.0" ry="3.8" fill="#8e857b" opacity="0.68" transform="rotate(93.7 354.9 255.4)" />
<ellipse cx="356.3" cy="261.6" rx="4.1" ry="2.9" fill="#ddd4c7" opacity="0.49" transform="rotate(68.0 356.3 261.6)" />
<ellipse cx="316.3" cy="165.2" rx="4.8" ry="1.9" fill="#8e857b" opacity="0.60" transform="rotate(157.7 316.3 165.2)" />
<ellipse cx="344.4" cy="261.4" rx="3.8" ry="3.6" fill="#ada295" opacity="0.68" transform="rotate(92.2 344.4 261.4)" />
<ellipse cx="342.7" cy="131.8" rx="5.5" ry="1.8" fill="#ada295" opacity="0.40" transform="rotate(44.5 342.7 131.8)" />
<ellipse cx="393.0" cy="244.7" rx="5.2" ry="2.7" fill="#c4baac" opacity="0.52" transform="rotate(125.9 393.0 244.7)" />
<ellipse cx="193.0" cy="426.9" rx="2.6" ry="1.7" fill="#ada295" opacity="0.42" transform="rotate(120.2 193.0 426.9)" />
<ellipse cx="198.0" cy="134.0" rx="5.3" ry="3.2" fill="#ddd4c7" opacity="0.58" transform="rotate(47.5 198.0 134.0)" />
<ellipse cx="194.9" cy="423.2" rx="4.7" ry="1.5" fill="#c4baac" opacity="0.50" transform="rotate(167.3 194.9 423.2)" />
<ellipse cx="191.2" cy="117.6" rx="4.1" ry="3.1" fill="#c4baac" opacity="0.37" transform="rotate(47.5 191.2 117.6)" />
<ellipse cx="310.5" cy="361.6" rx="3.7" ry="3.5" fill="#c4baac" opacity="0.43" transform="rotate(98.9 310.5 361.6)" />
<ellipse cx="308.0" cy="329.2" rx="3.1" ry="2.3" fill="#8e857b" opacity="0.55" transform="rotate(43.5 308.0 329.2)" />
<ellipse cx="308.8" cy="424.7" rx="4.0" ry="3.1" fill="#ada295" opacity="0.69" transform="rotate(134.2 308.8 424.7)" />
<ellipse cx="195.6" cy="338.4" rx="3.1" ry="1.8" fill="#c4baac" opacity="0.62" transform="rotate(44.4 195.6 338.4)" />
<ellipse cx="345.8" cy="144.2" rx="5.0" ry="1.8" fill="#c4baac" opacity="0.69" transform="rotate(30.2 345.8 144.2)" />
<ellipse cx="339.6" cy="136.0" rx="3.7" ry="3.6" fill="#8e857b" opacity="0.30" transform="rotate(74.4 339.6 136.0)" />
<ellipse cx="342.5" cy="268.7" rx="5.6" ry="2.9" fill="#8e857b" opacity="0.63" transform="rotate(119.9 342.5 268.7)" />
<ellipse cx="407.6" cy="242.0" rx="4.2" ry="1.7" fill="#ddd4c7" opacity="0.43" transform="rotate(30.5 407.6 242.0)" />
<ellipse cx="320.9" cy="380.5" rx="5.0" ry="3.2" fill="#8e857b" opacity="0.58" transform="rotate(135.9 320.9 380.5)" />
<ellipse cx="305.5" cy="425.8" rx="5.6" ry="2.3" fill="#8e857b" opacity="0.39" transform="rotate(136.2 305.5 425.8)" />
<ellipse cx="303.5" cy="435.7" rx="2.1" ry="2.0" fill="#ddd4c7" opacity="0.36" transform="rotate(81.6 303.5 435.7)" />
<ellipse cx="193.8" cy="140.7" rx="5.3" ry="1.8" fill="#c4baac" opacity="0.51" transform="rotate(76.5 193.8 140.7)" />
<ellipse cx="303.1" cy="398.8" rx="2.9" ry="3.5" fill="#8e857b" opacity="0.44" transform="rotate(16.3 303.1 398.8)" />
<ellipse cx="307.6" cy="83.6" rx="5.2" ry="2.1" fill="#ada295" opacity="0.34" transform="rotate(76.9 307.6 83.6)" />
<ellipse cx="310.9" cy="82.7" rx="4.1" ry="2.4" fill="#ada295" opacity="0.35" transform="rotate(151.9 310.9 82.7)" />
<ellipse cx="317.7" cy="165.9" rx="5.5" ry="2.3" fill="#c4baac" opacity="0.37" transform="rotate(120.3 317.7 165.9)" />
<ellipse cx="437.3" cy="219.0" rx="5.1" ry="2.9" fill="#ddd4c7" opacity="0.43" transform="rotate(2.4 437.3 219.0)" />
<ellipse cx="304.3" cy="150.7" rx="4.1" ry="1.6" fill="#ada295" opacity="0.70" transform="rotate(8.6 304.3 150.7)" />
<ellipse cx="318.4" cy="430.6" rx="5.1" ry="2.5" fill="#ddd4c7" opacity="0.29" transform="rotate(60.3 318.4 430.6)" />
<ellipse cx="205.6" cy="107.5" rx="4.0" ry="4.0" fill="#8e857b" opacity="0.33" transform="rotate(153.0 205.6 107.5)" />
<ellipse cx="307.0" cy="369.3" rx="3.0" ry="3.7" fill="#ddd4c7" opacity="0.36" transform="rotate(152.0 307.0 369.3)" />
<ellipse cx="190.3" cy="85.8" rx="4.1" ry="1.6" fill="#ada295" opacity="0.53" transform="rotate(93.1 190.3 85.8)" />
<ellipse cx="195.7" cy="120.6" rx="3.3" ry="4.0" fill="#8e857b" opacity="0.42" transform="rotate(172.6 195.7 120.6)" />
<ellipse cx="302.1" cy="158.1" rx="4.2" ry="3.6" fill="#ada295" opacity="0.66" transform="rotate(119.7 302.1 158.1)" />
<ellipse cx="303.7" cy="404.6" rx="3.5" ry="3.7" fill="#ada295" opacity="0.47" transform="rotate(143.7 303.7 404.6)" />
<ellipse cx="391.4" cy="246.8" rx="2.0" ry="2.9" fill="#ada295" opacity="0.56" transform="rotate(76.2 391.4 246.8)" />
<ellipse cx="399.5" cy="238.4" rx="3.7" ry="2.8" fill="#c4baac" opacity="0.69" transform="rotate(56.3 399.5 238.4)" />
<ellipse cx="335.6" cy="266.1" rx="3.7" ry="2.8" fill="#ddd4c7" opacity="0.64" transform="rotate(150.2 335.6 266.1)" />
<ellipse cx="306.7" cy="400.0" rx="5.1" ry="2.4" fill="#ada295" opacity="0.29" transform="rotate(179.6 306.7 400.0)" />
<ellipse cx="202.6" cy="422.3" rx="2.1" ry="3.0" fill="#8e857b" opacity="0.67" transform="rotate(46.7 202.6 422.3)" />
<ellipse cx="193.0" cy="404.0" rx="4.3" ry="2.7" fill="#ddd4c7" opacity="0.68" transform="rotate(109.8 193.0 404.0)" />
<ellipse cx="308.7" cy="441.9" rx="3.2" ry="2.8" fill="#8e857b" opacity="0.68" transform="rotate(131.8 308.7 441.9)" />
<ellipse cx="320.4" cy="386.2" rx="2.3" ry="4.0" fill="#c4baac" opacity="0.38" transform="rotate(51.5 320.4 386.2)" />
<ellipse cx="196.0" cy="430.2" rx="5.5" ry="1.4" fill="#ada295" opacity="0.62" transform="rotate(11.0 196.0 430.2)" />
<ellipse cx="201.9" cy="386.2" rx="2.7" ry="2.8" fill="#c4baac" opacity="0.44" transform="rotate(62.6 201.9 386.2)" />
<ellipse cx="197.8" cy="328.8" rx="3.0" ry="3.3" fill="#ada295" opacity="0.48" transform="rotate(7.6 197.8 328.8)" />
<ellipse cx="318.9" cy="139.5" rx="2.9" ry="3.2" fill="#ddd4c7" opacity="0.37" transform="rotate(86.9 318.9 139.5)" />
<ellipse cx="306.6" cy="354.4" rx="2.2" ry="2.4" fill="#8e857b" opacity="0.51" transform="rotate(115.9 306.6 354.4)" />
<path d="M 167.4 366.7 Q 162.2 368.2 157.9 371.1" stroke="#63875e" stroke-width="2.4" stroke-linecap="round" opacity="0.32" fill="none" />
<path d="M 173.6 425.5 Q 168.1 426.3 163.6 427.9" stroke="#63875e" stroke-width="2.4" stroke-linecap="round" opacity="0.32" fill="none" />
<path d="M 392.7 271.4 Q 396.3 274.6 399.2 280.6" stroke="#63875e" stroke-width="2.4" stroke-linecap="round" opacity="0.32" fill="none" />
<path d="M 170.6 398.8 Q 166.7 398.0 163.4 396.7" stroke="#63875e" stroke-width="2.4" stroke-linecap="round" opacity="0.32" fill="none" />
<path d="M 339.1 340.0 Q 346.5 339.8 352.6 339.5" stroke="#63875e" stroke-width="2.4" stroke-linecap="round" opacity="0.32" fill="none" />
<path d="M 172.5 166.6 Q 167.3 167.5 162.9 169.2" stroke="#63875e" stroke-width="2.4" stroke-linecap="round" opacity="0.32" fill="none" />
<path d="M 336.8 382.7 Q 340.7 381.6 343.9 379.5" stroke="#63875e" stroke-width="2.4" stroke-linecap="round" opacity="0.32" fill="none" />
<path d="M 342.7 118.6 Q 349.8 119.5 355.6 121.2" stroke="#63875e" stroke-width="2.4" stroke-linecap="round" opacity="0.32" fill="none" />
<path d="M 336.6 113.2 Q 341.0 112.1 344.5 110.1" stroke="#63875e" stroke-width="2.4" stroke-linecap="round" opacity="0.32" fill="none" />
<path d="M 334.7 118.6 Q 339.6 117.2 343.6 114.6" stroke="#63875e" stroke-width="2.4" stroke-linecap="round" opacity="0.32" fill="none" />
<path d="M 177.3 177.3 Q 170.1 176.8 164.2 175.9" stroke="#63875e" stroke-width="2.4" stroke-linecap="round" opacity="0.32" fill="none" />
<path d="M 170.3 382.7 Q 162.7 383.2 156.5 384.0" stroke="#63875e" stroke-width="2.4" stroke-linecap="round" opacity="0.32" fill="none" />
<path d="M 369.2 284.0 Q 372.9 287.1 375.9 292.8" stroke="#63875e" stroke-width="2.4" stroke-linecap="round" opacity="0.32" fill="none" />
<path d="M 174.2 361.4 Q 167.0 360.7 161.0 359.5" stroke="#63875e" stroke-width="2.4" stroke-linecap="round" opacity="0.32" fill="none" />
<path d="M 171.7 118.6 Q 164.3 117.3 158.3 115.0" stroke="#63875e" stroke-width="2.4" stroke-linecap="round" opacity="0.32" fill="none" />
<path d="M 344.8 377.4 Q 352.4 377.6 358.6 378.0" stroke="#63875e" stroke-width="2.4" stroke-linecap="round" opacity="0.32" fill="none" />
<path d="M 172.7 377.4 Q 166.2 378.4 160.9 380.4" stroke="#63875e" stroke-width="2.4" stroke-linecap="round" opacity="0.32" fill="none" />
<path d="M 344.1 430.8 Q 348.0 429.6 351.1 427.5" stroke="#63875e" stroke-width="2.4" stroke-linecap="round" opacity="0.32" fill="none" />
<path d="M 167.6 129.3 Q 163.0 129.4 159.3 129.7" stroke="#63875e" stroke-width="2.4" stroke-linecap="round" opacity="0.32" fill="none" />
<path d="M 340.7 361.4 Q 345.4 361.9 349.3 363.0" stroke="#63875e" stroke-width="2.4" stroke-linecap="round" opacity="0.32" fill="none" />
<path d="M 174.8 107.9 Q 167.8 108.5 162.0 109.5" stroke="#63875e" stroke-width="2.4" stroke-linecap="round" opacity="0.32" fill="none" />
<path d="M 339.8 382.7 Q 347.4 381.0 353.6 377.9" stroke="#63875e" stroke-width="2.4" stroke-linecap="round" opacity="0.32" fill="none" />
<path d="M 449.9 242.2 Q 452.5 245.6 454.6 252.1" stroke="#63875e" stroke-width="2.4" stroke-linecap="round" opacity="0.32" fill="none" />
<path d="M 168.4 420.1 Q 162.4 420.8 157.5 422.0" stroke="#63875e" stroke-width="2.4" stroke-linecap="round" opacity="0.32" fill="none" />
<path d="M 339.1 377.4 Q 344.1 376.3 348.1 374.2" stroke="#63875e" stroke-width="2.4" stroke-linecap="round" opacity="0.32" fill="none" />
<path d="M 172.0 182.7 Q 166.5 182.9 162.0 183.3" stroke="#63875e" stroke-width="2.4" stroke-linecap="round" opacity="0.32" fill="none" />
    <path d="M 256.0 256.0 L 256.0 55.9 M 256.0 256.0 L 429.3 155.9 M 256.0 256.0 L 256.0 456.1" fill="none" stroke="url(#water-fill)" stroke-width="68.0" stroke-linecap="butt" />
    <circle cx="256.0" cy="256.0" r="68.0" fill="url(#water-fill)" />
    <path d="M 256.0 256.0 L 256.0 55.9 M 256.0 256.0 L 429.3 155.9 M 256.0 256.0 L 256.0 456.1" fill="none" stroke="url(#water-shade)" stroke-width="68.0" stroke-linecap="butt" />
    <circle cx="256.0" cy="256.0" r="68.0" fill="url(#water-shade)" />
    <circle cx="256.0" cy="256.0" r="68.0" fill="none" stroke="#d5f3f6" stroke-width="2" opacity="0.22" />
<path d="M 354.6 216.1 Q 350.7 201.4 339.9 190.5" stroke="#c6eef8" stroke-width="1.13" stroke-linecap="round" opacity="0.17" fill="none" />
<path d="M 283.0 113.2 Q 256.0 111.1 229.0 113.2" stroke="#81cbd8" stroke-width="1.17" stroke-linecap="round" opacity="0.28" fill="none" />
<path d="M 276.7 75.9 Q 256.0 72.0 235.3 75.9" stroke="#81cbd8" stroke-width="1.45" stroke-linecap="round" opacity="0.23" fill="none" />
<path d="M 233.4 377.4 Q 256.0 373.9 278.6 377.4" stroke="#a6dde9" stroke-width="1.55" stroke-linecap="round" opacity="0.19" fill="none" />
<path d="M 245.1 436.1 Q 256.0 432.9 266.9 436.1" stroke="#a6dde9" stroke-width="1.63" stroke-linecap="round" opacity="0.27" fill="none" />
<path d="M 274.6 107.9 Q 256.0 109.4 237.4 107.9" stroke="#a6dde9" stroke-width="1.66" stroke-linecap="round" opacity="0.15" fill="none" />
<path d="M 413.8 190.3 Q 401.3 172.1 391.7 152.2" stroke="#81cbd8" stroke-width="1.55" stroke-linecap="round" opacity="0.29" fill="none" />
<path d="M 325.8 230.3 Q 322.4 217.7 313.2 208.4" stroke="#c6eef8" stroke-width="1.37" stroke-linecap="round" opacity="0.16" fill="none" />
<path d="M 245.7 372.1 Q 256.0 374.3 266.3 372.1" stroke="#81cbd8" stroke-width="1.50" stroke-linecap="round" opacity="0.25" fill="none" />
<path d="M 243.4 393.4 Q 256.0 393.5 268.6 393.4" stroke="#c6eef8" stroke-width="1.92" stroke-linecap="round" opacity="0.26" fill="none" />
<path d="M 329.3 236.3 Q 322.5 217.6 309.7 202.4" stroke="#a6dde9" stroke-width="1.72" stroke-linecap="round" opacity="0.16" fill="none" />
<path d="M 244.7 388.1 Q 256.0 384.6 267.3 388.1" stroke="#c6eef8" stroke-width="1.24" stroke-linecap="round" opacity="0.24" fill="none" />
<path d="M 245.0 388.1 Q 256.0 387.6 267.0 388.1" stroke="#81cbd8" stroke-width="1.69" stroke-linecap="round" opacity="0.23" fill="none" />
<path d="M 282.2 113.2 Q 256.0 116.9 229.8 113.2" stroke="#c6eef8" stroke-width="1.31" stroke-linecap="round" opacity="0.28" fill="none" />
<path d="M 419.1 188.9 Q 408.4 168.0 395.7 148.4" stroke="#a6dde9" stroke-width="1.80" stroke-linecap="round" opacity="0.22" fill="none" />
<path d="M 245.6 377.4 Q 256.0 379.0 266.4 377.4" stroke="#a6dde9" stroke-width="1.55" stroke-linecap="round" opacity="0.17" fill="none" />
<path d="M 337.6 240.0 Q 321.6 218.1 310.6 193.3" stroke="#81cbd8" stroke-width="1.46" stroke-linecap="round" opacity="0.24" fill="none" />
<path d="M 237.9 377.4 Q 256.0 377.2 274.1 377.4" stroke="#a6dde9" stroke-width="1.21" stroke-linecap="round" opacity="0.23" fill="none" />
<path d="M 283.9 247.5 Q 278.6 240.0 273.3 232.5" stroke="#81cbd8" stroke-width="1.76" stroke-linecap="round" opacity="0.17" fill="none" />
<path d="M 216.8 261.4 Q 219.6 269.0 222.3 276.6" stroke="#81cbd8" stroke-width="1.70" stroke-linecap="round" opacity="0.22" fill="none" />
<path d="M 216.1 256.6 Q 218.2 265.4 220.4 274.2" stroke="#81cbd8" stroke-width="1.69" stroke-linecap="round" opacity="0.20" fill="none" />
<path d="M 254.0 294.6 Q 262.9 293.0 271.7 291.3" stroke="#81cbd8" stroke-width="1.51" stroke-linecap="round" opacity="0.18" fill="none" />
<path d="M 263.9 244.3 Q 254.7 245.4 245.5 246.6" stroke="#c6eef8" stroke-width="1.49" stroke-linecap="round" opacity="0.25" fill="none" />
<path d="M 232.5 273.9 Q 243.7 279.7 254.9 285.5" stroke="#c6eef8" stroke-width="1.61" stroke-linecap="round" opacity="0.18" fill="none" />
    <line x1="256.0" y1="182.0" x2="256.0" y2="83.9" stroke="#142e36" stroke-width="1.8" opacity="0.18" />
    <line x1="320.1" y1="219.0" x2="405.1" y2="169.9" stroke="#142e36" stroke-width="1.8" opacity="0.18" />
    <line x1="256.0" y1="330.0" x2="256.0" y2="428.1" stroke="#142e36" stroke-width="1.8" opacity="0.18" />
  </g>
</svg>
