<svg xmlns="http://www.w3.org/2000/svg" width="512" height="512" viewBox="0 0 512 512">
  <defs>
    <clipPath id="hex-clip">
      <polygon points="48.0,256.0 152.0,75.9 360.0,75.9 464.0,256.0 360.0,436.1 152.0,436.1" />
    </clipPath>
    <linearGradient id="water-fill" x1="0%" y1="0%" x2="100%" y2="0%">
      <stop offset="0%" stop-color="#295f69" />
      <stop offset="20%" stop-color="#327884" />
      <stop offset="50%" stop-color="#5ea4af" />
      <stop offset="80%" stop-color="#327884" />
      <stop offset="100%" stop-color="#295f69" />
    </linearGradient>
    <linearGradient id="water-shade" x1="0%" y1="0%" x2="0%" y2="100%">
      <stop offset="0%" stop-color="#8dd6de" stop-opacity="0.38" />
      <stop offset="35%" stop-color="#ffffff" stop-opacity="0.06" />
      <stop offset="100%" stop-color="#11343e" stop-opacity="0.24" />
    </linearGradient>
  </defs>
  <g clip-path="url(#hex-clip)">
<ellipse cx="206.6" cy="92.2" rx="4.7" ry="1.5" fill="#c4baac" opacity="0.64" transform="rotate(74.5 206.6 92.2)" />
<ellipse cx="197.1" cy="370.2" rx="3.3" ry="3.8" fill="#ada295" opacity="0.32" transform="rotate(117.5 197.1 370.2)" />
<ellipse cx="437.4" cy="213.8" rx="3.3" ry="2.9" fill="#c4baac" opacity="0.52" transform="rotate(85.0 437.4 213.8)" />
<ellipse cx="313.1" cy="142.0" rx="3.0" ry="2.5" fill="#ada295" opacity="0.43" transform="rotate(103.4 313.1 142.0)" />
<ellipse cx="320.9" cy="118.1" rx="3.4" ry="2.6" fill="#8e857b" opacity="0.41" transform="rotate(30.2 320.9 118.1)" />
<ellipse cx="172.0" cy="363.6" rx="3.0" ry="2.5" fill="#ddd4c7" opacity="0.60" transform="rotate(175.8 172.0 363.6)" />
<ellipse cx="204.2" cy="170.9" rx="2.6" ry="3.3" fill="#c4baac" opacity="0.55" transform="rotate(117.9 204.2 170.9)" />
<ellipse cx="136.5" cy="276.3" rx="5.3" ry="3.6" fill="#c4baac" opacity="0.35" transform="rotate(87.3 136.5 276.3)" />
<ellipse cx="379.9" cy="258.4" rx="2.0" ry="1.5" fill="#c4baac" opacity="0.45" transform="rotate(165.6 379.9 258.4)" />
<ellipse cx="309.0" cy="408.5" rx="4.7" ry="1.5" fill="#8e857b" opacity="0.69" transform="rotate(61.8 309.0 408.5)" />
<ellipse cx="394.2" cy="238.7" rx="5.3" ry="1.6" fill="#c4baac" opacity="0.66" transform="rotate(2.9 394.2 238.7)" />
<ellipse cx="108.7" cy="264.6" rx="4.3" ry="2.7" fill="#8e857b" opacity="0.37" transform="rotate(1.0 108.7 264.6)" />
<ellipse cx="375.6" cy="119.9" rx="4.8" ry="2.7" fill="#8e857b" opacity="0.63" transform="rotate(133.0 375.6 119.9)" />
<ellipse cx="208.1" cy="118.1" rx="3.6" ry="2.6" fill="#ddd4c7" opacity="0.44" transform="rotate(106.1 208.1 118.1)" />
<ellipse cx="193.1" cy="139.2" rx="2.0" ry="1.5" fill="#ada295" opacity="0.64" transform="rotate(117.8 193.1 139.2)" />
<ellipse cx="338.9" cy="142.0" rx="3.6" ry="3.8" fill="#ada295" opacity="0.68" transform="rotate(29.7 338.9 142.0)" />
<ellipse cx="199.0" cy="147.5" rx="3.3" ry="3.9" fill="#ada295" opacity="0.60" transform="rotate(123.9 199.0 147.5)" />
<ellipse cx="308.4" cy="346.7" rx="2.5" ry="2.4" fill="#ada295" opacity="0.44" transform="rotate(99.3 308.4 346.7)" />
<ellipse cx="306.9" cy="335.5" rx="3.7" ry="2.8" fill="#8e857b" opacity="0.37" transform="rotate(115.4 306.9 335.5)" />
<ellipse cx="357.1" cy="141.1" rx="3.0" ry="2.5" fill="#ada295" opacity="0.36" transform="rotate(41.9 357.1 141.1)" />
<ellipse cx="306.6" cy="153.9" rx="3.9" ry="2.5" fill="#8e857b" opacity="0.38" transform="rotate(36.2 306.6 153.9)" />
<ellipse cx="378.2" cy="121.6" rx="4.5" ry="2.5" fill="#c4baac" opacity="0.62" transform="rotate(124.2 378.2 121.6)" />
<ellipse cx="377.9" cy="127.9" rx="5.0" ry="2.2" fill="#ddd4c7" opacity="0.66" transform="rotate(75.3 377.9 127.9)" />
<ellipse cx="114.3" cy="285.0" rx="2.9" ry="3.0" fill="#ddd4c7" opacity="0.46" transform="rotate(88.9 114.3 285.0)" />
<ellipse cx="143.1" cy="264.6" rx="2.6" ry="2.6" fill="#ada295" opacity="0.60" transform="rotate(113.2 143.1 264.6)" />
<ellipse cx="159.0" cy="236.5" rx="5.5" ry="2.4" fill="#8e857b" opacity="0.57" transform="rotate(22.4 159.0 236.5)" />
<ellipse cx="429.4" cy="221.1" rx="3.8" ry="2.4" fill="#8e857b" opacity="0.65" transform="rotate(12.3 429.4 221.1)" />
<ellipse cx="194.5" cy="362.5" rx="4.7" ry="2.7" fill="#ada295" opacity="0.46" transform="rotate(179.9 194.5 362.5)" />
<ellipse cx="195.6" cy="349.6" rx="4.7" ry="1.5" fill="#ada295" opacity="0.56" transform="rotate(128.5 195.6 349.6)" />
<ellipse cx="314.2" cy="119.2" rx="3.4" ry="3.0" fill="#8e857b" opacity="0.64" transform="rotate(114.8 314.2 119.2)" />
<ellipse cx="411.8" cy="274.2" rx="2.6" ry="3.7" fill="#ada295" opacity="0.47" transform="rotate(109.4 411.8 274.2)" />
<ellipse cx="315.4" cy="362.7" rx="3.9" ry="2.0" fill="#ddd4c7" opacity="0.59" transform="rotate(46.3 315.4 362.7)" />
<ellipse cx="374.7" cy="260.2" rx="3.4" ry="1.6" fill="#ada295" opacity="0.48" transform="rotate(23.1 374.7 260.2)" />
<ellipse cx="379.3" cy="401.4" rx="4.6" ry="3.4" fill="#ada295" opacity="0.63" transform="rotate(79.4 379.3 401.4)" />
<ellipse cx="393.3" cy="280.4" rx="4.0" ry="2.1" fill="#c4baac" opacity="0.32" transform="rotate(108.7 393.3 280.4)" />
<ellipse cx="315.5" cy="355.7" rx="3.0" ry="3.4" fill="#ada295" opacity="0.59" transform="rotate(51.8 315.5 355.7)" />
<ellipse cx="349.7" cy="255.2" rx="5.4" ry="3.1" fill="#c4baac" opacity="0.64" transform="rotate(152.0 349.7 255.2)" />
<ellipse cx="359.3" cy="262.6" rx="4.0" ry="3.6" fill="#ada295" opacity="0.47" transform="rotate(158.5 359.3 262.6)" />
<ellipse cx="96.1" cy="295.5" rx="4.2" ry="1.9" fill="#ada295" opacity="0.68" transform="rotate(3.2 96.1 295.5)" />
<ellipse cx="73.7" cy="291.1" rx="3.8" ry="2.5" fill="#ada295" opacity="0.30" transform="rotate(16.0 73.7 291.1)" />
<ellipse cx="209.8" cy="163.0" rx="5.0" ry="2.8" fill="#c4baac" opacity="0.52" transform="rotate(12.4 209.8 163.0)" />
<ellipse cx="295.3" cy="351.9" rx="5.5" ry="3.5" fill="#8e857b" opacity="0.56" transform="rotate(7.9 295.3 351.9)" />
<ellipse cx="200.1" cy="77.8" rx="3.2" ry="2.6" fill="#c4baac" opacity="0.69" transform="rotate(125.5 200.1 77.8)" />
<ellipse cx="352.2" cy="377.8" rx="2.5" ry="2.0" fill="#c4baac" opacity="0.31" transform="rotate(16.8 352.2 377.8)" />
<ellipse cx="351.7" cy="373.6" rx="4.5" ry="1.8" fill="#c4baac" opacity="0.60" transform="rotate(51.4 351.7 373.6)" />
<ellipse cx="382.6" cy="400.8" rx="4.8" ry="3.3" fill="#ddd4c7" opacity="0.59" transform="rotate(26.8 382.6 400.8)" />
<ellipse cx="141.5" cy="265.8" rx="4.3" ry="3.8" fill="#c4baac" opacity="0.60" transform="rotate(31.9 141.5 265.8)" />
<ellipse cx="143.9" cy="389.2" rx="2.5" ry="2.6" fill="#ada295" opacity="0.45" transform="rotate(102.1 143.9 389.2)" />
<ellipse cx="373.6" cy="263.9" rx="3.6" ry="3.0" fill="#ada295" opacity="0.52" transform="rotate(6.0 373.6 263.9)" />
<ellipse cx="312.6" cy="141.9" rx="2.2" ry="1.9" fill="#ada295" opacity="0.61" transform="rotate(19.4 312.6 141.9)" />
<ellipse cx="321.3" cy="414.3" rx="4.4" ry="2.2" fill="#ada295" opacity="0.64" transform="rotate(9.2 321.3 414.3)" />
<ellipse cx="199.6" cy="336.7" rx="5.2" ry="2.4" fill="#c4baac" opacity="0.32" transform="rotate(83.2 199.6 336.7)" />
<ellipse cx="404.2" cy="239.5" rx="4.8" ry="3.1" fill="#ada295" opacity="0.57" transform="rotate(68.3 404.2 239.5)" />
<ellipse cx="117.4" cy="279.2" rx="3.9" ry="2.6" fill="#ddd4c7" opacity="0.66" transform="rotate(84.1 117.4 279.2)" />
<ellipse cx="164.3" cy="366.5" rx="3.1" ry="2.4" fill="#8e857b" opacity="0.36" transform="rotate(19.8 164.3 366.5)" />
<ellipse cx="73.6" cy="293.4" rx="4.0" ry="1.9" fill="#ada295" opacity="0.42" transform="rotate(167.6 73.6 293.4)" />
<ellipse cx="213.2" cy="346.2" rx="2.8" ry="2.6" fill="#ddd4c7" opacity="0.36" transform="rotate(18.7 213.2 346.2)" />
<ellipse cx="192.6" cy="180.0" rx="5.5" ry="2.1" fill="#ada295" opacity="0.63" transform="rotate(87.3 192.6 180.0)" />
<ellipse cx="195.2" cy="401.4" rx="3.3" ry="3.1" fill="#8e857b" opacity="0.39" transform="rotate(83.6 195.2 401.4)" />
<ellipse cx="340.1" cy="151.1" rx="2.2" ry="2.4" fill="#8e857b" opacity="0.52" transform="rotate(99.2 340.1 151.1)" />
<ellipse cx="166.6" cy="251.6" rx="3.8" ry="2.9" fill="#ddd4c7" opacity="0.51" transform="rotate(14.8 166.6 251.6)" />
<ellipse cx="201.0" cy="353.7" rx="2.4" ry="2.6" fill="#ddd4c7" opacity="0.65" transform="rotate(19.7 201.0 353.7)" />
<ellipse cx="77.2" cy="289.0" rx="3.7" ry="3.0" fill="#ada295" opacity="0.54" transform="rotate(70.3 77.2 289.0)" />
<ellipse cx="436.2" cy="284.5" rx="3.5" ry="2.9" fill="#8e857b" opacity="0.37" transform="rotate(61.5 436.2 284.5)" />
<ellipse cx="142.7" cy="392.7" rx="2.9" ry="2.1" fill="#c4baac" opacity="0.43" transform="rotate(87.3 142.7 392.7)" />
<ellipse cx="194.7" cy="124.2" rx="4.1" ry="1.8" fill="#ada295" opacity="0.56" transform="rotate(146.0 194.7 124.2)" />
<ellipse cx="157.1" cy="363.2" rx="4.1" ry="2.5" fill="#ddd4c7" opacity="0.47" transform="rotate(178.7 157.1 363.2)" />
<ellipse cx="403.7" cy="272.8" rx="3.4" ry="2.1" fill="#ada295" opacity="0.32" transform="rotate(31.3 403.7 272.8)" />
<ellipse cx="321.2" cy="362.1" rx="5.4" ry="3.7" fill="#8e857b" opacity="0.55" transform="rotate(70.8 321.2 362.1)" />
<ellipse cx="366.8" cy="129.9" rx="3.1" ry="1.7" fill="#c4baac" opacity="0.48" transform="rotate(136.5 366.8 129.9)" />
<ellipse cx="192.7" cy="147.4" rx="4.6" ry="3.8" fill="#c4baac" opacity="0.59" transform="rotate(82.7 192.7 147.4)" />
<ellipse cx="311.6" cy="349.5" rx="4.5" ry="1.4" fill="#c4baac" opacity="0.56" transform="rotate(148.4 311.6 349.5)" />
<ellipse cx="375.0" cy="385.1" rx="3.4" ry="3.9" fill="#ddd4c7" opacity="0.33" transform="rotate(11.8 375.0 385.1)" />
<ellipse cx="429.2" cy="301.9" rx="2.6" ry="2.7" fill="#8e857b" opacity="0.36" transform="rotate(60.4 429.2 301.9)" />
<ellipse cx="352.5" cy="372.9" rx="3.6" ry="1.8" fill="#ada295" opacity="0.31" transform="rotate(105.8 352.5 372.9)" />
<ellipse cx="83.0" cy="284.3" rx="2.1" ry="3.7" fill="#ddd4c7" opacity="0.30" transform="rotate(31.6 83.0 284.3)" />
<ellipse cx="201.7" cy="93.5" rx="4.3" ry="2.1" fill="#ddd4c7" opacity="0.69" transform="rotate(135.5 201.7 93.5)" />
<ellipse cx="301.1" cy="337.3" rx="4.3" ry="1.4" fill="#c4baac" opacity="0.55" transform="rotate(137.1 301.1 337.3)" />
<ellipse cx="438.6" cy="302.0" rx="5.3" ry="2.1" fill="#c4baac" opacity="0.29" transform="rotate(148.2 438.6 302.0)" />
<ellipse cx="389.5" cy="389.4" rx="4.7" ry="1.9" fill="#ddd4c7" opacity="0.46" transform="rotate(117.7 389.5 389.4)" />
<ellipse cx="115.5" cy="271.7" rx="2.1" ry="1.6" fill="#8e857b" opacity="0.56" transform="rotate(142.2 115.5 271.7)" />
<ellipse cx="320.8" cy="344.9" rx="4.6" ry="2.7" fill="#c4baac" opacity="0.69" transform="rotate(165.2 320.8 344.9)" />
<ellipse cx="327.6" cy="139.8" rx="5.0" ry="2.9" fill="#c4baac" opacity="0.34" transform="rotate(122.8 327.6 139.8)" />
<ellipse cx="195.1" cy="98.0" rx="4.2" ry="2.3" fill="#ddd4c7" opacity="0.43" transform="rotate(146.9 195.1 98.0)" />
<ellipse cx="307.1" cy="182.3" rx="3.0" ry="2.3" fill="#c4baac" opacity="0.69" transform="rotate(173.5 307.1 182.3)" />
<ellipse cx="296.8" cy="165.5" rx="2.3" ry="1.8" fill="#c4baac" opacity="0.53" transform="rotate(157.4 296.8 165.5)" />
<ellipse cx="308.8" cy="431.5" rx="4.5" ry="2.5" fill="#ddd4c7" opacity="0.30" transform="rotate(169.0 308.8 431.5)" />
<ellipse cx="358.3" cy="373.2" rx="2.2" ry="1.6" fill="#c4baac" opacity="0.33" transform="rotate(157.2 358.3 373.2)" />
<ellipse cx="312.1" cy="373.5" rx="3.8" ry="1.5" fill="#8e857b" opacity="0.34" transform="rotate(42.4 312.1 373.5)" />
<ellipse cx="203.6" cy="399.7" rx="2.9" ry="3.5" fill="#c4baac" opacity="0.31" transform="rotate(133.2 203.6 399.7)" />
<ellipse cx="413.4" cy="219.7" rx="2.2" ry="2.5" fill="#ada295" opacity="0.67" transform="rotate(67.7 413.4 219.7)" />
<ellipse cx="207.9" cy="392.5" rx="4.5" ry="2.6" fill="#8e857b" opacity="0.41" transform="rotate(34.3 207.9 392.5)" />
<ellipse cx="321.5" cy="392.5" rx="2.7" ry="2.9" fill="#ada295" opacity="0.57" transform="rotate(152.7 321.5 392.5)" />
<ellipse cx="217.2" cy="347.9" rx="3.3" ry="2.8" fill="#ada295" opacity="0.42" transform="rotate(134.3 217.2 347.9)" />
<ellipse cx="346.9" cy="375.9" rx="2.6" ry="1.9" fill="#c4baac" opacity="0.36" transform="rotate(48.3 346.9 375.9)" />
<ellipse cx="202.4" cy="149.8" rx="3.7" ry="2.6" fill="#8e857b" opacity="0.48" transform="rotate(173.0 202.4 149.8)" />
<ellipse cx="205.6" cy="181.1" rx="5.5" ry="1.6" fill="#ddd4c7" opacity="0.55" transform="rotate(15.7 205.6 181.1)" />
<ellipse cx="197.3" cy="334.5" rx="2.5" ry="2.5" fill="#ddd4c7" opacity="0.35" transform="rotate(58.0 197.3 334.5)" />
<ellipse cx="191.4" cy="419.8" rx="2.4" ry="3.5" fill="#ada295" opacity="0.68" transform="rotate(99.0 191.4 419.8)" />
<ellipse cx="365.3" cy="251.1" rx="2.0" ry="3.1" fill="#ada295" opacity="0.50" transform="rotate(161.0 365.3 251.1)" />
<ellipse cx="323.5" cy="361.7" rx="2.9" ry="2.2" fill="#8e857b" opacity="0.51" transform="rotate(7.9 323.5 361.7)" />
<ellipse cx="349.0" cy="133.1" rx="3.4" ry="3.6" fill="#ddd4c7" opacity="0.37" transform="rotate(84.4 349.0 133.1)" />
<ellipse cx="367.3" cy="268.9" rx="2.9" ry="1.5" fill="#ada295" opacity="0.67" transform="rotate(175.6 367.3 268.9)" />
<ellipse cx="77.7" cy="295.5" rx="2.8" ry="1.5" fill="#ddd4c7" opacity="0.57" transform="rotate(85.2 77.7 295.5)" />
<ellipse cx="407.8" cy="285.3" rx="2.6" ry="3.2" fill="#ddd4c7" opacity="0.70" transform="rotate(30.0 407.8 285.3)" />
<ellipse cx="386.0" cy="253.8" rx="5.5" ry="2.4" fill="#8e857b" opacity="0.57" transform="rotate(66.6 386.0 253.8)" />
<ellipse cx="385.9" cy="115.3" rx="3.0" ry="1.9" fill="#ada295" opacity="0.30" transform="rotate(125.3 385.9 115.3)" />
<ellipse cx="205.3" cy="149.4" rx="3.5" ry="2.6" fill="#c4baac" opacity="0.52" transform="rotate(137.0 205.3 149.4)" />
<ellipse cx="316.0" cy="162.7" rx="3.7" ry="2.7" fill="#8e857b" opacity="0.68" transform="rotate(154.5 316.0 162.7)" />
<ellipse cx="378.4" cy="397.6" rx="2.4" ry="4.0" fill="#ada295" opacity="0.32" transform="rotate(75.0 378.4 397.6)" />
<ellipse cx="402.0" cy="250.7" rx="2.6" ry="3.1" fill="#8e857b" opacity="0.55" transform="rotate(137.2 402.0 250.7)" />
<ellipse cx="358.9" cy="380.3" rx="2.7" ry="1.6" fill="#ddd4c7" opacity="0.65" transform="rotate(93.1 358.9 380.3)" />
<ellipse cx="377.1" cy="117.9" rx="2.0" ry="1.8" fill="#8e857b" opacity="0.54" transform="rotate(177.7 377.1 117.9)" />
<ellipse cx="82.5" cy="289.3" rx="5.4" ry="3.2" fill="#c4baac" opacity="0.38" transform="rotate(109.5 82.5 289.3)" />
<ellipse cx="133.4" cy="378.2" rx="3.1" ry="1.7" fill="#ada295" opacity="0.43" transform="rotate(56.1 133.4 378.2)" />
<ellipse cx="403.4" cy="240.9" rx="4.5" ry="1.6" fill="#ada295" opacity="0.60" transform="rotate(0.2 403.4 240.9)" />
<ellipse cx="362.0" cy="249.1" rx="3.3" ry="2.4" fill="#8e857b" opacity="0.58" transform="rotate(6.8 362.0 249.1)" />
<ellipse cx="113.0" cy="270.2" rx="4.5" ry="1.5" fill="#ada295" opacity="0.44" transform="rotate(17.4 113.0 270.2)" />
<ellipse cx="108.3" cy="277.2" rx="3.3" ry="3.8" fill="#ada295" opacity="0.51" transform="rotate(111.8 108.3 277.2)" />
<ellipse cx="367.4" cy="129.5" rx="4.2" ry="4.0" fill="#ada295" opacity="0.68" transform="rotate(23.3 367.4 129.5)" />
<ellipse cx="381.8" cy="385.0" rx="2.7" ry="2.6" fill="#8e857b" opacity="0.42" transform="rotate(146.5 381.8 385.0)" />
<ellipse cx="327.2" cy="360.6" rx="3.3" ry="2.5" fill="#c4baac" opacity="0.64" transform="rotate(111.3 327.2 360.6)" />
<ellipse cx="85.9" cy="286.3" rx="5.5" ry="1.9" fill="#c4baac" opacity="0.58" transform="rotate(88.3 85.9 286.3)" />
<ellipse cx="208.4" cy="130.4" rx="5.3" ry="3.1" fill="#ddd4c7" opacity="0.35" transform="rotate(98.3 208.4 130.4)" />
<ellipse cx="129.7" cy="397.4" rx="5.4" ry="3.4" fill="#c4baac" opacity="0.46" transform="rotate(56.6 129.7 397.4)" />
<ellipse cx="318.0" cy="85.8" rx="5.3" ry="3.6" fill="#ada295" opacity="0.36" transform="rotate(170.1 318.0 85.8)" />
<ellipse cx="434.7" cy="289.9" rx="2.7" ry="3.6" fill="#c4baac" opacity="0.56" transform="rotate(125.3 434.7 289.9)" />
<ellipse cx="207.7" cy="117.9" rx="4.7" ry="1.4" fill="#c4baac" opacity="0.68" transform="rotate(77.0 207.7 117.9)" />
<ellipse cx="196.4" cy="353.5" rx="2.5" ry="2.6" fill="#8e857b" opacity="0.30" transform="rotate(166.0 196.4 353.5)" />
<ellipse cx="78.1" cy="293.1" rx="3.2" ry="2.7" fill="#8e857b" opacity="0.41" transform="rotate(116.6 78.1 293.1)" />
<ellipse cx="203.3" cy="393.7" rx="2.9" ry="3.2" fill="#ada295" opacity="0.48" transform="rotate(107.5 203.3 393.7)" />
<ellipse cx="208.1" cy="147.1" rx="4.5" ry="2.6" fill="#ada295" opacity="0.33" transform="rotate(22.5 208.1 147.1)" />
<path d="M 405.0 251.4 Q 408.4 247.9 411.1 241.2" stroke="#63875e" stroke-width="2.4" stroke-linecap="round" opacity="0.32" fill="none" />
<path d="M 338.3 86.5 Q 343.9 87.6 348.5 89.6" stroke="#63875e" stroke-width="2.4" stroke-linecap="round" opacity="0.32" fill="none" />
<path d="M 345.0 404.1 Q 349.3 403.2 352.8 401.4" stroke="#63875e" stroke-width="2.4" stroke-linecap="round" opacity="0.32" fill="none" />
<path d="M 336.8 102.6 Q 344.1 101.3 350.1 98.9" stroke="#63875e" stroke-width="2.4" stroke-linecap="round" opacity="0.32" fill="none" />
<path d="M 119.3 240.7 Q 115.9 236.4 113.1 228.6" stroke="#63875e" stroke-width="2.4" stroke-linecap="round" opacity="0.32" fill="none" />
<path d="M 345.7 104.4 Q 343.2 99.6 341.2 90.7" stroke="#63875e" stroke-width="2.4" stroke-linecap="round" opacity="0.32" fill="none" />
<path d="M 336.3 425.5 Q 340.7 426.6 344.4 428.8" stroke="#63875e" stroke-width="2.4" stroke-linecap="round" opacity="0.32" fill="none" />
<path d="M 69.4 271.8 Q 65.8 268.1 62.9 261.2" stroke="#63875e" stroke-width="2.4" stroke-linecap="round" opacity="0.32" fill="none" />
<path d="M 346.9 405.4 Q 345.7 409.3 344.7 416.6" stroke="#63875e" stroke-width="2.4" stroke-linecap="round" opacity="0.32" fill="none" />
<path d="M 167.1 91.9 Q 161.0 90.5 156.0 87.8" stroke="#63875e" stroke-width="2.4" stroke-linecap="round" opacity="0.32" fill="none" />
<path d="M 450.0 242.4 Q 453.1 244.3 455.7 247.9" stroke="#63875e" stroke-width="2.4" stroke-linecap="round" opacity="0.32" fill="none" />
<path d="M 175.1 404.1 Q 168.2 403.2 162.5 401.5" stroke="#63875e" stroke-width="2.4" stroke-linecap="round" opacity="0.32" fill="none" />
<path d="M 339.8 113.2 Q 345.9 114.7 350.9 117.4" stroke="#63875e" stroke-width="2.4" stroke-linecap="round" opacity="0.32" fill="none" />
<path d="M 428.8 248.4 Q 431.4 251.8 433.5 258.0" stroke="#63875e" stroke-width="2.4" stroke-linecap="round" opacity="0.32" fill="none" />
<path d="M 343.8 393.4 Q 348.5 393.0 352.4 392.1" stroke="#63875e" stroke-width="2.4" stroke-linecap="round" opacity="0.32" fill="none" />
<path d="M 178.1 395.9 Q 183.6 397.9 188.0 401.6" stroke="#63875e" stroke-width="2.4" stroke-linecap="round" opacity="0.32" fill="none" />
<path d="M 172.2 425.5 Q 166.9 424.3 162.5 422.2" stroke="#63875e" stroke-width="2.4" stroke-linecap="round" opacity="0.32" fill="none" />
<path d="M 174.3 436.1 Q 166.8 434.5 160.7 431.4" stroke="#63875e" stroke-width="2.4" stroke-linecap="round" opacity="0.32" fill="none" />
<path d="M 88.2 261.5 Q 85.7 257.7 83.6 250.7" stroke="#63875e" stroke-width="2.4" stroke-linecap="round" opacity="0.32" fill="none" />
<path d="M 177.4 398.8 Q 170.0 397.6 164.0 395.5" stroke="#63875e" stroke-width="2.4" stroke-linecap="round" opacity="0.32" fill="none" />
<path d="M 172.7 156.0 Q 165.6 156.6 159.9 157.7" stroke="#63875e" stroke-width="2.4" stroke-linecap="round" opacity="0.32" fill="none" />
<path d="M 79.7 257.5 Q 78.2 254.8 77.0 249.8" stroke="#63875e" stroke-width="2.4" stroke-linecap="round" opacity="0.32" fill="none" />
<path d="M 354.7 98.7 Q 351.0 95.6 348.1 89.8" stroke="#63875e" stroke-width="2.4" stroke-linecap="round" opacity="0.32" fill="none" />
<path d="M 442.1 262.0 Q 447.7 258.3 452.4 251.4" stroke="#63875e" stroke-width="2.4" stroke-linecap="round" opacity="0.32" fill="none" />
<path d="M 175.3 172.0 Q 169.9 171.0 165.5 169.2" stroke="#63875e" stroke-width="2.4" stroke-linecap="round" opacity="0.32" fill="none" />
<path d="M 413.7 247.0 Q 416.8 244.7 419.3 240.4" stroke="#63875e" stroke-width="2.4" stroke-linecap="round" opacity="0.32" fill="none" />
<path d="M 171.6 75.9 Q 165.4 75.3 160.3 74.1" stroke="#63875e" stroke-width="2.4" stroke-linecap="round" opacity="0.32" fill="none" />
<path d="M 96.9 255.2 Q 92.1 250.9 88.1 242.9" stroke="#63875e" stroke-width="2.4" stroke-linecap="round" opacity="0.32" fill="none" />
<path d="M 437.6 253.0 Q 442.7 256.9 446.9 264.2" stroke="#63875e" stroke-width="2.4" stroke-linecap="round" opacity="0.32" fill="none" />
<path d="M 171.5 393.4 Q 164.9 394.7 159.5 397.1" stroke="#63875e" stroke-width="2.4" stroke-linecap="round" opacity="0.32" fill="none" />
<path d="M 56.7 271.0 Q 54.9 268.8 53.5 264.5" stroke="#63875e" stroke-width="2.4" stroke-linecap="round" opacity="0.32" fill="none" />
<path d="M 139.3 232.6 Q 137.2 228.3 135.5 220.3" stroke="#63875e" stroke-width="2.4" stroke-linecap="round" opacity="0.32" fill="none" />
<path d="M 448.8 271.6 Q 450.6 268.5 452.0 262.9" stroke="#63875e" stroke-width="2.4" stroke-linecap="round" opacity="0.32" fill="none" />
<path d="M 123.6 237.5 Q 121.7 233.9 120.1 227.1" stroke="#63875e" stroke-width="2.4" stroke-linecap="round" opacity="0.32" fill="none" />
<path d="M 344.2 388.1 Q 351.3 388.7 357.1 389.9" stroke="#63875e" stroke-width="2.4" stroke-linecap="round" opacity="0.32" fill="none" />
<path d="M 168.4 81.2 Q 164.3 82.5 160.9 85.0" stroke="#63875e" stroke-width="2.4" stroke-linecap="round" opacity="0.32" fill="none" />
<path d="M 337.7 400.0 Q 333.4 404.0 329.8 411.3" stroke="#63875e" stroke-width="2.4" stroke-linecap="round" opacity="0.32" fill="none" />
<path d="M 155.4 410.1 Q 156.8 413.9 158.0 420.9" stroke="#63875e" stroke-width="2.4" stroke-linecap="round" opacity="0.32" fill="none" />
<path d="M 334.3 420.1 Q 340.0 420.3 344.7 420.5" stroke="#63875e" stroke-width="2.4" stroke-linecap="round" opacity="0.32" fill="none" />
<path d="M 446.9 274.9 Q 452.1 271.8 456.2 266.1" stroke="#63875e" stroke-width="2.4" stroke-linecap="round" opacity="0.32" fill="none" />
<path d="M 336.4 425.5 Q 343.5 425.4 349.3 425.2" stroke="#63875e" stroke-width="2.4" stroke-linecap="round" opacity="0.32" fill="none" />
<path d="M 338.1 118.6 Q 344.6 118.1 349.9 117.1" stroke="#63875e" stroke-width="2.4" stroke-linecap="round" opacity="0.32" fill="none" />
<path d="M 455.5 270.8 Q 459.4 269.2 462.7 266.3" stroke="#63875e" stroke-width="2.4" stroke-linecap="round" opacity="0.32" fill="none" />
    <path d="M 256.0 256.0 L 256.0 55.9 M 256.0 256.0 L 429.3 155.9 M 256.0 256.0 L 429.3 356.1 M 256.0 256.0 L 256.0 456.1 M 256.0 256.0 L 82.7 356.1" fill="none" stroke="url(#water-fill)" stroke-width="68.0" stroke-linecap="butt" />
    <circle cx="256.0" cy="256.0" r="68.0" fill="url(#water-fill)" />
    <path d="M 256.0 256.0 L 256.0 55.9 M 256.0 256.0 L 429.3 155.9 M 256.0 256.0 L 429.3 356.1 M 256.0 256.0 L 256.0 456.1 M 256.0 256.0 L 82.7 356.1" fill="none" stroke="url(#water-shade)" stroke-width="68.0" stroke-linecap="butt" />
    <circle cx="256.0" cy="256.0" r="68.0" fill="url(#water-shade)" />
    <circle cx="256.0" cy="256.0" r="68.0" fill="none" stroke="#d5f3f6" stroke-width="2" opacity="0.22" />
<path d="M 373.6 216.9 Q 359.3 196.3 348.7 173.7" stroke="#a6dde9" stroke-width="1.42" stroke-linecap="round" opacity="0.16" fill="none" />
<path d="M 172.7 279.7 Q 183.1 298.1 193.8 316.3" stroke="#a6dde9" stroke-width="1.04" stroke-linecap="round" opacity="0.28" fill="none" />
<path d="M 383.8 341.6 Q 387.9 332.2 394.0 323.9" stroke="#a6dde9" stroke-width="1.73" stroke-linecap="round" opacity="0.20" fill="none" />
<path d="M 341.7 328.9 Q 353.1 312.1 362.0 293.8" stroke="#a6dde9" stroke-width="1.84" stroke-linecap="round" opacity="0.16" fill="none" />
<path d="M 278.2 150.6 Q 256.0 149.0 233.8 150.6" stroke="#a6dde9" stroke-width="1.92" stroke-linecap="round" opacity="0.19" fill="none" />
<path d="M 244.4 340.0 Q 256.0 341.8 267.6 340.0" stroke="#a6dde9" stroke-width="1.42" stroke-linecap="round" opacity="0.24" fill="none" />
<path d="M 103.7 331.1 Q 110.0 340.3 114.8 350.4" stroke="#a6dde9" stroke-width="1.98" stroke-linecap="round" opacity="0.29" fill="none" />
<path d="M 331.0 315.5 Q 337.6 303.1 345.0 291.2" stroke="#a6dde9" stroke-width="1.62" stroke-linecap="round" opacity="0.28" fill="none" />
<path d="M 346.3 223.1 Q 335.2 210.3 329.7 194.2" stroke="#81cbd8" stroke-width="1.16" stroke-linecap="round" opacity="0.21" fill="none" />
<path d="M 117.8 323.5 Q 120.8 334.1 128.5 342.0" stroke="#81cbd8" stroke-width="1.79" stroke-linecap="round" opacity="0.17" fill="none" />
<path d="M 175.6 274.1 Q 187.0 295.9 200.1 316.5" stroke="#81cbd8" stroke-width="1.70" stroke-linecap="round" opacity="0.28" fill="none" />
<path d="M 306.3 304.8 Q 315.3 290.3 323.5 275.2" stroke="#c6eef8" stroke-width="1.02" stroke-linecap="round" opacity="0.27" fill="none" />
<path d="M 386.6 347.4 Q 395.4 336.5 400.4 323.4" stroke="#c6eef8" stroke-width="1.36" stroke-linecap="round" opacity="0.16" fill="none" />
<path d="M 306.7 304.2 Q 313.1 289.0 323.1 275.8" stroke="#c6eef8" stroke-width="1.35" stroke-linecap="round" opacity="0.26" fill="none" />
<path d="M 149.3 303.3 Q 152.6 315.7 161.7 324.8" stroke="#c6eef8" stroke-width="1.26" stroke-linecap="round" opacity="0.28" fill="none" />
<path d="M 240.9 420.1 Q 256.0 423.9 271.1 420.1" stroke="#a6dde9" stroke-width="1.84" stroke-linecap="round" opacity="0.25" fill="none" />
<path d="M 350.9 323.7 Q 358.2 315.0 362.1 304.3" stroke="#c6eef8" stroke-width="1.30" stroke-linecap="round" opacity="0.28" fill="none" />
<path d="M 230.5 324.0 Q 256.0 325.8 281.5 324.0" stroke="#81cbd8" stroke-width="1.22" stroke-linecap="round" opacity="0.27" fill="none" />
<path d="M 237.5 350.7 Q 256.0 353.9 274.5 350.7" stroke="#81cbd8" stroke-width="1.70" stroke-linecap="round" opacity="0.19" fill="none" />
<path d="M 360.1 329.2 Q 362.6 317.6 371.4 309.5" stroke="#81cbd8" stroke-width="1.52" stroke-linecap="round" opacity="0.29" fill="none" />
<path d="M 271.5 107.9 Q 256.0 110.1 240.5 107.9" stroke="#a6dde9" stroke-width="1.18" stroke-linecap="round" opacity="0.15" fill="none" />
<path d="M 345.5 322.4 Q 353.5 312.3 358.3 300.3" stroke="#a6dde9" stroke-width="1.72" stroke-linecap="round" opacity="0.23" fill="none" />
<path d="M 373.5 216.7 Q 359.8 196.1 348.7 173.9" stroke="#81cbd8" stroke-width="1.84" stroke-linecap="round" opacity="0.30" fill="none" />
<path d="M 239.5 366.7 Q 256.0 366.2 272.5 366.7" stroke="#a6dde9" stroke-width="1.82" stroke-linecap="round" opacity="0.28" fill="none" />
<path d="M 390.1 192.0 Q 382.7 182.9 378.5 171.9" stroke="#a6dde9" stroke-width="1.96" stroke-linecap="round" opacity="0.24" fill="none" />
<path d="M 153.7 289.6 Q 162.4 310.0 175.8 327.8" stroke="#c6eef8" stroke-width="1.23" stroke-linecap="round" opacity="0.29" fill="none" />
<path d="M 179.9 281.6 Q 186.6 296.1 195.8 309.1" stroke="#c6eef8" stroke-width="1.67" stroke-linecap="round" opacity="0.20" fill="none" />
<path d="M 267.2 118.6 Q 256.0 116.1 244.8 118.6" stroke="#a6dde9" stroke-width="1.08" stroke-linecap="round" opacity="0.25" fill="none" />
<path d="M 378.1 340.7 Q 385.4 330.7 390.4 319.4" stroke="#a6dde9" stroke-width="1.36" stroke-linecap="round" opacity="0.20" fill="none" />
<path d="M 280.2 172.0 Q 256.0 173.2 231.8 172.0" stroke="#81cbd8" stroke-width="1.01" stroke-linecap="round" opacity="0.23" fill="none" />
<path d="M 231.0 239.9 Q 228.9 250.7 226.8 261.5" stroke="#a6dde9" stroke-width="1.38" stroke-linecap="round" opacity="0.23" fill="none" />
<path d="M 241.0 268.5 Q 249.9 271.9 258.9 275.3" stroke="#c6eef8" stroke-width="1.49" stroke-linecap="round" opacity="0.23" fill="none" />
<path d="M 289.2 271.7 Q 291.0 263.0 292.7 254.2" stroke="#81cbd8" stroke-width="1.75" stroke-linecap="round" opacity="0.13" fill="none" />
<path d="M 215.4 272.8 Q 224.3 283.1 233.1 293.5" stroke="#c6eef8" stroke-width="1.25" stroke-linecap="round" opacity="0.23" fill="none" />
<path d="M 258.8 230.7 Q 250.7 232.5 242.7 234.3" stroke="#a6dde9" stroke-width="1.50" stroke-linecap="round" opacity="0.23" fill="none" />
<path d="M 241.6 268.9 Q 255.6 269.3 269.6 269.6" stroke="#a6dde9" stroke-width="1.74" stroke-linecap="round" opacity="0.21" fill="none" />
<path d="M 255.1 268.2 Q 260.6 265.5 266.1 262.9" stroke="#c6eef8" stroke-width="1.37" stroke-linecap="round" opacity="0.18" fill="none" />
<path d="M 237.1 286.5 Q 242.9 288.8 248.6 291.1" stroke="#a6dde9" stroke-width="1.24" stroke-linecap="round" opacity="0.13" fill="none" />
<path d="M 236.1 273.0 Q 245.3 277.6 254.5 282.1" stroke="#a6dde9" stroke-width="1.14" stroke-linecap="round" opacity="0.23" fill="none" />
<path d="M 293.5 260.8 Q 289.6 246.7 285.7 232.6" stroke="#c6eef8" stroke-width="1.41" stroke-linecap="round" opacity="0.23" fill="none" />
    <line x1="256.0" y1="182.0" x2="256.0" y2="83.9" stroke="#142e36" stroke-width="1.8" opacity="0.18" />
    <line x1="320.1" y1="219.0" x2="405.1" y2="169.9" stroke="#142e36" stroke-width="1.8" opacity="0.18" />
    <line x1="320.1" y1="293.0" x2="405.1" y2="342.1" stroke="#142e36" stroke-width="1.8" opacity="0.18" />
    <line x1="256.0" y1="330.0" x2="256.0" y2="428.1" stroke="#142e36" stroke-width="1.8" opacity="0.18" />
    <line x1="191.9" y1="293.0" x2="106.9" y2="342.1" stroke="#142e36" stroke-width="1.8" opacity="0.18" />
  </g>
</svg>
