<svg xmlns="http://www.w3.org/2000/svg" width="512" height="512" viewBox="0 0 512 512">
  <defs>
    <clipPath id="hex-clip">
      <polygon points="48.0,256.0 152.0,75.9 360.0,75.9 464.0,256.0 360.0,436.1 152.0,436.1" />
    </clipPath>
    <linearGradient id="water-fill" x1="0%" y1="0%" x2="100%" y2="0%">
      <stop offset="0%" stop-color="#295f69" />
      <stop offset="20%" stop-color="#327884" />
      <stop offset="50%" stop-color="#5ea4af" />
      <stop offset="80%" stop-color="#327884" />
      <stop offset="100%" stop-color="#295f69" />
    </linearGradient>
    <linearGradient id="water-shade" x1="0%" y1="0%" x2="0%" y2="100%">
      <stop offset="0%" stop-color="#8dd6de" stop-opacity="0.38" />
      <stop offset="35%" stop-color="#ffffff" stop-opacity="0.06" />
      <stop offset="100%" stop-color="#11343e" stop-opacity="0.24" />
    </linearGradient>
  </defs>
  <g clip-path="url(#hex-clip)">
<ellipse cx="153.6" cy="419.7" rx="2.8" ry="1.7" fill="#ada295" opacity="0.37" transform="rotate(5.2 153.6 419.7)" />
<ellipse cx="181.6" cy="88.1" rx="2.1" ry="3.8" fill="#8e857b" opacity="0.37" transform="rotate(32.2 181.6 88.1)" />
<ellipse cx="61.5" cy="236.0" rx="2.6" ry="2.2" fill="#ddd4c7" opacity="0.46" transform="rotate(114.1 61.5 236.0)" />
<ellipse cx="57.6" cy="260.2" rx="4.9" ry="3.3" fill="#8e857b" opacity="0.64" transform="rotate(84.5 57.6 260.2)" />
<ellipse cx="338.2" cy="412.0" rx="2.2" ry="2.6" fill="#8e857b" opacity="0.37" transform="rotate(29.7 338.2 412.0)" />
<ellipse cx="63.2" cy="250.9" rx="3.4" ry="2.8" fill="#c4baac" opacity="0.64" transform="rotate(149.2 63.2 250.9)" />
<ellipse cx="442.7" cy="260.7" rx="2.8" ry="2.6" fill="#ddd4c7" opacity="0.32" transform="rotate(35.3 442.7 260.7)" />
<ellipse cx="172.8" cy="93.4" rx="3.0" ry="1.4" fill="#ada295" opacity="0.28" transform="rotate(165.4 172.8 93.4)" />
<ellipse cx="53.3" cy="249.9" rx="4.5" ry="1.6" fill="#8e857b" opacity="0.38" transform="rotate(101.7 53.3 249.9)" />
<ellipse cx="343.3" cy="73.4" rx="2.8" ry="2.9" fill="#ddd4c7" opacity="0.33" transform="rotate(77.8 343.3 73.4)" />
<ellipse cx="160.6" cy="416.9" rx="3.0" ry="3.9" fill="#8e857b" opacity="0.63" transform="rotate(58.7 160.6 416.9)" />
<ellipse cx="158.8" cy="78.3" rx="5.5" ry="3.4" fill="#ada295" opacity="0.64" transform="rotate(93.1 158.8 78.3)" />
<ellipse cx="175.0" cy="86.7" rx="4.0" ry="3.4" fill="#ddd4c7" opacity="0.45" transform="rotate(69.2 175.0 86.7)" />
<ellipse cx="154.1" cy="110.0" rx="4.6" ry="3.8" fill="#ada295" opacity="0.64" transform="rotate(142.5 154.1 110.0)" />
<ellipse cx="332.0" cy="108.1" rx="3.6" ry="2.2" fill="#ada295" opacity="0.53" transform="rotate(61.4 332.0 108.1)" />
<ellipse cx="352.3" cy="423.0" rx="5.1" ry="1.9" fill="#c4baac" opacity="0.39" transform="rotate(7.9 352.3 423.0)" />
<ellipse cx="342.1" cy="109.4" rx="2.2" ry="3.4" fill="#ada295" opacity="0.56" transform="rotate(2.8 342.1 109.4)" />
<ellipse cx="64.1" cy="232.9" rx="4.6" ry="2.0" fill="#8e857b" opacity="0.65" transform="rotate(52.6 64.1 232.9)" />
<ellipse cx="85.1" cy="262.9" rx="3.0" ry="3.4" fill="#c4baac" opacity="0.41" transform="rotate(163.8 85.1 262.9)" />
<ellipse cx="342.1" cy="413.2" rx="2.4" ry="1.6" fill="#c4baac" opacity="0.51" transform="rotate(150.5 342.1 413.2)" />
<ellipse cx="157.2" cy="74.2" rx="3.1" ry="3.6" fill="#ddd4c7" opacity="0.43" transform="rotate(20.3 157.2 74.2)" />
<ellipse cx="146.6" cy="413.5" rx="5.3" ry="2.7" fill="#c4baac" opacity="0.34" transform="rotate(1.5 146.6 413.5)" />
<ellipse cx="168.7" cy="398.6" rx="3.2" ry="1.7" fill="#ddd4c7" opacity="0.45" transform="rotate(53.6 168.7 398.6)" />
<ellipse cx="69.8" cy="260.6" rx="3.1" ry="2.9" fill="#c4baac" opacity="0.43" transform="rotate(149.2 69.8 260.6)" />
<ellipse cx="179.7" cy="83.6" rx="2.7" ry="2.3" fill="#ada295" opacity="0.62" transform="rotate(80.6 179.7 83.6)" />
<ellipse cx="456.1" cy="265.0" rx="5.0" ry="2.6" fill="#c4baac" opacity="0.61" transform="rotate(67.7 456.1 265.0)" />
<ellipse cx="361.1" cy="82.9" rx="4.4" ry="2.2" fill="#ada295" opacity="0.45" transform="rotate(72.6 361.1 82.9)" />
<ellipse cx="350.1" cy="79.4" rx="3.9" ry="4.0" fill="#ddd4c7" opacity="0.36" transform="rotate(13.3 350.1 79.4)" />
<ellipse cx="338.7" cy="88.6" rx="3.2" ry="2.4" fill="#c4baac" opacity="0.58" transform="rotate(121.4 338.7 88.6)" />
<ellipse cx="455.0" cy="233.7" rx="3.5" ry="2.6" fill="#ada295" opacity="0.35" transform="rotate(149.3 455.0 233.7)" />
<ellipse cx="64.0" cy="255.9" rx="5.6" ry="2.6" fill="#c4baac" opacity="0.60" transform="rotate(118.5 64.0 255.9)" />
<ellipse cx="461.6" cy="246.2" rx="2.8" ry="1.5" fill="#ada295" opacity="0.68" transform="rotate(33.4 461.6 246.2)" />
<ellipse cx="337.9" cy="401.0" rx="5.5" ry="3.3" fill="#c4baac" opacity="0.68" transform="rotate(52.0 337.9 401.0)" />
<ellipse cx="173.1" cy="87.1" rx="3.5" ry="2.3" fill="#c4baac" opacity="0.63" transform="rotate(151.8 173.1 87.1)" />
<ellipse cx="348.3" cy="420.5" rx="4.8" ry="1.8" fill="#8e857b" opacity="0.50" transform="rotate(160.1 348.3 420.5)" />
<ellipse cx="153.7" cy="426.9" rx="3.2" ry="1.7" fill="#c4baac" opacity="0.38" transform="rotate(124.7 153.7 426.9)" />
<ellipse cx="353.2" cy="406.6" rx="2.8" ry="1.9" fill="#ddd4c7" opacity="0.59" transform="rotate(75.6 353.2 406.6)" />
<ellipse cx="145.7" cy="422.2" rx="2.6" ry="2.7" fill="#8e857b" opacity="0.60" transform="rotate(116.3 145.7 422.2)" />
<ellipse cx="167.5" cy="76.0" rx="4.5" ry="3.8" fill="#ada295" opacity="0.66" transform="rotate(11.7 167.5 76.0)" />
<ellipse cx="339.5" cy="406.2" rx="3.5" ry="3.7" fill="#c4baac" opacity="0.41" transform="rotate(108.8 339.5 406.2)" />
<ellipse cx="74.9" cy="261.6" rx="4.7" ry="3.5" fill="#ddd4c7" opacity="0.41" transform="rotate(84.7 74.9 261.6)" />
<ellipse cx="76.3" cy="261.9" rx="3.2" ry="2.2" fill="#8e857b" opacity="0.58" transform="rotate(108.2 76.3 261.9)" />
<ellipse cx="57.7" cy="247.8" rx="5.2" ry="3.0" fill="#ada295" opacity="0.41" transform="rotate(10.4 57.7 247.8)" />
<ellipse cx="344.8" cy="411.1" rx="2.2" ry="3.1" fill="#c4baac" opacity="0.43" transform="rotate(149.9 344.8 411.1)" />
<ellipse cx="159.9" cy="91.5" rx="4.0" ry="1.9" fill="#8e857b" opacity="0.56" transform="rotate(142.4 159.9 91.5)" />
<ellipse cx="169.3" cy="426.2" rx="2.8" ry="1.7" fill="#c4baac" opacity="0.54" transform="rotate(150.0 169.3 426.2)" />
<ellipse cx="339.1" cy="82.3" rx="4.1" ry="2.8" fill="#c4baac" opacity="0.57" transform="rotate(87.5 339.1 82.3)" />
<ellipse cx="362.9" cy="404.7" rx="4.2" ry="3.7" fill="#ada295" opacity="0.64" transform="rotate(108.7 362.9 404.7)" />
<ellipse cx="157.3" cy="89.8" rx="4.9" ry="1.5" fill="#ddd4c7" opacity="0.65" transform="rotate(8.8 157.3 89.8)" />
<ellipse cx="55.9" cy="255.8" rx="2.1" ry="2.9" fill="#c4baac" opacity="0.52" transform="rotate(140.8 55.9 255.8)" />
<ellipse cx="456.8" cy="247.9" rx="4.9" ry="2.8" fill="#c4baac" opacity="0.38" transform="rotate(134.5 456.8 247.9)" />
<ellipse cx="149.9" cy="82.7" rx="2.4" ry="2.0" fill="#ddd4c7" opacity="0.37" transform="rotate(98.6 149.9 82.7)" />
<ellipse cx="52.9" cy="241.4" rx="4.9" ry="2.8" fill="#8e857b" opacity="0.56" transform="rotate(160.1 52.9 241.4)" />
<ellipse cx="72.6" cy="238.4" rx="5.5" ry="3.7" fill="#ada295" opacity="0.45" transform="rotate(128.4 72.6 238.4)" />
<ellipse cx="345.9" cy="412.6" rx="2.1" ry="3.7" fill="#8e857b" opacity="0.50" transform="rotate(120.2 345.9 412.6)" />
<ellipse cx="94.9" cy="250.9" rx="4.1" ry="1.6" fill="#c4baac" opacity="0.31" transform="rotate(84.2 94.9 250.9)" />
<ellipse cx="141.4" cy="90.2" rx="4.9" ry="3.9" fill="#ddd4c7" opacity="0.63" transform="rotate(41.4 141.4 90.2)" />
<ellipse cx="172.8" cy="425.6" rx="2.5" ry="2.4" fill="#8e857b" opacity="0.56" transform="rotate(35.1 172.8 425.6)" />
<ellipse cx="339.4" cy="77.1" rx="4.2" ry="1.6" fill="#ada295" opacity="0.41" transform="rotate(83.6 339.4 77.1)" />
<ellipse cx="343.2" cy="411.7" rx="3.8" ry="2.0" fill="#ddd4c7" opacity="0.35" transform="rotate(132.4 343.2 411.7)" />
<ellipse cx="440.6" cy="272.0" rx="2.8" ry="3.2" fill="#c4baac" opacity="0.45" transform="rotate(109.4 440.6 272.0)" />
<ellipse cx="79.8" cy="259.8" rx="4.4" ry="3.2" fill="#ada295" opacity="0.57" transform="rotate(11.0 79.8 259.8)" />
<ellipse cx="332.3" cy="434.5" rx="2.3" ry="2.6" fill="#c4baac" opacity="0.58" transform="rotate(137.1 332.3 434.5)" />
<ellipse cx="346.9" cy="104.1" rx="4.3" ry="2.7" fill="#ddd4c7" opacity="0.40" transform="rotate(0.9 346.9 104.1)" />
<ellipse cx="432.4" cy="243.7" rx="4.3" ry="1.6" fill="#ada295" opacity="0.40" transform="rotate(57.9 432.4 243.7)" />
<ellipse cx="334.5" cy="426.7" rx="3.7" ry="2.8" fill="#ddd4c7" opacity="0.43" transform="rotate(72.8 334.5 426.7)" />
<ellipse cx="418.6" cy="252.7" rx="2.8" ry="3.2" fill="#8e857b" opacity="0.67" transform="rotate(21.5 418.6 252.7)" />
<ellipse cx="352.2" cy="99.6" rx="5.6" ry="1.4" fill="#ddd4c7" opacity="0.59" transform="rotate(7.4 352.2 99.6)" />
<ellipse cx="142.8" cy="424.1" rx="4.4" ry="1.4" fill="#ddd4c7" opacity="0.65" transform="rotate(3.9 142.8 424.1)" />
<ellipse cx="335.1" cy="407.1" rx="4.1" ry="3.2" fill="#c4baac" opacity="0.47" transform="rotate(48.6 335.1 407.1)" />
<ellipse cx="428.6" cy="264.6" rx="4.8" ry="1.4" fill="#8e857b" opacity="0.69" transform="rotate(41.0 428.6 264.6)" />
<ellipse cx="56.0" cy="258.4" rx="5.5" ry="3.3" fill="#8e857b" opacity="0.51" transform="rotate(50.6 56.0 258.4)" />
<ellipse cx="355.8" cy="432.1" rx="2.4" ry="1.9" fill="#c4baac" opacity="0.36" transform="rotate(103.8 355.8 432.1)" />
<ellipse cx="351.4" cy="425.4" rx="4.0" ry="2.1" fill="#ada295" opacity="0.54" transform="rotate(155.0 351.4 425.4)" />
<ellipse cx="147.1" cy="71.1" rx="4.8" ry="1.5" fill="#ddd4c7" opacity="0.32" transform="rotate(122.7 147.1 71.1)" />
<ellipse cx="457.5" cy="249.9" rx="2.8" ry="2.9" fill="#ddd4c7" opacity="0.59" transform="rotate(168.2 457.5 249.9)" />
<ellipse cx="141.8" cy="88.2" rx="2.1" ry="2.0" fill="#8e857b" opacity="0.63" transform="rotate(131.6 141.8 88.2)" />
<ellipse cx="90.3" cy="259.7" rx="4.6" ry="3.5" fill="#c4baac" opacity="0.56" transform="rotate(6.9 90.3 259.7)" />
<ellipse cx="344.2" cy="447.1" rx="5.5" ry="1.5" fill="#c4baac" opacity="0.53" transform="rotate(53.8 344.2 447.1)" />

    <path d="M 256.0 256.0 L 256.0 55.9 M 256.0 256.0 L 429.3 155.9 M 256.0 256.0 L 429.3 356.1 M 256.0 256.0 L 256.0 456.1 M 256.0 256.0 L 82.7 356.1 M 256.0 256.0 L 82.7 155.9" fill="none" stroke="url(#water-fill)" stroke-width="140.0" stroke-linecap="butt" />
    <circle cx="256.0" cy="256.0" r="140.0" fill="url(#water-fill)" />
    <path d="M 256.0 256.0 L 256.0 55.9 M 256.0 256.0 L 429.3 155.9 M 256.0 256.0 L 429.3 356.1 M 256.0 256.0 L 256.0 456.1 M 256.0 256.0 L 82.7 356.1 M 256.0 256.0 L 82.7 155.9" fill="none" stroke="url(#water-shade)" stroke-width="140.0" stroke-linecap="butt" />
    <circle cx="256.0" cy="256.0" r="140.0" fill="url(#water-shade)" />
    <circle cx="256.0" cy="256.0" r="140.0" fill="none" stroke="#d5f3f6" stroke-width="2" opacity="0.22" />
<path d="M 296.3 95.0 Q 256.0 94.8 215.7 95.0" stroke="#81cbd8" stroke-width="1.39" stroke-linecap="round" opacity="0.18" fill="none" />
<path d="M 392.6 205.0 Q 383.2 182.6 368.5 163.2" stroke="#81cbd8" stroke-width="1.90" stroke-linecap="round" opacity="0.18" fill="none" />
<path d="M 419.2 197.5 Q 403.6 170.8 388.3 144.0" stroke="#a6dde9" stroke-width="1.05" stroke-linecap="round" opacity="0.17" fill="none" />
<path d="M 299.1 85.4 Q 256.0 86.2 212.9 85.4" stroke="#c6eef8" stroke-width="1.80" stroke-linecap="round" opacity="0.28" fill="none" />
<path d="M 394.8 204.9 Q 379.0 185.0 369.7 161.4" stroke="#81cbd8" stroke-width="1.17" stroke-linecap="round" opacity="0.28" fill="none" />
<path d="M 110.6 314.7 Q 118.5 335.4 132.5 352.6" stroke="#a6dde9" stroke-width="1.51" stroke-linecap="round" opacity="0.23" fill="none" />
<path d="M 234.2 397.9 Q 256.0 398.9 277.8 397.9" stroke="#81cbd8" stroke-width="1.72" stroke-linecap="round" opacity="0.25" fill="none" />
<path d="M 132.5 132.5 Q 112.8 173.3 87.3 210.8" stroke="#81cbd8" stroke-width="1.03" stroke-linecap="round" opacity="0.22" fill="none" />
<path d="M 400.3 199.1 Q 389.3 179.0 377.4 159.5" stroke="#a6dde9" stroke-width="1.15" stroke-linecap="round" opacity="0.26" fill="none" />
<path d="M 411.4 214.6 Q 392.3 177.3 369.6 142.2" stroke="#a6dde9" stroke-width="1.75" stroke-linecap="round" opacity="0.19" fill="none" />
<path d="M 108.8 292.5 Q 126.6 330.7 150.8 365.3" stroke="#c6eef8" stroke-width="1.02" stroke-linecap="round" opacity="0.17" fill="none" />
<path d="M 388.9 363.1 Q 405.5 342.3 415.2 317.5" stroke="#81cbd8" stroke-width="1.49" stroke-linecap="round" opacity="0.18" fill="none" />
<path d="M 214.2 399.8 Q 256.0 397.1 297.8 399.8" stroke="#81cbd8" stroke-width="1.20" stroke-linecap="round" opacity="0.22" fill="none" />
<path d="M 124.1 135.7 Q 103.9 168.2 85.9 201.9" stroke="#c6eef8" stroke-width="1.39" stroke-linecap="round" opacity="0.15" fill="none" />
<path d="M 204.4 422.8 Q 256.0 420.8 307.6 422.8" stroke="#a6dde9" stroke-width="1.28" stroke-linecap="round" opacity="0.20" fill="none" />
<path d="M 133.8 134.1 Q 108.2 170.7 89.4 211.1" stroke="#c6eef8" stroke-width="1.42" stroke-linecap="round" opacity="0.20" fill="none" />
<path d="M 388.6 378.9 Q 409.2 344.5 428.8 309.4" stroke="#c6eef8" stroke-width="1.79" stroke-linecap="round" opacity="0.16" fill="none" />
<path d="M 140.9 125.7 Q 116.5 175.5 85.6 221.5" stroke="#a6dde9" stroke-width="1.73" stroke-linecap="round" opacity="0.24" fill="none" />
<path d="M 309.3 112.2 Q 256.0 110.6 202.7 112.2" stroke="#a6dde9" stroke-width="1.97" stroke-linecap="round" opacity="0.23" fill="none" />
<path d="M 303.2 79.7 Q 256.0 83.4 208.8 79.7" stroke="#81cbd8" stroke-width="1.93" stroke-linecap="round" opacity="0.26" fill="none" />
<path d="M 353.2 367.7 Q 378.5 326.7 401.3 284.3" stroke="#c6eef8" stroke-width="1.17" stroke-linecap="round" opacity="0.16" fill="none" />
<path d="M 233.6 403.6 Q 256.0 403.2 278.4 403.6" stroke="#81cbd8" stroke-width="1.42" stroke-linecap="round" opacity="0.25" fill="none" />
<path d="M 298.3 100.7 Q 256.0 97.9 213.7 100.7" stroke="#81cbd8" stroke-width="1.83" stroke-linecap="round" opacity="0.17" fill="none" />
<path d="M 205.9 424.7 Q 256.0 423.3 306.1 424.7" stroke="#c6eef8" stroke-width="1.81" stroke-linecap="round" opacity="0.21" fill="none" />
<path d="M 358.9 376.8 Q 386.0 331.0 412.1 284.8" stroke="#c6eef8" stroke-width="1.08" stroke-linecap="round" opacity="0.26" fill="none" />
<path d="M 91.4 296.8 Q 114.6 337.6 138.4 378.1" stroke="#a6dde9" stroke-width="1.65" stroke-linecap="round" opacity="0.24" fill="none" />
<path d="M 223.6 413.2 Q 256.0 417.2 288.4 413.2" stroke="#81cbd8" stroke-width="1.02" stroke-linecap="round" opacity="0.25" fill="none" />
<path d="M 299.8 112.2 Q 256.0 110.0 212.2 112.2" stroke="#c6eef8" stroke-width="1.85" stroke-linecap="round" opacity="0.28" fill="none" />
<path d="M 83.1 301.6 Q 107.2 341.9 130.1 382.9" stroke="#c6eef8" stroke-width="1.44" stroke-linecap="round" opacity="0.27" fill="none" />
<path d="M 371.3 374.5 Q 393.1 335.2 416.3 296.6" stroke="#81cbd8" stroke-width="1.84" stroke-linecap="round" opacity="0.25" fill="none" />
<path d="M 279.5 87.3 Q 256.0 86.4 232.5 87.3" stroke="#a6dde9" stroke-width="1.09" stroke-linecap="round" opacity="0.26" fill="none" />
<path d="M 123.1 137.5 Q 102.3 167.3 86.9 200.1" stroke="#c6eef8" stroke-width="1.45" stroke-linecap="round" opacity="0.29" fill="none" />
<path d="M 154.4 132.9 Q 129.7 183.1 98.6 229.5" stroke="#c6eef8" stroke-width="1.31" stroke-linecap="round" opacity="0.21" fill="none" />
<path d="M 111.5 304.9 Q 128.0 329.9 141.4 356.7" stroke="#81cbd8" stroke-width="1.71" stroke-linecap="round" opacity="0.28" fill="none" />
<path d="M 381.8 360.2 Q 396.3 337.0 409.1 312.8" stroke="#c6eef8" stroke-width="1.63" stroke-linecap="round" opacity="0.19" fill="none" />
<path d="M 239.5 328.8 Q 250.8 329.6 262.0 330.4" stroke="#81cbd8" stroke-width="1.48" stroke-linecap="round" opacity="0.12" fill="none" />
<path d="M 249.1 311.4 Q 261.0 310.3 272.9 309.2" stroke="#c6eef8" stroke-width="1.18" stroke-linecap="round" opacity="0.21" fill="none" />
<path d="M 280.7 217.6 Q 269.2 214.0 257.6 210.4" stroke="#81cbd8" stroke-width="1.66" stroke-linecap="round" opacity="0.21" fill="none" />
<path d="M 263.1 217.7 Q 252.0 218.9 240.9 220.1" stroke="#c6eef8" stroke-width="1.34" stroke-linecap="round" opacity="0.25" fill="none" />
<path d="M 209.1 314.5 Q 219.9 320.5 230.8 326.6" stroke="#a6dde9" stroke-width="1.75" stroke-linecap="round" opacity="0.14" fill="none" />
<path d="M 234.8 324.0 Q 245.1 325.6 255.5 327.2" stroke="#81cbd8" stroke-width="1.72" stroke-linecap="round" opacity="0.13" fill="none" />
<path d="M 337.2 265.0 Q 337.3 257.0 337.4 249.1" stroke="#a6dde9" stroke-width="1.51" stroke-linecap="round" opacity="0.19" fill="none" />
<path d="M 206.9 241.3 Q 206.0 251.6 205.1 261.9" stroke="#81cbd8" stroke-width="1.57" stroke-linecap="round" opacity="0.19" fill="none" />
<path d="M 179.6 242.7 Q 179.7 256.2 179.7 269.8" stroke="#c6eef8" stroke-width="1.66" stroke-linecap="round" opacity="0.13" fill="none" />
<path d="M 232.8 283.7 Q 246.3 287.8 259.9 291.9" stroke="#a6dde9" stroke-width="1.78" stroke-linecap="round" opacity="0.17" fill="none" />
<path d="M 282.6 272.9 Q 284.6 260.6 286.6 248.4" stroke="#a6dde9" stroke-width="1.14" stroke-linecap="round" opacity="0.14" fill="none" />
    <line x1="256.0" y1="110.0" x2="256.0" y2="83.9" stroke="#142e36" stroke-width="1.8" opacity="0.18" />
    <line x1="382.4" y1="183.0" x2="405.1" y2="169.9" stroke="#142e36" stroke-width="1.8" opacity="0.18" />
    <line x1="382.4" y1="329.0" x2="405.1" y2="342.1" stroke="#142e36" stroke-width="1.8" opacity="0.18" />
    <line x1="256.0" y1="402.0" x2="256.0" y2="428.1" stroke="#142e36" stroke-width="1.8" opacity="0.18" />
    <line x1="129.6" y1="329.0" x2="106.9" y2="342.1" stroke="#142e36" stroke-width="1.8" opacity="0.18" />
    <line x1="129.6" y1="183.0" x2="106.9" y2="169.9" stroke="#142e36" stroke-width="1.8" opacity="0.18" />
  </g>
</svg>
