<svg xmlns="http://www.w3.org/2000/svg" width="512" height="512" viewBox="0 0 512 512">
  <defs>
    <clipPath id="hex-clip">
      <polygon points="48.0,256.0 152.0,75.9 360.0,75.9 464.0,256.0 360.0,436.1 152.0,436.1" />
    </clipPath>
    <linearGradient id="water-fill" x1="0%" y1="0%" x2="100%" y2="0%">
      <stop offset="0%" stop-color="#295f69" />
      <stop offset="20%" stop-color="#327884" />
      <stop offset="50%" stop-color="#5ea4af" />
      <stop offset="80%" stop-color="#327884" />
      <stop offset="100%" stop-color="#295f69" />
    </linearGradient>
    <linearGradient id="water-shade" x1="0%" y1="0%" x2="0%" y2="100%">
      <stop offset="0%" stop-color="#8dd6de" stop-opacity="0.38" />
      <stop offset="35%" stop-color="#ffffff" stop-opacity="0.06" />
      <stop offset="100%" stop-color="#11343e" stop-opacity="0.24" />
    </linearGradient>
  </defs>
  <g clip-path="url(#hex-clip)">
<ellipse cx="113.7" cy="237.0" rx="3.1" ry="2.7" fill="#ddd4c7" opacity="0.58" transform="rotate(91.3 113.7 237.0)" />
<ellipse cx="330.5" cy="116.2" rx="4.4" ry="2.7" fill="#c4baac" opacity="0.40" transform="rotate(146.6 330.5 116.2)" />
<ellipse cx="453.4" cy="229.4" rx="2.6" ry="2.8" fill="#ada295" opacity="0.59" transform="rotate(45.5 453.4 229.4)" />
<ellipse cx="189.3" cy="402.1" rx="3.7" ry="2.7" fill="#c4baac" opacity="0.38" transform="rotate(92.9 189.3 402.1)" />
<ellipse cx="323.0" cy="126.9" rx="4.9" ry="2.3" fill="#ada295" opacity="0.62" transform="rotate(144.2 323.0 126.9)" />
<ellipse cx="349.4" cy="394.5" rx="2.6" ry="3.1" fill="#8e857b" opacity="0.44" transform="rotate(21.3 349.4 394.5)" />
<ellipse cx="396.2" cy="264.0" rx="5.0" ry="1.8" fill="#ada295" opacity="0.53" transform="rotate(133.7 396.2 264.0)" />
<ellipse cx="336.4" cy="89.5" rx="4.3" ry="1.6" fill="#ada295" opacity="0.68" transform="rotate(146.6 336.4 89.5)" />
<ellipse cx="320.0" cy="425.9" rx="4.2" ry="3.1" fill="#ada295" opacity="0.50" transform="rotate(23.6 320.0 425.9)" />
<ellipse cx="412.8" cy="254.9" rx="4.5" ry="2.9" fill="#ada295" opacity="0.62" transform="rotate(142.8 412.8 254.9)" />
<ellipse cx="189.0" cy="88.6" rx="4.8" ry="2.4" fill="#c4baac" opacity="0.61" transform="rotate(78.9 189.0 88.6)" />
<ellipse cx="120.6" cy="252.1" rx="3.6" ry="1.9" fill="#ada295" opacity="0.34" transform="rotate(109.4 120.6 252.1)" />
<ellipse cx="165.8" cy="405.1" rx="5.1" ry="2.0" fill="#ada295" opacity="0.31" transform="rotate(178.9 165.8 405.1)" />
<ellipse cx="54.1" cy="266.0" rx="2.3" ry="2.8" fill="#8e857b" opacity="0.61" transform="rotate(4.0 54.1 266.0)" />
<ellipse cx="104.1" cy="272.2" rx="2.9" ry="3.6" fill="#8e857b" opacity="0.32" transform="rotate(156.8 104.1 272.2)" />
<ellipse cx="354.5" cy="396.5" rx="4.0" ry="2.8" fill="#ada295" opacity="0.61" transform="rotate(67.2 354.5 396.5)" />
<ellipse cx="326.9" cy="377.4" rx="2.7" ry="3.7" fill="#ddd4c7" opacity="0.37" transform="rotate(107.7 326.9 377.4)" />
<ellipse cx="83.8" cy="258.6" rx="2.2" ry="3.8" fill="#ada295" opacity="0.49" transform="rotate(3.2 83.8 258.6)" />
<ellipse cx="169.0" cy="426.0" rx="3.6" ry="3.4" fill="#8e857b" opacity="0.42" transform="rotate(136.1 169.0 426.0)" />
<ellipse cx="172.0" cy="422.9" rx="4.6" ry="3.4" fill="#8e857b" opacity="0.29" transform="rotate(105.7 172.0 422.9)" />
<ellipse cx="186.5" cy="124.2" rx="4.8" ry="3.4" fill="#c4baac" opacity="0.32" transform="rotate(165.7 186.5 124.2)" />
<ellipse cx="319.9" cy="432.4" rx="4.2" ry="2.3" fill="#ddd4c7" opacity="0.54" transform="rotate(34.7 319.9 432.4)" />
<ellipse cx="318.3" cy="387.5" rx="2.8" ry="2.8" fill="#8e857b" opacity="0.69" transform="rotate(103.7 318.3 387.5)" />
<ellipse cx="186.5" cy="379.5" rx="4.4" ry="3.9" fill="#8e857b" opacity="0.56" transform="rotate(117.0 186.5 379.5)" />
<ellipse cx="92.0" cy="246.4" rx="3.2" ry="2.5" fill="#ada295" opacity="0.34" transform="rotate(9.9 92.0 246.4)" />
<ellipse cx="419.3" cy="235.7" rx="3.5" ry="3.3" fill="#ddd4c7" opacity="0.65" transform="rotate(84.9 419.3 235.7)" />
<ellipse cx="366.9" cy="415.0" rx="3.8" ry="3.7" fill="#ada295" opacity="0.55" transform="rotate(165.1 366.9 415.0)" />
<ellipse cx="443.9" cy="276.7" rx="4.9" ry="2.1" fill="#ada295" opacity="0.68" transform="rotate(106.1 443.9 276.7)" />
<ellipse cx="186.7" cy="124.9" rx="5.6" ry="2.8" fill="#ada295" opacity="0.44" transform="rotate(108.7 186.7 124.9)" />
<ellipse cx="178.5" cy="370.8" rx="3.2" ry="2.0" fill="#8e857b" opacity="0.62" transform="rotate(80.1 178.5 370.8)" />
<ellipse cx="170.4" cy="401.6" rx="2.7" ry="2.7" fill="#8e857b" opacity="0.31" transform="rotate(42.6 170.4 401.6)" />
<ellipse cx="329.4" cy="134.0" rx="4.1" ry="3.8" fill="#8e857b" opacity="0.29" transform="rotate(75.0 329.4 134.0)" />
<ellipse cx="193.9" cy="154.5" rx="4.8" ry="3.0" fill="#ada295" opacity="0.33" transform="rotate(159.9 193.9 154.5)" />
<ellipse cx="358.0" cy="393.1" rx="2.4" ry="3.7" fill="#ada295" opacity="0.52" transform="rotate(111.0 358.0 393.1)" />
<ellipse cx="345.7" cy="115.2" rx="4.3" ry="2.1" fill="#ada295" opacity="0.67" transform="rotate(50.0 345.7 115.2)" />
<ellipse cx="408.6" cy="273.7" rx="5.1" ry="3.2" fill="#ada295" opacity="0.31" transform="rotate(22.0 408.6 273.7)" />
<ellipse cx="168.0" cy="390.3" rx="4.8" ry="3.7" fill="#ada295" opacity="0.50" transform="rotate(113.1 168.0 390.3)" />
<ellipse cx="142.8" cy="400.7" rx="3.8" ry="1.5" fill="#c4baac" opacity="0.32" transform="rotate(56.8 142.8 400.7)" />
<ellipse cx="442.7" cy="275.5" rx="2.3" ry="2.9" fill="#8e857b" opacity="0.47" transform="rotate(167.0 442.7 275.5)" />
<ellipse cx="329.3" cy="388.8" rx="2.0" ry="3.0" fill="#8e857b" opacity="0.40" transform="rotate(179.6 329.3 388.8)" />
<ellipse cx="168.8" cy="381.2" rx="2.1" ry="3.6" fill="#8e857b" opacity="0.34" transform="rotate(86.1 168.8 381.2)" />
<ellipse cx="446.8" cy="276.8" rx="5.1" ry="1.7" fill="#8e857b" opacity="0.61" transform="rotate(41.6 446.8 276.8)" />
<ellipse cx="327.8" cy="104.4" rx="5.0" ry="1.9" fill="#ada295" opacity="0.70" transform="rotate(138.9 327.8 104.4)" />
<ellipse cx="326.9" cy="146.7" rx="5.5" ry="2.7" fill="#c4baac" opacity="0.38" transform="rotate(156.8 326.9 146.7)" />
<ellipse cx="338.9" cy="387.7" rx="2.7" ry="2.7" fill="#ada295" opacity="0.67" transform="rotate(75.7 338.9 387.7)" />
<ellipse cx="328.6" cy="386.7" rx="2.2" ry="3.9" fill="#8e857b" opacity="0.55" transform="rotate(144.6 328.6 386.7)" />
<ellipse cx="343.7" cy="123.5" rx="3.8" ry="2.2" fill="#c4baac" opacity="0.61" transform="rotate(78.6 343.7 123.5)" />
<ellipse cx="177.9" cy="395.1" rx="4.8" ry="2.7" fill="#8e857b" opacity="0.54" transform="rotate(15.2 177.9 395.1)" />
<ellipse cx="323.8" cy="123.9" rx="4.8" ry="2.5" fill="#ddd4c7" opacity="0.59" transform="rotate(33.7 323.8 123.9)" />
<ellipse cx="170.9" cy="85.5" rx="3.8" ry="3.6" fill="#ddd4c7" opacity="0.37" transform="rotate(43.6 170.9 85.5)" />
<ellipse cx="364.7" cy="107.8" rx="3.0" ry="3.7" fill="#ddd4c7" opacity="0.40" transform="rotate(112.8 364.7 107.8)" />
<ellipse cx="324.8" cy="392.3" rx="5.1" ry="1.9" fill="#8e857b" opacity="0.68" transform="rotate(84.1 324.8 392.3)" />
<ellipse cx="185.9" cy="120.4" rx="5.6" ry="3.5" fill="#ddd4c7" opacity="0.29" transform="rotate(65.5 185.9 120.4)" />
<ellipse cx="153.8" cy="406.6" rx="5.3" ry="1.7" fill="#c4baac" opacity="0.31" transform="rotate(117.6 153.8 406.6)" />
<ellipse cx="123.8" cy="245.0" rx="3.2" ry="3.3" fill="#8e857b" opacity="0.32" transform="rotate(137.4 123.8 245.0)" />
<ellipse cx="380.5" cy="399.7" rx="3.1" ry="3.3" fill="#c4baac" opacity="0.58" transform="rotate(163.8 380.5 399.7)" />
<ellipse cx="169.8" cy="397.0" rx="4.8" ry="1.6" fill="#ada295" opacity="0.68" transform="rotate(134.1 169.8 397.0)" />
<ellipse cx="340.9" cy="111.6" rx="2.6" ry="1.7" fill="#8e857b" opacity="0.69" transform="rotate(79.5 340.9 111.6)" />
<ellipse cx="351.9" cy="109.1" rx="4.6" ry="2.5" fill="#8e857b" opacity="0.45" transform="rotate(44.6 351.9 109.1)" />
<ellipse cx="113.6" cy="258.9" rx="4.2" ry="2.7" fill="#c4baac" opacity="0.54" transform="rotate(121.5 113.6 258.9)" />
<ellipse cx="143.8" cy="115.6" rx="4.8" ry="3.7" fill="#8e857b" opacity="0.29" transform="rotate(107.7 143.8 115.6)" />
<ellipse cx="451.1" cy="236.5" rx="3.0" ry="2.5" fill="#ddd4c7" opacity="0.53" transform="rotate(5.8 451.1 236.5)" />
<ellipse cx="138.9" cy="111.7" rx="3.5" ry="3.4" fill="#ada295" opacity="0.30" transform="rotate(67.4 138.9 111.7)" />
<ellipse cx="66.6" cy="261.0" rx="2.3" ry="3.2" fill="#8e857b" opacity="0.47" transform="rotate(0.4 66.6 261.0)" />
<ellipse cx="180.6" cy="376.0" rx="2.9" ry="2.7" fill="#8e857b" opacity="0.61" transform="rotate(100.7 180.6 376.0)" />
<ellipse cx="181.9" cy="78.1" rx="4.9" ry="2.1" fill="#8e857b" opacity="0.46" transform="rotate(83.7 181.9 78.1)" />
<ellipse cx="333.5" cy="123.7" rx="2.9" ry="2.3" fill="#c4baac" opacity="0.29" transform="rotate(48.3 333.5 123.7)" />
<ellipse cx="328.9" cy="145.6" rx="4.6" ry="2.0" fill="#c4baac" opacity="0.54" transform="rotate(107.3 328.9 145.6)" />
<ellipse cx="337.3" cy="408.6" rx="3.5" ry="2.4" fill="#c4baac" opacity="0.42" transform="rotate(138.0 337.3 408.6)" />
<ellipse cx="341.1" cy="391.5" rx="2.4" ry="2.5" fill="#ddd4c7" opacity="0.42" transform="rotate(120.2 341.1 391.5)" />
<ellipse cx="394.7" cy="251.1" rx="5.0" ry="2.0" fill="#ada295" opacity="0.55" transform="rotate(143.3 394.7 251.1)" />
<ellipse cx="173.0" cy="98.9" rx="3.0" ry="3.3" fill="#8e857b" opacity="0.34" transform="rotate(153.7 173.0 98.9)" />
<ellipse cx="366.0" cy="411.0" rx="4.9" ry="2.6" fill="#c4baac" opacity="0.43" transform="rotate(174.6 366.0 411.0)" />
<ellipse cx="183.0" cy="117.4" rx="2.6" ry="1.4" fill="#ada295" opacity="0.50" transform="rotate(22.2 183.0 117.4)" />
<ellipse cx="337.7" cy="130.1" rx="2.2" ry="2.2" fill="#8e857b" opacity="0.68" transform="rotate(123.5 337.7 130.1)" />
<ellipse cx="382.4" cy="262.3" rx="4.2" ry="2.5" fill="#ada295" opacity="0.30" transform="rotate(7.0 382.4 262.3)" />
<ellipse cx="340.5" cy="380.7" rx="4.9" ry="3.6" fill="#c4baac" opacity="0.55" transform="rotate(13.9 340.5 380.7)" />
<ellipse cx="341.0" cy="116.5" rx="3.8" ry="4.0" fill="#ddd4c7" opacity="0.40" transform="rotate(71.3 341.0 116.5)" />
<ellipse cx="177.6" cy="392.3" rx="2.1" ry="3.4" fill="#c4baac" opacity="0.32" transform="rotate(130.6 177.6 392.3)" />
<ellipse cx="186.0" cy="381.4" rx="3.3" ry="2.0" fill="#ddd4c7" opacity="0.68" transform="rotate(52.3 186.0 381.4)" />
<ellipse cx="123.0" cy="266.3" rx="3.5" ry="2.6" fill="#ddd4c7" opacity="0.60" transform="rotate(70.6 123.0 266.3)" />
<ellipse cx="327.0" cy="148.7" rx="4.9" ry="3.0" fill="#ddd4c7" opacity="0.46" transform="rotate(53.3 327.0 148.7)" />
<ellipse cx="345.3" cy="400.2" rx="4.6" ry="3.6" fill="#c4baac" opacity="0.46" transform="rotate(30.5 345.3 400.2)" />
<ellipse cx="105.3" cy="259.1" rx="2.8" ry="1.5" fill="#8e857b" opacity="0.55" transform="rotate(141.4 105.3 259.1)" />
<ellipse cx="342.6" cy="139.7" rx="4.0" ry="1.5" fill="#ada295" opacity="0.59" transform="rotate(152.7 342.6 139.7)" />
<ellipse cx="312.4" cy="130.5" rx="3.7" ry="3.2" fill="#8e857b" opacity="0.44" transform="rotate(100.5 312.4 130.5)" />
<ellipse cx="353.5" cy="107.0" rx="2.4" ry="3.9" fill="#ddd4c7" opacity="0.50" transform="rotate(24.8 353.5 107.0)" />
<ellipse cx="109.0" cy="259.5" rx="4.7" ry="2.3" fill="#ada295" opacity="0.55" transform="rotate(78.5 109.0 259.5)" />
<ellipse cx="74.0" cy="243.4" rx="2.6" ry="4.0" fill="#8e857b" opacity="0.56" transform="rotate(89.0 74.0 243.4)" />
<ellipse cx="318.1" cy="137.1" rx="2.2" ry="1.9" fill="#ada295" opacity="0.70" transform="rotate(177.6 318.1 137.1)" />
<ellipse cx="430.0" cy="254.8" rx="4.9" ry="2.1" fill="#ada295" opacity="0.60" transform="rotate(65.6 430.0 254.8)" />
<ellipse cx="316.7" cy="124.9" rx="4.8" ry="2.0" fill="#ada295" opacity="0.37" transform="rotate(145.3 316.7 124.9)" />
<ellipse cx="149.8" cy="121.2" rx="4.0" ry="2.9" fill="#c4baac" opacity="0.67" transform="rotate(79.5 149.8 121.2)" />
<ellipse cx="395.3" cy="238.0" rx="4.6" ry="3.6" fill="#ddd4c7" opacity="0.45" transform="rotate(157.0 395.3 238.0)" />
<ellipse cx="123.3" cy="259.9" rx="2.5" ry="3.7" fill="#c4baac" opacity="0.48" transform="rotate(19.9 123.3 259.9)" />
<ellipse cx="79.4" cy="243.8" rx="2.8" ry="3.4" fill="#ddd4c7" opacity="0.43" transform="rotate(56.1 79.4 243.8)" />
<ellipse cx="325.7" cy="120.3" rx="2.8" ry="2.4" fill="#c4baac" opacity="0.33" transform="rotate(55.4 325.7 120.3)" />
<ellipse cx="420.5" cy="275.9" rx="4.1" ry="3.2" fill="#ada295" opacity="0.62" transform="rotate(32.7 420.5 275.9)" />
<ellipse cx="193.6" cy="140.3" rx="3.2" ry="3.7" fill="#8e857b" opacity="0.67" transform="rotate(82.5 193.6 140.3)" />
<ellipse cx="331.8" cy="122.3" rx="3.3" ry="3.8" fill="#ada295" opacity="0.53" transform="rotate(127.4 331.8 122.3)" />
<ellipse cx="349.5" cy="108.2" rx="5.5" ry="2.3" fill="#ddd4c7" opacity="0.67" transform="rotate(147.0 349.5 108.2)" />
<ellipse cx="113.7" cy="256.7" rx="4.6" ry="2.4" fill="#ada295" opacity="0.53" transform="rotate(137.0 113.7 256.7)" />
<ellipse cx="188.9" cy="92.9" rx="4.7" ry="3.1" fill="#ddd4c7" opacity="0.55" transform="rotate(139.7 188.9 92.9)" />
<ellipse cx="343.9" cy="92.7" rx="4.4" ry="1.4" fill="#ddd4c7" opacity="0.54" transform="rotate(23.2 343.9 92.7)" />
<ellipse cx="312.3" cy="390.7" rx="3.5" ry="3.4" fill="#c4baac" opacity="0.52" transform="rotate(19.3 312.3 390.7)" />
<ellipse cx="330.3" cy="134.8" rx="4.1" ry="3.7" fill="#8e857b" opacity="0.32" transform="rotate(66.5 330.3 134.8)" />
<ellipse cx="359.2" cy="416.7" rx="3.5" ry="3.2" fill="#8e857b" opacity="0.62" transform="rotate(100.5 359.2 416.7)" />
<ellipse cx="413.8" cy="253.6" rx="5.4" ry="3.7" fill="#ddd4c7" opacity="0.52" transform="rotate(81.3 413.8 253.6)" />
<ellipse cx="328.3" cy="91.9" rx="3.7" ry="1.9" fill="#c4baac" opacity="0.30" transform="rotate(4.1 328.3 91.9)" />
<ellipse cx="345.8" cy="376.3" rx="4.9" ry="2.9" fill="#8e857b" opacity="0.50" transform="rotate(145.8 345.8 376.3)" />
<ellipse cx="182.5" cy="433.4" rx="3.7" ry="3.7" fill="#c4baac" opacity="0.64" transform="rotate(77.8 182.5 433.4)" />
<ellipse cx="151.3" cy="418.6" rx="2.5" ry="2.9" fill="#8e857b" opacity="0.28" transform="rotate(77.7 151.3 418.6)" />
<ellipse cx="330.3" cy="103.3" rx="4.0" ry="3.5" fill="#ddd4c7" opacity="0.34" transform="rotate(56.6 330.3 103.3)" />
<ellipse cx="318.6" cy="135.0" rx="4.0" ry="2.5" fill="#ada295" opacity="0.67" transform="rotate(48.7 318.6 135.0)" />
<ellipse cx="454.2" cy="233.9" rx="2.7" ry="3.9" fill="#ada295" opacity="0.29" transform="rotate(140.9 454.2 233.9)" />
<ellipse cx="140.5" cy="114.8" rx="2.9" ry="3.7" fill="#8e857b" opacity="0.35" transform="rotate(156.0 140.5 114.8)" />
<ellipse cx="365.0" cy="397.1" rx="5.1" ry="1.7" fill="#c4baac" opacity="0.64" transform="rotate(153.5 365.0 397.1)" />
<ellipse cx="105.0" cy="238.3" rx="2.5" ry="2.6" fill="#c4baac" opacity="0.58" transform="rotate(15.5 105.0 238.3)" />
<ellipse cx="349.5" cy="408.1" rx="3.0" ry="2.1" fill="#c4baac" opacity="0.37" transform="rotate(87.1 349.5 408.1)" />
<ellipse cx="89.9" cy="242.1" rx="4.0" ry="2.6" fill="#c4baac" opacity="0.34" transform="rotate(7.2 89.9 242.1)" />
<ellipse cx="190.1" cy="118.1" rx="2.2" ry="3.0" fill="#ddd4c7" opacity="0.46" transform="rotate(60.7 190.1 118.1)" />
<ellipse cx="73.6" cy="267.2" rx="4.4" ry="3.0" fill="#8e857b" opacity="0.35" transform="rotate(154.5 73.6 267.2)" />
<ellipse cx="176.9" cy="129.1" rx="4.2" ry="3.8" fill="#ddd4c7" opacity="0.44" transform="rotate(131.4 176.9 129.1)" />
<ellipse cx="169.1" cy="419.7" rx="2.9" ry="3.6" fill="#8e857b" opacity="0.48" transform="rotate(40.5 169.1 419.7)" />
<ellipse cx="143.6" cy="411.1" rx="5.0" ry="2.4" fill="#8e857b" opacity="0.33" transform="rotate(47.2 143.6 411.1)" />
<ellipse cx="199.3" cy="380.6" rx="3.0" ry="2.4" fill="#8e857b" opacity="0.57" transform="rotate(168.0 199.3 380.6)" />
<ellipse cx="66.3" cy="231.6" rx="3.6" ry="2.3" fill="#8e857b" opacity="0.48" transform="rotate(34.9 66.3 231.6)" />
<ellipse cx="340.2" cy="407.9" rx="4.6" ry="2.4" fill="#ada295" opacity="0.54" transform="rotate(86.5 340.2 407.9)" />
<ellipse cx="141.9" cy="414.3" rx="3.5" ry="2.0" fill="#ada295" opacity="0.46" transform="rotate(125.8 141.9 414.3)" />
<ellipse cx="395.8" cy="249.8" rx="3.4" ry="3.0" fill="#ddd4c7" opacity="0.69" transform="rotate(48.6 395.8 249.8)" />
<ellipse cx="315.8" cy="132.7" rx="3.9" ry="1.6" fill="#c4baac" opacity="0.42" transform="rotate(44.4 315.8 132.7)" />
<ellipse cx="89.3" cy="253.0" rx="3.9" ry="2.9" fill="#c4baac" opacity="0.55" transform="rotate(78.7 89.3 253.0)" />
<ellipse cx="364.0" cy="412.0" rx="3.3" ry="1.7" fill="#ddd4c7" opacity="0.41" transform="rotate(140.3 364.0 412.0)" />
<ellipse cx="323.8" cy="395.1" rx="3.0" ry="1.7" fill="#8e857b" opacity="0.66" transform="rotate(62.5 323.8 395.1)" />
<ellipse cx="192.5" cy="121.5" rx="4.5" ry="2.7" fill="#c4baac" opacity="0.61" transform="rotate(60.5 192.5 121.5)" />
<ellipse cx="428.6" cy="240.2" rx="5.5" ry="2.7" fill="#8e857b" opacity="0.68" transform="rotate(26.6 428.6 240.2)" />
<path d="M 53.5 261.8 Q 51.5 266.1 49.9 274.0" stroke="#63875e" stroke-width="2.4" stroke-linecap="round" opacity="0.32" fill="none" />
<path d="M 153.6 73.0 Q 155.7 70.3 157.4 65.2" stroke="#63875e" stroke-width="2.4" stroke-linecap="round" opacity="0.32" fill="none" />
<path d="M 156.5 436.3 Q 160.0 439.6 162.9 445.7" stroke="#63875e" stroke-width="2.4" stroke-linecap="round" opacity="0.32" fill="none" />
<path d="M 146.1 436.1 Q 140.5 434.4 135.9 431.3" stroke="#63875e" stroke-width="2.4" stroke-linecap="round" opacity="0.32" fill="none" />
<path d="M 353.3 440.1 Q 348.9 443.2 345.3 448.9" stroke="#63875e" stroke-width="2.4" stroke-linecap="round" opacity="0.32" fill="none" />
<path d="M 159.1 78.9 Q 160.0 75.4 160.7 69.0" stroke="#63875e" stroke-width="2.4" stroke-linecap="round" opacity="0.32" fill="none" />
<path d="M 47.1 265.2 Q 45.9 268.8 44.9 275.5" stroke="#63875e" stroke-width="2.4" stroke-linecap="round" opacity="0.32" fill="none" />
<path d="M 160.5 435.6 Q 162.0 438.3 163.2 443.2" stroke="#63875e" stroke-width="2.4" stroke-linecap="round" opacity="0.32" fill="none" />
<path d="M 151.5 75.9 Q 144.2 75.8 138.2 75.6" stroke="#63875e" stroke-width="2.4" stroke-linecap="round" opacity="0.32" fill="none" />
<path d="M 154.6 71.4 Q 158.0 67.2 160.9 59.2" stroke="#63875e" stroke-width="2.4" stroke-linecap="round" opacity="0.32" fill="none" />
<path d="M 53.3 262.0 Q 49.3 265.9 46.0 273.2" stroke="#63875e" stroke-width="2.4" stroke-linecap="round" opacity="0.32" fill="none" />
<path d="M 359.4 432.3 Q 364.6 431.6 368.8 430.2" stroke="#63875e" stroke-width="2.4" stroke-linecap="round" opacity="0.32" fill="none" />
<path d="M 467.6 249.8 Q 468.6 246.1 469.5 239.2" stroke="#63875e" stroke-width="2.4" stroke-linecap="round" opacity="0.32" fill="none" />
<path d="M 159.5 70.6 Q 163.7 67.6 167.2 62.1" stroke="#63875e" stroke-width="2.4" stroke-linecap="round" opacity="0.32" fill="none" />
<path d="M 150.2 436.1 Q 142.7 436.5 136.6 437.1" stroke="#63875e" stroke-width="2.4" stroke-linecap="round" opacity="0.32" fill="none" />
<path d="M 47.0 254.3 Q 43.7 251.4 41.0 246.0" stroke="#63875e" stroke-width="2.4" stroke-linecap="round" opacity="0.32" fill="none" />
<path d="M 161.3 75.1 Q 163.1 71.7 164.6 65.3" stroke="#63875e" stroke-width="2.4" stroke-linecap="round" opacity="0.32" fill="none" />
    <path d="M 256.0 256.0 L 256.0 55.9 M 256.0 256.0 L 429.3 155.9 M 256.0 256.0 L 429.3 356.1 M 256.0 256.0 L 256.0 456.1 M 256.0 256.0 L 82.7 356.1 M 256.0 256.0 L 82.7 155.9" fill="none" stroke="url(#water-fill)" stroke-width="100.0" stroke-linecap="butt" />
    <circle cx="256.0" cy="256.0" r="100.0" fill="url(#water-fill)" />
    <path d="M 256.0 256.0 L 256.0 55.9 M 256.0 256.0 L 429.3 155.9 M 256.0 256.0 L 429.3 356.1 M 256.0 256.0 L 256.0 456.1 M 256.0 256.0 L 82.7 356.1 M 256.0 256.0 L 82.7 155.9" fill="none" stroke="url(#water-shade)" stroke-width="100.0" stroke-linecap="butt" />
    <circle cx="256.0" cy="256.0" r="100.0" fill="url(#water-shade)" />
    <circle cx="256.0" cy="256.0" r="100.0" fill="none" stroke="#d5f3f6" stroke-width="2" opacity="0.22" />
<path d="M 143.2 276.0 Q 163.4 309.4 182.3 343.7" stroke="#c6eef8" stroke-width="1.15" stroke-linecap="round" opacity="0.18" fill="none" />
<path d="M 221.8 382.7 Q 256.0 379.9 290.2 382.7" stroke="#c6eef8" stroke-width="1.48" stroke-linecap="round" opacity="0.24" fill="none" />
<path d="M 365.0 351.1 Q 381.2 328.3 392.9 302.8" stroke="#c6eef8" stroke-width="1.91" stroke-linecap="round" opacity="0.24" fill="none" />
<path d="M 124.6 161.5 Q 113.8 173.9 108.4 189.5" stroke="#a6dde9" stroke-width="1.74" stroke-linecap="round" opacity="0.27" fill="none" />
<path d="M 130.4 151.5 Q 116.9 175.7 102.7 199.5" stroke="#c6eef8" stroke-width="1.35" stroke-linecap="round" opacity="0.21" fill="none" />
<path d="M 218.9 363.6 Q 256.0 362.5 293.1 363.6" stroke="#a6dde9" stroke-width="1.50" stroke-linecap="round" opacity="0.18" fill="none" />
<path d="M 350.0 339.0 Q 362.4 317.4 374.9 295.9" stroke="#a6dde9" stroke-width="1.77" stroke-linecap="round" opacity="0.18" fill="none" />
<path d="M 222.0 363.6 Q 256.0 360.7 290.0 363.6" stroke="#81cbd8" stroke-width="1.52" stroke-linecap="round" opacity="0.28" fill="none" />
<path d="M 223.9 394.2 Q 256.0 398.1 288.1 394.2" stroke="#a6dde9" stroke-width="1.67" stroke-linecap="round" opacity="0.23" fill="none" />
<path d="M 229.5 367.4 Q 256.0 366.4 282.5 367.4" stroke="#a6dde9" stroke-width="1.15" stroke-linecap="round" opacity="0.16" fill="none" />
<path d="M 147.0 274.9 Q 165.2 308.4 185.2 340.9" stroke="#c6eef8" stroke-width="1.01" stroke-linecap="round" opacity="0.19" fill="none" />
<path d="M 384.0 371.7 Q 401.1 339.8 420.2 309.0" stroke="#c6eef8" stroke-width="1.28" stroke-linecap="round" opacity="0.17" fill="none" />
<path d="M 180.6 186.6 Q 172.3 207.7 158.2 225.4" stroke="#c6eef8" stroke-width="1.01" stroke-linecap="round" opacity="0.29" fill="none" />
<path d="M 294.5 152.2 Q 256.0 153.5 217.5 152.2" stroke="#c6eef8" stroke-width="1.15" stroke-linecap="round" opacity="0.18" fill="none" />
<path d="M 98.3 305.0 Q 113.3 338.4 134.7 368.0" stroke="#81cbd8" stroke-width="1.69" stroke-linecap="round" opacity="0.25" fill="none" />
<path d="M 354.4 226.5 Q 342.0 206.4 330.8 185.5" stroke="#a6dde9" stroke-width="1.03" stroke-linecap="round" opacity="0.21" fill="none" />
<path d="M 219.0 359.8 Q 256.0 357.5 293.0 359.8" stroke="#a6dde9" stroke-width="1.84" stroke-linecap="round" opacity="0.25" fill="none" />
<path d="M 385.4 226.7 Q 366.8 192.0 346.1 158.6" stroke="#81cbd8" stroke-width="1.33" stroke-linecap="round" opacity="0.28" fill="none" />
<path d="M 388.7 363.5 Q 400.8 339.6 415.5 317.1" stroke="#c6eef8" stroke-width="1.13" stroke-linecap="round" opacity="0.26" fill="none" />
<path d="M 280.9 148.4 Q 256.0 151.6 231.1 148.4" stroke="#81cbd8" stroke-width="1.68" stroke-linecap="round" opacity="0.18" fill="none" />
<path d="M 285.9 125.5 Q 256.0 124.5 226.1 125.5" stroke="#a6dde9" stroke-width="1.96" stroke-linecap="round" opacity="0.28" fill="none" />
<path d="M 292.1 102.6 Q 256.0 105.3 219.9 102.6" stroke="#c6eef8" stroke-width="1.53" stroke-linecap="round" opacity="0.26" fill="none" />
<path d="M 356.0 221.5 Q 346.2 203.9 335.8 186.7" stroke="#c6eef8" stroke-width="1.40" stroke-linecap="round" opacity="0.29" fill="none" />
<path d="M 150.9 154.2 Q 131.7 184.2 115.2 215.9" stroke="#a6dde9" stroke-width="1.95" stroke-linecap="round" opacity="0.28" fill="none" />
<path d="M 384.6 370.7 Q 398.7 338.4 419.6 310.0" stroke="#a6dde9" stroke-width="1.38" stroke-linecap="round" opacity="0.17" fill="none" />
<path d="M 287.5 114.0 Q 256.0 111.7 224.5 114.0" stroke="#a6dde9" stroke-width="1.94" stroke-linecap="round" opacity="0.27" fill="none" />
<path d="M 225.8 378.9 Q 256.0 376.8 286.2 378.9" stroke="#c6eef8" stroke-width="1.28" stroke-linecap="round" opacity="0.25" fill="none" />
<path d="M 132.1 156.2 Q 118.2 176.4 107.6 198.6" stroke="#c6eef8" stroke-width="1.06" stroke-linecap="round" opacity="0.19" fill="none" />
<path d="M 238.1 375.1 Q 256.0 371.4 273.9 375.1" stroke="#a6dde9" stroke-width="1.67" stroke-linecap="round" opacity="0.28" fill="none" />
<path d="M 155.5 281.9 Q 170.9 305.1 183.3 330.1" stroke="#a6dde9" stroke-width="1.39" stroke-linecap="round" opacity="0.27" fill="none" />
<path d="M 272.4 110.2 Q 256.0 111.1 239.6 110.2" stroke="#c6eef8" stroke-width="1.15" stroke-linecap="round" opacity="0.16" fill="none" />
<path d="M 231.8 432.3 Q 256.0 434.2 280.2 432.3" stroke="#a6dde9" stroke-width="1.31" stroke-linecap="round" opacity="0.26" fill="none" />
<path d="M 216.4 356.0 Q 256.0 357.7 295.6 356.0" stroke="#a6dde9" stroke-width="1.69" stroke-linecap="round" opacity="0.19" fill="none" />
<path d="M 377.1 368.3 Q 392.9 335.0 413.8 304.8" stroke="#a6dde9" stroke-width="1.39" stroke-linecap="round" opacity="0.23" fill="none" />
<path d="M 142.8 168.1 Q 135.9 186.7 123.3 202.0" stroke="#81cbd8" stroke-width="1.68" stroke-linecap="round" opacity="0.17" fill="none" />
<path d="M 261.8 315.7 Q 274.5 311.4 287.1 307.2" stroke="#81cbd8" stroke-width="1.76" stroke-linecap="round" opacity="0.15" fill="none" />
<path d="M 275.0 278.5 Q 280.2 268.6 285.3 258.7" stroke="#a6dde9" stroke-width="1.07" stroke-linecap="round" opacity="0.12" fill="none" />
<path d="M 232.2 307.0 Q 245.8 309.6 259.4 312.2" stroke="#a6dde9" stroke-width="1.07" stroke-linecap="round" opacity="0.12" fill="none" />
<path d="M 239.3 283.0 Q 248.8 285.3 258.3 287.7" stroke="#81cbd8" stroke-width="1.06" stroke-linecap="round" opacity="0.23" fill="none" />
<path d="M 300.7 238.2 Q 294.8 229.6 289.0 221.1" stroke="#81cbd8" stroke-width="1.23" stroke-linecap="round" opacity="0.16" fill="none" />
<path d="M 277.9 228.6 Q 270.8 225.2 263.6 221.7" stroke="#a6dde9" stroke-width="1.38" stroke-linecap="round" opacity="0.20" fill="none" />
<path d="M 239.7 219.1 Q 232.8 224.1 225.9 229.2" stroke="#81cbd8" stroke-width="1.26" stroke-linecap="round" opacity="0.17" fill="none" />
<path d="M 285.4 288.1 Q 291.4 278.7 297.4 269.4" stroke="#81cbd8" stroke-width="1.56" stroke-linecap="round" opacity="0.18" fill="none" />
<path d="M 247.1 274.5 Q 255.0 274.9 262.9 275.3" stroke="#c6eef8" stroke-width="1.51" stroke-linecap="round" opacity="0.24" fill="none" />
<path d="M 305.2 241.2 Q 302.3 234.9 299.4 228.6" stroke="#81cbd8" stroke-width="1.77" stroke-linecap="round" opacity="0.18" fill="none" />
<path d="M 241.3 275.4 Q 248.3 277.8 255.2 280.3" stroke="#a6dde9" stroke-width="1.07" stroke-linecap="round" opacity="0.19" fill="none" />
    <line x1="256.0" y1="150.0" x2="256.0" y2="83.9" stroke="#142e36" stroke-width="1.8" opacity="0.18" />
    <line x1="347.8" y1="203.0" x2="405.1" y2="169.9" stroke="#142e36" stroke-width="1.8" opacity="0.18" />
    <line x1="347.8" y1="309.0" x2="405.1" y2="342.1" stroke="#142e36" stroke-width="1.8" opacity="0.18" />
    <line x1="256.0" y1="362.0" x2="256.0" y2="428.1" stroke="#142e36" stroke-width="1.8" opacity="0.18" />
    <line x1="164.2" y1="309.0" x2="106.9" y2="342.1" stroke="#142e36" stroke-width="1.8" opacity="0.18" />
    <line x1="164.2" y1="203.0" x2="106.9" y2="169.9" stroke="#142e36" stroke-width="1.8" opacity="0.18" />
  </g>
</svg>
