<svg xmlns="http://www.w3.org/2000/svg" width="512" height="512" viewBox="0 0 512 512">
  <defs>
    <clipPath id="hex-clip">
      <polygon points="48.0,256.0 152.0,75.9 360.0,75.9 464.0,256.0 360.0,436.1 152.0,436.1" />
    </clipPath>
    <linearGradient id="water-fill" x1="0%" y1="0%" x2="100%" y2="0%">
      <stop offset="0%" stop-color="#295f69" />
      <stop offset="20%" stop-color="#327884" />
      <stop offset="50%" stop-color="#5ea4af" />
      <stop offset="80%" stop-color="#327884" />
      <stop offset="100%" stop-color="#295f69" />
    </linearGradient>
    <linearGradient id="water-shade" x1="0%" y1="0%" x2="0%" y2="100%">
      <stop offset="0%" stop-color="#8dd6de" stop-opacity="0.38" />
      <stop offset="35%" stop-color="#ffffff" stop-opacity="0.06" />
      <stop offset="100%" stop-color="#11343e" stop-opacity="0.24" />
    </linearGradient>
  </defs>
  <g clip-path="url(#hex-clip)">
<ellipse cx="156.4" cy="426.1" rx="4.2" ry="3.5" fill="#8e857b" opacity="0.47" transform="rotate(106.9 156.4 426.1)" />
<ellipse cx="162.6" cy="397.4" rx="3.8" ry="2.9" fill="#ada295" opacity="0.51" transform="rotate(147.5 162.6 397.4)" />
<ellipse cx="162.9" cy="411.6" rx="3.5" ry="3.9" fill="#c4baac" opacity="0.33" transform="rotate(141.7 162.9 411.6)" />
<ellipse cx="165.6" cy="81.9" rx="3.0" ry="2.8" fill="#8e857b" opacity="0.46" transform="rotate(83.3 165.6 81.9)" />
<ellipse cx="354.3" cy="81.9" rx="4.4" ry="2.9" fill="#c4baac" opacity="0.41" transform="rotate(60.9 354.3 81.9)" />
<ellipse cx="70.0" cy="248.5" rx="3.8" ry="2.6" fill="#8e857b" opacity="0.31" transform="rotate(27.6 70.0 248.5)" />
<ellipse cx="89.1" cy="258.5" rx="4.2" ry="1.6" fill="#ddd4c7" opacity="0.52" transform="rotate(33.4 89.1 258.5)" />
<ellipse cx="432.9" cy="257.8" rx="5.5" ry="3.3" fill="#ada295" opacity="0.49" transform="rotate(143.5 432.9 257.8)" />
<ellipse cx="344.8" cy="86.2" rx="2.1" ry="3.0" fill="#c4baac" opacity="0.46" transform="rotate(159.4 344.8 86.2)" />
<ellipse cx="366.9" cy="85.5" rx="5.4" ry="2.1" fill="#8e857b" opacity="0.55" transform="rotate(114.6 366.9 85.5)" />
<ellipse cx="155.5" cy="415.1" rx="3.7" ry="2.2" fill="#ddd4c7" opacity="0.43" transform="rotate(30.7 155.5 415.1)" />
<ellipse cx="452.3" cy="240.5" rx="5.4" ry="3.6" fill="#c4baac" opacity="0.38" transform="rotate(11.5 452.3 240.5)" />
<ellipse cx="334.7" cy="89.5" rx="4.4" ry="3.5" fill="#c4baac" opacity="0.43" transform="rotate(84.5 334.7 89.5)" />
<ellipse cx="164.8" cy="428.1" rx="5.5" ry="3.3" fill="#ada295" opacity="0.54" transform="rotate(160.6 164.8 428.1)" />
<ellipse cx="354.3" cy="398.6" rx="2.4" ry="2.9" fill="#c4baac" opacity="0.31" transform="rotate(33.0 354.3 398.6)" />
<ellipse cx="143.1" cy="418.4" rx="3.2" ry="1.8" fill="#c4baac" opacity="0.33" transform="rotate(104.5 143.1 418.4)" />
<ellipse cx="356.7" cy="404.9" rx="5.2" ry="1.8" fill="#ada295" opacity="0.35" transform="rotate(50.3 356.7 404.9)" />
<ellipse cx="169.2" cy="428.7" rx="3.6" ry="2.0" fill="#ada295" opacity="0.56" transform="rotate(123.2 169.2 428.7)" />
<ellipse cx="79.6" cy="240.8" rx="2.1" ry="2.1" fill="#ddd4c7" opacity="0.47" transform="rotate(156.3 79.6 240.8)" />
<ellipse cx="66.9" cy="268.5" rx="2.0" ry="3.7" fill="#c4baac" opacity="0.34" transform="rotate(155.6 66.9 268.5)" />
<ellipse cx="170.7" cy="409.6" rx="2.3" ry="3.3" fill="#8e857b" opacity="0.33" transform="rotate(156.3 170.7 409.6)" />
<ellipse cx="179.5" cy="412.3" rx="3.6" ry="3.1" fill="#ddd4c7" opacity="0.33" transform="rotate(75.7 179.5 412.3)" />
<ellipse cx="91.0" cy="252.7" rx="2.4" ry="2.9" fill="#c4baac" opacity="0.39" transform="rotate(52.8 91.0 252.7)" />
<ellipse cx="464.1" cy="264.4" rx="2.9" ry="2.9" fill="#c4baac" opacity="0.55" transform="rotate(126.2 464.1 264.4)" />
<ellipse cx="341.1" cy="99.9" rx="4.3" ry="2.1" fill="#ddd4c7" opacity="0.54" transform="rotate(64.4 341.1 99.9)" />
<ellipse cx="80.8" cy="243.3" rx="3.0" ry="2.3" fill="#c4baac" opacity="0.53" transform="rotate(165.3 80.8 243.3)" />
<ellipse cx="339.7" cy="99.8" rx="3.6" ry="3.7" fill="#ddd4c7" opacity="0.39" transform="rotate(10.3 339.7 99.8)" />
<ellipse cx="157.2" cy="105.3" rx="3.3" ry="3.4" fill="#ada295" opacity="0.50" transform="rotate(99.3 157.2 105.3)" />
<ellipse cx="342.6" cy="100.5" rx="3.4" ry="1.7" fill="#ddd4c7" opacity="0.48" transform="rotate(170.3 342.6 100.5)" />
<ellipse cx="434.5" cy="252.5" rx="3.3" ry="2.4" fill="#ddd4c7" opacity="0.29" transform="rotate(64.0 434.5 252.5)" />
<ellipse cx="355.4" cy="421.0" rx="4.5" ry="2.5" fill="#ada295" opacity="0.46" transform="rotate(55.3 355.4 421.0)" />
<ellipse cx="442.5" cy="245.1" rx="4.8" ry="1.8" fill="#8e857b" opacity="0.28" transform="rotate(141.4 442.5 245.1)" />
<ellipse cx="346.0" cy="431.3" rx="4.8" ry="2.3" fill="#8e857b" opacity="0.29" transform="rotate(164.5 346.0 431.3)" />
<ellipse cx="57.7" cy="243.2" rx="5.4" ry="3.9" fill="#ddd4c7" opacity="0.45" transform="rotate(175.9 57.7 243.2)" />
<ellipse cx="159.1" cy="398.7" rx="4.8" ry="2.8" fill="#ddd4c7" opacity="0.50" transform="rotate(178.4 159.1 398.7)" />
<ellipse cx="154.0" cy="78.2" rx="2.1" ry="2.7" fill="#c4baac" opacity="0.41" transform="rotate(152.0 154.0 78.2)" />
<ellipse cx="348.2" cy="85.4" rx="3.5" ry="2.3" fill="#ddd4c7" opacity="0.45" transform="rotate(107.3 348.2 85.4)" />
<ellipse cx="455.9" cy="251.3" rx="3.5" ry="2.7" fill="#8e857b" opacity="0.58" transform="rotate(43.1 455.9 251.3)" />
<ellipse cx="446.7" cy="257.0" rx="2.4" ry="2.1" fill="#ada295" opacity="0.37" transform="rotate(169.5 446.7 257.0)" />
<ellipse cx="147.7" cy="83.1" rx="4.4" ry="3.3" fill="#8e857b" opacity="0.69" transform="rotate(179.3 147.7 83.1)" />
<ellipse cx="436.0" cy="274.1" rx="4.6" ry="1.7" fill="#8e857b" opacity="0.56" transform="rotate(62.1 436.0 274.1)" />
<ellipse cx="336.4" cy="101.2" rx="4.2" ry="3.8" fill="#8e857b" opacity="0.37" transform="rotate(21.4 336.4 101.2)" />
<ellipse cx="349.9" cy="400.7" rx="3.1" ry="3.7" fill="#c4baac" opacity="0.32" transform="rotate(141.0 349.9 400.7)" />
<ellipse cx="373.6" cy="101.7" rx="3.2" ry="2.0" fill="#ddd4c7" opacity="0.40" transform="rotate(95.6 373.6 101.7)" />
<ellipse cx="167.9" cy="402.3" rx="4.7" ry="2.9" fill="#ddd4c7" opacity="0.45" transform="rotate(85.9 167.9 402.3)" />
<ellipse cx="441.2" cy="284.2" rx="3.9" ry="2.9" fill="#ddd4c7" opacity="0.31" transform="rotate(79.4 441.2 284.2)" />
<ellipse cx="360.7" cy="435.9" rx="3.1" ry="2.6" fill="#ddd4c7" opacity="0.69" transform="rotate(30.7 360.7 435.9)" />
<ellipse cx="342.7" cy="80.2" rx="5.1" ry="3.8" fill="#ada295" opacity="0.65" transform="rotate(26.7 342.7 80.2)" />
<ellipse cx="149.2" cy="412.2" rx="3.1" ry="2.6" fill="#8e857b" opacity="0.67" transform="rotate(161.8 149.2 412.2)" />
<ellipse cx="146.3" cy="405.5" rx="4.0" ry="2.5" fill="#ada295" opacity="0.35" transform="rotate(112.8 146.3 405.5)" />
<ellipse cx="154.0" cy="435.6" rx="5.1" ry="3.8" fill="#c4baac" opacity="0.31" transform="rotate(33.9 154.0 435.6)" />
<ellipse cx="454.3" cy="245.4" rx="3.7" ry="3.2" fill="#8e857b" opacity="0.41" transform="rotate(24.6 454.3 245.4)" />
<ellipse cx="173.9" cy="81.4" rx="4.3" ry="3.4" fill="#ada295" opacity="0.46" transform="rotate(117.9 173.9 81.4)" />
<path d="M 387.6 428.5 Q 392.7 430.2 396.9 433.3" stroke="#63875e" stroke-width="2.4" stroke-linecap="round" opacity="0.32" fill="none" />
<path d="M 123.1 83.5 Q 117.1 84.1 112.2 85.3" stroke="#63875e" stroke-width="2.4" stroke-linecap="round" opacity="0.32" fill="none" />
<path d="M 57.4 218.7 Q 53.6 214.7 50.5 207.1" stroke="#63875e" stroke-width="2.4" stroke-linecap="round" opacity="0.32" fill="none" />
<path d="M 117.0 87.3 Q 109.6 86.1 103.6 83.9" stroke="#63875e" stroke-width="2.4" stroke-linecap="round" opacity="0.32" fill="none" />
<path d="M 478.3 284.6 Q 480.8 287.3 482.8 292.3" stroke="#63875e" stroke-width="2.4" stroke-linecap="round" opacity="0.32" fill="none" />
<path d="M 41.1 221.2 Q 35.3 217.7 30.6 211.3" stroke="#63875e" stroke-width="2.4" stroke-linecap="round" opacity="0.32" fill="none" />
<path d="M 446.0 297.5 Q 447.2 302.0 448.1 310.3" stroke="#63875e" stroke-width="2.4" stroke-linecap="round" opacity="0.32" fill="none" />
<path d="M 390.2 399.8 Q 397.8 401.1 404.0 403.5" stroke="#63875e" stroke-width="2.4" stroke-linecap="round" opacity="0.32" fill="none" />
<path d="M 64.8 212.5 Q 63.2 209.5 61.8 204.1" stroke="#63875e" stroke-width="2.4" stroke-linecap="round" opacity="0.32" fill="none" />
<path d="M 467.7 292.9 Q 472.3 295.8 476.1 301.1" stroke="#63875e" stroke-width="2.4" stroke-linecap="round" opacity="0.32" fill="none" />
<path d="M 394.7 409.4 Q 400.4 408.0 405.0 405.5" stroke="#63875e" stroke-width="2.4" stroke-linecap="round" opacity="0.32" fill="none" />
<path d="M 55.1 214.8 Q 52.3 211.1 50.0 204.2" stroke="#63875e" stroke-width="2.4" stroke-linecap="round" opacity="0.32" fill="none" />
    <path d="M 256.0 256.0 L 256.0 55.9 M 256.0 256.0 L 429.3 155.9 M 256.0 256.0 L 256.0 456.1 M 256.0 256.0 L 82.7 356.1" fill="none" stroke="url(#water-fill)" stroke-width="140.0" stroke-linecap="butt" />
    <circle cx="256.0" cy="256.0" r="140.0" fill="url(#water-fill)" />
    <path d="M 256.0 256.0 L 256.0 55.9 M 256.0 256.0 L 429.3 155.9 M 256.0 256.0 L 256.0 456.1 M 256.0 256.0 L 82.7 356.1" fill="none" stroke="url(#water-shade)" stroke-width="140.0" stroke-linecap="butt" />
    <circle cx="256.0" cy="256.0" r="140.0" fill="url(#water-shade)" />
    <circle cx="256.0" cy="256.0" r="140.0" fill="none" stroke="#d5f3f6" stroke-width="2" opacity="0.22" />
<path d="M 409.1 195.2 Q 397.6 174.2 385.2 153.8" stroke="#81cbd8" stroke-width="1.40" stroke-linecap="round" opacity="0.28" fill="none" />
<path d="M 389.9 204.1 Q 381.4 183.6 367.9 166.0" stroke="#a6dde9" stroke-width="1.33" stroke-linecap="round" opacity="0.16" fill="none" />
<path d="M 425.4 196.8 Q 406.8 169.0 392.0 138.9" stroke="#a6dde9" stroke-width="1.53" stroke-linecap="round" opacity="0.16" fill="none" />
<path d="M 96.5 313.3 Q 111.1 339.7 126.7 365.5" stroke="#c6eef8" stroke-width="1.25" stroke-linecap="round" opacity="0.29" fill="none" />
<path d="M 210.0 401.7 Q 256.0 404.8 302.0 401.7" stroke="#c6eef8" stroke-width="1.18" stroke-linecap="round" opacity="0.28" fill="none" />
<path d="M 234.8 399.8 Q 256.0 400.2 277.2 399.8" stroke="#c6eef8" stroke-width="1.65" stroke-linecap="round" opacity="0.24" fill="none" />
<path d="M 201.7 411.3 Q 256.0 410.0 310.3 411.3" stroke="#c6eef8" stroke-width="1.95" stroke-linecap="round" opacity="0.22" fill="none" />
<path d="M 215.6 434.2 Q 256.0 434.8 296.4 434.2" stroke="#a6dde9" stroke-width="1.37" stroke-linecap="round" opacity="0.29" fill="none" />
<path d="M 420.3 203.2 Q 403.2 171.0 383.9 140.1" stroke="#c6eef8" stroke-width="1.55" stroke-linecap="round" opacity="0.21" fill="none" />
<path d="M 88.3 295.2 Q 114.4 337.8 138.2 381.6" stroke="#81cbd8" stroke-width="1.41" stroke-linecap="round" opacity="0.25" fill="none" />
<path d="M 285.4 114.1 Q 256.0 113.7 226.6 114.1" stroke="#a6dde9" stroke-width="1.90" stroke-linecap="round" opacity="0.22" fill="none" />
<path d="M 423.6 197.5 Q 409.7 167.3 390.5 140.1" stroke="#c6eef8" stroke-width="1.60" stroke-linecap="round" opacity="0.25" fill="none" />
<path d="M 234.8 430.4 Q 256.0 429.0 277.2 430.4" stroke="#a6dde9" stroke-width="1.48" stroke-linecap="round" opacity="0.21" fill="none" />
<path d="M 295.1 77.8 Q 256.0 77.9 216.9 77.8" stroke="#81cbd8" stroke-width="1.88" stroke-linecap="round" opacity="0.20" fill="none" />
<path d="M 427.6 219.7 Q 403.1 171.1 373.2 125.6" stroke="#c6eef8" stroke-width="1.70" stroke-linecap="round" opacity="0.26" fill="none" />
<path d="M 81.3 313.6 Q 97.9 347.3 118.7 378.5" stroke="#81cbd8" stroke-width="1.06" stroke-linecap="round" opacity="0.28" fill="none" />
<path d="M 311.3 110.3 Q 256.0 112.1 200.7 110.3" stroke="#c6eef8" stroke-width="1.11" stroke-linecap="round" opacity="0.17" fill="none" />
<path d="M 277.5 77.8 Q 256.0 79.2 234.5 77.8" stroke="#81cbd8" stroke-width="1.92" stroke-linecap="round" opacity="0.21" fill="none" />
<path d="M 204.4 430.4 Q 256.0 432.8 307.6 430.4" stroke="#a6dde9" stroke-width="1.57" stroke-linecap="round" opacity="0.23" fill="none" />
<path d="M 304.5 104.5 Q 256.0 102.9 207.5 104.5" stroke="#a6dde9" stroke-width="1.31" stroke-linecap="round" opacity="0.20" fill="none" />
<path d="M 406.6 229.3 Q 377.7 185.8 354.5 138.9" stroke="#a6dde9" stroke-width="1.88" stroke-linecap="round" opacity="0.15" fill="none" />
<path d="M 79.8 299.6 Q 102.3 344.8 130.1 386.8" stroke="#a6dde9" stroke-width="1.28" stroke-linecap="round" opacity="0.17" fill="none" />
<path d="M 201.0 403.6 Q 256.0 402.6 311.0 403.6" stroke="#a6dde9" stroke-width="1.98" stroke-linecap="round" opacity="0.24" fill="none" />
<path d="M 226.3 413.2 Q 256.0 411.6 285.7 413.2" stroke="#a6dde9" stroke-width="1.12" stroke-linecap="round" opacity="0.20" fill="none" />
<path d="M 190.3 272.4 Q 195.1 283.1 199.8 293.7" stroke="#c6eef8" stroke-width="1.11" stroke-linecap="round" opacity="0.14" fill="none" />
<path d="M 189.9 270.0 Q 193.5 279.5 197.1 289.1" stroke="#81cbd8" stroke-width="1.64" stroke-linecap="round" opacity="0.23" fill="none" />
<path d="M 233.6 282.4 Q 247.8 286.3 261.9 290.1" stroke="#c6eef8" stroke-width="1.25" stroke-linecap="round" opacity="0.15" fill="none" />
<path d="M 301.9 193.1 Q 290.8 187.5 279.6 181.8" stroke="#c6eef8" stroke-width="1.01" stroke-linecap="round" opacity="0.23" fill="none" />
<path d="M 192.5 222.0 Q 189.2 230.4 186.0 238.9" stroke="#a6dde9" stroke-width="1.61" stroke-linecap="round" opacity="0.25" fill="none" />
<path d="M 208.6 225.0 Q 205.3 231.9 202.0 238.8" stroke="#81cbd8" stroke-width="1.74" stroke-linecap="round" opacity="0.13" fill="none" />
<path d="M 222.5 223.7 Q 216.8 233.6 211.1 243.6" stroke="#c6eef8" stroke-width="1.64" stroke-linecap="round" opacity="0.22" fill="none" />
<path d="M 253.8 170.1 Q 247.4 170.7 241.1 171.4" stroke="#81cbd8" stroke-width="1.61" stroke-linecap="round" opacity="0.21" fill="none" />
    <line x1="256.0" y1="110.0" x2="256.0" y2="83.9" stroke="#142e36" stroke-width="1.8" opacity="0.18" />
    <line x1="382.4" y1="183.0" x2="405.1" y2="169.9" stroke="#142e36" stroke-width="1.8" opacity="0.18" />
    <line x1="256.0" y1="402.0" x2="256.0" y2="428.1" stroke="#142e36" stroke-width="1.8" opacity="0.18" />
    <line x1="129.6" y1="329.0" x2="106.9" y2="342.1" stroke="#142e36" stroke-width="1.8" opacity="0.18" />
  </g>
</svg>
