<svg xmlns="http://www.w3.org/2000/svg" width="512" height="512" viewBox="0 0 512 512">
  <defs>
    <clipPath id="hex-clip">
      <polygon points="48.0,256.0 152.0,75.9 360.0,75.9 464.0,256.0 360.0,436.1 152.0,436.1" />
    </clipPath>
    <linearGradient id="water-fill" x1="0%" y1="0%" x2="100%" y2="0%">
      <stop offset="0%" stop-color="#295f69" />
      <stop offset="20%" stop-color="#327884" />
      <stop offset="50%" stop-color="#5ea4af" />
      <stop offset="80%" stop-color="#327884" />
      <stop offset="100%" stop-color="#295f69" />
    </linearGradient>
    <linearGradient id="water-shade" x1="0%" y1="0%" x2="0%" y2="100%">
      <stop offset="0%" stop-color="#8dd6de" stop-opacity="0.38" />
      <stop offset="35%" stop-color="#ffffff" stop-opacity="0.06" />
      <stop offset="100%" stop-color="#11343e" stop-opacity="0.24" />
    </linearGradient>
  </defs>
  <g clip-path="url(#hex-clip)">
<ellipse cx="461.9" cy="249.5" rx="3.2" ry="3.4" fill="#8e857b" opacity="0.54" transform="rotate(12.6 461.9 249.5)" />
<ellipse cx="164.4" cy="415.5" rx="3.5" ry="2.8" fill="#8e857b" opacity="0.46" transform="rotate(20.6 164.4 415.5)" />
<ellipse cx="348.3" cy="68.5" rx="2.4" ry="1.8" fill="#c4baac" opacity="0.43" transform="rotate(35.2 348.3 68.5)" />
<ellipse cx="159.7" cy="426.9" rx="4.7" ry="2.3" fill="#c4baac" opacity="0.69" transform="rotate(168.1 159.7 426.9)" />
<ellipse cx="454.5" cy="259.5" rx="4.8" ry="3.3" fill="#ada295" opacity="0.43" transform="rotate(170.5 454.5 259.5)" />
<ellipse cx="141.2" cy="111.3" rx="3.7" ry="2.2" fill="#8e857b" opacity="0.51" transform="rotate(173.9 141.2 111.3)" />
<ellipse cx="48.1" cy="245.9" rx="3.6" ry="3.2" fill="#ada295" opacity="0.48" transform="rotate(52.6 48.1 245.9)" />
<ellipse cx="368.1" cy="77.6" rx="2.8" ry="3.4" fill="#c4baac" opacity="0.49" transform="rotate(129.0 368.1 77.6)" />
<ellipse cx="356.4" cy="412.0" rx="3.0" ry="3.4" fill="#ada295" opacity="0.29" transform="rotate(99.9 356.4 412.0)" />
<ellipse cx="56.6" cy="265.2" rx="3.0" ry="3.1" fill="#8e857b" opacity="0.51" transform="rotate(121.5 56.6 265.2)" />
<ellipse cx="460.8" cy="259.3" rx="2.5" ry="4.0" fill="#8e857b" opacity="0.42" transform="rotate(16.4 460.8 259.3)" />
<ellipse cx="341.1" cy="407.6" rx="3.2" ry="2.6" fill="#8e857b" opacity="0.55" transform="rotate(31.4 341.1 407.6)" />
<ellipse cx="368.5" cy="86.5" rx="3.1" ry="3.7" fill="#ddd4c7" opacity="0.44" transform="rotate(140.0 368.5 86.5)" />
<ellipse cx="347.7" cy="431.3" rx="2.7" ry="2.2" fill="#ddd4c7" opacity="0.45" transform="rotate(105.3 347.7 431.3)" />
<ellipse cx="148.4" cy="82.8" rx="3.5" ry="2.5" fill="#8e857b" opacity="0.70" transform="rotate(161.9 148.4 82.8)" />
<ellipse cx="344.1" cy="80.7" rx="2.9" ry="1.9" fill="#c4baac" opacity="0.55" transform="rotate(118.7 344.1 80.7)" />
<ellipse cx="167.0" cy="427.7" rx="3.4" ry="3.8" fill="#ddd4c7" opacity="0.55" transform="rotate(72.7 167.0 427.7)" />
<ellipse cx="176.6" cy="433.6" rx="2.6" ry="2.3" fill="#8e857b" opacity="0.70" transform="rotate(31.9 176.6 433.6)" />
<ellipse cx="363.1" cy="403.7" rx="3.6" ry="1.7" fill="#8e857b" opacity="0.70" transform="rotate(90.1 363.1 403.7)" />
<ellipse cx="450.3" cy="266.8" rx="3.3" ry="2.2" fill="#c4baac" opacity="0.50" transform="rotate(176.5 450.3 266.8)" />
<ellipse cx="338.9" cy="416.3" rx="2.7" ry="3.3" fill="#ddd4c7" opacity="0.33" transform="rotate(113.8 338.9 416.3)" />
<ellipse cx="359.6" cy="418.6" rx="3.6" ry="3.4" fill="#c4baac" opacity="0.70" transform="rotate(57.1 359.6 418.6)" />
<ellipse cx="469.1" cy="266.4" rx="4.5" ry="4.0" fill="#c4baac" opacity="0.34" transform="rotate(25.7 469.1 266.4)" />
<ellipse cx="363.0" cy="434.0" rx="3.5" ry="2.2" fill="#8e857b" opacity="0.43" transform="rotate(50.4 363.0 434.0)" />
<ellipse cx="157.5" cy="90.6" rx="2.9" ry="3.6" fill="#ada295" opacity="0.61" transform="rotate(41.7 157.5 90.6)" />
<ellipse cx="171.2" cy="431.5" rx="3.1" ry="1.9" fill="#8e857b" opacity="0.41" transform="rotate(14.0 171.2 431.5)" />
<ellipse cx="346.3" cy="408.8" rx="2.9" ry="3.8" fill="#8e857b" opacity="0.63" transform="rotate(118.2 346.3 408.8)" />
<ellipse cx="371.1" cy="423.0" rx="5.6" ry="2.8" fill="#8e857b" opacity="0.55" transform="rotate(90.4 371.1 423.0)" />
<ellipse cx="45.1" cy="251.5" rx="5.6" ry="2.4" fill="#ddd4c7" opacity="0.62" transform="rotate(126.5 45.1 251.5)" />
<ellipse cx="164.1" cy="434.1" rx="4.7" ry="1.8" fill="#c4baac" opacity="0.69" transform="rotate(119.5 164.1 434.1)" />
<ellipse cx="449.5" cy="243.1" rx="4.0" ry="3.3" fill="#8e857b" opacity="0.67" transform="rotate(58.4 449.5 243.1)" />
<ellipse cx="352.9" cy="113.1" rx="4.6" ry="3.5" fill="#8e857b" opacity="0.47" transform="rotate(167.8 352.9 113.1)" />
<ellipse cx="333.4" cy="106.6" rx="2.3" ry="2.4" fill="#ddd4c7" opacity="0.34" transform="rotate(93.6 333.4 106.6)" />
<ellipse cx="145.6" cy="430.8" rx="4.5" ry="3.6" fill="#ada295" opacity="0.34" transform="rotate(70.1 145.6 430.8)" />
<ellipse cx="330.5" cy="91.4" rx="3.6" ry="3.9" fill="#ada295" opacity="0.40" transform="rotate(169.4 330.5 91.4)" />
<ellipse cx="330.5" cy="416.9" rx="2.1" ry="2.7" fill="#8e857b" opacity="0.59" transform="rotate(112.5 330.5 416.9)" />
<ellipse cx="343.8" cy="104.6" rx="5.5" ry="2.2" fill="#ddd4c7" opacity="0.61" transform="rotate(83.5 343.8 104.6)" />
<ellipse cx="171.9" cy="438.9" rx="4.2" ry="2.7" fill="#c4baac" opacity="0.59" transform="rotate(156.6 171.9 438.9)" />
<ellipse cx="346.2" cy="430.3" rx="2.6" ry="3.9" fill="#8e857b" opacity="0.57" transform="rotate(132.3 346.2 430.3)" />
<ellipse cx="368.8" cy="428.2" rx="3.7" ry="2.6" fill="#ada295" opacity="0.59" transform="rotate(159.4 368.8 428.2)" />
<ellipse cx="170.4" cy="422.7" rx="4.9" ry="2.5" fill="#c4baac" opacity="0.56" transform="rotate(171.5 170.4 422.7)" />
<ellipse cx="425.8" cy="253.4" rx="4.6" ry="1.9" fill="#ada295" opacity="0.54" transform="rotate(30.5 425.8 253.4)" />
<ellipse cx="57.8" cy="236.9" rx="4.8" ry="2.1" fill="#c4baac" opacity="0.66" transform="rotate(94.7 57.8 236.9)" />
<ellipse cx="168.3" cy="119.8" rx="5.0" ry="2.9" fill="#ada295" opacity="0.53" transform="rotate(176.8 168.3 119.8)" />
<ellipse cx="333.4" cy="114.6" rx="3.2" ry="3.4" fill="#ddd4c7" opacity="0.29" transform="rotate(8.6 333.4 114.6)" />
<ellipse cx="161.7" cy="396.5" rx="3.8" ry="3.9" fill="#ddd4c7" opacity="0.43" transform="rotate(119.8 161.7 396.5)" />
<ellipse cx="448.1" cy="260.4" rx="5.5" ry="2.9" fill="#c4baac" opacity="0.53" transform="rotate(173.1 448.1 260.4)" />
<ellipse cx="441.9" cy="263.2" rx="4.9" ry="2.3" fill="#ddd4c7" opacity="0.44" transform="rotate(36.5 441.9 263.2)" />
<ellipse cx="165.9" cy="118.6" rx="2.3" ry="2.8" fill="#8e857b" opacity="0.46" transform="rotate(74.6 165.9 118.6)" />
<ellipse cx="139.9" cy="85.0" rx="4.2" ry="2.4" fill="#ada295" opacity="0.53" transform="rotate(90.0 139.9 85.0)" />
<ellipse cx="456.3" cy="260.2" rx="4.0" ry="2.7" fill="#c4baac" opacity="0.36" transform="rotate(24.8 456.3 260.2)" />
<ellipse cx="444.7" cy="261.5" rx="2.7" ry="3.1" fill="#c4baac" opacity="0.49" transform="rotate(54.7 444.7 261.5)" />
<ellipse cx="177.1" cy="419.2" rx="3.8" ry="3.9" fill="#c4baac" opacity="0.58" transform="rotate(169.0 177.1 419.2)" />
<ellipse cx="457.1" cy="253.1" rx="2.9" ry="2.6" fill="#ada295" opacity="0.33" transform="rotate(12.0 457.1 253.1)" />
<ellipse cx="343.6" cy="117.2" rx="3.3" ry="3.0" fill="#c4baac" opacity="0.30" transform="rotate(114.0 343.6 117.2)" />
<ellipse cx="156.3" cy="112.1" rx="2.2" ry="3.6" fill="#8e857b" opacity="0.50" transform="rotate(35.8 156.3 112.1)" />
<ellipse cx="434.7" cy="264.6" rx="3.9" ry="4.0" fill="#ddd4c7" opacity="0.30" transform="rotate(28.5 434.7 264.6)" />
<ellipse cx="70.9" cy="229.4" rx="4.6" ry="2.7" fill="#ada295" opacity="0.40" transform="rotate(168.9 70.9 229.4)" />
<ellipse cx="170.0" cy="71.5" rx="4.5" ry="1.7" fill="#8e857b" opacity="0.55" transform="rotate(77.5 170.0 71.5)" />
<ellipse cx="154.6" cy="84.8" rx="2.6" ry="2.7" fill="#c4baac" opacity="0.30" transform="rotate(161.0 154.6 84.8)" />
<ellipse cx="451.4" cy="252.4" rx="2.1" ry="3.8" fill="#ada295" opacity="0.29" transform="rotate(58.8 451.4 252.4)" />
<ellipse cx="440.1" cy="265.1" rx="3.2" ry="3.8" fill="#ddd4c7" opacity="0.39" transform="rotate(35.4 440.1 265.1)" />
<ellipse cx="444.6" cy="255.1" rx="2.3" ry="2.8" fill="#ddd4c7" opacity="0.44" transform="rotate(173.8 444.6 255.1)" />
<ellipse cx="171.1" cy="98.5" rx="3.6" ry="3.0" fill="#ddd4c7" opacity="0.31" transform="rotate(140.8 171.1 98.5)" />
<ellipse cx="159.8" cy="98.5" rx="5.0" ry="3.3" fill="#c4baac" opacity="0.41" transform="rotate(120.8 159.8 98.5)" />
<ellipse cx="165.1" cy="420.4" rx="5.5" ry="3.9" fill="#8e857b" opacity="0.47" transform="rotate(113.2 165.1 420.4)" />
<path d="M 53.4 215.6 Q 52.1 212.7 51.0 207.1" stroke="#63875e" stroke-width="2.4" stroke-linecap="round" opacity="0.32" fill="none" />
<path d="M 60.8 217.1 Q 59.2 213.8 57.9 207.6" stroke="#63875e" stroke-width="2.4" stroke-linecap="round" opacity="0.32" fill="none" />
<path d="M 36.8 221.2 Q 35.4 218.6 34.3 213.8" stroke="#63875e" stroke-width="2.4" stroke-linecap="round" opacity="0.32" fill="none" />
<path d="M 63.6 214.3 Q 59.5 210.7 56.2 203.9" stroke="#63875e" stroke-width="2.4" stroke-linecap="round" opacity="0.32" fill="none" />
<path d="M 54.4 213.6 Q 49.7 209.4 45.9 201.6" stroke="#63875e" stroke-width="2.4" stroke-linecap="round" opacity="0.32" fill="none" />
<path d="M 39.8 226.5 Q 34.0 222.4 29.3 214.7" stroke="#63875e" stroke-width="2.4" stroke-linecap="round" opacity="0.32" fill="none" />
<path d="M 123.0 77.8 Q 117.8 78.8 113.6 80.8" stroke="#63875e" stroke-width="2.4" stroke-linecap="round" opacity="0.32" fill="none" />
<path d="M 115.2 106.4 Q 109.0 107.3 104.0 109.0" stroke="#63875e" stroke-width="2.4" stroke-linecap="round" opacity="0.32" fill="none" />
<path d="M 122.0 116.0 Q 114.6 114.6 108.6 111.9" stroke="#63875e" stroke-width="2.4" stroke-linecap="round" opacity="0.32" fill="none" />
<path d="M 120.4 100.7 Q 114.4 99.3 109.5 96.6" stroke="#63875e" stroke-width="2.4" stroke-linecap="round" opacity="0.32" fill="none" />
<path d="M 35.9 223.6 Q 30.0 220.5 25.1 214.7" stroke="#63875e" stroke-width="2.4" stroke-linecap="round" opacity="0.32" fill="none" />
<path d="M 68.6 211.4 Q 67.2 207.8 66.1 201.0" stroke="#63875e" stroke-width="2.4" stroke-linecap="round" opacity="0.32" fill="none" />
<path d="M 65.0 212.8 Q 61.3 211.3 58.3 208.4" stroke="#63875e" stroke-width="2.4" stroke-linecap="round" opacity="0.32" fill="none" />
<path d="M 117.2 85.4 Q 110.0 85.7 104.0 86.3" stroke="#63875e" stroke-width="2.4" stroke-linecap="round" opacity="0.32" fill="none" />
<path d="M 59.4 210.8 Q 56.4 208.8 53.9 205.0" stroke="#63875e" stroke-width="2.4" stroke-linecap="round" opacity="0.32" fill="none" />
    <path d="M 256.0 256.0 L 256.0 55.9 M 256.0 256.0 L 429.3 155.9 M 256.0 256.0 L 429.3 356.1 M 256.0 256.0 L 256.0 456.1 M 256.0 256.0 L 82.7 356.1" fill="none" stroke="url(#water-fill)" stroke-width="140.0" stroke-linecap="butt" />
    <circle cx="256.0" cy="256.0" r="140.0" fill="url(#water-fill)" />
    <path d="M 256.0 256.0 L 256.0 55.9 M 256.0 256.0 L 429.3 155.9 M 256.0 256.0 L 429.3 356.1 M 256.0 256.0 L 256.0 456.1 M 256.0 256.0 L 82.7 356.1" fill="none" stroke="url(#water-shade)" stroke-width="140.0" stroke-linecap="butt" />
    <circle cx="256.0" cy="256.0" r="140.0" fill="url(#water-shade)" />
    <circle cx="256.0" cy="256.0" r="140.0" fill="none" stroke="#d5f3f6" stroke-width="2" opacity="0.22" />
<path d="M 201.5 434.2 Q 256.0 436.7 310.5 434.2" stroke="#81cbd8" stroke-width="1.23" stroke-linecap="round" opacity="0.19" fill="none" />
<path d="M 428.5 213.6 Q 404.7 170.2 379.0 127.9" stroke="#81cbd8" stroke-width="1.99" stroke-linecap="round" opacity="0.18" fill="none" />
<path d="M 116.5 302.1 Q 131.9 327.7 146.4 353.7" stroke="#a6dde9" stroke-width="1.53" stroke-linecap="round" opacity="0.19" fill="none" />
<path d="M 278.0 104.5 Q 256.0 106.2 234.0 104.5" stroke="#c6eef8" stroke-width="1.62" stroke-linecap="round" opacity="0.28" fill="none" />
<path d="M 227.5 411.3 Q 256.0 407.9 284.5 411.3" stroke="#c6eef8" stroke-width="1.59" stroke-linecap="round" opacity="0.17" fill="none" />
<path d="M 206.1 430.4 Q 256.0 431.7 305.9 430.4" stroke="#c6eef8" stroke-width="1.95" stroke-linecap="round" opacity="0.20" fill="none" />
<path d="M 352.4 372.8 Q 378.3 326.6 405.4 281.1" stroke="#c6eef8" stroke-width="1.37" stroke-linecap="round" opacity="0.19" fill="none" />
<path d="M 297.7 95.0 Q 256.0 98.2 214.3 95.0" stroke="#81cbd8" stroke-width="1.02" stroke-linecap="round" opacity="0.21" fill="none" />
<path d="M 296.4 77.8 Q 256.0 78.7 215.6 77.8" stroke="#81cbd8" stroke-width="1.83" stroke-linecap="round" opacity="0.24" fill="none" />
<path d="M 284.6 112.2 Q 256.0 116.0 227.4 112.2" stroke="#a6dde9" stroke-width="1.53" stroke-linecap="round" opacity="0.24" fill="none" />
<path d="M 307.7 85.4 Q 256.0 85.3 204.3 85.4" stroke="#81cbd8" stroke-width="1.61" stroke-linecap="round" opacity="0.19" fill="none" />
<path d="M 428.9 206.7 Q 408.8 167.8 385.2 130.9" stroke="#c6eef8" stroke-width="1.41" stroke-linecap="round" opacity="0.21" fill="none" />
<path d="M 90.2 290.8 Q 114.3 337.8 142.9 382.2" stroke="#a6dde9" stroke-width="1.32" stroke-linecap="round" opacity="0.20" fill="none" />
<path d="M 88.3 318.1 Q 105.5 342.9 118.4 370.2" stroke="#81cbd8" stroke-width="1.79" stroke-linecap="round" opacity="0.20" fill="none" />
<path d="M 421.9 190.8 Q 405.5 169.7 395.4 144.9" stroke="#c6eef8" stroke-width="1.36" stroke-linecap="round" opacity="0.16" fill="none" />
<path d="M 378.6 373.4 Q 396.1 336.9 419.0 303.4" stroke="#a6dde9" stroke-width="1.63" stroke-linecap="round" opacity="0.17" fill="none" />
<path d="M 114.7 310.3 Q 128.3 329.7 138.3 351.2" stroke="#a6dde9" stroke-width="1.05" stroke-linecap="round" opacity="0.19" fill="none" />
<path d="M 389.3 358.7 Q 403.1 340.9 411.6 320.1" stroke="#c6eef8" stroke-width="1.19" stroke-linecap="round" opacity="0.19" fill="none" />
<path d="M 366.0 357.0 Q 381.9 328.7 398.5 300.7" stroke="#a6dde9" stroke-width="1.69" stroke-linecap="round" opacity="0.27" fill="none" />
<path d="M 381.7 379.4 Q 402.5 340.6 425.7 303.2" stroke="#a6dde9" stroke-width="1.60" stroke-linecap="round" opacity="0.29" fill="none" />
<path d="M 234.0 407.5 Q 256.0 404.8 278.0 407.5" stroke="#a6dde9" stroke-width="1.51" stroke-linecap="round" opacity="0.18" fill="none" />
<path d="M 72.6 298.7 Q 101.5 345.2 127.4 393.5" stroke="#a6dde9" stroke-width="1.17" stroke-linecap="round" opacity="0.16" fill="none" />
<path d="M 100.8 305.5 Q 115.4 337.2 135.6 365.6" stroke="#a6dde9" stroke-width="1.93" stroke-linecap="round" opacity="0.30" fill="none" />
<path d="M 393.1 363.4 Q 405.7 342.4 417.6 321.1" stroke="#c6eef8" stroke-width="1.68" stroke-linecap="round" opacity="0.19" fill="none" />
<path d="M 102.0 292.1 Q 124.5 331.9 147.7 371.3" stroke="#81cbd8" stroke-width="1.23" stroke-linecap="round" opacity="0.18" fill="none" />
<path d="M 221.6 432.3 Q 256.0 429.5 290.4 432.3" stroke="#a6dde9" stroke-width="1.74" stroke-linecap="round" opacity="0.26" fill="none" />
<path d="M 86.9 308.0 Q 110.0 340.3 126.4 376.5" stroke="#a6dde9" stroke-width="1.75" stroke-linecap="round" opacity="0.30" fill="none" />
<path d="M 116.1 301.4 Q 128.1 329.8 146.7 354.4" stroke="#a6dde9" stroke-width="1.94" stroke-linecap="round" opacity="0.29" fill="none" />
<path d="M 372.2 361.5 Q 386.1 331.1 405.5 303.8" stroke="#c6eef8" stroke-width="1.63" stroke-linecap="round" opacity="0.20" fill="none" />
<path d="M 120.2 304.6 Q 129.9 328.8 146.0 349.3" stroke="#a6dde9" stroke-width="1.12" stroke-linecap="round" opacity="0.16" fill="none" />
<path d="M 224.8 268.9 Q 229.7 275.5 234.6 282.0" stroke="#81cbd8" stroke-width="1.61" stroke-linecap="round" opacity="0.22" fill="none" />
<path d="M 175.3 276.1 Q 180.2 287.9 185.2 299.6" stroke="#c6eef8" stroke-width="1.58" stroke-linecap="round" opacity="0.21" fill="none" />
<path d="M 266.8 297.0 Q 275.6 292.3 284.3 287.6" stroke="#a6dde9" stroke-width="1.53" stroke-linecap="round" opacity="0.12" fill="none" />
<path d="M 269.5 293.6 Q 278.7 286.9 287.9 280.1" stroke="#81cbd8" stroke-width="1.07" stroke-linecap="round" opacity="0.24" fill="none" />
<path d="M 263.2 283.9 Q 270.3 279.7 277.3 275.4" stroke="#81cbd8" stroke-width="1.52" stroke-linecap="round" opacity="0.18" fill="none" />
<path d="M 254.5 280.9 Q 265.3 275.8 276.2 270.7" stroke="#a6dde9" stroke-width="1.78" stroke-linecap="round" opacity="0.22" fill="none" />
<path d="M 311.5 262.2 Q 310.4 250.9 309.4 239.7" stroke="#a6dde9" stroke-width="1.06" stroke-linecap="round" opacity="0.22" fill="none" />
<path d="M 291.8 229.5 Q 283.7 222.8 275.6 216.0" stroke="#c6eef8" stroke-width="1.49" stroke-linecap="round" opacity="0.24" fill="none" />
<path d="M 290.4 265.6 Q 290.0 254.6 289.6 243.7" stroke="#a6dde9" stroke-width="1.38" stroke-linecap="round" opacity="0.16" fill="none" />
<path d="M 306.5 294.4 Q 311.9 283.5 317.3 272.6" stroke="#a6dde9" stroke-width="1.41" stroke-linecap="round" opacity="0.25" fill="none" />
    <line x1="256.0" y1="110.0" x2="256.0" y2="83.9" stroke="#142e36" stroke-width="1.8" opacity="0.18" />
    <line x1="382.4" y1="183.0" x2="405.1" y2="169.9" stroke="#142e36" stroke-width="1.8" opacity="0.18" />
    <line x1="382.4" y1="329.0" x2="405.1" y2="342.1" stroke="#142e36" stroke-width="1.8" opacity="0.18" />
    <line x1="256.0" y1="402.0" x2="256.0" y2="428.1" stroke="#142e36" stroke-width="1.8" opacity="0.18" />
    <line x1="129.6" y1="329.0" x2="106.9" y2="342.1" stroke="#142e36" stroke-width="1.8" opacity="0.18" />
  </g>
</svg>
