<svg xmlns="http://www.w3.org/2000/svg" width="512" height="512" viewBox="0 0 512 512">
  <defs>
    <clipPath id="hex-clip">
      <polygon points="48.0,256.0 152.0,75.9 360.0,75.9 464.0,256.0 360.0,436.1 152.0,436.1" />
    </clipPath>
    <linearGradient id="water-fill" x1="0%" y1="0%" x2="100%" y2="0%">
      <stop offset="0%" stop-color="#295f69" />
      <stop offset="20%" stop-color="#327884" />
      <stop offset="50%" stop-color="#5ea4af" />
      <stop offset="80%" stop-color="#327884" />
      <stop offset="100%" stop-color="#295f69" />
    </linearGradient>
    <linearGradient id="water-shade" x1="0%" y1="0%" x2="0%" y2="100%">
      <stop offset="0%" stop-color="#8dd6de" stop-opacity="0.38" />
      <stop offset="35%" stop-color="#ffffff" stop-opacity="0.06" />
      <stop offset="100%" stop-color="#11343e" stop-opacity="0.24" />
    </linearGradient>
  </defs>
  <g clip-path="url(#hex-clip)">
<ellipse cx="318.1" cy="431.2" rx="4.2" ry="3.6" fill="#ddd4c7" opacity="0.43" transform="rotate(82.7 318.1 431.2)" />
<ellipse cx="182.2" cy="424.9" rx="2.0" ry="3.7" fill="#8e857b" opacity="0.57" transform="rotate(5.6 182.2 424.9)" />
<ellipse cx="189.0" cy="409.7" rx="4.9" ry="3.6" fill="#ddd4c7" opacity="0.67" transform="rotate(135.2 189.0 409.7)" />
<ellipse cx="334.7" cy="94.0" rx="3.4" ry="1.6" fill="#8e857b" opacity="0.44" transform="rotate(91.1 334.7 94.0)" />
<ellipse cx="399.6" cy="275.9" rx="2.2" ry="1.7" fill="#ddd4c7" opacity="0.53" transform="rotate(109.7 399.6 275.9)" />
<ellipse cx="324.7" cy="412.2" rx="3.9" ry="3.6" fill="#ddd4c7" opacity="0.31" transform="rotate(28.5 324.7 412.2)" />
<ellipse cx="177.5" cy="387.9" rx="3.2" ry="2.6" fill="#ada295" opacity="0.69" transform="rotate(162.5 177.5 387.9)" />
<ellipse cx="392.4" cy="270.4" rx="4.1" ry="1.8" fill="#ddd4c7" opacity="0.34" transform="rotate(132.9 392.4 270.4)" />
<ellipse cx="336.3" cy="368.0" rx="3.8" ry="1.5" fill="#c4baac" opacity="0.43" transform="rotate(83.4 336.3 368.0)" />
<ellipse cx="328.2" cy="112.6" rx="4.6" ry="1.6" fill="#8e857b" opacity="0.63" transform="rotate(160.4 328.2 112.6)" />
<ellipse cx="328.2" cy="385.7" rx="5.3" ry="1.8" fill="#8e857b" opacity="0.29" transform="rotate(104.0 328.2 385.7)" />
<ellipse cx="330.5" cy="84.1" rx="4.7" ry="2.3" fill="#ddd4c7" opacity="0.53" transform="rotate(151.0 330.5 84.1)" />
<ellipse cx="172.0" cy="142.9" rx="3.5" ry="3.5" fill="#c4baac" opacity="0.34" transform="rotate(170.0 172.0 142.9)" />
<ellipse cx="354.3" cy="119.7" rx="5.0" ry="2.1" fill="#ddd4c7" opacity="0.61" transform="rotate(7.1 354.3 119.7)" />
<ellipse cx="316.1" cy="127.3" rx="3.0" ry="3.0" fill="#c4baac" opacity="0.35" transform="rotate(147.8 316.1 127.3)" />
<ellipse cx="387.7" cy="262.7" rx="3.7" ry="1.5" fill="#ddd4c7" opacity="0.59" transform="rotate(91.7 387.7 262.7)" />
<ellipse cx="386.6" cy="273.9" rx="2.9" ry="2.0" fill="#ada295" opacity="0.59" transform="rotate(60.6 386.6 273.9)" />
<ellipse cx="339.4" cy="387.2" rx="3.7" ry="3.8" fill="#c4baac" opacity="0.69" transform="rotate(52.0 339.4 387.2)" />
<ellipse cx="185.7" cy="420.7" rx="2.4" ry="1.8" fill="#ada295" opacity="0.44" transform="rotate(103.2 185.7 420.7)" />
<ellipse cx="167.6" cy="360.5" rx="4.2" ry="2.3" fill="#ada295" opacity="0.38" transform="rotate(83.3 167.6 360.5)" />
<ellipse cx="421.4" cy="258.6" rx="4.2" ry="2.4" fill="#ada295" opacity="0.49" transform="rotate(76.2 421.4 258.6)" />
<ellipse cx="336.8" cy="388.5" rx="4.8" ry="2.0" fill="#8e857b" opacity="0.68" transform="rotate(83.1 336.8 388.5)" />
<ellipse cx="168.5" cy="108.5" rx="2.2" ry="2.6" fill="#c4baac" opacity="0.52" transform="rotate(1.9 168.5 108.5)" />
<ellipse cx="440.0" cy="239.9" rx="5.2" ry="2.8" fill="#ddd4c7" opacity="0.67" transform="rotate(45.0 440.0 239.9)" />
<ellipse cx="191.0" cy="356.8" rx="3.8" ry="2.7" fill="#ddd4c7" opacity="0.42" transform="rotate(170.9 191.0 356.8)" />
<ellipse cx="407.8" cy="248.3" rx="5.6" ry="3.0" fill="#c4baac" opacity="0.37" transform="rotate(139.4 407.8 248.3)" />
<ellipse cx="337.5" cy="70.2" rx="2.3" ry="1.7" fill="#8e857b" opacity="0.54" transform="rotate(178.5 337.5 70.2)" />
<ellipse cx="325.7" cy="420.3" rx="4.4" ry="3.5" fill="#ada295" opacity="0.47" transform="rotate(150.1 325.7 420.3)" />
<ellipse cx="339.1" cy="125.2" rx="4.5" ry="1.8" fill="#c4baac" opacity="0.40" transform="rotate(20.3 339.1 125.2)" />
<ellipse cx="392.8" cy="277.2" rx="5.5" ry="3.6" fill="#8e857b" opacity="0.36" transform="rotate(24.8 392.8 277.2)" />
<ellipse cx="191.8" cy="428.8" rx="2.7" ry="1.9" fill="#8e857b" opacity="0.38" transform="rotate(109.4 191.8 428.8)" />
<ellipse cx="426.2" cy="230.2" rx="3.0" ry="3.0" fill="#c4baac" opacity="0.64" transform="rotate(100.9 426.2 230.2)" />
<ellipse cx="338.2" cy="116.9" rx="2.1" ry="1.7" fill="#8e857b" opacity="0.52" transform="rotate(1.9 338.2 116.9)" />
<ellipse cx="180.0" cy="427.7" rx="4.0" ry="1.8" fill="#c4baac" opacity="0.46" transform="rotate(63.6 180.0 427.7)" />
<ellipse cx="323.0" cy="99.3" rx="2.8" ry="2.8" fill="#c4baac" opacity="0.67" transform="rotate(164.6 323.0 99.3)" />
<ellipse cx="344.8" cy="138.9" rx="4.4" ry="3.8" fill="#8e857b" opacity="0.63" transform="rotate(101.7 344.8 138.9)" />
<ellipse cx="346.2" cy="104.4" rx="3.5" ry="3.5" fill="#c4baac" opacity="0.29" transform="rotate(93.6 346.2 104.4)" />
<ellipse cx="374.1" cy="263.4" rx="2.6" ry="2.4" fill="#ddd4c7" opacity="0.64" transform="rotate(34.9 374.1 263.4)" />
<ellipse cx="174.3" cy="365.0" rx="2.1" ry="3.4" fill="#ada295" opacity="0.51" transform="rotate(122.6 174.3 365.0)" />
<ellipse cx="418.1" cy="262.2" rx="3.6" ry="2.0" fill="#8e857b" opacity="0.34" transform="rotate(141.6 418.1 262.2)" />
<ellipse cx="324.6" cy="126.6" rx="4.7" ry="1.7" fill="#ddd4c7" opacity="0.57" transform="rotate(44.2 324.6 126.6)" />
<ellipse cx="192.0" cy="98.4" rx="3.6" ry="2.3" fill="#c4baac" opacity="0.48" transform="rotate(90.9 192.0 98.4)" />
<ellipse cx="323.0" cy="379.4" rx="3.0" ry="3.4" fill="#c4baac" opacity="0.69" transform="rotate(115.2 323.0 379.4)" />
<ellipse cx="330.0" cy="427.2" rx="4.4" ry="3.1" fill="#ddd4c7" opacity="0.43" transform="rotate(2.7 330.0 427.2)" />
<ellipse cx="171.7" cy="413.3" rx="2.3" ry="2.0" fill="#c4baac" opacity="0.38" transform="rotate(131.5 171.7 413.3)" />
<ellipse cx="189.0" cy="132.8" rx="3.0" ry="3.8" fill="#ada295" opacity="0.46" transform="rotate(73.0 189.0 132.8)" />
<ellipse cx="343.8" cy="362.8" rx="3.2" ry="3.5" fill="#ddd4c7" opacity="0.61" transform="rotate(42.2 343.8 362.8)" />
<ellipse cx="330.7" cy="373.4" rx="4.3" ry="2.7" fill="#c4baac" opacity="0.63" transform="rotate(63.9 330.7 373.4)" />
<ellipse cx="437.1" cy="240.2" rx="4.2" ry="2.5" fill="#ddd4c7" opacity="0.46" transform="rotate(92.6 437.1 240.2)" />
<ellipse cx="417.8" cy="234.1" rx="3.5" ry="2.9" fill="#ddd4c7" opacity="0.69" transform="rotate(150.8 417.8 234.1)" />
<ellipse cx="356.4" cy="96.7" rx="2.2" ry="3.4" fill="#c4baac" opacity="0.60" transform="rotate(108.2 356.4 96.7)" />
<ellipse cx="327.5" cy="85.6" rx="5.5" ry="1.9" fill="#8e857b" opacity="0.31" transform="rotate(109.3 327.5 85.6)" />
<ellipse cx="389.9" cy="254.0" rx="4.0" ry="2.5" fill="#8e857b" opacity="0.46" transform="rotate(161.6 389.9 254.0)" />
<ellipse cx="330.2" cy="384.7" rx="5.2" ry="3.9" fill="#8e857b" opacity="0.30" transform="rotate(137.3 330.2 384.7)" />
<ellipse cx="336.9" cy="394.7" rx="4.3" ry="2.2" fill="#ada295" opacity="0.43" transform="rotate(71.5 336.9 394.7)" />
<ellipse cx="167.0" cy="154.2" rx="2.9" ry="1.4" fill="#ada295" opacity="0.53" transform="rotate(22.3 167.0 154.2)" />
<ellipse cx="413.5" cy="245.1" rx="3.8" ry="1.6" fill="#ada295" opacity="0.68" transform="rotate(143.5 413.5 245.1)" />
<ellipse cx="320.3" cy="380.8" rx="2.7" ry="2.4" fill="#ada295" opacity="0.37" transform="rotate(9.7 320.3 380.8)" />
<ellipse cx="331.1" cy="135.1" rx="3.8" ry="1.8" fill="#8e857b" opacity="0.28" transform="rotate(176.9 331.1 135.1)" />
<ellipse cx="453.1" cy="235.9" rx="3.6" ry="2.2" fill="#8e857b" opacity="0.64" transform="rotate(21.1 453.1 235.9)" />
<ellipse cx="327.3" cy="86.1" rx="4.4" ry="3.6" fill="#8e857b" opacity="0.45" transform="rotate(27.7 327.3 86.1)" />
<ellipse cx="369.1" cy="124.4" rx="2.9" ry="3.8" fill="#ddd4c7" opacity="0.58" transform="rotate(112.4 369.1 124.4)" />
<ellipse cx="429.6" cy="259.8" rx="4.8" ry="3.8" fill="#8e857b" opacity="0.30" transform="rotate(108.9 429.6 259.8)" />
<ellipse cx="323.8" cy="149.4" rx="4.6" ry="3.7" fill="#ddd4c7" opacity="0.37" transform="rotate(21.2 323.8 149.4)" />
<ellipse cx="455.4" cy="243.7" rx="4.1" ry="2.3" fill="#ada295" opacity="0.53" transform="rotate(104.4 455.4 243.7)" />
<ellipse cx="334.0" cy="143.6" rx="3.3" ry="3.0" fill="#c4baac" opacity="0.63" transform="rotate(93.0 334.0 143.6)" />
<ellipse cx="326.1" cy="116.4" rx="4.4" ry="1.5" fill="#ddd4c7" opacity="0.59" transform="rotate(122.7 326.1 116.4)" />
<ellipse cx="418.0" cy="235.7" rx="3.5" ry="3.9" fill="#c4baac" opacity="0.38" transform="rotate(143.1 418.0 235.7)" />
<path d="M 153.3 125.5 Q 149.0 125.5 145.5 125.4" stroke="#63875e" stroke-width="2.4" stroke-linecap="round" opacity="0.32" fill="none" />
<path d="M 368.7 382.7 Q 374.3 381.2 378.8 378.3" stroke="#63875e" stroke-width="2.4" stroke-linecap="round" opacity="0.32" fill="none" />
<path d="M 368.3 371.3 Q 373.7 372.5 378.0 374.9" stroke="#63875e" stroke-width="2.4" stroke-linecap="round" opacity="0.32" fill="none" />
<path d="M 143.4 409.4 Q 139.5 410.2 136.3 411.7" stroke="#63875e" stroke-width="2.4" stroke-linecap="round" opacity="0.32" fill="none" />
<path d="M 394.1 295.2 Q 396.3 298.0 398.0 303.2" stroke="#63875e" stroke-width="2.4" stroke-linecap="round" opacity="0.32" fill="none" />
<path d="M 366.7 420.9 Q 373.5 421.6 379.1 422.8" stroke="#63875e" stroke-width="2.4" stroke-linecap="round" opacity="0.32" fill="none" />
<path d="M 145.8 356.0 Q 139.7 357.7 134.8 360.9" stroke="#63875e" stroke-width="2.4" stroke-linecap="round" opacity="0.32" fill="none" />
<path d="M 143.8 83.5 Q 138.3 84.5 133.8 86.2" stroke="#63875e" stroke-width="2.4" stroke-linecap="round" opacity="0.32" fill="none" />
<path d="M 152.0 424.7 Q 145.8 426.1 140.7 428.9" stroke="#63875e" stroke-width="2.4" stroke-linecap="round" opacity="0.32" fill="none" />
<path d="M 150.4 106.4 Q 144.4 106.3 139.5 106.1" stroke="#63875e" stroke-width="2.4" stroke-linecap="round" opacity="0.32" fill="none" />
<path d="M 146.0 405.6 Q 141.3 405.4 137.5 405.0" stroke="#63875e" stroke-width="2.4" stroke-linecap="round" opacity="0.32" fill="none" />
<path d="M 146.1 133.1 Q 139.6 133.5 134.2 134.3" stroke="#63875e" stroke-width="2.4" stroke-linecap="round" opacity="0.32" fill="none" />
<path d="M 451.3 272.1 Q 452.0 275.1 452.6 280.7" stroke="#63875e" stroke-width="2.4" stroke-linecap="round" opacity="0.32" fill="none" />
<path d="M 150.7 428.5 Q 145.1 427.0 140.6 424.2" stroke="#63875e" stroke-width="2.4" stroke-linecap="round" opacity="0.32" fill="none" />
<path d="M 360.0 87.3 Q 367.2 88.3 373.1 90.2" stroke="#63875e" stroke-width="2.4" stroke-linecap="round" opacity="0.32" fill="none" />
<path d="M 367.2 363.6 Q 373.5 363.5 378.6 363.2" stroke="#63875e" stroke-width="2.4" stroke-linecap="round" opacity="0.32" fill="none" />
<path d="M 144.2 94.9 Q 137.9 95.3 132.7 96.0" stroke="#63875e" stroke-width="2.4" stroke-linecap="round" opacity="0.32" fill="none" />
<path d="M 146.0 125.5 Q 138.8 124.3 132.8 122.2" stroke="#63875e" stroke-width="2.4" stroke-linecap="round" opacity="0.32" fill="none" />
    <path d="M 256.0 256.0 L 256.0 55.9 M 256.0 256.0 L 429.3 155.9 M 256.0 256.0 L 256.0 456.1" fill="none" stroke="url(#water-fill)" stroke-width="100.0" stroke-linecap="butt" />
    <circle cx="256.0" cy="256.0" r="100.0" fill="url(#water-fill)" />
    <path d="M 256.0 256.0 L 256.0 55.9 M 256.0 256.0 L 429.3 155.9 M 256.0 256.0 L 256.0 456.1" fill="none" stroke="url(#water-shade)" stroke-width="100.0" stroke-linecap="butt" />
    <circle cx="256.0" cy="256.0" r="100.0" fill="url(#water-shade)" />
    <circle cx="256.0" cy="256.0" r="100.0" fill="none" stroke="#d5f3f6" stroke-width="2" opacity="0.22" />
<path d="M 224.2 417.1 Q 256.0 415.5 287.8 417.1" stroke="#c6eef8" stroke-width="1.13" stroke-linecap="round" opacity="0.23" fill="none" />
<path d="M 230.4 420.9 Q 256.0 422.4 281.6 420.9" stroke="#c6eef8" stroke-width="1.64" stroke-linecap="round" opacity="0.28" fill="none" />
<path d="M 231.4 371.3 Q 256.0 369.0 280.6 371.3" stroke="#81cbd8" stroke-width="1.54" stroke-linecap="round" opacity="0.29" fill="none" />
<path d="M 239.1 375.1 Q 256.0 374.3 272.9 375.1" stroke="#81cbd8" stroke-width="1.32" stroke-linecap="round" opacity="0.25" fill="none" />
<path d="M 395.9 199.2 Q 385.0 181.5 375.2 163.2" stroke="#a6dde9" stroke-width="1.70" stroke-linecap="round" opacity="0.19" fill="none" />
<path d="M 288.9 136.9 Q 256.0 139.9 223.1 136.9" stroke="#a6dde9" stroke-width="1.15" stroke-linecap="round" opacity="0.28" fill="none" />
<path d="M 235.1 405.6 Q 256.0 409.5 276.9 405.6" stroke="#81cbd8" stroke-width="1.48" stroke-linecap="round" opacity="0.20" fill="none" />
<path d="M 403.4 204.5 Q 390.0 178.6 374.3 154.1" stroke="#81cbd8" stroke-width="1.66" stroke-linecap="round" opacity="0.19" fill="none" />
<path d="M 233.1 401.8 Q 256.0 405.3 278.9 401.8" stroke="#81cbd8" stroke-width="1.15" stroke-linecap="round" opacity="0.27" fill="none" />
<path d="M 218.2 382.7 Q 256.0 385.5 293.8 382.7" stroke="#a6dde9" stroke-width="1.13" stroke-linecap="round" opacity="0.28" fill="none" />
<path d="M 353.6 225.1 Q 344.6 204.9 331.6 186.9" stroke="#81cbd8" stroke-width="1.11" stroke-linecap="round" opacity="0.22" fill="none" />
<path d="M 407.6 188.8 Q 398.7 173.6 390.0 158.3" stroke="#a6dde9" stroke-width="1.40" stroke-linecap="round" opacity="0.23" fill="none" />
<path d="M 220.2 401.8 Q 256.0 402.5 291.8 401.8" stroke="#c6eef8" stroke-width="1.14" stroke-linecap="round" opacity="0.15" fill="none" />
<path d="M 394.3 203.9 Q 381.5 183.5 370.2 162.3" stroke="#81cbd8" stroke-width="1.14" stroke-linecap="round" opacity="0.17" fill="none" />
<path d="M 223.8 363.6 Q 256.0 363.8 288.2 363.6" stroke="#81cbd8" stroke-width="1.00" stroke-linecap="round" opacity="0.24" fill="none" />
<path d="M 289.5 102.6 Q 256.0 99.7 222.5 102.6" stroke="#a6dde9" stroke-width="1.69" stroke-linecap="round" opacity="0.17" fill="none" />
<path d="M 226.9 424.7 Q 256.0 428.4 285.1 424.7" stroke="#a6dde9" stroke-width="1.98" stroke-linecap="round" opacity="0.21" fill="none" />
<path d="M 216.3 398.0 Q 256.0 397.8 295.7 398.0" stroke="#c6eef8" stroke-width="1.89" stroke-linecap="round" opacity="0.17" fill="none" />
<path d="M 245.2 204.2 Q 235.9 208.1 226.6 212.0" stroke="#81cbd8" stroke-width="1.59" stroke-linecap="round" opacity="0.22" fill="none" />
<path d="M 285.2 307.7 Q 295.4 298.0 305.7 288.4" stroke="#c6eef8" stroke-width="1.66" stroke-linecap="round" opacity="0.13" fill="none" />
<path d="M 278.6 254.0 Q 276.4 248.3 274.3 242.6" stroke="#a6dde9" stroke-width="1.42" stroke-linecap="round" opacity="0.23" fill="none" />
<path d="M 309.3 291.0 Q 313.7 280.8 318.1 270.6" stroke="#81cbd8" stroke-width="1.62" stroke-linecap="round" opacity="0.21" fill="none" />
<path d="M 241.0 220.7 Q 235.6 224.2 230.2 227.7" stroke="#81cbd8" stroke-width="1.63" stroke-linecap="round" opacity="0.23" fill="none" />
<path d="M 280.0 308.4 Q 290.2 300.6 300.4 292.8" stroke="#a6dde9" stroke-width="1.75" stroke-linecap="round" opacity="0.15" fill="none" />
    <line x1="256.0" y1="150.0" x2="256.0" y2="83.9" stroke="#142e36" stroke-width="1.8" opacity="0.18" />
    <line x1="347.8" y1="203.0" x2="405.1" y2="169.9" stroke="#142e36" stroke-width="1.8" opacity="0.18" />
    <line x1="256.0" y1="362.0" x2="256.0" y2="428.1" stroke="#142e36" stroke-width="1.8" opacity="0.18" />
  </g>
</svg>
