<svg xmlns="http://www.w3.org/2000/svg" width="512" height="512" viewBox="0 0 512 512">
  <defs>
    <clipPath id="hex-clip">
      <polygon points="48.0,256.0 152.0,75.9 360.0,75.9 464.0,256.0 360.0,436.1 152.0,436.1" />
    </clipPath>
    <linearGradient id="water-fill" x1="0%" y1="0%" x2="100%" y2="0%">
      <stop offset="0%" stop-color="#295f69" />
      <stop offset="20%" stop-color="#327884" />
      <stop offset="50%" stop-color="#5ea4af" />
      <stop offset="80%" stop-color="#327884" />
      <stop offset="100%" stop-color="#295f69" />
    </linearGradient>
    <linearGradient id="water-shade" x1="0%" y1="0%" x2="0%" y2="100%">
      <stop offset="0%" stop-color="#8dd6de" stop-opacity="0.38" />
      <stop offset="35%" stop-color="#ffffff" stop-opacity="0.06" />
      <stop offset="100%" stop-color="#11343e" stop-opacity="0.24" />
    </linearGradient>
  </defs>
  <g clip-path="url(#hex-clip)">
<ellipse cx="140.3" cy="161.1" rx="4.4" ry="2.3" fill="#ada295" opacity="0.43" transform="rotate(21.6 140.3 161.1)" />
<ellipse cx="234.3" cy="398.5" rx="4.6" ry="3.8" fill="#ddd4c7" opacity="0.65" transform="rotate(6.7 234.3 398.5)" />
<ellipse cx="157.9" cy="107.8" rx="5.3" ry="3.0" fill="#ada295" opacity="0.58" transform="rotate(20.9 157.9 107.8)" />
<ellipse cx="443.0" cy="238.9" rx="2.5" ry="3.4" fill="#ada295" opacity="0.36" transform="rotate(15.4 443.0 238.9)" />
<ellipse cx="198.5" cy="410.4" rx="3.3" ry="1.7" fill="#8e857b" opacity="0.50" transform="rotate(73.0 198.5 410.4)" />
<ellipse cx="74.3" cy="233.7" rx="4.6" ry="3.8" fill="#ddd4c7" opacity="0.58" transform="rotate(90.5 74.3 233.7)" />
<ellipse cx="76.8" cy="241.0" rx="5.5" ry="3.6" fill="#ada295" opacity="0.35" transform="rotate(34.6 76.8 241.0)" />
<ellipse cx="403.4" cy="206.1" rx="5.4" ry="3.2" fill="#ada295" opacity="0.69" transform="rotate(165.5 403.4 206.1)" />
<ellipse cx="163.1" cy="163.4" rx="3.2" ry="1.8" fill="#ada295" opacity="0.53" transform="rotate(92.9 163.1 163.4)" />
<ellipse cx="110.9" cy="206.2" rx="5.2" ry="3.7" fill="#8e857b" opacity="0.37" transform="rotate(32.7 110.9 206.2)" />
<ellipse cx="335.9" cy="413.5" rx="4.1" ry="2.4" fill="#8e857b" opacity="0.64" transform="rotate(50.1 335.9 413.5)" />
<ellipse cx="357.4" cy="81.8" rx="3.0" ry="3.3" fill="#ddd4c7" opacity="0.35" transform="rotate(72.2 357.4 81.8)" />
<ellipse cx="102.1" cy="216.7" rx="3.6" ry="3.1" fill="#8e857b" opacity="0.47" transform="rotate(135.2 102.1 216.7)" />
<ellipse cx="186.9" cy="406.6" rx="4.6" ry="3.5" fill="#c4baac" opacity="0.45" transform="rotate(22.2 186.9 406.6)" />
<ellipse cx="443.4" cy="249.3" rx="3.5" ry="3.2" fill="#ada295" opacity="0.28" transform="rotate(23.1 443.4 249.3)" />
<ellipse cx="423.6" cy="245.2" rx="4.9" ry="2.1" fill="#8e857b" opacity="0.35" transform="rotate(28.6 423.6 245.2)" />
<ellipse cx="189.8" cy="427.1" rx="5.5" ry="2.7" fill="#c4baac" opacity="0.59" transform="rotate(17.7 189.8 427.1)" />
<ellipse cx="54.7" cy="260.0" rx="5.1" ry="2.6" fill="#8e857b" opacity="0.34" transform="rotate(125.9 54.7 260.0)" />
<ellipse cx="409.0" cy="249.2" rx="3.9" ry="3.8" fill="#ada295" opacity="0.45" transform="rotate(104.1 409.0 249.2)" />
<ellipse cx="123.4" cy="215.0" rx="3.3" ry="3.6" fill="#c4baac" opacity="0.68" transform="rotate(160.6 123.4 215.0)" />
<ellipse cx="143.0" cy="140.6" rx="2.6" ry="1.9" fill="#ddd4c7" opacity="0.51" transform="rotate(9.0 143.0 140.6)" />
<ellipse cx="435.2" cy="244.1" rx="3.7" ry="3.6" fill="#c4baac" opacity="0.38" transform="rotate(150.2 435.2 244.1)" />
<ellipse cx="173.0" cy="98.3" rx="3.9" ry="3.3" fill="#8e857b" opacity="0.34" transform="rotate(13.8 173.0 98.3)" />
<ellipse cx="182.8" cy="397.5" rx="4.2" ry="1.9" fill="#ada295" opacity="0.59" transform="rotate(17.7 182.8 397.5)" />
<ellipse cx="291.2" cy="377.1" rx="4.1" ry="1.9" fill="#c4baac" opacity="0.56" transform="rotate(66.9 291.2 377.1)" />
<ellipse cx="211.3" cy="390.2" rx="2.7" ry="3.3" fill="#c4baac" opacity="0.56" transform="rotate(107.3 211.3 390.2)" />
<ellipse cx="351.5" cy="408.3" rx="3.1" ry="2.5" fill="#ada295" opacity="0.34" transform="rotate(122.0 351.5 408.3)" />
<ellipse cx="352.0" cy="95.0" rx="4.8" ry="2.8" fill="#c4baac" opacity="0.37" transform="rotate(104.0 352.0 95.0)" />
<ellipse cx="191.4" cy="416.2" rx="4.1" ry="3.3" fill="#8e857b" opacity="0.55" transform="rotate(73.7 191.4 416.2)" />
<ellipse cx="350.7" cy="85.4" rx="3.1" ry="3.8" fill="#c4baac" opacity="0.48" transform="rotate(146.9 350.7 85.4)" />
<ellipse cx="237.7" cy="379.5" rx="4.1" ry="2.7" fill="#ada295" opacity="0.55" transform="rotate(163.3 237.7 379.5)" />
<ellipse cx="436.8" cy="264.5" rx="4.4" ry="2.8" fill="#8e857b" opacity="0.29" transform="rotate(152.6 436.8 264.5)" />
<ellipse cx="309.5" cy="412.8" rx="5.6" ry="2.0" fill="#ada295" opacity="0.52" transform="rotate(127.8 309.5 412.8)" />
<ellipse cx="148.9" cy="88.6" rx="2.5" ry="2.9" fill="#8e857b" opacity="0.34" transform="rotate(31.8 148.9 88.6)" />
<ellipse cx="368.4" cy="100.9" rx="4.9" ry="3.7" fill="#ada295" opacity="0.28" transform="rotate(19.6 368.4 100.9)" />
<ellipse cx="189.6" cy="427.2" rx="3.9" ry="2.0" fill="#8e857b" opacity="0.35" transform="rotate(176.2 189.6 427.2)" />
<ellipse cx="108.0" cy="248.5" rx="4.3" ry="3.9" fill="#ddd4c7" opacity="0.53" transform="rotate(115.3 108.0 248.5)" />
<ellipse cx="363.9" cy="110.3" rx="4.9" ry="2.3" fill="#c4baac" opacity="0.58" transform="rotate(163.7 363.9 110.3)" />
<ellipse cx="230.9" cy="405.7" rx="5.0" ry="2.9" fill="#ddd4c7" opacity="0.38" transform="rotate(159.6 230.9 405.7)" />
<ellipse cx="241.7" cy="397.4" rx="3.8" ry="2.4" fill="#ada295" opacity="0.36" transform="rotate(159.2 241.7 397.4)" />
<ellipse cx="177.3" cy="410.7" rx="4.1" ry="2.6" fill="#8e857b" opacity="0.36" transform="rotate(89.2 177.3 410.7)" />
<ellipse cx="391.9" cy="238.2" rx="5.4" ry="3.6" fill="#8e857b" opacity="0.62" transform="rotate(100.8 391.9 238.2)" />
<ellipse cx="331.4" cy="398.2" rx="3.7" ry="3.2" fill="#ddd4c7" opacity="0.59" transform="rotate(146.0 331.4 398.2)" />
<ellipse cx="422.4" cy="240.9" rx="2.9" ry="3.5" fill="#ada295" opacity="0.32" transform="rotate(173.7 422.4 240.9)" />
<ellipse cx="295.8" cy="396.6" rx="2.2" ry="2.2" fill="#ada295" opacity="0.58" transform="rotate(54.1 295.8 396.6)" />
<ellipse cx="410.0" cy="242.5" rx="2.9" ry="2.6" fill="#ada295" opacity="0.59" transform="rotate(128.0 410.0 242.5)" />
<ellipse cx="362.0" cy="79.7" rx="2.4" ry="2.3" fill="#ada295" opacity="0.29" transform="rotate(99.7 362.0 79.7)" />
<ellipse cx="370.5" cy="161.0" rx="5.1" ry="1.9" fill="#c4baac" opacity="0.66" transform="rotate(40.6 370.5 161.0)" />
<ellipse cx="348.3" cy="174.0" rx="5.0" ry="2.8" fill="#c4baac" opacity="0.60" transform="rotate(64.2 348.3 174.0)" />
<ellipse cx="346.9" cy="417.4" rx="2.0" ry="3.4" fill="#c4baac" opacity="0.33" transform="rotate(125.3 346.9 417.4)" />
<ellipse cx="159.4" cy="141.4" rx="5.6" ry="3.7" fill="#8e857b" opacity="0.65" transform="rotate(118.1 159.4 141.4)" />
<ellipse cx="159.1" cy="174.0" rx="4.9" ry="3.1" fill="#ada295" opacity="0.52" transform="rotate(57.7 159.1 174.0)" />
<ellipse cx="418.9" cy="248.4" rx="4.0" ry="2.8" fill="#c4baac" opacity="0.40" transform="rotate(130.8 418.9 248.4)" />
<ellipse cx="209.7" cy="396.3" rx="3.6" ry="2.2" fill="#ada295" opacity="0.49" transform="rotate(81.3 209.7 396.3)" />
<ellipse cx="108.9" cy="213.1" rx="4.6" ry="2.6" fill="#8e857b" opacity="0.47" transform="rotate(156.4 108.9 213.1)" />
<ellipse cx="162.5" cy="409.3" rx="4.8" ry="3.7" fill="#ada295" opacity="0.53" transform="rotate(142.1 162.5 409.3)" />
<ellipse cx="160.7" cy="152.3" rx="3.8" ry="2.0" fill="#c4baac" opacity="0.41" transform="rotate(128.7 160.7 152.3)" />
<ellipse cx="446.4" cy="230.3" rx="5.3" ry="2.9" fill="#8e857b" opacity="0.30" transform="rotate(76.5 446.4 230.3)" />
<ellipse cx="162.1" cy="427.7" rx="5.0" ry="2.4" fill="#8e857b" opacity="0.59" transform="rotate(4.4 162.1 427.7)" />
<ellipse cx="84.1" cy="246.5" rx="3.6" ry="3.7" fill="#c4baac" opacity="0.56" transform="rotate(168.3 84.1 246.5)" />
<ellipse cx="346.1" cy="159.9" rx="2.8" ry="3.8" fill="#ddd4c7" opacity="0.28" transform="rotate(138.9 346.1 159.9)" />
<ellipse cx="344.7" cy="167.5" rx="3.6" ry="2.3" fill="#8e857b" opacity="0.33" transform="rotate(139.6 344.7 167.5)" />
<ellipse cx="145.9" cy="115.9" rx="4.7" ry="1.6" fill="#ddd4c7" opacity="0.30" transform="rotate(23.9 145.9 115.9)" />
<ellipse cx="295.3" cy="392.0" rx="2.4" ry="1.6" fill="#ddd4c7" opacity="0.58" transform="rotate(51.7 295.3 392.0)" />
<ellipse cx="119.5" cy="218.1" rx="5.5" ry="1.8" fill="#ddd4c7" opacity="0.46" transform="rotate(132.6 119.5 218.1)" />
<ellipse cx="315.7" cy="390.0" rx="2.4" ry="2.0" fill="#8e857b" opacity="0.61" transform="rotate(4.2 315.7 390.0)" />
<ellipse cx="363.9" cy="150.0" rx="2.1" ry="2.3" fill="#8e857b" opacity="0.35" transform="rotate(154.0 363.9 150.0)" />
<ellipse cx="182.5" cy="421.1" rx="5.5" ry="1.4" fill="#c4baac" opacity="0.30" transform="rotate(73.0 182.5 421.1)" />
<ellipse cx="334.1" cy="435.6" rx="2.4" ry="3.1" fill="#8e857b" opacity="0.43" transform="rotate(103.3 334.1 435.6)" />
<ellipse cx="97.3" cy="221.5" rx="5.3" ry="1.8" fill="#c4baac" opacity="0.60" transform="rotate(32.1 97.3 221.5)" />
<ellipse cx="315.3" cy="400.4" rx="5.3" ry="1.8" fill="#c4baac" opacity="0.53" transform="rotate(25.6 315.3 400.4)" />
<ellipse cx="329.8" cy="431.1" rx="4.2" ry="1.5" fill="#ada295" opacity="0.35" transform="rotate(134.5 329.8 431.1)" />
<ellipse cx="50.8" cy="252.0" rx="5.1" ry="3.0" fill="#8e857b" opacity="0.38" transform="rotate(120.1 50.8 252.0)" />
<ellipse cx="77.2" cy="252.7" rx="5.1" ry="2.8" fill="#ada295" opacity="0.41" transform="rotate(144.4 77.2 252.7)" />
<ellipse cx="471.9" cy="244.9" rx="5.3" ry="2.6" fill="#8e857b" opacity="0.70" transform="rotate(116.6 471.9 244.9)" />
<ellipse cx="342.8" cy="140.8" rx="2.3" ry="2.0" fill="#ada295" opacity="0.38" transform="rotate(90.1 342.8 140.8)" />
<ellipse cx="316.8" cy="411.8" rx="2.7" ry="1.6" fill="#c4baac" opacity="0.56" transform="rotate(46.1 316.8 411.8)" />
<ellipse cx="273.5" cy="401.2" rx="5.0" ry="3.4" fill="#ddd4c7" opacity="0.48" transform="rotate(114.2 273.5 401.2)" />
<ellipse cx="314.6" cy="417.5" rx="2.9" ry="3.5" fill="#8e857b" opacity="0.38" transform="rotate(121.6 314.6 417.5)" />
<ellipse cx="207.3" cy="390.0" rx="5.0" ry="2.7" fill="#ddd4c7" opacity="0.52" transform="rotate(80.9 207.3 390.0)" />
<ellipse cx="362.0" cy="436.0" rx="5.4" ry="2.7" fill="#ddd4c7" opacity="0.57" transform="rotate(13.1 362.0 436.0)" />
<ellipse cx="364.8" cy="436.5" rx="3.3" ry="3.7" fill="#ada295" opacity="0.65" transform="rotate(29.3 364.8 436.5)" />
<ellipse cx="290.4" cy="378.2" rx="3.4" ry="2.1" fill="#ddd4c7" opacity="0.46" transform="rotate(31.7 290.4 378.2)" />
<ellipse cx="159.2" cy="107.6" rx="5.3" ry="2.8" fill="#8e857b" opacity="0.45" transform="rotate(172.7 159.2 107.6)" />
<ellipse cx="366.1" cy="91.3" rx="2.6" ry="3.9" fill="#8e857b" opacity="0.50" transform="rotate(49.7 366.1 91.3)" />
<ellipse cx="451.3" cy="245.4" rx="2.7" ry="2.8" fill="#ddd4c7" opacity="0.61" transform="rotate(72.0 451.3 245.4)" />
<ellipse cx="186.6" cy="414.1" rx="3.2" ry="2.3" fill="#ddd4c7" opacity="0.46" transform="rotate(110.7 186.6 414.1)" />
<ellipse cx="278.1" cy="386.9" rx="4.5" ry="3.4" fill="#8e857b" opacity="0.36" transform="rotate(142.0 278.1 386.9)" />
<ellipse cx="394.3" cy="217.3" rx="5.3" ry="2.1" fill="#c4baac" opacity="0.41" transform="rotate(33.0 394.3 217.3)" />
<ellipse cx="351.0" cy="100.9" rx="2.8" ry="2.7" fill="#8e857b" opacity="0.66" transform="rotate(73.3 351.0 100.9)" />
<ellipse cx="236.5" cy="398.8" rx="4.4" ry="1.4" fill="#ada295" opacity="0.45" transform="rotate(171.4 236.5 398.8)" />
<ellipse cx="353.9" cy="113.6" rx="2.3" ry="2.1" fill="#ada295" opacity="0.64" transform="rotate(18.2 353.9 113.6)" />
<ellipse cx="190.9" cy="421.4" rx="2.4" ry="1.6" fill="#ada295" opacity="0.39" transform="rotate(58.5 190.9 421.4)" />
<ellipse cx="158.9" cy="88.5" rx="5.0" ry="1.9" fill="#8e857b" opacity="0.28" transform="rotate(10.9 158.9 88.5)" />
<ellipse cx="165.7" cy="168.1" rx="4.2" ry="1.4" fill="#8e857b" opacity="0.46" transform="rotate(158.1 165.7 168.1)" />
<ellipse cx="350.8" cy="442.2" rx="2.1" ry="2.3" fill="#8e857b" opacity="0.32" transform="rotate(22.5 350.8 442.2)" />
<ellipse cx="176.5" cy="397.4" rx="2.2" ry="3.1" fill="#ada295" opacity="0.42" transform="rotate(70.8 176.5 397.4)" />
<ellipse cx="153.6" cy="80.6" rx="3.5" ry="3.2" fill="#ddd4c7" opacity="0.36" transform="rotate(72.8 153.6 80.6)" />
<path d="M 115.1 80.6 Q 109.3 80.0 104.5 79.0" stroke="#63875e" stroke-width="2.4" stroke-linecap="round" opacity="0.32" fill="none" />
<path d="M 403.6 181.0 Q 409.5 176.8 414.4 169.0" stroke="#63875e" stroke-width="2.4" stroke-linecap="round" opacity="0.32" fill="none" />
<path d="M 392.4 90.1 Q 399.5 90.1 405.4 90.2" stroke="#63875e" stroke-width="2.4" stroke-linecap="round" opacity="0.32" fill="none" />
<path d="M 38.7 230.4 Q 33.6 227.5 29.5 222.2" stroke="#63875e" stroke-width="2.4" stroke-linecap="round" opacity="0.32" fill="none" />
<path d="M 440.7 201.7 Q 444.2 198.1 447.0 191.5" stroke="#63875e" stroke-width="2.4" stroke-linecap="round" opacity="0.32" fill="none" />
<path d="M 71.1 201.4 Q 67.8 198.1 65.1 191.8" stroke="#63875e" stroke-width="2.4" stroke-linecap="round" opacity="0.32" fill="none" />
<path d="M 476.0 225.8 Q 481.0 221.5 485.0 213.5" stroke="#63875e" stroke-width="2.4" stroke-linecap="round" opacity="0.32" fill="none" />
<path d="M 117.0 176.9 Q 116.8 172.2 116.7 163.6" stroke="#63875e" stroke-width="2.4" stroke-linecap="round" opacity="0.32" fill="none" />
<path d="M 226.6 432.9 Q 228.1 437.2 229.4 445.0" stroke="#63875e" stroke-width="2.4" stroke-linecap="round" opacity="0.32" fill="none" />
<path d="M 453.3 217.7 Q 456.0 215.0 458.2 210.0" stroke="#63875e" stroke-width="2.4" stroke-linecap="round" opacity="0.32" fill="none" />
<path d="M 174.8 456.6 Q 177.5 458.7 179.8 462.4" stroke="#63875e" stroke-width="2.4" stroke-linecap="round" opacity="0.32" fill="none" />
<path d="M 78.8 195.9 Q 74.0 191.8 70.1 184.2" stroke="#63875e" stroke-width="2.4" stroke-linecap="round" opacity="0.32" fill="none" />
<path d="M 289.4 435.4 Q 284.2 437.6 280.0 441.7" stroke="#63875e" stroke-width="2.4" stroke-linecap="round" opacity="0.32" fill="none" />
<path d="M 245.5 418.3 Q 250.0 419.8 253.7 422.7" stroke="#63875e" stroke-width="2.4" stroke-linecap="round" opacity="0.32" fill="none" />
<path d="M 255.3 416.5 Q 257.4 420.0 259.0 426.3" stroke="#63875e" stroke-width="2.4" stroke-linecap="round" opacity="0.32" fill="none" />
<path d="M 387.5 94.8 Q 391.9 94.6 395.5 94.4" stroke="#63875e" stroke-width="2.4" stroke-linecap="round" opacity="0.32" fill="none" />
<path d="M 274.7 423.1 Q 270.2 426.1 266.5 431.8" stroke="#63875e" stroke-width="2.4" stroke-linecap="round" opacity="0.32" fill="none" />
<path d="M 287.3 429.6 Q 285.6 432.0 284.2 436.5" stroke="#63875e" stroke-width="2.4" stroke-linecap="round" opacity="0.32" fill="none" />
<path d="M 279.3 424.5 Q 275.7 426.8 272.7 431.0" stroke="#63875e" stroke-width="2.4" stroke-linecap="round" opacity="0.32" fill="none" />
<path d="M 343.1 465.4 Q 337.7 468.6 333.4 474.7" stroke="#63875e" stroke-width="2.4" stroke-linecap="round" opacity="0.32" fill="none" />
<path d="M 395.8 123.2 Q 401.3 124.7 405.8 127.7" stroke="#63875e" stroke-width="2.4" stroke-linecap="round" opacity="0.32" fill="none" />
<path d="M 77.9 203.7 Q 77.1 199.7 76.4 192.2" stroke="#63875e" stroke-width="2.4" stroke-linecap="round" opacity="0.32" fill="none" />
<path d="M 391.4 109.0 Q 398.9 109.4 404.9 110.2" stroke="#63875e" stroke-width="2.4" stroke-linecap="round" opacity="0.32" fill="none" />
    <path d="M 256.0 256.0 L 256.0 55.9 M 256.0 256.0 L 429.3 356.1 M 256.0 256.0 L 82.7 356.1" fill="none" stroke="url(#water-fill)" stroke-width="140.0" stroke-linecap="butt" />
    <circle cx="256.0" cy="256.0" r="80.8" fill="url(#water-fill)" />
    <path d="M 256.0 256.0 L 256.0 55.9 M 256.0 256.0 L 429.3 356.1 M 256.0 256.0 L 82.7 356.1" fill="none" stroke="url(#water-shade)" stroke-width="140.0" stroke-linecap="butt" />
    <circle cx="256.0" cy="256.0" r="80.8" fill="url(#water-shade)" />
    <circle cx="256.0" cy="256.0" r="80.8" fill="none" stroke="#d5f3f6" stroke-width="2" opacity="0.22" />
<path d="M 110.2 288.1 Q 132.9 327.1 155.3 366.2" stroke="#a6dde9" stroke-width="1.38" stroke-linecap="round" opacity="0.20" fill="none" />
<path d="M 368.9 373.5 Q 392.8 335.0 414.2 295.0" stroke="#81cbd8" stroke-width="1.98" stroke-linecap="round" opacity="0.21" fill="none" />
<path d="M 371.7 359.1 Q 387.7 332.1 403.1 304.7" stroke="#81cbd8" stroke-width="1.51" stroke-linecap="round" opacity="0.29" fill="none" />
<path d="M 113.2 312.2 Q 124.7 331.8 135.9 351.5" stroke="#81cbd8" stroke-width="1.22" stroke-linecap="round" opacity="0.20" fill="none" />
<path d="M 348.8 351.5 Q 364.7 318.8 385.1 288.7" stroke="#a6dde9" stroke-width="1.38" stroke-linecap="round" opacity="0.23" fill="none" />
<path d="M 295.3 90.1 Q 256.0 86.7 216.7 90.1" stroke="#c6eef8" stroke-width="1.09" stroke-linecap="round" opacity="0.27" fill="none" />
<path d="M 298.2 151.5 Q 256.0 153.4 213.8 151.5" stroke="#81cbd8" stroke-width="1.99" stroke-linecap="round" opacity="0.26" fill="none" />
<path d="M 298.0 127.9 Q 256.0 130.3 214.0 127.9" stroke="#81cbd8" stroke-width="1.83" stroke-linecap="round" opacity="0.16" fill="none" />
<path d="M 368.9 382.9 Q 395.5 336.5 422.4 290.3" stroke="#a6dde9" stroke-width="1.66" stroke-linecap="round" opacity="0.28" fill="none" />
<path d="M 355.8 358.3 Q 372.0 322.9 394.5 291.3" stroke="#c6eef8" stroke-width="1.43" stroke-linecap="round" opacity="0.17" fill="none" />
<path d="M 142.0 295.9 Q 156.0 313.7 164.5 334.8" stroke="#c6eef8" stroke-width="1.63" stroke-linecap="round" opacity="0.18" fill="none" />
<path d="M 297.6 151.5 Q 256.0 151.4 214.4 151.5" stroke="#81cbd8" stroke-width="1.94" stroke-linecap="round" opacity="0.28" fill="none" />
<path d="M 289.7 137.3 Q 256.0 135.9 222.3 137.3" stroke="#c6eef8" stroke-width="1.26" stroke-linecap="round" opacity="0.27" fill="none" />
<path d="M 322.3 321.8 Q 334.9 301.6 346.1 280.5" stroke="#c6eef8" stroke-width="1.11" stroke-linecap="round" opacity="0.28" fill="none" />
<path d="M 165.1 260.2 Q 182.6 298.4 206.9 332.6" stroke="#c6eef8" stroke-width="1.13" stroke-linecap="round" opacity="0.21" fill="none" />
<path d="M 299.4 142.1 Q 256.0 143.8 212.6 142.1" stroke="#a6dde9" stroke-width="1.46" stroke-linecap="round" opacity="0.15" fill="none" />
<path d="M 90.5 310.7 Q 106.9 342.1 125.9 372.0" stroke="#c6eef8" stroke-width="1.06" stroke-linecap="round" opacity="0.20" fill="none" />
<path d="M 281.6 137.3 Q 256.0 137.5 230.4 137.3" stroke="#a6dde9" stroke-width="1.63" stroke-linecap="round" opacity="0.28" fill="none" />
<path d="M 217.7 268.3 Q 221.1 274.7 224.6 281.2" stroke="#c6eef8" stroke-width="1.23" stroke-linecap="round" opacity="0.23" fill="none" />
<path d="M 262.4 297.5 Q 273.5 292.2 284.6 286.8" stroke="#81cbd8" stroke-width="1.07" stroke-linecap="round" opacity="0.13" fill="none" />
<path d="M 270.9 223.2 Q 261.9 221.7 252.9 220.1" stroke="#81cbd8" stroke-width="1.10" stroke-linecap="round" opacity="0.17" fill="none" />
<path d="M 280.8 274.7 Q 283.3 260.9 285.8 247.1" stroke="#c6eef8" stroke-width="1.36" stroke-linecap="round" opacity="0.20" fill="none" />
<path d="M 257.3 300.5 Q 265.8 298.5 274.2 296.6" stroke="#81cbd8" stroke-width="1.31" stroke-linecap="round" opacity="0.16" fill="none" />
<path d="M 269.7 262.0 Q 268.4 254.0 267.1 246.0" stroke="#a6dde9" stroke-width="1.67" stroke-linecap="round" opacity="0.23" fill="none" />
    <line x1="256.0" y1="169.2" x2="256.0" y2="83.9" stroke="#142e36" stroke-width="1.8" opacity="0.18" />
    <line x1="331.2" y1="299.4" x2="405.1" y2="342.1" stroke="#142e36" stroke-width="1.8" opacity="0.18" />
    <line x1="180.8" y1="299.4" x2="106.9" y2="342.1" stroke="#142e36" stroke-width="1.8" opacity="0.18" />
  </g>
</svg>
