<svg xmlns="http://www.w3.org/2000/svg" width="512" height="512" viewBox="0 0 512 512">
  <defs>
    <clipPath id="hex-clip">
      <polygon points="48.0,256.0 152.0,75.9 360.0,75.9 464.0,256.0 360.0,436.1 152.0,436.1" />
    </clipPath>
    <linearGradient id="water-fill" x1="0%" y1="0%" x2="100%" y2="0%">
      <stop offset="0%" stop-color="#295f69" />
      <stop offset="20%" stop-color="#327884" />
      <stop offset="50%" stop-color="#5ea4af" />
      <stop offset="80%" stop-color="#327884" />
      <stop offset="100%" stop-color="#295f69" />
    </linearGradient>
    <linearGradient id="water-shade" x1="0%" y1="0%" x2="0%" y2="100%">
      <stop offset="0%" stop-color="#8dd6de" stop-opacity="0.38" />
      <stop offset="35%" stop-color="#ffffff" stop-opacity="0.06" />
      <stop offset="100%" stop-color="#11343e" stop-opacity="0.24" />
    </linearGradient>
  </defs>
  <g clip-path="url(#hex-clip)">
<ellipse cx="208.7" cy="172.6" rx="3.8" ry="2.9" fill="#c4baac" opacity="0.52" transform="rotate(97.6 208.7 172.6)" />
<ellipse cx="317.2" cy="99.0" rx="3.4" ry="1.8" fill="#8e857b" opacity="0.31" transform="rotate(124.2 317.2 99.0)" />
<ellipse cx="321.7" cy="90.4" rx="3.6" ry="2.4" fill="#c4baac" opacity="0.48" transform="rotate(83.7 321.7 90.4)" />
<ellipse cx="206.5" cy="185.9" rx="2.0" ry="1.4" fill="#ada295" opacity="0.48" transform="rotate(5.0 206.5 185.9)" />
<ellipse cx="197.4" cy="85.5" rx="4.6" ry="3.6" fill="#ada295" opacity="0.38" transform="rotate(112.0 197.4 85.5)" />
<ellipse cx="302.4" cy="248.9" rx="2.1" ry="3.0" fill="#ddd4c7" opacity="0.29" transform="rotate(32.1 302.4 248.9)" />
<ellipse cx="205.6" cy="109.4" rx="4.5" ry="3.2" fill="#8e857b" opacity="0.54" transform="rotate(137.9 205.6 109.4)" />
<ellipse cx="201.1" cy="176.3" rx="2.7" ry="1.6" fill="#ddd4c7" opacity="0.58" transform="rotate(27.2 201.1 176.3)" />
<ellipse cx="305.8" cy="200.4" rx="4.7" ry="3.1" fill="#8e857b" opacity="0.35" transform="rotate(12.1 305.8 200.4)" />
<ellipse cx="309.6" cy="133.0" rx="2.0" ry="2.7" fill="#8e857b" opacity="0.38" transform="rotate(152.5 309.6 133.0)" />
<ellipse cx="208.8" cy="121.0" rx="2.8" ry="3.2" fill="#ada295" opacity="0.30" transform="rotate(80.7 208.8 121.0)" />
<ellipse cx="194.4" cy="134.5" rx="3.6" ry="1.4" fill="#c4baac" opacity="0.53" transform="rotate(90.4 194.4 134.5)" />
<ellipse cx="190.1" cy="145.9" rx="3.7" ry="2.1" fill="#ddd4c7" opacity="0.67" transform="rotate(88.9 190.1 145.9)" />
<ellipse cx="306.1" cy="178.0" rx="3.2" ry="2.7" fill="#ada295" opacity="0.44" transform="rotate(137.1 306.1 178.0)" />
<ellipse cx="303.4" cy="191.0" rx="2.4" ry="2.1" fill="#8e857b" opacity="0.37" transform="rotate(71.7 303.4 191.0)" />
<ellipse cx="205.7" cy="119.3" rx="4.1" ry="1.9" fill="#ddd4c7" opacity="0.55" transform="rotate(179.9 205.7 119.3)" />
<ellipse cx="304.5" cy="236.1" rx="3.5" ry="2.0" fill="#8e857b" opacity="0.48" transform="rotate(98.4 304.5 236.1)" />
<ellipse cx="193.4" cy="166.8" rx="4.7" ry="3.5" fill="#ddd4c7" opacity="0.55" transform="rotate(81.1 193.4 166.8)" />
<ellipse cx="313.8" cy="174.6" rx="2.3" ry="2.2" fill="#ddd4c7" opacity="0.47" transform="rotate(85.1 313.8 174.6)" />
<ellipse cx="192.4" cy="128.7" rx="3.4" ry="2.6" fill="#ada295" opacity="0.35" transform="rotate(25.0 192.4 128.7)" />
<ellipse cx="207.0" cy="243.3" rx="3.1" ry="3.2" fill="#c4baac" opacity="0.34" transform="rotate(90.9 207.0 243.3)" />
<ellipse cx="315.7" cy="110.3" rx="2.9" ry="2.8" fill="#8e857b" opacity="0.69" transform="rotate(2.2 315.7 110.3)" />
<ellipse cx="313.9" cy="92.5" rx="3.8" ry="1.7" fill="#c4baac" opacity="0.40" transform="rotate(19.2 313.9 92.5)" />
<ellipse cx="195.7" cy="86.4" rx="4.9" ry="3.0" fill="#c4baac" opacity="0.68" transform="rotate(36.5 195.7 86.4)" />
<ellipse cx="207.7" cy="178.5" rx="3.5" ry="1.4" fill="#ada295" opacity="0.43" transform="rotate(119.6 207.7 178.5)" />
<ellipse cx="311.7" cy="106.3" rx="5.0" ry="3.3" fill="#8e857b" opacity="0.35" transform="rotate(141.1 311.7 106.3)" />
<ellipse cx="190.6" cy="228.1" rx="4.2" ry="3.1" fill="#c4baac" opacity="0.30" transform="rotate(128.9 190.6 228.1)" />
<ellipse cx="201.9" cy="174.2" rx="5.1" ry="1.5" fill="#ada295" opacity="0.37" transform="rotate(86.8 201.9 174.2)" />
<ellipse cx="190.4" cy="221.6" rx="3.0" ry="3.2" fill="#8e857b" opacity="0.42" transform="rotate(2.3 190.4 221.6)" />
<ellipse cx="207.1" cy="97.0" rx="4.2" ry="3.5" fill="#ada295" opacity="0.38" transform="rotate(40.8 207.1 97.0)" />
<ellipse cx="310.9" cy="142.6" rx="4.4" ry="3.2" fill="#ddd4c7" opacity="0.30" transform="rotate(8.1 310.9 142.6)" />
<ellipse cx="305.3" cy="197.8" rx="5.1" ry="1.6" fill="#ddd4c7" opacity="0.64" transform="rotate(87.7 305.3 197.8)" />
<ellipse cx="315.0" cy="86.7" rx="5.1" ry="3.1" fill="#8e857b" opacity="0.61" transform="rotate(61.8 315.0 86.7)" />
<ellipse cx="305.2" cy="76.0" rx="3.9" ry="2.9" fill="#ddd4c7" opacity="0.29" transform="rotate(160.6 305.2 76.0)" />
<ellipse cx="304.5" cy="135.9" rx="2.6" ry="2.3" fill="#c4baac" opacity="0.66" transform="rotate(129.5 304.5 135.9)" />
<ellipse cx="303.9" cy="150.1" rx="4.4" ry="2.4" fill="#ada295" opacity="0.60" transform="rotate(103.1 303.9 150.1)" />
<ellipse cx="305.9" cy="126.2" rx="2.7" ry="3.6" fill="#c4baac" opacity="0.42" transform="rotate(94.6 305.9 126.2)" />
<ellipse cx="203.7" cy="154.1" rx="4.6" ry="2.1" fill="#ada295" opacity="0.44" transform="rotate(156.3 203.7 154.1)" />
<ellipse cx="201.8" cy="169.7" rx="4.7" ry="1.9" fill="#8e857b" opacity="0.53" transform="rotate(152.9 201.8 169.7)" />
<ellipse cx="320.5" cy="232.7" rx="3.0" ry="3.0" fill="#8e857b" opacity="0.35" transform="rotate(93.5 320.5 232.7)" />
<ellipse cx="195.5" cy="212.7" rx="4.2" ry="2.9" fill="#ada295" opacity="0.56" transform="rotate(28.4 195.5 212.7)" />
<ellipse cx="321.5" cy="138.2" rx="2.3" ry="2.4" fill="#8e857b" opacity="0.57" transform="rotate(87.5 321.5 138.2)" />
<ellipse cx="193.4" cy="235.6" rx="5.1" ry="1.7" fill="#c4baac" opacity="0.43" transform="rotate(115.4 193.4 235.6)" />
<ellipse cx="321.8" cy="200.7" rx="4.9" ry="1.9" fill="#8e857b" opacity="0.52" transform="rotate(138.7 321.8 200.7)" />
<ellipse cx="307.0" cy="183.2" rx="4.3" ry="2.2" fill="#ada295" opacity="0.59" transform="rotate(126.9 307.0 183.2)" />
<ellipse cx="303.1" cy="191.6" rx="2.1" ry="3.3" fill="#ada295" opacity="0.34" transform="rotate(57.2 303.1 191.6)" />
<ellipse cx="313.9" cy="166.9" rx="4.0" ry="3.0" fill="#ddd4c7" opacity="0.62" transform="rotate(86.0 313.9 166.9)" />
<ellipse cx="319.6" cy="140.0" rx="4.8" ry="2.5" fill="#c4baac" opacity="0.47" transform="rotate(113.0 319.6 140.0)" />
<ellipse cx="191.0" cy="172.8" rx="5.1" ry="1.5" fill="#8e857b" opacity="0.50" transform="rotate(127.6 191.0 172.8)" />
<ellipse cx="208.6" cy="208.9" rx="3.1" ry="2.3" fill="#c4baac" opacity="0.40" transform="rotate(138.2 208.6 208.9)" />
<ellipse cx="313.4" cy="154.2" rx="4.9" ry="3.5" fill="#ddd4c7" opacity="0.59" transform="rotate(166.0 313.4 154.2)" />
<ellipse cx="313.5" cy="191.0" rx="4.7" ry="2.7" fill="#ddd4c7" opacity="0.40" transform="rotate(103.8 313.5 191.0)" />
<ellipse cx="201.1" cy="120.2" rx="2.8" ry="1.5" fill="#ada295" opacity="0.59" transform="rotate(74.7 201.1 120.2)" />
<ellipse cx="303.3" cy="212.4" rx="2.6" ry="1.9" fill="#ada295" opacity="0.62" transform="rotate(87.5 303.3 212.4)" />
<ellipse cx="315.5" cy="113.3" rx="2.7" ry="3.1" fill="#c4baac" opacity="0.37" transform="rotate(10.6 315.5 113.3)" />
<ellipse cx="194.2" cy="221.5" rx="4.2" ry="3.6" fill="#c4baac" opacity="0.66" transform="rotate(137.3 194.2 221.5)" />
<ellipse cx="319.7" cy="115.3" rx="2.6" ry="3.3" fill="#c4baac" opacity="0.36" transform="rotate(175.6 319.7 115.3)" />
<ellipse cx="195.2" cy="218.7" rx="3.7" ry="2.4" fill="#ada295" opacity="0.32" transform="rotate(75.3 195.2 218.7)" />
<ellipse cx="311.8" cy="132.6" rx="3.9" ry="3.0" fill="#ddd4c7" opacity="0.58" transform="rotate(96.8 311.8 132.6)" />
<ellipse cx="199.1" cy="234.6" rx="2.1" ry="2.8" fill="#c4baac" opacity="0.36" transform="rotate(6.0 199.1 234.6)" />
<ellipse cx="303.4" cy="97.9" rx="4.5" ry="3.2" fill="#8e857b" opacity="0.39" transform="rotate(87.0 303.4 97.9)" />
<ellipse cx="204.2" cy="254.9" rx="2.3" ry="2.7" fill="#c4baac" opacity="0.30" transform="rotate(174.9 204.2 254.9)" />
<ellipse cx="315.7" cy="207.0" rx="4.4" ry="1.7" fill="#ada295" opacity="0.41" transform="rotate(135.9 315.7 207.0)" />
<ellipse cx="321.4" cy="160.1" rx="4.3" ry="2.8" fill="#8e857b" opacity="0.39" transform="rotate(129.7 321.4 160.1)" />
<ellipse cx="204.9" cy="76.6" rx="3.9" ry="3.5" fill="#c4baac" opacity="0.54" transform="rotate(82.3 204.9 76.6)" />
<ellipse cx="193.2" cy="220.7" rx="3.7" ry="2.0" fill="#c4baac" opacity="0.51" transform="rotate(17.6 193.2 220.7)" />
<ellipse cx="304.3" cy="83.6" rx="4.4" ry="2.9" fill="#ddd4c7" opacity="0.48" transform="rotate(117.5 304.3 83.6)" />
<ellipse cx="302.4" cy="250.5" rx="2.5" ry="2.5" fill="#c4baac" opacity="0.62" transform="rotate(120.5 302.4 250.5)" />
<ellipse cx="192.0" cy="119.8" rx="2.6" ry="1.5" fill="#ddd4c7" opacity="0.32" transform="rotate(154.1 192.0 119.8)" />
<ellipse cx="311.5" cy="208.9" rx="4.9" ry="3.3" fill="#ddd4c7" opacity="0.32" transform="rotate(18.8 311.5 208.9)" />
<ellipse cx="209.3" cy="154.0" rx="4.6" ry="3.2" fill="#c4baac" opacity="0.37" transform="rotate(53.9 209.3 154.0)" />
<ellipse cx="199.2" cy="223.2" rx="2.3" ry="1.8" fill="#c4baac" opacity="0.33" transform="rotate(163.0 199.2 223.2)" />
<ellipse cx="308.0" cy="158.2" rx="4.7" ry="1.7" fill="#ada295" opacity="0.51" transform="rotate(34.8 308.0 158.2)" />
<ellipse cx="190.3" cy="194.6" rx="3.3" ry="1.4" fill="#ada295" opacity="0.66" transform="rotate(147.9 190.3 194.6)" />
<ellipse cx="197.6" cy="240.0" rx="2.6" ry="2.2" fill="#c4baac" opacity="0.52" transform="rotate(145.5 197.6 240.0)" />
<ellipse cx="314.9" cy="86.5" rx="3.7" ry="2.2" fill="#8e857b" opacity="0.35" transform="rotate(23.8 314.9 86.5)" />
<ellipse cx="316.0" cy="243.6" rx="4.2" ry="2.9" fill="#8e857b" opacity="0.48" transform="rotate(13.9 316.0 243.6)" />
<ellipse cx="203.8" cy="189.0" rx="2.5" ry="2.2" fill="#ddd4c7" opacity="0.43" transform="rotate(161.7 203.8 189.0)" />
<ellipse cx="203.3" cy="157.5" rx="4.1" ry="2.3" fill="#8e857b" opacity="0.36" transform="rotate(136.3 203.3 157.5)" />
<ellipse cx="191.4" cy="152.6" rx="4.6" ry="2.5" fill="#c4baac" opacity="0.49" transform="rotate(155.8 191.4 152.6)" />
<ellipse cx="320.2" cy="230.3" rx="3.2" ry="3.3" fill="#ddd4c7" opacity="0.28" transform="rotate(159.2 320.2 230.3)" />
<ellipse cx="201.3" cy="179.4" rx="3.9" ry="2.5" fill="#ddd4c7" opacity="0.36" transform="rotate(14.3 201.3 179.4)" />
<ellipse cx="312.2" cy="125.1" rx="5.0" ry="2.9" fill="#c4baac" opacity="0.32" transform="rotate(107.5 312.2 125.1)" />
<ellipse cx="303.3" cy="188.5" rx="4.2" ry="1.5" fill="#ada295" opacity="0.48" transform="rotate(167.2 303.3 188.5)" />
<ellipse cx="320.3" cy="143.6" rx="2.5" ry="1.7" fill="#ada295" opacity="0.33" transform="rotate(30.4 320.3 143.6)" />
<ellipse cx="190.5" cy="101.5" rx="4.8" ry="3.2" fill="#ddd4c7" opacity="0.48" transform="rotate(138.2 190.5 101.5)" />
<ellipse cx="303.4" cy="246.9" rx="3.2" ry="1.7" fill="#8e857b" opacity="0.46" transform="rotate(98.2 303.4 246.9)" />
<ellipse cx="199.9" cy="187.6" rx="3.1" ry="3.1" fill="#c4baac" opacity="0.42" transform="rotate(149.3 199.9 187.6)" />
<ellipse cx="199.8" cy="167.0" rx="3.4" ry="2.4" fill="#ada295" opacity="0.40" transform="rotate(112.8 199.8 167.0)" />
<ellipse cx="192.1" cy="85.0" rx="3.9" ry="1.6" fill="#ada295" opacity="0.45" transform="rotate(40.0 192.1 85.0)" />
<ellipse cx="321.0" cy="102.7" rx="2.4" ry="3.3" fill="#ddd4c7" opacity="0.46" transform="rotate(15.7 321.0 102.7)" />
<ellipse cx="306.9" cy="90.1" rx="3.2" ry="2.8" fill="#ddd4c7" opacity="0.44" transform="rotate(170.2 306.9 90.1)" />
<ellipse cx="197.9" cy="117.7" rx="2.3" ry="2.2" fill="#c4baac" opacity="0.35" transform="rotate(76.4 197.9 117.7)" />
<ellipse cx="302.8" cy="182.8" rx="4.0" ry="2.6" fill="#ddd4c7" opacity="0.69" transform="rotate(118.4 302.8 182.8)" />
<ellipse cx="207.6" cy="90.9" rx="2.9" ry="3.5" fill="#c4baac" opacity="0.29" transform="rotate(5.5 207.6 90.9)" />
<ellipse cx="313.5" cy="156.9" rx="4.9" ry="3.3" fill="#c4baac" opacity="0.64" transform="rotate(22.6 313.5 156.9)" />
<ellipse cx="201.5" cy="165.9" rx="4.0" ry="3.3" fill="#ada295" opacity="0.31" transform="rotate(25.8 201.5 165.9)" />
<ellipse cx="310.7" cy="112.8" rx="4.8" ry="1.5" fill="#8e857b" opacity="0.37" transform="rotate(31.0 310.7 112.8)" />
<ellipse cx="317.3" cy="168.0" rx="2.5" ry="2.8" fill="#8e857b" opacity="0.33" transform="rotate(49.0 317.3 168.0)" />
<ellipse cx="314.8" cy="193.5" rx="3.8" ry="2.9" fill="#c4baac" opacity="0.51" transform="rotate(121.8 314.8 193.5)" />
<ellipse cx="314.4" cy="180.8" rx="3.9" ry="3.5" fill="#ddd4c7" opacity="0.37" transform="rotate(68.0 314.4 180.8)" />
<ellipse cx="203.9" cy="119.5" rx="4.1" ry="1.6" fill="#8e857b" opacity="0.46" transform="rotate(74.9 203.9 119.5)" />
<ellipse cx="320.8" cy="109.3" rx="4.3" ry="3.1" fill="#c4baac" opacity="0.47" transform="rotate(177.4 320.8 109.3)" />
<ellipse cx="321.6" cy="195.5" rx="3.1" ry="3.2" fill="#8e857b" opacity="0.64" transform="rotate(148.7 321.6 195.5)" />
<ellipse cx="207.9" cy="133.1" rx="2.0" ry="3.0" fill="#ddd4c7" opacity="0.58" transform="rotate(48.9 207.9 133.1)" />
<ellipse cx="207.1" cy="97.8" rx="4.7" ry="1.8" fill="#ddd4c7" opacity="0.45" transform="rotate(6.6 207.1 97.8)" />
<ellipse cx="320.1" cy="103.3" rx="2.9" ry="3.0" fill="#ada295" opacity="0.40" transform="rotate(39.1 320.1 103.3)" />
<ellipse cx="193.3" cy="108.6" rx="3.1" ry="2.4" fill="#8e857b" opacity="0.64" transform="rotate(57.1 193.3 108.6)" />
<ellipse cx="306.7" cy="214.5" rx="5.2" ry="2.4" fill="#ddd4c7" opacity="0.43" transform="rotate(81.3 306.7 214.5)" />
<ellipse cx="204.6" cy="109.3" rx="3.7" ry="1.7" fill="#ada295" opacity="0.66" transform="rotate(126.0 204.6 109.3)" />
<ellipse cx="192.3" cy="136.5" rx="4.4" ry="3.3" fill="#ddd4c7" opacity="0.67" transform="rotate(139.2 192.3 136.5)" />
<ellipse cx="321.0" cy="136.0" rx="5.0" ry="3.5" fill="#c4baac" opacity="0.60" transform="rotate(84.8 321.0 136.0)" />
<path d="M 340.6 151.6 Q 347.4 151.3 352.9 150.9" stroke="#63875e" stroke-width="2.4" stroke-linecap="round" opacity="0.32" fill="none" />
<path d="M 343.5 84.8 Q 349.9 83.7 355.1 81.8" stroke="#63875e" stroke-width="2.4" stroke-linecap="round" opacity="0.32" fill="none" />
<path d="M 170.2 87.0 Q 165.9 87.7 162.3 89.1" stroke="#63875e" stroke-width="2.4" stroke-linecap="round" opacity="0.32" fill="none" />
<path d="M 334.6 104.8 Q 342.2 106.1 348.4 108.6" stroke="#63875e" stroke-width="2.4" stroke-linecap="round" opacity="0.32" fill="none" />
<path d="M 335.6 229.5 Q 341.5 230.8 346.3 233.3" stroke="#63875e" stroke-width="2.4" stroke-linecap="round" opacity="0.32" fill="none" />
<path d="M 341.6 193.8 Q 347.0 192.9 351.4 191.0" stroke="#63875e" stroke-width="2.4" stroke-linecap="round" opacity="0.32" fill="none" />
<path d="M 337.3 100.4 Q 343.0 98.6 347.7 95.4" stroke="#63875e" stroke-width="2.4" stroke-linecap="round" opacity="0.32" fill="none" />
<path d="M 174.8 98.1 Q 169.5 99.3 165.2 101.6" stroke="#63875e" stroke-width="2.4" stroke-linecap="round" opacity="0.32" fill="none" />
<path d="M 177.1 184.9 Q 171.8 184.3 167.4 183.2" stroke="#63875e" stroke-width="2.4" stroke-linecap="round" opacity="0.32" fill="none" />
<path d="M 336.7 178.3 Q 341.7 178.3 345.8 178.4" stroke="#63875e" stroke-width="2.4" stroke-linecap="round" opacity="0.32" fill="none" />
<path d="M 175.0 220.6 Q 167.6 221.8 161.5 224.2" stroke="#63875e" stroke-width="2.4" stroke-linecap="round" opacity="0.32" fill="none" />
<path d="M 172.1 162.7 Q 166.9 161.9 162.7 160.6" stroke="#63875e" stroke-width="2.4" stroke-linecap="round" opacity="0.32" fill="none" />
<path d="M 174.8 198.3 Q 170.3 197.0 166.6 194.5" stroke="#63875e" stroke-width="2.4" stroke-linecap="round" opacity="0.32" fill="none" />
<path d="M 171.3 233.9 Q 165.1 232.2 160.0 229.0" stroke="#63875e" stroke-width="2.4" stroke-linecap="round" opacity="0.32" fill="none" />
<path d="M 172.0 80.3 Q 165.7 80.0 160.6 79.5" stroke="#63875e" stroke-width="2.4" stroke-linecap="round" opacity="0.32" fill="none" />
<path d="M 343.1 124.8 Q 348.0 123.5 352.0 120.9" stroke="#63875e" stroke-width="2.4" stroke-linecap="round" opacity="0.32" fill="none" />
<path d="M 344.4 191.6 Q 350.9 190.9 356.2 189.6" stroke="#63875e" stroke-width="2.4" stroke-linecap="round" opacity="0.32" fill="none" />
<path d="M 340.0 160.5 Q 346.0 160.8 350.8 161.4" stroke="#63875e" stroke-width="2.4" stroke-linecap="round" opacity="0.32" fill="none" />
<path d="M 171.2 120.4 Q 164.8 120.9 159.5 121.9" stroke="#63875e" stroke-width="2.4" stroke-linecap="round" opacity="0.32" fill="none" />
<path d="M 334.1 229.5 Q 341.8 229.6 348.1 229.9" stroke="#63875e" stroke-width="2.4" stroke-linecap="round" opacity="0.32" fill="none" />
<path d="M 175.8 144.9 Q 170.6 144.0 166.3 142.5" stroke="#63875e" stroke-width="2.4" stroke-linecap="round" opacity="0.32" fill="none" />
<path d="M 173.7 236.1 Q 168.8 237.8 164.9 240.9" stroke="#63875e" stroke-width="2.4" stroke-linecap="round" opacity="0.32" fill="none" />
<path d="M 338.5 98.1 Q 345.8 96.5 351.8 93.6" stroke="#63875e" stroke-width="2.4" stroke-linecap="round" opacity="0.32" fill="none" />
<path d="M 342.1 233.9 Q 346.4 233.9 349.9 233.9" stroke="#63875e" stroke-width="2.4" stroke-linecap="round" opacity="0.32" fill="none" />
<path d="M 167.8 78.1 Q 160.7 77.4 154.9 76.0" stroke="#63875e" stroke-width="2.4" stroke-linecap="round" opacity="0.32" fill="none" />
<path d="M 334.8 122.6 Q 339.5 122.1 343.4 121.1" stroke="#63875e" stroke-width="2.4" stroke-linecap="round" opacity="0.32" fill="none" />
<path d="M 171.6 229.5 Q 164.0 229.9 157.7 230.6" stroke="#63875e" stroke-width="2.4" stroke-linecap="round" opacity="0.32" fill="none" />
<path d="M 341.5 89.2 Q 346.7 89.0 350.9 88.7" stroke="#63875e" stroke-width="2.4" stroke-linecap="round" opacity="0.32" fill="none" />
<path d="M 176.5 100.4 Q 170.5 101.4 165.6 103.5" stroke="#63875e" stroke-width="2.4" stroke-linecap="round" opacity="0.32" fill="none" />
<path d="M 174.7 200.5 Q 168.8 199.9 163.9 198.6" stroke="#63875e" stroke-width="2.4" stroke-linecap="round" opacity="0.32" fill="none" />
    <path d="M 256.0 55.9 L 256.0 251.7" fill="none" stroke="url(#water-fill)" stroke-width="68.0" stroke-linecap="butt" />
    <path d="M 256.0 55.9 L 256.0 251.7" fill="none" stroke="url(#water-shade)" stroke-width="68.0" stroke-linecap="butt" />
    <path d="M 256.0 55.9 L 256.0 251.7" fill="none" stroke="#d5f3f6" stroke-width="68.0" stroke-linecap="butt" opacity="0.28" />
    <ellipse cx="256.0" cy="266.0" rx="44.2" ry="23.8" fill="url(#water-fill)" />
    <ellipse cx="256.0" cy="266.0" rx="44.2" ry="23.8" fill="url(#water-shade)" />
    <ellipse cx="256.0" cy="266.0" rx="44.2" ry="23.8" fill="#d5f3f6" opacity="0.28" />
    <ellipse cx="256.0" cy="266.0" rx="44.2" ry="23.8" fill="none" stroke="#d5f3f6" stroke-width="2" opacity="0.25" />
<path d="M 241.7 202.7 Q 256.0 200.7 270.3 202.7" stroke="#81cbd8" stroke-width="1.39" stroke-linecap="round" opacity="0.25" fill="none" />
<path d="M 242.7 169.4 Q 256.0 166.8 269.3 169.4" stroke="#81cbd8" stroke-width="1.90" stroke-linecap="round" opacity="0.28" fill="none" />
<path d="M 235.0 167.1 Q 256.0 167.6 277.0 167.1" stroke="#a6dde9" stroke-width="1.12" stroke-linecap="round" opacity="0.30" fill="none" />
<path d="M 229.1 89.2 Q 256.0 88.0 282.9 89.2" stroke="#a6dde9" stroke-width="1.56" stroke-linecap="round" opacity="0.23" fill="none" />
<path d="M 245.7 142.6 Q 256.0 141.5 266.3 142.6" stroke="#81cbd8" stroke-width="1.06" stroke-linecap="round" opacity="0.23" fill="none" />
<path d="M 243.8 202.7 Q 256.0 201.0 268.2 202.7" stroke="#81cbd8" stroke-width="1.01" stroke-linecap="round" opacity="0.24" fill="none" />
<path d="M 240.3 196.1 Q 256.0 192.1 271.7 196.1" stroke="#a6dde9" stroke-width="1.29" stroke-linecap="round" opacity="0.25" fill="none" />
<path d="M 240.1 122.6 Q 256.0 124.7 271.9 122.6" stroke="#81cbd8" stroke-width="1.83" stroke-linecap="round" opacity="0.25" fill="none" />
<path d="M 231.1 231.7 Q 256.0 229.5 280.9 231.7" stroke="#81cbd8" stroke-width="1.76" stroke-linecap="round" opacity="0.28" fill="none" />
<path d="M 241.7 225.0 Q 256.0 228.8 270.3 225.0" stroke="#c6eef8" stroke-width="1.17" stroke-linecap="round" opacity="0.19" fill="none" />
<path d="M 231.2 102.6 Q 256.0 106.5 280.8 102.6" stroke="#81cbd8" stroke-width="1.58" stroke-linecap="round" opacity="0.20" fill="none" />
<path d="M 239.5 158.2 Q 256.0 157.4 272.5 158.2" stroke="#81cbd8" stroke-width="1.55" stroke-linecap="round" opacity="0.18" fill="none" />
    <ellipse cx="256.0" cy="266.0" rx="13.3" ry="7.1" fill="none" stroke="#81cbd8" stroke-width="1.0" opacity="0.18" />
    <ellipse cx="256.0" cy="266.0" rx="21.2" ry="11.4" fill="none" stroke="#81cbd8" stroke-width="1.0" opacity="0.14" />
    <ellipse cx="256.0" cy="266.0" rx="29.2" ry="15.7" fill="none" stroke="#81cbd8" stroke-width="1.0" opacity="0.10" />
    <path d="M 218.2 259.2 Q 213.6 257.9 209.0 256.1" stroke="#4a5a3a" stroke-width="2.0" stroke-linecap="round" opacity="0.35" fill="none" />
    <path d="M 240.7 241.1 Q 239.2 238.0 237.7 233.3" stroke="#4a5a3a" stroke-width="2.0" stroke-linecap="round" opacity="0.35" fill="none" />
    <path d="M 244.1 241.8 Q 242.9 238.9 241.6 234.6" stroke="#4a5a3a" stroke-width="2.0" stroke-linecap="round" opacity="0.35" fill="none" />
    <path d="M 231.3 243.8 Q 228.6 241.7 225.9 238.4" stroke="#4a5a3a" stroke-width="2.0" stroke-linecap="round" opacity="0.35" fill="none" />
    <path d="M 214.7 271.5 Q 209.1 272.1 203.6 273.1" stroke="#4a5a3a" stroke-width="2.0" stroke-linecap="round" opacity="0.35" fill="none" />
    <path d="M 237.0 247.4 Q 235.1 244.5 233.2 240.2" stroke="#4a5a3a" stroke-width="2.0" stroke-linecap="round" opacity="0.35" fill="none" />
    <path d="M 283.3 284.2 Q 286.1 287.7 288.9 293.1" stroke="#4a5a3a" stroke-width="2.0" stroke-linecap="round" opacity="0.35" fill="none" />
    <path d="M 302.8 275.4 Q 308.4 276.8 314.0 278.8" stroke="#4a5a3a" stroke-width="2.0" stroke-linecap="round" opacity="0.35" fill="none" />
  </g>
</svg>
