<svg xmlns="http://www.w3.org/2000/svg" width="512" height="512" viewBox="0 0 512 512">
  <defs>
    <clipPath id="hex-clip">
      <polygon points="48.0,256.0 152.0,75.9 360.0,75.9 464.0,256.0 360.0,436.1 152.0,436.1" />
    </clipPath>
    <linearGradient id="water-fill" x1="0%" y1="0%" x2="100%" y2="0%">
      <stop offset="0%" stop-color="#295f69" />
      <stop offset="20%" stop-color="#327884" />
      <stop offset="50%" stop-color="#5ea4af" />
      <stop offset="80%" stop-color="#327884" />
      <stop offset="100%" stop-color="#295f69" />
    </linearGradient>
    <linearGradient id="water-shade" x1="0%" y1="0%" x2="0%" y2="100%">
      <stop offset="0%" stop-color="#8dd6de" stop-opacity="0.38" />
      <stop offset="35%" stop-color="#ffffff" stop-opacity="0.06" />
      <stop offset="100%" stop-color="#11343e" stop-opacity="0.24" />
    </linearGradient>
  </defs>
  <g clip-path="url(#hex-clip)">
<ellipse cx="366.2" cy="95.0" rx="5.4" ry="3.4" fill="#ada295" opacity="0.47" transform="rotate(93.7 366.2 95.0)" />
<ellipse cx="355.4" cy="89.1" rx="2.8" ry="2.7" fill="#ada295" opacity="0.39" transform="rotate(101.1 355.4 89.1)" />
<ellipse cx="170.1" cy="103.0" rx="3.3" ry="3.0" fill="#c4baac" opacity="0.69" transform="rotate(70.5 170.1 103.0)" />
<ellipse cx="171.8" cy="172.9" rx="3.6" ry="3.0" fill="#ada295" opacity="0.62" transform="rotate(36.9 171.8 172.9)" />
<ellipse cx="145.4" cy="142.7" rx="4.7" ry="1.7" fill="#8e857b" opacity="0.31" transform="rotate(129.9 145.4 142.7)" />
<ellipse cx="139.7" cy="135.2" rx="3.0" ry="2.6" fill="#c4baac" opacity="0.39" transform="rotate(61.5 139.7 135.2)" />
<ellipse cx="354.6" cy="163.7" rx="3.0" ry="2.7" fill="#ada295" opacity="0.61" transform="rotate(127.9 354.6 163.7)" />
<ellipse cx="344.7" cy="134.5" rx="2.4" ry="3.2" fill="#8e857b" opacity="0.47" transform="rotate(145.3 344.7 134.5)" />
<ellipse cx="147.4" cy="158.5" rx="2.1" ry="2.3" fill="#ddd4c7" opacity="0.49" transform="rotate(28.1 147.4 158.5)" />
<ellipse cx="369.7" cy="91.5" rx="4.0" ry="2.2" fill="#ada295" opacity="0.50" transform="rotate(120.4 369.7 91.5)" />
<ellipse cx="172.6" cy="223.8" rx="2.2" ry="2.7" fill="#ddd4c7" opacity="0.28" transform="rotate(109.8 172.6 223.8)" />
<ellipse cx="144.7" cy="227.6" rx="4.4" ry="2.2" fill="#ddd4c7" opacity="0.53" transform="rotate(13.7 144.7 227.6)" />
<ellipse cx="147.8" cy="172.7" rx="5.4" ry="3.4" fill="#ddd4c7" opacity="0.40" transform="rotate(38.9 147.8 172.7)" />
<ellipse cx="157.0" cy="227.7" rx="3.6" ry="3.9" fill="#ddd4c7" opacity="0.59" transform="rotate(173.5 157.0 227.7)" />
<ellipse cx="342.1" cy="93.6" rx="5.3" ry="1.6" fill="#ada295" opacity="0.66" transform="rotate(97.7 342.1 93.6)" />
<ellipse cx="365.6" cy="78.0" rx="3.2" ry="1.9" fill="#8e857b" opacity="0.31" transform="rotate(116.4 365.6 78.0)" />
<ellipse cx="146.7" cy="92.6" rx="2.9" ry="3.3" fill="#c4baac" opacity="0.54" transform="rotate(159.2 146.7 92.6)" />
<ellipse cx="145.3" cy="148.0" rx="5.5" ry="3.4" fill="#c4baac" opacity="0.65" transform="rotate(113.5 145.3 148.0)" />
<ellipse cx="167.4" cy="159.4" rx="2.3" ry="3.2" fill="#ddd4c7" opacity="0.41" transform="rotate(171.2 167.4 159.4)" />
<ellipse cx="355.5" cy="219.8" rx="4.3" ry="4.0" fill="#c4baac" opacity="0.55" transform="rotate(164.9 355.5 219.8)" />
<ellipse cx="343.6" cy="209.8" rx="5.2" ry="3.5" fill="#ddd4c7" opacity="0.36" transform="rotate(96.9 343.6 209.8)" />
<ellipse cx="355.5" cy="186.3" rx="3.0" ry="1.7" fill="#ada295" opacity="0.67" transform="rotate(141.4 355.5 186.3)" />
<ellipse cx="162.2" cy="86.8" rx="3.4" ry="3.7" fill="#ddd4c7" opacity="0.63" transform="rotate(161.6 162.2 86.8)" />
<ellipse cx="152.9" cy="114.5" rx="3.1" ry="3.5" fill="#ada295" opacity="0.53" transform="rotate(168.6 152.9 114.5)" />
<ellipse cx="172.0" cy="174.6" rx="2.3" ry="2.9" fill="#c4baac" opacity="0.52" transform="rotate(95.5 172.0 174.6)" />
<ellipse cx="362.0" cy="198.1" rx="5.3" ry="2.8" fill="#8e857b" opacity="0.51" transform="rotate(115.6 362.0 198.1)" />
<ellipse cx="366.3" cy="105.8" rx="5.6" ry="1.7" fill="#8e857b" opacity="0.50" transform="rotate(114.8 366.3 105.8)" />
<ellipse cx="362.1" cy="73.3" rx="5.2" ry="2.9" fill="#ada295" opacity="0.45" transform="rotate(7.9 362.1 73.3)" />
<ellipse cx="346.8" cy="155.8" rx="2.6" ry="2.6" fill="#ddd4c7" opacity="0.50" transform="rotate(139.7 346.8 155.8)" />
<ellipse cx="147.5" cy="138.8" rx="2.8" ry="3.2" fill="#8e857b" opacity="0.35" transform="rotate(134.4 147.5 138.8)" />
<ellipse cx="348.7" cy="90.6" rx="5.1" ry="2.0" fill="#ada295" opacity="0.66" transform="rotate(74.3 348.7 90.6)" />
<ellipse cx="143.2" cy="209.0" rx="5.6" ry="1.9" fill="#ada295" opacity="0.69" transform="rotate(130.3 143.2 209.0)" />
<ellipse cx="341.6" cy="80.1" rx="2.3" ry="3.0" fill="#ddd4c7" opacity="0.35" transform="rotate(122.8 341.6 80.1)" />
<ellipse cx="362.4" cy="119.3" rx="2.5" ry="2.6" fill="#c4baac" opacity="0.32" transform="rotate(110.2 362.4 119.3)" />
<ellipse cx="346.1" cy="232.6" rx="2.3" ry="3.1" fill="#ada295" opacity="0.69" transform="rotate(78.8 346.1 232.6)" />
<ellipse cx="352.3" cy="167.3" rx="3.4" ry="1.9" fill="#ada295" opacity="0.49" transform="rotate(148.6 352.3 167.3)" />
<ellipse cx="355.9" cy="92.9" rx="4.0" ry="3.4" fill="#c4baac" opacity="0.55" transform="rotate(19.2 355.9 92.9)" />
<ellipse cx="140.5" cy="149.1" rx="2.3" ry="3.6" fill="#c4baac" opacity="0.53" transform="rotate(156.7 140.5 149.1)" />
<ellipse cx="170.0" cy="111.1" rx="3.0" ry="2.4" fill="#c4baac" opacity="0.65" transform="rotate(154.4 170.0 111.1)" />
<ellipse cx="140.8" cy="127.5" rx="2.8" ry="3.5" fill="#ddd4c7" opacity="0.37" transform="rotate(85.9 140.8 127.5)" />
<ellipse cx="361.5" cy="183.4" rx="3.6" ry="2.3" fill="#c4baac" opacity="0.44" transform="rotate(105.8 361.5 183.4)" />
<ellipse cx="161.9" cy="111.5" rx="5.5" ry="2.3" fill="#ddd4c7" opacity="0.65" transform="rotate(36.1 161.9 111.5)" />
<ellipse cx="348.1" cy="199.7" rx="2.6" ry="1.9" fill="#c4baac" opacity="0.31" transform="rotate(37.2 348.1 199.7)" />
<ellipse cx="339.4" cy="129.6" rx="2.6" ry="3.0" fill="#ada295" opacity="0.44" transform="rotate(59.4 339.4 129.6)" />
<ellipse cx="354.0" cy="121.5" rx="4.5" ry="2.4" fill="#c4baac" opacity="0.40" transform="rotate(159.3 354.0 121.5)" />
<ellipse cx="155.2" cy="129.3" rx="4.9" ry="3.1" fill="#8e857b" opacity="0.51" transform="rotate(43.6 155.2 129.3)" />
<ellipse cx="158.7" cy="229.9" rx="2.8" ry="3.7" fill="#ada295" opacity="0.68" transform="rotate(39.9 158.7 229.9)" />
<ellipse cx="354.7" cy="199.0" rx="4.8" ry="1.7" fill="#8e857b" opacity="0.34" transform="rotate(52.4 354.7 199.0)" />
<ellipse cx="150.4" cy="191.7" rx="2.5" ry="3.5" fill="#ddd4c7" opacity="0.56" transform="rotate(93.9 150.4 191.7)" />
<ellipse cx="153.7" cy="138.3" rx="5.4" ry="3.4" fill="#8e857b" opacity="0.59" transform="rotate(162.5 153.7 138.3)" />
<ellipse cx="357.1" cy="125.1" rx="2.1" ry="1.7" fill="#c4baac" opacity="0.63" transform="rotate(12.2 357.1 125.1)" />
<ellipse cx="152.8" cy="213.4" rx="3.9" ry="2.4" fill="#ddd4c7" opacity="0.32" transform="rotate(87.2 152.8 213.4)" />
<ellipse cx="153.6" cy="112.5" rx="4.7" ry="1.6" fill="#ada295" opacity="0.51" transform="rotate(107.2 153.6 112.5)" />
<ellipse cx="147.4" cy="151.6" rx="3.6" ry="2.2" fill="#8e857b" opacity="0.44" transform="rotate(46.2 147.4 151.6)" />
<ellipse cx="371.3" cy="189.8" rx="3.8" ry="1.9" fill="#c4baac" opacity="0.42" transform="rotate(161.6 371.3 189.8)" />
<ellipse cx="367.4" cy="132.6" rx="4.3" ry="3.7" fill="#c4baac" opacity="0.34" transform="rotate(58.5 367.4 132.6)" />
<ellipse cx="354.3" cy="165.7" rx="2.2" ry="2.1" fill="#8e857b" opacity="0.67" transform="rotate(174.1 354.3 165.7)" />
<ellipse cx="358.7" cy="194.1" rx="5.1" ry="1.6" fill="#ddd4c7" opacity="0.59" transform="rotate(55.9 358.7 194.1)" />
<ellipse cx="357.1" cy="123.2" rx="4.9" ry="1.6" fill="#8e857b" opacity="0.61" transform="rotate(108.2 357.1 123.2)" />
<ellipse cx="171.9" cy="228.1" rx="5.2" ry="1.9" fill="#8e857b" opacity="0.61" transform="rotate(77.6 171.9 228.1)" />
<ellipse cx="140.9" cy="153.6" rx="5.5" ry="3.4" fill="#8e857b" opacity="0.63" transform="rotate(133.7 140.9 153.6)" />
<ellipse cx="142.0" cy="79.7" rx="4.5" ry="1.7" fill="#8e857b" opacity="0.49" transform="rotate(108.8 142.0 79.7)" />
<ellipse cx="352.8" cy="125.4" rx="4.6" ry="2.2" fill="#c4baac" opacity="0.40" transform="rotate(51.2 352.8 125.4)" />
<ellipse cx="357.7" cy="125.0" rx="2.2" ry="3.0" fill="#ddd4c7" opacity="0.37" transform="rotate(165.0 357.7 125.0)" />
<ellipse cx="155.5" cy="97.1" rx="4.1" ry="2.0" fill="#ada295" opacity="0.62" transform="rotate(174.1 155.5 97.1)" />
<ellipse cx="370.7" cy="227.9" rx="2.6" ry="3.6" fill="#ddd4c7" opacity="0.69" transform="rotate(146.9 370.7 227.9)" />
<ellipse cx="349.8" cy="136.1" rx="3.6" ry="2.5" fill="#ada295" opacity="0.62" transform="rotate(78.6 349.8 136.1)" />
<ellipse cx="353.1" cy="155.4" rx="5.0" ry="3.7" fill="#ddd4c7" opacity="0.43" transform="rotate(29.3 353.1 155.4)" />
<ellipse cx="152.5" cy="125.8" rx="3.4" ry="2.2" fill="#c4baac" opacity="0.44" transform="rotate(103.2 152.5 125.8)" />
<ellipse cx="341.3" cy="192.9" rx="2.3" ry="2.3" fill="#ada295" opacity="0.46" transform="rotate(150.5 341.3 192.9)" />
<ellipse cx="369.3" cy="110.1" rx="3.1" ry="3.0" fill="#ddd4c7" opacity="0.43" transform="rotate(95.0 369.3 110.1)" />
<ellipse cx="153.4" cy="224.8" rx="2.5" ry="3.1" fill="#c4baac" opacity="0.28" transform="rotate(90.3 153.4 224.8)" />
<ellipse cx="153.1" cy="112.3" rx="2.8" ry="3.2" fill="#c4baac" opacity="0.37" transform="rotate(102.4 153.1 112.3)" />
<ellipse cx="173.5" cy="123.6" rx="4.8" ry="3.5" fill="#8e857b" opacity="0.48" transform="rotate(106.1 173.5 123.6)" />
<ellipse cx="359.0" cy="200.7" rx="5.6" ry="3.7" fill="#ada295" opacity="0.59" transform="rotate(80.8 359.0 200.7)" />
<ellipse cx="150.9" cy="203.8" rx="2.9" ry="3.1" fill="#c4baac" opacity="0.29" transform="rotate(99.3 150.9 203.8)" />
<ellipse cx="173.0" cy="196.0" rx="4.8" ry="2.9" fill="#ada295" opacity="0.53" transform="rotate(24.3 173.0 196.0)" />
<ellipse cx="367.9" cy="159.3" rx="2.2" ry="1.9" fill="#8e857b" opacity="0.28" transform="rotate(153.7 367.9 159.3)" />
<ellipse cx="345.2" cy="141.0" rx="2.2" ry="3.1" fill="#8e857b" opacity="0.32" transform="rotate(131.2 345.2 141.0)" />
<ellipse cx="366.5" cy="159.2" rx="5.5" ry="3.0" fill="#ddd4c7" opacity="0.68" transform="rotate(45.6 366.5 159.2)" />
<ellipse cx="373.6" cy="230.4" rx="3.3" ry="3.2" fill="#ddd4c7" opacity="0.53" transform="rotate(79.9 373.6 230.4)" />
<ellipse cx="366.9" cy="111.5" rx="3.1" ry="3.5" fill="#ada295" opacity="0.56" transform="rotate(143.6 366.9 111.5)" />
<ellipse cx="156.6" cy="231.2" rx="2.4" ry="3.0" fill="#8e857b" opacity="0.58" transform="rotate(3.9 156.6 231.2)" />
<ellipse cx="356.6" cy="183.9" rx="4.4" ry="3.8" fill="#ada295" opacity="0.38" transform="rotate(43.3 356.6 183.9)" />
<ellipse cx="142.7" cy="212.4" rx="2.6" ry="2.4" fill="#c4baac" opacity="0.38" transform="rotate(25.0 142.7 212.4)" />
<ellipse cx="362.7" cy="90.3" rx="3.8" ry="3.1" fill="#ddd4c7" opacity="0.31" transform="rotate(131.8 362.7 90.3)" />
<ellipse cx="361.6" cy="121.7" rx="4.7" ry="1.5" fill="#c4baac" opacity="0.64" transform="rotate(30.5 361.6 121.7)" />
<ellipse cx="358.7" cy="159.9" rx="4.6" ry="3.4" fill="#ddd4c7" opacity="0.50" transform="rotate(60.2 358.7 159.9)" />
<ellipse cx="148.5" cy="161.0" rx="5.3" ry="3.0" fill="#ada295" opacity="0.44" transform="rotate(27.9 148.5 161.0)" />
<ellipse cx="172.2" cy="98.8" rx="3.4" ry="1.7" fill="#ddd4c7" opacity="0.55" transform="rotate(110.7 172.2 98.8)" />
<ellipse cx="163.2" cy="224.8" rx="4.7" ry="2.4" fill="#ada295" opacity="0.60" transform="rotate(6.3 163.2 224.8)" />
<ellipse cx="138.5" cy="208.7" rx="5.4" ry="3.1" fill="#c4baac" opacity="0.51" transform="rotate(126.9 138.5 208.7)" />
<ellipse cx="147.2" cy="113.1" rx="4.1" ry="3.6" fill="#ddd4c7" opacity="0.69" transform="rotate(102.6 147.2 113.1)" />
<ellipse cx="360.1" cy="83.8" rx="5.3" ry="3.0" fill="#ada295" opacity="0.54" transform="rotate(133.9 360.1 83.8)" />
<ellipse cx="164.7" cy="200.2" rx="5.2" ry="1.6" fill="#ddd4c7" opacity="0.31" transform="rotate(106.6 164.7 200.2)" />
<ellipse cx="167.9" cy="78.1" rx="4.0" ry="1.7" fill="#8e857b" opacity="0.54" transform="rotate(8.4 167.9 78.1)" />
<ellipse cx="342.3" cy="153.3" rx="3.3" ry="2.4" fill="#c4baac" opacity="0.28" transform="rotate(98.0 342.3 153.3)" />
<ellipse cx="360.7" cy="211.2" rx="2.4" ry="3.5" fill="#c4baac" opacity="0.51" transform="rotate(164.7 360.7 211.2)" />
<ellipse cx="168.6" cy="185.3" rx="2.1" ry="3.8" fill="#ada295" opacity="0.48" transform="rotate(7.2 168.6 185.3)" />
<ellipse cx="362.1" cy="80.4" rx="2.2" ry="2.4" fill="#ada295" opacity="0.60" transform="rotate(110.9 362.1 80.4)" />
<ellipse cx="163.7" cy="182.3" rx="2.2" ry="3.3" fill="#c4baac" opacity="0.44" transform="rotate(37.9 163.7 182.3)" />
<ellipse cx="354.9" cy="130.4" rx="4.9" ry="2.6" fill="#c4baac" opacity="0.37" transform="rotate(141.6 354.9 130.4)" />
<ellipse cx="344.7" cy="112.0" rx="2.2" ry="1.9" fill="#ada295" opacity="0.61" transform="rotate(173.5 344.7 112.0)" />
<ellipse cx="373.8" cy="93.5" rx="3.7" ry="3.8" fill="#c4baac" opacity="0.66" transform="rotate(154.2 373.8 93.5)" />
<ellipse cx="141.5" cy="205.0" rx="2.3" ry="2.9" fill="#ddd4c7" opacity="0.48" transform="rotate(153.9 141.5 205.0)" />
<ellipse cx="173.1" cy="228.6" rx="4.7" ry="3.4" fill="#8e857b" opacity="0.54" transform="rotate(43.7 173.1 228.6)" />
<ellipse cx="360.9" cy="127.0" rx="3.9" ry="2.6" fill="#ada295" opacity="0.60" transform="rotate(147.3 360.9 127.0)" />
<ellipse cx="358.0" cy="194.0" rx="3.0" ry="3.9" fill="#ada295" opacity="0.64" transform="rotate(29.6 358.0 194.0)" />
<ellipse cx="348.4" cy="86.3" rx="2.2" ry="2.7" fill="#ada295" opacity="0.64" transform="rotate(156.8 348.4 86.3)" />
<ellipse cx="361.8" cy="99.4" rx="4.5" ry="1.8" fill="#ddd4c7" opacity="0.46" transform="rotate(42.1 361.8 99.4)" />
<ellipse cx="355.2" cy="161.0" rx="2.9" ry="1.7" fill="#ddd4c7" opacity="0.68" transform="rotate(30.3 355.2 161.0)" />
<ellipse cx="345.7" cy="81.1" rx="4.4" ry="3.9" fill="#ddd4c7" opacity="0.65" transform="rotate(150.4 345.7 81.1)" />
<ellipse cx="338.8" cy="174.5" rx="4.8" ry="3.3" fill="#ddd4c7" opacity="0.32" transform="rotate(116.9 338.8 174.5)" />
<ellipse cx="370.1" cy="151.0" rx="5.2" ry="1.4" fill="#c4baac" opacity="0.49" transform="rotate(111.2 370.1 151.0)" />
<ellipse cx="360.5" cy="221.7" rx="3.9" ry="3.0" fill="#8e857b" opacity="0.62" transform="rotate(26.8 360.5 221.7)" />
<ellipse cx="153.7" cy="176.5" rx="4.8" ry="1.5" fill="#ddd4c7" opacity="0.56" transform="rotate(144.0 153.7 176.5)" />
<ellipse cx="141.0" cy="163.7" rx="3.5" ry="3.7" fill="#c4baac" opacity="0.32" transform="rotate(95.5 141.0 163.7)" />
<ellipse cx="368.3" cy="101.4" rx="4.1" ry="3.3" fill="#ada295" opacity="0.46" transform="rotate(90.4 368.3 101.4)" />
<ellipse cx="363.9" cy="129.2" rx="3.1" ry="1.6" fill="#8e857b" opacity="0.45" transform="rotate(56.0 363.9 129.2)" />
<path d="M 393.1 155.2 Q 398.4 154.7 402.6 153.6" stroke="#63875e" stroke-width="2.4" stroke-linecap="round" opacity="0.32" fill="none" />
<path d="M 396.7 181.7 Q 403.4 180.7 408.9 179.0" stroke="#63875e" stroke-width="2.4" stroke-linecap="round" opacity="0.32" fill="none" />
<path d="M 389.7 75.9 Q 394.5 75.2 398.5 74.1" stroke="#63875e" stroke-width="2.4" stroke-linecap="round" opacity="0.32" fill="none" />
<path d="M 395.9 88.1 Q 403.3 89.0 409.4 90.7" stroke="#63875e" stroke-width="2.4" stroke-linecap="round" opacity="0.32" fill="none" />
<path d="M 389.9 92.1 Q 394.8 92.8 398.9 94.1" stroke="#63875e" stroke-width="2.4" stroke-linecap="round" opacity="0.32" fill="none" />
<path d="M 118.4 128.8 Q 112.9 128.8 108.4 129.0" stroke="#63875e" stroke-width="2.4" stroke-linecap="round" opacity="0.32" fill="none" />
<path d="M 387.2 149.1 Q 391.1 150.7 394.3 153.5" stroke="#63875e" stroke-width="2.4" stroke-linecap="round" opacity="0.32" fill="none" />
<path d="M 388.3 171.5 Q 393.2 172.0 397.2 172.9" stroke="#63875e" stroke-width="2.4" stroke-linecap="round" opacity="0.32" fill="none" />
<path d="M 388.0 98.2 Q 394.0 96.6 399.0 93.4" stroke="#63875e" stroke-width="2.4" stroke-linecap="round" opacity="0.32" fill="none" />
<path d="M 118.5 126.7 Q 112.1 127.4 106.8 128.5" stroke="#63875e" stroke-width="2.4" stroke-linecap="round" opacity="0.32" fill="none" />
<path d="M 396.1 181.7 Q 403.1 182.4 408.7 183.6" stroke="#63875e" stroke-width="2.4" stroke-linecap="round" opacity="0.32" fill="none" />
<path d="M 388.7 122.7 Q 394.8 123.3 399.7 124.6" stroke="#63875e" stroke-width="2.4" stroke-linecap="round" opacity="0.32" fill="none" />
<path d="M 123.3 114.5 Q 117.3 114.9 112.5 115.7" stroke="#63875e" stroke-width="2.4" stroke-linecap="round" opacity="0.32" fill="none" />
<path d="M 120.9 77.9 Q 114.0 78.2 108.3 78.8" stroke="#63875e" stroke-width="2.4" stroke-linecap="round" opacity="0.32" fill="none" />
<path d="M 120.1 82.0 Q 113.8 82.3 108.6 83.0" stroke="#63875e" stroke-width="2.4" stroke-linecap="round" opacity="0.32" fill="none" />
<path d="M 389.3 165.4 Q 396.4 166.3 402.2 168.1" stroke="#63875e" stroke-width="2.4" stroke-linecap="round" opacity="0.32" fill="none" />
<path d="M 267.9 236.6 Q 272.8 237.1 276.8 238.1" stroke="#63875e" stroke-width="2.4" stroke-linecap="round" opacity="0.32" fill="none" />
<path d="M 392.4 94.2 Q 396.3 95.1 399.5 96.7" stroke="#63875e" stroke-width="2.4" stroke-linecap="round" opacity="0.32" fill="none" />
<path d="M 120.6 75.9 Q 116.2 77.6 112.6 80.7" stroke="#63875e" stroke-width="2.4" stroke-linecap="round" opacity="0.32" fill="none" />
<path d="M 395.7 191.8 Q 401.2 190.8 405.7 188.8" stroke="#63875e" stroke-width="2.4" stroke-linecap="round" opacity="0.32" fill="none" />
<path d="M 396.0 136.9 Q 401.8 136.2 406.6 134.8" stroke="#63875e" stroke-width="2.4" stroke-linecap="round" opacity="0.32" fill="none" />
<path d="M 118.5 218.3 Q 111.4 218.8 105.6 219.8" stroke="#63875e" stroke-width="2.4" stroke-linecap="round" opacity="0.32" fill="none" />
<path d="M 386.1 202.0 Q 393.5 201.8 399.5 201.5" stroke="#63875e" stroke-width="2.4" stroke-linecap="round" opacity="0.32" fill="none" />
<path d="M 389.0 234.6 Q 396.2 232.9 402.0 229.9" stroke="#63875e" stroke-width="2.4" stroke-linecap="round" opacity="0.32" fill="none" />
<path d="M 121.0 173.5 Q 116.2 172.0 112.4 169.2" stroke="#63875e" stroke-width="2.4" stroke-linecap="round" opacity="0.32" fill="none" />
<path d="M 395.7 167.4 Q 400.0 167.9 403.4 168.7" stroke="#63875e" stroke-width="2.4" stroke-linecap="round" opacity="0.32" fill="none" />
<path d="M 392.5 177.6 Q 397.6 179.0 401.8 181.7" stroke="#63875e" stroke-width="2.4" stroke-linecap="round" opacity="0.32" fill="none" />
<path d="M 116.8 136.9 Q 112.5 138.4 109.1 141.2" stroke="#63875e" stroke-width="2.4" stroke-linecap="round" opacity="0.32" fill="none" />
<path d="M 387.9 134.9 Q 392.3 134.4 395.8 133.6" stroke="#63875e" stroke-width="2.4" stroke-linecap="round" opacity="0.32" fill="none" />
<path d="M 123.0 128.8 Q 118.3 128.4 114.5 127.8" stroke="#63875e" stroke-width="2.4" stroke-linecap="round" opacity="0.32" fill="none" />
    <path d="M 256.0 55.9 L 256.0 236.6" fill="none" stroke="url(#water-fill)" stroke-width="140.0" stroke-linecap="butt" />
    <path d="M 256.0 55.9 L 256.0 236.6" fill="none" stroke="url(#water-shade)" stroke-width="140.0" stroke-linecap="butt" />
    <path d="M 256.0 55.9 L 256.0 236.6" fill="none" stroke="#d5f3f6" stroke-width="140.0" stroke-linecap="butt" opacity="0.28" />
    <ellipse cx="256.0" cy="266.0" rx="91.0" ry="49.0" fill="url(#water-fill)" />
    <ellipse cx="256.0" cy="266.0" rx="91.0" ry="49.0" fill="url(#water-shade)" />
    <ellipse cx="256.0" cy="266.0" rx="91.0" ry="49.0" fill="#d5f3f6" opacity="0.28" />
    <ellipse cx="256.0" cy="266.0" rx="91.0" ry="49.0" fill="none" stroke="#d5f3f6" stroke-width="2" opacity="0.25" />
<path d="M 200.5 92.1 Q 256.0 93.7 311.5 92.1" stroke="#a6dde9" stroke-width="1.35" stroke-linecap="round" opacity="0.29" fill="none" />
<path d="M 213.3 234.6 Q 256.0 231.6 298.7 234.6" stroke="#c6eef8" stroke-width="1.93" stroke-linecap="round" opacity="0.17" fill="none" />
<path d="M 201.5 86.0 Q 256.0 85.3 310.5 86.0" stroke="#c6eef8" stroke-width="1.04" stroke-linecap="round" opacity="0.28" fill="none" />
<path d="M 209.6 210.2 Q 256.0 207.1 302.4 210.2" stroke="#a6dde9" stroke-width="1.88" stroke-linecap="round" opacity="0.22" fill="none" />
<path d="M 233.3 212.2 Q 256.0 212.3 278.7 212.2" stroke="#c6eef8" stroke-width="1.05" stroke-linecap="round" opacity="0.26" fill="none" />
<path d="M 223.8 96.2 Q 256.0 93.1 288.2 96.2" stroke="#c6eef8" stroke-width="1.65" stroke-linecap="round" opacity="0.21" fill="none" />
<path d="M 225.9 114.5 Q 256.0 115.0 286.1 114.5" stroke="#a6dde9" stroke-width="1.94" stroke-linecap="round" opacity="0.22" fill="none" />
<path d="M 231.2 118.6 Q 256.0 119.3 280.8 118.6" stroke="#a6dde9" stroke-width="1.88" stroke-linecap="round" opacity="0.27" fill="none" />
<path d="M 230.9 185.7 Q 256.0 182.2 281.1 185.7" stroke="#c6eef8" stroke-width="1.97" stroke-linecap="round" opacity="0.22" fill="none" />
<path d="M 230.4 191.8 Q 256.0 189.2 281.6 191.8" stroke="#c6eef8" stroke-width="1.50" stroke-linecap="round" opacity="0.19" fill="none" />
<path d="M 226.3 147.1 Q 256.0 148.8 285.7 147.1" stroke="#c6eef8" stroke-width="1.32" stroke-linecap="round" opacity="0.26" fill="none" />
<path d="M 212.4 151.1 Q 256.0 151.4 299.6 151.1" stroke="#c6eef8" stroke-width="1.21" stroke-linecap="round" opacity="0.27" fill="none" />
    <ellipse cx="256.0" cy="266.0" rx="27.3" ry="14.7" fill="none" stroke="#81cbd8" stroke-width="1.0" opacity="0.18" />
    <ellipse cx="256.0" cy="266.0" rx="43.7" ry="23.5" fill="none" stroke="#81cbd8" stroke-width="1.0" opacity="0.14" />
    <ellipse cx="256.0" cy="266.0" rx="60.1" ry="32.3" fill="none" stroke="#81cbd8" stroke-width="1.0" opacity="0.10" />
    <path d="M 175.3 241.3 Q 171.4 239.1 167.5 235.8" stroke="#4a5a3a" stroke-width="2.0" stroke-linecap="round" opacity="0.35" fill="none" />
    <path d="M 299.6 216.3 Q 302.0 212.5 304.3 206.9" stroke="#4a5a3a" stroke-width="2.0" stroke-linecap="round" opacity="0.35" fill="none" />
    <path d="M 181.4 300.9 Q 178.7 302.8 175.9 305.6" stroke="#4a5a3a" stroke-width="2.0" stroke-linecap="round" opacity="0.35" fill="none" />
    <path d="M 295.0 318.4 Q 296.1 320.9 297.2 324.7" stroke="#4a5a3a" stroke-width="2.0" stroke-linecap="round" opacity="0.35" fill="none" />
    <path d="M 224.1 221.8 Q 222.9 219.5 221.6 216.1" stroke="#4a5a3a" stroke-width="2.0" stroke-linecap="round" opacity="0.35" fill="none" />
    <path d="M 322.4 240.1 Q 324.5 238.5 326.6 236.0" stroke="#4a5a3a" stroke-width="2.0" stroke-linecap="round" opacity="0.35" fill="none" />
    <path d="M 360.4 274.7 Q 364.3 275.1 368.1 275.7" stroke="#4a5a3a" stroke-width="2.0" stroke-linecap="round" opacity="0.35" fill="none" />
    <path d="M 238.8 214.7 Q 237.8 210.3 236.7 203.8" stroke="#4a5a3a" stroke-width="2.0" stroke-linecap="round" opacity="0.35" fill="none" />
  </g>
</svg>
