<svg xmlns="http://www.w3.org/2000/svg" width="512" height="512" viewBox="0 0 512 512">
  <defs>
    <clipPath id="hex-clip">
      <polygon points="48.0,256.0 152.0,75.9 360.0,75.9 464.0,256.0 360.0,436.1 152.0,436.1" />
    </clipPath>
    <linearGradient id="water-fill" x1="0%" y1="0%" x2="100%" y2="0%">
      <stop offset="0%" stop-color="#295f69" />
      <stop offset="20%" stop-color="#327884" />
      <stop offset="50%" stop-color="#5ea4af" />
      <stop offset="80%" stop-color="#327884" />
      <stop offset="100%" stop-color="#295f69" />
    </linearGradient>
    <linearGradient id="water-shade" x1="0%" y1="0%" x2="0%" y2="100%">
      <stop offset="0%" stop-color="#8dd6de" stop-opacity="0.38" />
      <stop offset="35%" stop-color="#ffffff" stop-opacity="0.06" />
      <stop offset="100%" stop-color="#11343e" stop-opacity="0.24" />
    </linearGradient>
  </defs>
  <g clip-path="url(#hex-clip)">
<ellipse cx="341.2" cy="198.6" rx="3.9" ry="2.4" fill="#ada295" opacity="0.51" transform="rotate(164.5 341.2 198.6)" />
<ellipse cx="331.9" cy="213.4" rx="5.1" ry="2.7" fill="#c4baac" opacity="0.55" transform="rotate(65.8 331.9 213.4)" />
<ellipse cx="167.5" cy="193.5" rx="3.4" ry="2.7" fill="#8e857b" opacity="0.64" transform="rotate(140.1 167.5 193.5)" />
<ellipse cx="193.5" cy="193.2" rx="4.5" ry="1.6" fill="#c4baac" opacity="0.66" transform="rotate(156.2 193.5 193.2)" />
<ellipse cx="188.0" cy="128.3" rx="5.2" ry="2.0" fill="#ddd4c7" opacity="0.53" transform="rotate(90.0 188.0 128.3)" />
<ellipse cx="192.6" cy="120.2" rx="4.2" ry="4.0" fill="#8e857b" opacity="0.38" transform="rotate(178.1 192.6 120.2)" />
<ellipse cx="168.0" cy="219.5" rx="4.6" ry="2.0" fill="#c4baac" opacity="0.68" transform="rotate(108.3 168.0 219.5)" />
<ellipse cx="186.5" cy="148.2" rx="3.9" ry="1.7" fill="#ddd4c7" opacity="0.45" transform="rotate(147.6 186.5 148.2)" />
<ellipse cx="168.7" cy="166.7" rx="3.1" ry="1.7" fill="#8e857b" opacity="0.31" transform="rotate(132.0 168.7 166.7)" />
<ellipse cx="176.7" cy="150.0" rx="2.1" ry="3.2" fill="#ddd4c7" opacity="0.44" transform="rotate(40.8 176.7 150.0)" />
<ellipse cx="166.1" cy="115.6" rx="4.4" ry="2.8" fill="#ddd4c7" opacity="0.43" transform="rotate(148.5 166.1 115.6)" />
<ellipse cx="326.3" cy="154.4" rx="3.4" ry="1.4" fill="#ddd4c7" opacity="0.41" transform="rotate(25.3 326.3 154.4)" />
<ellipse cx="180.3" cy="186.2" rx="3.1" ry="3.4" fill="#ddd4c7" opacity="0.48" transform="rotate(1.1 180.3 186.2)" />
<ellipse cx="177.8" cy="120.7" rx="2.3" ry="3.4" fill="#8e857b" opacity="0.39" transform="rotate(71.8 177.8 120.7)" />
<ellipse cx="332.3" cy="86.1" rx="3.1" ry="3.1" fill="#ddd4c7" opacity="0.69" transform="rotate(12.6 332.3 86.1)" />
<ellipse cx="322.3" cy="198.3" rx="3.3" ry="2.8" fill="#ddd4c7" opacity="0.37" transform="rotate(130.0 322.3 198.3)" />
<ellipse cx="171.5" cy="125.0" rx="5.5" ry="3.1" fill="#8e857b" opacity="0.48" transform="rotate(106.7 171.5 125.0)" />
<ellipse cx="330.8" cy="95.1" rx="4.7" ry="2.2" fill="#ddd4c7" opacity="0.31" transform="rotate(125.4 330.8 95.1)" />
<ellipse cx="345.8" cy="237.2" rx="4.5" ry="3.0" fill="#c4baac" opacity="0.37" transform="rotate(15.6 345.8 237.2)" />
<ellipse cx="172.4" cy="181.7" rx="5.6" ry="1.9" fill="#ada295" opacity="0.51" transform="rotate(108.6 172.4 181.7)" />
<ellipse cx="181.6" cy="193.3" rx="5.4" ry="1.8" fill="#8e857b" opacity="0.49" transform="rotate(133.0 181.6 193.3)" />
<ellipse cx="192.3" cy="180.3" rx="4.0" ry="3.6" fill="#c4baac" opacity="0.48" transform="rotate(39.5 192.3 180.3)" />
<ellipse cx="332.6" cy="154.5" rx="4.4" ry="2.4" fill="#ada295" opacity="0.62" transform="rotate(179.7 332.6 154.5)" />
<ellipse cx="326.0" cy="163.8" rx="5.0" ry="3.8" fill="#8e857b" opacity="0.43" transform="rotate(125.1 326.0 163.8)" />
<ellipse cx="320.9" cy="238.7" rx="3.4" ry="3.4" fill="#ada295" opacity="0.53" transform="rotate(115.7 320.9 238.7)" />
<ellipse cx="320.6" cy="126.4" rx="2.6" ry="3.5" fill="#ada295" opacity="0.33" transform="rotate(61.3 320.6 126.4)" />
<ellipse cx="171.7" cy="128.8" rx="4.4" ry="4.0" fill="#ddd4c7" opacity="0.70" transform="rotate(59.9 171.7 128.8)" />
<ellipse cx="342.3" cy="138.9" rx="3.5" ry="3.0" fill="#ddd4c7" opacity="0.36" transform="rotate(125.0 342.3 138.9)" />
<ellipse cx="323.4" cy="185.6" rx="5.0" ry="2.8" fill="#c4baac" opacity="0.54" transform="rotate(7.4 323.4 185.6)" />
<ellipse cx="318.8" cy="232.3" rx="4.2" ry="3.3" fill="#ada295" opacity="0.45" transform="rotate(30.8 318.8 232.3)" />
<ellipse cx="328.0" cy="111.6" rx="5.6" ry="2.3" fill="#c4baac" opacity="0.51" transform="rotate(9.4 328.0 111.6)" />
<ellipse cx="181.5" cy="134.2" rx="4.8" ry="1.9" fill="#8e857b" opacity="0.57" transform="rotate(37.4 181.5 134.2)" />
<ellipse cx="186.1" cy="215.8" rx="5.2" ry="2.6" fill="#8e857b" opacity="0.43" transform="rotate(65.4 186.1 215.8)" />
<ellipse cx="181.5" cy="218.2" rx="2.8" ry="3.0" fill="#8e857b" opacity="0.32" transform="rotate(135.1 181.5 218.2)" />
<ellipse cx="181.4" cy="140.1" rx="5.0" ry="1.7" fill="#ddd4c7" opacity="0.67" transform="rotate(160.5 181.4 140.1)" />
<ellipse cx="333.4" cy="110.2" rx="3.8" ry="3.3" fill="#ddd4c7" opacity="0.47" transform="rotate(170.9 333.4 110.2)" />
<ellipse cx="170.2" cy="208.0" rx="3.0" ry="2.8" fill="#ddd4c7" opacity="0.68" transform="rotate(43.1 170.2 208.0)" />
<ellipse cx="345.8" cy="110.6" rx="4.1" ry="1.4" fill="#ada295" opacity="0.64" transform="rotate(65.9 345.8 110.6)" />
<ellipse cx="338.9" cy="125.0" rx="3.5" ry="3.9" fill="#8e857b" opacity="0.52" transform="rotate(121.3 338.9 125.0)" />
<ellipse cx="166.2" cy="141.9" rx="2.1" ry="3.2" fill="#ada295" opacity="0.66" transform="rotate(75.1 166.2 141.9)" />
<ellipse cx="176.5" cy="204.7" rx="4.8" ry="1.5" fill="#c4baac" opacity="0.30" transform="rotate(126.0 176.5 204.7)" />
<ellipse cx="191.5" cy="129.7" rx="2.9" ry="3.1" fill="#8e857b" opacity="0.69" transform="rotate(116.3 191.5 129.7)" />
<ellipse cx="174.4" cy="230.3" rx="3.9" ry="3.3" fill="#ddd4c7" opacity="0.46" transform="rotate(1.3 174.4 230.3)" />
<ellipse cx="320.9" cy="105.3" rx="2.6" ry="3.0" fill="#c4baac" opacity="0.42" transform="rotate(160.9 320.9 105.3)" />
<ellipse cx="330.3" cy="73.2" rx="2.3" ry="2.5" fill="#8e857b" opacity="0.53" transform="rotate(68.5 330.3 73.2)" />
<ellipse cx="174.9" cy="241.2" rx="3.8" ry="2.3" fill="#8e857b" opacity="0.41" transform="rotate(84.3 174.9 241.2)" />
<ellipse cx="170.5" cy="240.5" rx="4.6" ry="3.5" fill="#ada295" opacity="0.61" transform="rotate(44.8 170.5 240.5)" />
<ellipse cx="341.8" cy="105.7" rx="3.2" ry="2.8" fill="#ddd4c7" opacity="0.65" transform="rotate(17.7 341.8 105.7)" />
<ellipse cx="178.3" cy="167.1" rx="4.8" ry="1.7" fill="#c4baac" opacity="0.33" transform="rotate(11.7 178.3 167.1)" />
<ellipse cx="318.5" cy="109.4" rx="4.1" ry="2.0" fill="#8e857b" opacity="0.61" transform="rotate(67.9 318.5 109.4)" />
<ellipse cx="345.4" cy="102.1" rx="5.1" ry="1.6" fill="#c4baac" opacity="0.58" transform="rotate(41.7 345.4 102.1)" />
<ellipse cx="171.2" cy="129.2" rx="2.7" ry="1.8" fill="#c4baac" opacity="0.66" transform="rotate(160.5 171.2 129.2)" />
<ellipse cx="175.7" cy="193.5" rx="3.2" ry="3.7" fill="#ada295" opacity="0.62" transform="rotate(24.2 175.7 193.5)" />
<ellipse cx="345.0" cy="160.7" rx="2.4" ry="2.9" fill="#c4baac" opacity="0.68" transform="rotate(147.0 345.0 160.7)" />
<ellipse cx="331.3" cy="226.0" rx="3.7" ry="2.9" fill="#ada295" opacity="0.67" transform="rotate(48.5 331.3 226.0)" />
<ellipse cx="319.0" cy="93.5" rx="2.5" ry="3.4" fill="#c4baac" opacity="0.42" transform="rotate(128.8 319.0 93.5)" />
<ellipse cx="320.4" cy="135.9" rx="3.1" ry="1.5" fill="#ddd4c7" opacity="0.63" transform="rotate(87.3 320.4 135.9)" />
<ellipse cx="342.0" cy="199.5" rx="3.4" ry="3.9" fill="#8e857b" opacity="0.43" transform="rotate(46.9 342.0 199.5)" />
<ellipse cx="339.0" cy="240.0" rx="3.6" ry="2.9" fill="#8e857b" opacity="0.35" transform="rotate(26.1 339.0 240.0)" />
<ellipse cx="183.9" cy="148.3" rx="5.1" ry="2.9" fill="#8e857b" opacity="0.41" transform="rotate(30.5 183.9 148.3)" />
<ellipse cx="342.7" cy="120.1" rx="2.7" ry="2.7" fill="#ddd4c7" opacity="0.52" transform="rotate(10.9 342.7 120.1)" />
<ellipse cx="188.0" cy="167.4" rx="3.5" ry="2.6" fill="#c4baac" opacity="0.42" transform="rotate(15.5 188.0 167.4)" />
<ellipse cx="328.0" cy="106.1" rx="4.5" ry="3.9" fill="#c4baac" opacity="0.60" transform="rotate(160.2 328.0 106.1)" />
<ellipse cx="185.0" cy="117.2" rx="4.1" ry="1.7" fill="#c4baac" opacity="0.68" transform="rotate(44.6 185.0 117.2)" />
<ellipse cx="339.8" cy="140.0" rx="4.2" ry="3.8" fill="#ada295" opacity="0.50" transform="rotate(60.6 339.8 140.0)" />
<ellipse cx="193.1" cy="211.1" rx="3.5" ry="1.5" fill="#ddd4c7" opacity="0.55" transform="rotate(68.3 193.1 211.1)" />
<ellipse cx="337.8" cy="137.7" rx="3.1" ry="1.7" fill="#ddd4c7" opacity="0.59" transform="rotate(43.2 337.8 137.7)" />
<ellipse cx="177.0" cy="145.6" rx="4.4" ry="2.9" fill="#c4baac" opacity="0.64" transform="rotate(125.6 177.0 145.6)" />
<ellipse cx="168.1" cy="220.6" rx="3.7" ry="3.6" fill="#ada295" opacity="0.54" transform="rotate(49.9 168.1 220.6)" />
<ellipse cx="177.9" cy="199.2" rx="4.1" ry="2.0" fill="#c4baac" opacity="0.62" transform="rotate(42.3 177.9 199.2)" />
<ellipse cx="191.6" cy="100.8" rx="3.4" ry="1.5" fill="#ada295" opacity="0.68" transform="rotate(94.4 191.6 100.8)" />
<ellipse cx="333.8" cy="148.1" rx="5.2" ry="2.3" fill="#c4baac" opacity="0.66" transform="rotate(43.9 333.8 148.1)" />
<ellipse cx="321.5" cy="132.8" rx="4.1" ry="2.3" fill="#8e857b" opacity="0.37" transform="rotate(143.9 321.5 132.8)" />
<ellipse cx="179.9" cy="99.9" rx="3.5" ry="2.6" fill="#c4baac" opacity="0.48" transform="rotate(70.4 179.9 99.9)" />
<ellipse cx="344.2" cy="233.8" rx="3.1" ry="2.7" fill="#8e857b" opacity="0.48" transform="rotate(119.2 344.2 233.8)" />
<ellipse cx="319.5" cy="240.0" rx="3.1" ry="3.6" fill="#ddd4c7" opacity="0.51" transform="rotate(71.5 319.5 240.0)" />
<ellipse cx="326.8" cy="116.1" rx="2.3" ry="1.9" fill="#ada295" opacity="0.68" transform="rotate(167.9 326.8 116.1)" />
<ellipse cx="318.3" cy="173.2" rx="2.0" ry="1.6" fill="#c4baac" opacity="0.61" transform="rotate(170.0 318.3 173.2)" />
<ellipse cx="177.5" cy="110.0" rx="3.1" ry="3.5" fill="#8e857b" opacity="0.63" transform="rotate(84.1 177.5 110.0)" />
<ellipse cx="328.5" cy="159.9" rx="5.0" ry="3.0" fill="#8e857b" opacity="0.37" transform="rotate(67.8 328.5 159.9)" />
<ellipse cx="187.4" cy="235.9" rx="2.8" ry="3.0" fill="#c4baac" opacity="0.44" transform="rotate(173.5 187.4 235.9)" />
<ellipse cx="194.0" cy="144.4" rx="2.2" ry="2.9" fill="#8e857b" opacity="0.50" transform="rotate(157.4 194.0 144.4)" />
<ellipse cx="183.8" cy="97.8" rx="2.2" ry="1.9" fill="#ada295" opacity="0.35" transform="rotate(31.0 183.8 97.8)" />
<ellipse cx="180.2" cy="115.1" rx="3.3" ry="3.8" fill="#c4baac" opacity="0.57" transform="rotate(122.8 180.2 115.1)" />
<ellipse cx="169.5" cy="100.9" rx="2.8" ry="1.9" fill="#ddd4c7" opacity="0.37" transform="rotate(15.9 169.5 100.9)" />
<ellipse cx="334.8" cy="192.3" rx="2.4" ry="3.5" fill="#ada295" opacity="0.54" transform="rotate(110.5 334.8 192.3)" />
<ellipse cx="324.9" cy="218.2" rx="3.6" ry="3.5" fill="#ada295" opacity="0.66" transform="rotate(160.0 324.9 218.2)" />
<ellipse cx="181.3" cy="214.1" rx="2.2" ry="3.0" fill="#c4baac" opacity="0.51" transform="rotate(64.5 181.3 214.1)" />
<ellipse cx="173.1" cy="153.5" rx="2.5" ry="3.6" fill="#8e857b" opacity="0.65" transform="rotate(43.4 173.1 153.5)" />
<ellipse cx="330.0" cy="168.6" rx="4.9" ry="3.5" fill="#ada295" opacity="0.64" transform="rotate(141.7 330.0 168.6)" />
<ellipse cx="323.7" cy="187.2" rx="3.1" ry="3.7" fill="#8e857b" opacity="0.54" transform="rotate(110.8 323.7 187.2)" />
<ellipse cx="190.2" cy="134.1" rx="5.2" ry="1.7" fill="#ada295" opacity="0.63" transform="rotate(49.9 190.2 134.1)" />
<ellipse cx="172.5" cy="151.7" rx="3.9" ry="2.3" fill="#c4baac" opacity="0.66" transform="rotate(23.1 172.5 151.7)" />
<ellipse cx="182.0" cy="114.1" rx="4.4" ry="2.7" fill="#ddd4c7" opacity="0.38" transform="rotate(108.2 182.0 114.1)" />
<ellipse cx="186.9" cy="199.7" rx="3.8" ry="2.4" fill="#c4baac" opacity="0.36" transform="rotate(136.0 186.9 199.7)" />
<ellipse cx="187.0" cy="71.6" rx="2.1" ry="3.1" fill="#ada295" opacity="0.41" transform="rotate(2.6 187.0 71.6)" />
<ellipse cx="341.9" cy="169.6" rx="4.9" ry="1.4" fill="#c4baac" opacity="0.35" transform="rotate(5.9 341.9 169.6)" />
<ellipse cx="334.6" cy="171.5" rx="2.6" ry="3.0" fill="#ddd4c7" opacity="0.56" transform="rotate(17.8 334.6 171.5)" />
<ellipse cx="171.7" cy="224.9" rx="3.6" ry="1.5" fill="#c4baac" opacity="0.36" transform="rotate(147.4 171.7 224.9)" />
<ellipse cx="324.2" cy="246.7" rx="3.9" ry="3.0" fill="#8e857b" opacity="0.30" transform="rotate(73.5 324.2 246.7)" />
<ellipse cx="192.0" cy="110.9" rx="2.4" ry="3.3" fill="#ddd4c7" opacity="0.50" transform="rotate(168.9 192.0 110.9)" />
<ellipse cx="183.9" cy="81.0" rx="2.2" ry="2.5" fill="#8e857b" opacity="0.59" transform="rotate(13.0 183.9 81.0)" />
<ellipse cx="173.3" cy="158.7" rx="5.3" ry="2.9" fill="#8e857b" opacity="0.37" transform="rotate(114.4 173.3 158.7)" />
<ellipse cx="325.3" cy="241.1" rx="3.1" ry="2.6" fill="#8e857b" opacity="0.49" transform="rotate(0.5 325.3 241.1)" />
<ellipse cx="335.5" cy="89.8" rx="2.1" ry="1.7" fill="#c4baac" opacity="0.58" transform="rotate(72.5 335.5 89.8)" />
<ellipse cx="169.4" cy="147.4" rx="4.9" ry="1.9" fill="#ddd4c7" opacity="0.49" transform="rotate(153.7 169.4 147.4)" />
<ellipse cx="338.8" cy="171.3" rx="4.9" ry="3.3" fill="#c4baac" opacity="0.62" transform="rotate(118.3 338.8 171.3)" />
<ellipse cx="327.0" cy="142.3" rx="5.5" ry="2.3" fill="#c4baac" opacity="0.52" transform="rotate(17.0 327.0 142.3)" />
<ellipse cx="190.9" cy="138.6" rx="3.4" ry="3.4" fill="#ddd4c7" opacity="0.45" transform="rotate(145.6 190.9 138.6)" />
<ellipse cx="179.3" cy="87.3" rx="2.3" ry="2.2" fill="#ada295" opacity="0.50" transform="rotate(83.4 179.3 87.3)" />
<ellipse cx="333.4" cy="149.1" rx="2.2" ry="2.2" fill="#c4baac" opacity="0.54" transform="rotate(27.9 333.4 149.1)" />
<ellipse cx="174.4" cy="189.9" rx="2.0" ry="2.1" fill="#ddd4c7" opacity="0.55" transform="rotate(88.0 174.4 189.9)" />
<ellipse cx="327.8" cy="177.1" rx="3.2" ry="1.5" fill="#8e857b" opacity="0.34" transform="rotate(58.1 327.8 177.1)" />
<ellipse cx="337.2" cy="198.7" rx="4.4" ry="2.4" fill="#ddd4c7" opacity="0.42" transform="rotate(135.8 337.2 198.7)" />
<ellipse cx="329.5" cy="179.6" rx="2.4" ry="1.6" fill="#ada295" opacity="0.36" transform="rotate(75.2 329.5 179.6)" />
<ellipse cx="345.6" cy="189.1" rx="2.6" ry="2.1" fill="#ada295" opacity="0.54" transform="rotate(22.9 345.6 189.1)" />
<ellipse cx="332.5" cy="148.7" rx="2.7" ry="2.2" fill="#ada295" opacity="0.55" transform="rotate(171.0 332.5 148.7)" />
<ellipse cx="341.2" cy="138.1" rx="3.2" ry="1.6" fill="#ddd4c7" opacity="0.31" transform="rotate(83.9 341.2 138.1)" />
<ellipse cx="167.6" cy="78.7" rx="3.3" ry="2.7" fill="#c4baac" opacity="0.33" transform="rotate(102.7 167.6 78.7)" />
<path d="M 145.0 159.4 Q 137.7 160.8 131.7 163.4" stroke="#63875e" stroke-width="2.4" stroke-linecap="round" opacity="0.32" fill="none" />
<path d="M 365.6 133.7 Q 372.2 133.0 377.7 131.8" stroke="#63875e" stroke-width="2.4" stroke-linecap="round" opacity="0.32" fill="none" />
<path d="M 146.6 172.2 Q 142.4 172.4 138.9 172.8" stroke="#63875e" stroke-width="2.4" stroke-linecap="round" opacity="0.32" fill="none" />
<path d="M 363.6 114.4 Q 368.1 113.0 371.9 110.4" stroke="#63875e" stroke-width="2.4" stroke-linecap="round" opacity="0.32" fill="none" />
<path d="M 143.2 103.7 Q 137.0 102.8 131.9 101.1" stroke="#63875e" stroke-width="2.4" stroke-linecap="round" opacity="0.32" fill="none" />
<path d="M 151.3 225.7 Q 147.1 226.2 143.8 227.0" stroke="#63875e" stroke-width="2.4" stroke-linecap="round" opacity="0.32" fill="none" />
<path d="M 359.9 86.6 Q 367.6 87.9 373.8 90.5" stroke="#63875e" stroke-width="2.4" stroke-linecap="round" opacity="0.32" fill="none" />
<path d="M 368.3 127.2 Q 373.9 127.6 378.5 128.2" stroke="#63875e" stroke-width="2.4" stroke-linecap="round" opacity="0.32" fill="none" />
<path d="M 148.1 110.1 Q 140.7 111.7 134.7 114.6" stroke="#63875e" stroke-width="2.4" stroke-linecap="round" opacity="0.32" fill="none" />
<path d="M 361.8 210.7 Q 368.9 209.4 374.8 207.0" stroke="#63875e" stroke-width="2.4" stroke-linecap="round" opacity="0.32" fill="none" />
<path d="M 361.1 189.3 Q 367.9 188.9 373.5 188.2" stroke="#63875e" stroke-width="2.4" stroke-linecap="round" opacity="0.32" fill="none" />
<path d="M 361.4 131.5 Q 366.1 132.3 370.0 133.6" stroke="#63875e" stroke-width="2.4" stroke-linecap="round" opacity="0.32" fill="none" />
<path d="M 146.7 88.7 Q 140.3 87.3 135.0 84.7" stroke="#63875e" stroke-width="2.4" stroke-linecap="round" opacity="0.32" fill="none" />
<path d="M 144.9 221.4 Q 140.6 221.8 137.1 222.4" stroke="#63875e" stroke-width="2.4" stroke-linecap="round" opacity="0.32" fill="none" />
<path d="M 144.1 129.4 Q 140.0 130.8 136.6 133.4" stroke="#63875e" stroke-width="2.4" stroke-linecap="round" opacity="0.32" fill="none" />
<path d="M 151.5 150.8 Q 145.1 152.0 139.9 154.2" stroke="#63875e" stroke-width="2.4" stroke-linecap="round" opacity="0.32" fill="none" />
<path d="M 144.9 140.1 Q 139.4 140.3 134.9 140.6" stroke="#63875e" stroke-width="2.4" stroke-linecap="round" opacity="0.32" fill="none" />
<path d="M 360.7 97.3 Q 365.7 95.9 369.8 93.2" stroke="#63875e" stroke-width="2.4" stroke-linecap="round" opacity="0.32" fill="none" />
<path d="M 365.2 105.8 Q 370.4 105.6 374.6 105.2" stroke="#63875e" stroke-width="2.4" stroke-linecap="round" opacity="0.32" fill="none" />
<path d="M 144.4 114.4 Q 136.7 114.7 130.4 115.2" stroke="#63875e" stroke-width="2.4" stroke-linecap="round" opacity="0.32" fill="none" />
<path d="M 361.0 110.1 Q 367.1 109.5 372.1 108.3" stroke="#63875e" stroke-width="2.4" stroke-linecap="round" opacity="0.32" fill="none" />
<path d="M 368.8 80.1 Q 376.0 81.4 381.9 83.6" stroke="#63875e" stroke-width="2.4" stroke-linecap="round" opacity="0.32" fill="none" />
<path d="M 360.0 242.9 Q 366.2 241.5 371.4 239.0" stroke="#63875e" stroke-width="2.4" stroke-linecap="round" opacity="0.32" fill="none" />
<path d="M 365.9 146.5 Q 371.1 146.7 375.3 147.0" stroke="#63875e" stroke-width="2.4" stroke-linecap="round" opacity="0.32" fill="none" />
<path d="M 358.8 148.7 Q 362.7 147.0 365.9 143.9" stroke="#63875e" stroke-width="2.4" stroke-linecap="round" opacity="0.32" fill="none" />
<path d="M 152.9 133.7 Q 146.9 133.1 142.1 132.0" stroke="#63875e" stroke-width="2.4" stroke-linecap="round" opacity="0.32" fill="none" />
<path d="M 147.7 110.1 Q 142.0 111.8 137.2 114.8" stroke="#63875e" stroke-width="2.4" stroke-linecap="round" opacity="0.32" fill="none" />
<path d="M 143.9 212.9 Q 138.7 212.9 134.4 212.8" stroke="#63875e" stroke-width="2.4" stroke-linecap="round" opacity="0.32" fill="none" />
<path d="M 146.9 95.1 Q 141.0 93.5 136.1 90.4" stroke="#63875e" stroke-width="2.4" stroke-linecap="round" opacity="0.32" fill="none" />
<path d="M 361.7 105.8 Q 367.3 105.2 371.8 104.0" stroke="#63875e" stroke-width="2.4" stroke-linecap="round" opacity="0.32" fill="none" />
    <path d="M 256.0 55.9 L 256.0 245.0" fill="none" stroke="url(#water-fill)" stroke-width="100.0" stroke-linecap="butt" />
    <path d="M 256.0 55.9 L 256.0 245.0" fill="none" stroke="url(#water-shade)" stroke-width="100.0" stroke-linecap="butt" />
    <path d="M 256.0 55.9 L 256.0 245.0" fill="none" stroke="#d5f3f6" stroke-width="100.0" stroke-linecap="butt" opacity="0.28" />
    <ellipse cx="256.0" cy="266.0" rx="65.0" ry="35.0" fill="url(#water-fill)" />
    <ellipse cx="256.0" cy="266.0" rx="65.0" ry="35.0" fill="url(#water-shade)" />
    <ellipse cx="256.0" cy="266.0" rx="65.0" ry="35.0" fill="#d5f3f6" opacity="0.28" />
    <ellipse cx="256.0" cy="266.0" rx="65.0" ry="35.0" fill="none" stroke="#d5f3f6" stroke-width="2" opacity="0.25" />
<path d="M 223.7 157.2 Q 256.0 156.6 288.3 157.2" stroke="#81cbd8" stroke-width="1.87" stroke-linecap="round" opacity="0.25" fill="none" />
<path d="M 237.4 146.5 Q 256.0 145.4 274.6 146.5" stroke="#a6dde9" stroke-width="1.91" stroke-linecap="round" opacity="0.27" fill="none" />
<path d="M 220.3 88.7 Q 256.0 86.2 291.7 88.7" stroke="#a6dde9" stroke-width="1.00" stroke-linecap="round" opacity="0.17" fill="none" />
<path d="M 224.9 176.5 Q 256.0 174.6 287.1 176.5" stroke="#c6eef8" stroke-width="1.75" stroke-linecap="round" opacity="0.29" fill="none" />
<path d="M 219.0 125.1 Q 256.0 121.5 293.0 125.1" stroke="#c6eef8" stroke-width="1.44" stroke-linecap="round" opacity="0.19" fill="none" />
<path d="M 220.5 170.1 Q 256.0 173.1 291.5 170.1" stroke="#81cbd8" stroke-width="1.01" stroke-linecap="round" opacity="0.23" fill="none" />
<path d="M 234.1 133.7 Q 256.0 132.7 277.9 133.7" stroke="#c6eef8" stroke-width="1.04" stroke-linecap="round" opacity="0.17" fill="none" />
<path d="M 228.9 125.1 Q 256.0 124.3 283.1 125.1" stroke="#81cbd8" stroke-width="1.57" stroke-linecap="round" opacity="0.26" fill="none" />
<path d="M 238.5 230.0 Q 256.0 231.3 273.5 230.0" stroke="#81cbd8" stroke-width="1.11" stroke-linecap="round" opacity="0.25" fill="none" />
<path d="M 234.9 133.7 Q 256.0 132.2 277.1 133.7" stroke="#a6dde9" stroke-width="1.46" stroke-linecap="round" opacity="0.27" fill="none" />
<path d="M 226.8 105.8 Q 256.0 103.0 285.2 105.8" stroke="#81cbd8" stroke-width="1.27" stroke-linecap="round" opacity="0.26" fill="none" />
<path d="M 233.0 200.0 Q 256.0 201.2 279.0 200.0" stroke="#c6eef8" stroke-width="1.31" stroke-linecap="round" opacity="0.16" fill="none" />
    <ellipse cx="256.0" cy="266.0" rx="19.5" ry="10.5" fill="none" stroke="#81cbd8" stroke-width="1.0" opacity="0.18" />
    <ellipse cx="256.0" cy="266.0" rx="31.2" ry="16.8" fill="none" stroke="#81cbd8" stroke-width="1.0" opacity="0.14" />
    <ellipse cx="256.0" cy="266.0" rx="42.9" ry="23.1" fill="none" stroke="#81cbd8" stroke-width="1.0" opacity="0.10" />
    <path d="M 182.8 272.7 Q 176.9 273.1 171.0 273.7" stroke="#4a5a3a" stroke-width="2.0" stroke-linecap="round" opacity="0.35" fill="none" />
    <path d="M 254.4 234.1 Q 254.3 231.2 254.1 226.9" stroke="#4a5a3a" stroke-width="2.0" stroke-linecap="round" opacity="0.35" fill="none" />
    <path d="M 275.6 236.1 Q 277.4 232.0 279.2 225.8" stroke="#4a5a3a" stroke-width="2.0" stroke-linecap="round" opacity="0.35" fill="none" />
    <path d="M 194.9 282.4 Q 192.6 283.5 190.3 285.0" stroke="#4a5a3a" stroke-width="2.0" stroke-linecap="round" opacity="0.35" fill="none" />
    <path d="M 294.3 291.3 Q 296.7 294.5 299.0 299.4" stroke="#4a5a3a" stroke-width="2.0" stroke-linecap="round" opacity="0.35" fill="none" />
    <path d="M 299.4 231.4 Q 300.9 229.4 302.4 226.3" stroke="#4a5a3a" stroke-width="2.0" stroke-linecap="round" opacity="0.35" fill="none" />
    <path d="M 247.8 295.4 Q 247.0 299.2 246.2 304.9" stroke="#4a5a3a" stroke-width="2.0" stroke-linecap="round" opacity="0.35" fill="none" />
    <path d="M 322.4 285.9 Q 325.3 287.7 328.2 290.3" stroke="#4a5a3a" stroke-width="2.0" stroke-linecap="round" opacity="0.35" fill="none" />
  </g>
</svg>
