<svg xmlns="http://www.w3.org/2000/svg" width="512" height="512" viewBox="0 0 512 512">
  <defs>
    <clipPath id="hex-clip">
      <polygon points="48.0,256.0 152.0,75.9 360.0,75.9 464.0,256.0 360.0,436.1 152.0,436.1" />
    </clipPath>
    <linearGradient id="water-fill" x1="0%" y1="0%" x2="100%" y2="0%">
      <stop offset="0%" stop-color="#295f69" />
      <stop offset="20%" stop-color="#327884" />
      <stop offset="50%" stop-color="#5ea4af" />
      <stop offset="80%" stop-color="#327884" />
      <stop offset="100%" stop-color="#295f69" />
    </linearGradient>
    <linearGradient id="water-shade" x1="0%" y1="0%" x2="0%" y2="100%">
      <stop offset="0%" stop-color="#8dd6de" stop-opacity="0.38" />
      <stop offset="35%" stop-color="#ffffff" stop-opacity="0.06" />
      <stop offset="100%" stop-color="#11343e" stop-opacity="0.24" />
    </linearGradient>
  </defs>
  <g clip-path="url(#hex-clip)">
<ellipse cx="298.8" cy="178.9" rx="3.4" ry="2.1" fill="#ada295" opacity="0.35" transform="rotate(76.4 298.8 178.9)" />
<ellipse cx="303.4" cy="203.3" rx="3.3" ry="1.8" fill="#8e857b" opacity="0.56" transform="rotate(91.0 303.4 203.3)" />
<ellipse cx="298.4" cy="154.4" rx="3.0" ry="3.2" fill="#ada295" opacity="0.51" transform="rotate(14.3 298.4 154.4)" />
<ellipse cx="305.6" cy="150.3" rx="3.2" ry="2.6" fill="#c4baac" opacity="0.60" transform="rotate(47.1 305.6 150.3)" />
<ellipse cx="200.8" cy="196.1" rx="4.6" ry="2.3" fill="#8e857b" opacity="0.55" transform="rotate(175.5 200.8 196.1)" />
<ellipse cx="204.5" cy="117.3" rx="4.9" ry="2.9" fill="#ada295" opacity="0.44" transform="rotate(95.6 204.5 117.3)" />
<ellipse cx="208.8" cy="126.6" rx="2.2" ry="2.7" fill="#8e857b" opacity="0.37" transform="rotate(143.7 208.8 126.6)" />
<ellipse cx="304.3" cy="87.6" rx="4.9" ry="1.7" fill="#8e857b" opacity="0.63" transform="rotate(132.3 304.3 87.6)" />
<ellipse cx="305.4" cy="127.8" rx="4.7" ry="1.5" fill="#8e857b" opacity="0.66" transform="rotate(20.0 305.4 127.8)" />
<ellipse cx="206.5" cy="114.5" rx="3.4" ry="1.9" fill="#ddd4c7" opacity="0.34" transform="rotate(19.9 206.5 114.5)" />
<ellipse cx="204.7" cy="138.6" rx="3.9" ry="3.2" fill="#c4baac" opacity="0.69" transform="rotate(157.6 204.7 138.6)" />
<ellipse cx="203.2" cy="204.9" rx="2.2" ry="2.9" fill="#8e857b" opacity="0.63" transform="rotate(22.9 203.2 204.9)" />
<ellipse cx="204.0" cy="85.0" rx="4.2" ry="2.7" fill="#c4baac" opacity="0.34" transform="rotate(126.4 204.0 85.0)" />
<ellipse cx="301.5" cy="160.2" rx="4.7" ry="3.3" fill="#ddd4c7" opacity="0.54" transform="rotate(160.7 301.5 160.2)" />
<ellipse cx="208.7" cy="153.3" rx="4.2" ry="1.5" fill="#ada295" opacity="0.55" transform="rotate(50.7 208.7 153.3)" />
<ellipse cx="203.6" cy="156.2" rx="2.9" ry="3.4" fill="#c4baac" opacity="0.54" transform="rotate(127.7 203.6 156.2)" />
<ellipse cx="310.6" cy="195.1" rx="3.4" ry="2.3" fill="#8e857b" opacity="0.37" transform="rotate(177.9 310.6 195.1)" />
<ellipse cx="298.3" cy="193.2" rx="3.6" ry="1.6" fill="#ddd4c7" opacity="0.28" transform="rotate(108.9 298.3 193.2)" />
<ellipse cx="207.0" cy="92.5" rx="4.5" ry="3.6" fill="#8e857b" opacity="0.62" transform="rotate(64.4 207.0 92.5)" />
<ellipse cx="302.2" cy="109.5" rx="3.8" ry="2.4" fill="#ddd4c7" opacity="0.40" transform="rotate(37.1 302.2 109.5)" />
<ellipse cx="299.3" cy="193.5" rx="4.1" ry="3.1" fill="#c4baac" opacity="0.48" transform="rotate(45.7 299.3 193.5)" />
<ellipse cx="301.4" cy="188.3" rx="2.0" ry="1.9" fill="#c4baac" opacity="0.40" transform="rotate(72.8 301.4 188.3)" />
<ellipse cx="201.6" cy="156.9" rx="4.7" ry="2.7" fill="#ada295" opacity="0.59" transform="rotate(128.8 201.6 156.9)" />
<ellipse cx="302.0" cy="85.6" rx="4.7" ry="1.9" fill="#8e857b" opacity="0.40" transform="rotate(113.6 302.0 85.6)" />
<ellipse cx="303.6" cy="174.4" rx="4.0" ry="3.0" fill="#c4baac" opacity="0.45" transform="rotate(19.2 303.6 174.4)" />
<ellipse cx="208.0" cy="85.6" rx="3.6" ry="1.8" fill="#ddd4c7" opacity="0.42" transform="rotate(119.4 208.0 85.6)" />
<ellipse cx="209.2" cy="141.2" rx="4.5" ry="3.4" fill="#c4baac" opacity="0.43" transform="rotate(151.1 209.2 141.2)" />
<ellipse cx="310.2" cy="181.6" rx="2.6" ry="2.2" fill="#8e857b" opacity="0.60" transform="rotate(96.5 310.2 181.6)" />
<ellipse cx="201.0" cy="231.8" rx="3.0" ry="2.7" fill="#ada295" opacity="0.28" transform="rotate(118.2 201.0 231.8)" />
<ellipse cx="203.5" cy="173.4" rx="4.2" ry="3.3" fill="#8e857b" opacity="0.69" transform="rotate(72.9 203.5 173.4)" />
<ellipse cx="209.0" cy="176.4" rx="3.5" ry="3.5" fill="#ada295" opacity="0.55" transform="rotate(178.6 209.0 176.4)" />
<ellipse cx="203.5" cy="201.2" rx="2.7" ry="2.4" fill="#ada295" opacity="0.66" transform="rotate(57.3 203.5 201.2)" />
<ellipse cx="301.0" cy="197.9" rx="4.8" ry="3.1" fill="#c4baac" opacity="0.68" transform="rotate(83.9 301.0 197.9)" />
<ellipse cx="211.2" cy="192.1" rx="4.2" ry="2.3" fill="#ddd4c7" opacity="0.51" transform="rotate(178.8 211.2 192.1)" />
<ellipse cx="301.2" cy="128.0" rx="3.1" ry="3.0" fill="#8e857b" opacity="0.70" transform="rotate(173.1 301.2 128.0)" />
<ellipse cx="202.5" cy="88.0" rx="4.4" ry="2.1" fill="#c4baac" opacity="0.42" transform="rotate(84.6 202.5 88.0)" />
<ellipse cx="310.3" cy="196.8" rx="4.0" ry="2.5" fill="#c4baac" opacity="0.32" transform="rotate(82.3 310.3 196.8)" />
<ellipse cx="202.2" cy="91.7" rx="2.4" ry="2.9" fill="#c4baac" opacity="0.60" transform="rotate(173.4 202.2 91.7)" />
<ellipse cx="202.3" cy="195.8" rx="4.2" ry="3.1" fill="#8e857b" opacity="0.43" transform="rotate(62.0 202.3 195.8)" />
<ellipse cx="207.2" cy="216.0" rx="4.2" ry="2.3" fill="#ddd4c7" opacity="0.53" transform="rotate(23.9 207.2 216.0)" />
<ellipse cx="310.9" cy="168.4" rx="2.0" ry="2.5" fill="#ada295" opacity="0.30" transform="rotate(35.6 310.9 168.4)" />
<ellipse cx="301.2" cy="124.1" rx="2.2" ry="3.0" fill="#ddd4c7" opacity="0.44" transform="rotate(51.2 301.2 124.1)" />
<ellipse cx="204.7" cy="180.2" rx="2.6" ry="2.6" fill="#8e857b" opacity="0.35" transform="rotate(48.8 204.7 180.2)" />
<ellipse cx="211.3" cy="157.9" rx="2.4" ry="1.8" fill="#c4baac" opacity="0.68" transform="rotate(117.1 211.3 157.9)" />
<ellipse cx="210.4" cy="221.9" rx="3.6" ry="3.6" fill="#ddd4c7" opacity="0.62" transform="rotate(6.2 210.4 221.9)" />
<ellipse cx="213.1" cy="222.3" rx="3.7" ry="1.5" fill="#ada295" opacity="0.54" transform="rotate(165.6 213.1 222.3)" />
<ellipse cx="304.9" cy="163.9" rx="4.7" ry="1.8" fill="#c4baac" opacity="0.67" transform="rotate(34.7 304.9 163.9)" />
<ellipse cx="211.5" cy="217.0" rx="2.2" ry="3.1" fill="#c4baac" opacity="0.46" transform="rotate(36.8 211.5 217.0)" />
<ellipse cx="207.6" cy="209.1" rx="3.9" ry="3.3" fill="#8e857b" opacity="0.35" transform="rotate(26.6 207.6 209.1)" />
<ellipse cx="213.8" cy="134.7" rx="4.7" ry="3.4" fill="#ddd4c7" opacity="0.35" transform="rotate(129.4 213.8 134.7)" />
<ellipse cx="310.8" cy="113.2" rx="4.6" ry="2.8" fill="#ddd4c7" opacity="0.39" transform="rotate(58.6 310.8 113.2)" />
<ellipse cx="203.4" cy="93.5" rx="3.6" ry="3.2" fill="#8e857b" opacity="0.40" transform="rotate(88.0 203.4 93.5)" />
<ellipse cx="201.2" cy="146.1" rx="4.5" ry="1.7" fill="#8e857b" opacity="0.44" transform="rotate(120.9 201.2 146.1)" />
<ellipse cx="299.5" cy="177.8" rx="3.8" ry="1.5" fill="#c4baac" opacity="0.37" transform="rotate(113.2 299.5 177.8)" />
<ellipse cx="299.1" cy="209.1" rx="3.0" ry="1.8" fill="#c4baac" opacity="0.29" transform="rotate(70.2 299.1 209.1)" />
<ellipse cx="305.2" cy="145.5" rx="3.8" ry="2.4" fill="#8e857b" opacity="0.64" transform="rotate(5.8 305.2 145.5)" />
<ellipse cx="204.2" cy="142.0" rx="4.7" ry="2.5" fill="#c4baac" opacity="0.50" transform="rotate(3.0 204.2 142.0)" />
<ellipse cx="303.5" cy="177.7" rx="2.4" ry="2.4" fill="#c4baac" opacity="0.69" transform="rotate(131.2 303.5 177.7)" />
<ellipse cx="209.3" cy="145.1" rx="3.1" ry="3.5" fill="#8e857b" opacity="0.67" transform="rotate(138.6 209.3 145.1)" />
<ellipse cx="204.7" cy="99.1" rx="4.6" ry="3.1" fill="#c4baac" opacity="0.39" transform="rotate(58.8 204.7 99.1)" />
<ellipse cx="213.4" cy="174.2" rx="3.0" ry="3.5" fill="#ddd4c7" opacity="0.50" transform="rotate(133.0 213.4 174.2)" />
<ellipse cx="203.3" cy="206.2" rx="3.8" ry="2.1" fill="#8e857b" opacity="0.67" transform="rotate(158.4 203.3 206.2)" />
<ellipse cx="213.1" cy="85.2" rx="3.3" ry="2.7" fill="#c4baac" opacity="0.54" transform="rotate(139.2 213.1 85.2)" />
<ellipse cx="203.1" cy="120.8" rx="3.3" ry="2.6" fill="#8e857b" opacity="0.48" transform="rotate(168.2 203.1 120.8)" />
<ellipse cx="305.9" cy="123.3" rx="3.3" ry="2.5" fill="#ada295" opacity="0.64" transform="rotate(45.7 305.9 123.3)" />
<ellipse cx="203.5" cy="220.5" rx="3.4" ry="2.1" fill="#ddd4c7" opacity="0.30" transform="rotate(41.7 203.5 220.5)" />
<ellipse cx="204.8" cy="137.6" rx="2.6" ry="1.7" fill="#8e857b" opacity="0.37" transform="rotate(177.9 204.8 137.6)" />
<ellipse cx="301.0" cy="181.0" rx="4.4" ry="2.4" fill="#ddd4c7" opacity="0.45" transform="rotate(166.7 301.0 181.0)" />
<ellipse cx="301.6" cy="217.5" rx="4.9" ry="2.3" fill="#ddd4c7" opacity="0.38" transform="rotate(33.5 301.6 217.5)" />
<ellipse cx="307.4" cy="81.1" rx="3.0" ry="1.6" fill="#ddd4c7" opacity="0.33" transform="rotate(13.1 307.4 81.1)" />
<ellipse cx="204.2" cy="114.6" rx="3.6" ry="3.5" fill="#8e857b" opacity="0.40" transform="rotate(0.7 204.2 114.6)" />
<ellipse cx="303.1" cy="151.3" rx="3.9" ry="3.1" fill="#ada295" opacity="0.53" transform="rotate(99.7 303.1 151.3)" />
<ellipse cx="202.0" cy="93.3" rx="3.2" ry="3.0" fill="#8e857b" opacity="0.46" transform="rotate(73.2 202.0 93.3)" />
<ellipse cx="208.2" cy="100.5" rx="4.6" ry="1.5" fill="#8e857b" opacity="0.40" transform="rotate(166.8 208.2 100.5)" />
<ellipse cx="307.9" cy="173.5" rx="2.4" ry="1.7" fill="#ada295" opacity="0.60" transform="rotate(59.8 307.9 173.5)" />
<ellipse cx="308.5" cy="176.8" rx="2.7" ry="3.2" fill="#ada295" opacity="0.34" transform="rotate(146.7 308.5 176.8)" />
<ellipse cx="302.3" cy="131.1" rx="4.3" ry="2.3" fill="#ddd4c7" opacity="0.29" transform="rotate(103.4 302.3 131.1)" />
<ellipse cx="208.5" cy="224.5" rx="2.3" ry="2.5" fill="#c4baac" opacity="0.56" transform="rotate(127.3 208.5 224.5)" />
<ellipse cx="211.4" cy="196.4" rx="2.1" ry="3.2" fill="#8e857b" opacity="0.40" transform="rotate(64.7 211.4 196.4)" />
<ellipse cx="306.0" cy="206.3" rx="3.3" ry="2.6" fill="#8e857b" opacity="0.61" transform="rotate(7.6 306.0 206.3)" />
<ellipse cx="202.9" cy="148.6" rx="2.2" ry="1.6" fill="#ada295" opacity="0.59" transform="rotate(38.9 202.9 148.6)" />
<ellipse cx="303.2" cy="187.6" rx="4.0" ry="3.1" fill="#ada295" opacity="0.41" transform="rotate(126.6 303.2 187.6)" />
<ellipse cx="206.3" cy="156.6" rx="2.5" ry="3.3" fill="#ddd4c7" opacity="0.61" transform="rotate(2.6 206.3 156.6)" />
<ellipse cx="309.3" cy="224.8" rx="2.8" ry="2.9" fill="#c4baac" opacity="0.38" transform="rotate(147.2 309.3 224.8)" />
<ellipse cx="206.0" cy="101.2" rx="4.2" ry="3.6" fill="#8e857b" opacity="0.38" transform="rotate(56.3 206.0 101.2)" />
<ellipse cx="307.8" cy="76.8" rx="3.2" ry="2.1" fill="#ada295" opacity="0.30" transform="rotate(59.5 307.8 76.8)" />
<ellipse cx="309.2" cy="226.8" rx="3.1" ry="1.6" fill="#ada295" opacity="0.42" transform="rotate(168.4 309.2 226.8)" />
<ellipse cx="200.5" cy="175.7" rx="3.7" ry="2.6" fill="#c4baac" opacity="0.60" transform="rotate(52.2 200.5 175.7)" />
<ellipse cx="203.8" cy="179.4" rx="4.7" ry="3.4" fill="#ada295" opacity="0.34" transform="rotate(35.4 203.8 179.4)" />
<ellipse cx="210.9" cy="184.8" rx="3.8" ry="2.7" fill="#8e857b" opacity="0.70" transform="rotate(10.4 210.9 184.8)" />
<ellipse cx="303.7" cy="225.3" rx="3.8" ry="2.6" fill="#ddd4c7" opacity="0.30" transform="rotate(62.8 303.7 225.3)" />
<ellipse cx="210.0" cy="197.7" rx="4.1" ry="2.9" fill="#8e857b" opacity="0.66" transform="rotate(108.9 210.0 197.7)" />
<ellipse cx="304.7" cy="201.1" rx="2.9" ry="3.0" fill="#ddd4c7" opacity="0.60" transform="rotate(95.8 304.7 201.1)" />
<ellipse cx="298.5" cy="136.4" rx="3.0" ry="2.6" fill="#8e857b" opacity="0.70" transform="rotate(94.0 298.5 136.4)" />
<ellipse cx="206.0" cy="171.1" rx="3.7" ry="2.9" fill="#ada295" opacity="0.53" transform="rotate(155.0 206.0 171.1)" />
<ellipse cx="311.1" cy="116.3" rx="2.2" ry="3.5" fill="#ddd4c7" opacity="0.66" transform="rotate(124.2 311.1 116.3)" />
<ellipse cx="209.1" cy="124.4" rx="4.5" ry="3.4" fill="#8e857b" opacity="0.54" transform="rotate(170.4 209.1 124.4)" />
<ellipse cx="200.5" cy="185.8" rx="2.9" ry="2.5" fill="#c4baac" opacity="0.61" transform="rotate(33.1 200.5 185.8)" />
<ellipse cx="298.5" cy="202.9" rx="2.5" ry="3.0" fill="#ddd4c7" opacity="0.42" transform="rotate(36.2 298.5 202.9)" />
<ellipse cx="211.1" cy="134.5" rx="3.8" ry="2.8" fill="#c4baac" opacity="0.45" transform="rotate(144.5 211.1 134.5)" />
<path d="M 185.9 123.0 Q 181.8 123.9 178.4 125.5" stroke="#63875e" stroke-width="2.4" stroke-linecap="round" opacity="0.32" fill="none" />
<path d="M 179.0 113.2 Q 174.2 113.0 170.3 112.7" stroke="#63875e" stroke-width="2.4" stroke-linecap="round" opacity="0.32" fill="none" />
<path d="M 332.8 93.5 Q 340.2 92.9 346.4 91.6" stroke="#63875e" stroke-width="2.4" stroke-linecap="round" opacity="0.32" fill="none" />
<path d="M 328.2 191.7 Q 334.7 193.0 340.1 195.3" stroke="#63875e" stroke-width="2.4" stroke-linecap="round" opacity="0.32" fill="none" />
<path d="M 333.4 197.6 Q 341.0 197.5 347.3 197.2" stroke="#63875e" stroke-width="2.4" stroke-linecap="round" opacity="0.32" fill="none" />
<path d="M 182.6 115.1 Q 176.3 115.3 171.1 115.5" stroke="#63875e" stroke-width="2.4" stroke-linecap="round" opacity="0.32" fill="none" />
<path d="M 177.8 111.2 Q 173.2 110.3 169.5 108.5" stroke="#63875e" stroke-width="2.4" stroke-linecap="round" opacity="0.32" fill="none" />
<path d="M 181.9 211.4 Q 175.5 213.1 170.2 216.3" stroke="#63875e" stroke-width="2.4" stroke-linecap="round" opacity="0.32" fill="none" />
<path d="M 183.9 176.0 Q 177.9 177.6 173.0 180.6" stroke="#63875e" stroke-width="2.4" stroke-linecap="round" opacity="0.32" fill="none" />
<path d="M 327.7 205.5 Q 335.2 207.1 341.3 210.0" stroke="#63875e" stroke-width="2.4" stroke-linecap="round" opacity="0.32" fill="none" />
<path d="M 184.3 128.9 Q 179.6 129.3 175.8 130.1" stroke="#63875e" stroke-width="2.4" stroke-linecap="round" opacity="0.32" fill="none" />
<path d="M 332.2 185.8 Q 336.3 186.4 339.6 187.5" stroke="#63875e" stroke-width="2.4" stroke-linecap="round" opacity="0.32" fill="none" />
<path d="M 185.8 213.3 Q 179.5 213.8 174.3 214.6" stroke="#63875e" stroke-width="2.4" stroke-linecap="round" opacity="0.32" fill="none" />
<path d="M 186.3 144.6 Q 181.2 143.2 177.0 140.6" stroke="#63875e" stroke-width="2.4" stroke-linecap="round" opacity="0.32" fill="none" />
<path d="M 331.1 109.2 Q 336.5 107.5 340.9 104.3" stroke="#63875e" stroke-width="2.4" stroke-linecap="round" opacity="0.32" fill="none" />
<path d="M 184.6 83.7 Q 178.7 85.0 173.9 87.3" stroke="#63875e" stroke-width="2.4" stroke-linecap="round" opacity="0.32" fill="none" />
<path d="M 333.9 125.0 Q 337.8 124.7 341.0 124.3" stroke="#63875e" stroke-width="2.4" stroke-linecap="round" opacity="0.32" fill="none" />
<path d="M 334.6 227.1 Q 339.7 227.6 343.8 228.5" stroke="#63875e" stroke-width="2.4" stroke-linecap="round" opacity="0.32" fill="none" />
<path d="M 325.8 105.3 Q 330.2 106.8 333.8 109.4" stroke="#63875e" stroke-width="2.4" stroke-linecap="round" opacity="0.32" fill="none" />
<path d="M 184.1 103.4 Q 178.9 103.5 174.7 103.8" stroke="#63875e" stroke-width="2.4" stroke-linecap="round" opacity="0.32" fill="none" />
    <line x1="256.0" y1="231.0" x2="183.9" y2="55.9" stroke="url(#water-fill)" stroke-width="10.8" stroke-linecap="round" opacity="0.85" />
    <line x1="256.0" y1="231.0" x2="183.9" y2="55.9" stroke="#d5f3f6" stroke-width="10.8" stroke-linecap="round" opacity="0.28" />
    <line x1="256.0" y1="231.0" x2="237.8" y2="55.9" stroke="url(#water-fill)" stroke-width="15.8" stroke-linecap="round" opacity="0.85" />
    <line x1="256.0" y1="231.0" x2="237.8" y2="55.9" stroke="#d5f3f6" stroke-width="15.8" stroke-linecap="round" opacity="0.28" />
    <line x1="256.0" y1="231.0" x2="259.4" y2="55.9" stroke="url(#water-fill)" stroke-width="14.9" stroke-linecap="round" opacity="0.85" />
    <line x1="256.0" y1="231.0" x2="259.4" y2="55.9" stroke="#d5f3f6" stroke-width="14.9" stroke-linecap="round" opacity="0.28" />
    <line x1="256.0" y1="231.0" x2="285.2" y2="55.9" stroke="url(#water-fill)" stroke-width="18.4" stroke-linecap="round" opacity="0.85" />
    <line x1="256.0" y1="231.0" x2="285.2" y2="55.9" stroke="#d5f3f6" stroke-width="18.4" stroke-linecap="round" opacity="0.28" />
    <line x1="256.0" y1="231.0" x2="369.5" y2="55.9" stroke="url(#water-fill)" stroke-width="13.6" stroke-linecap="round" opacity="0.85" />
    <line x1="256.0" y1="231.0" x2="369.5" y2="55.9" stroke="#d5f3f6" stroke-width="13.6" stroke-linecap="round" opacity="0.28" />
    <circle cx="256.0" cy="231.0" r="17.5" fill="url(#water-fill)" opacity="0.85" />
    <circle cx="256.0" cy="231.0" r="17.5" fill="url(#water-shade)" />
    <circle cx="256.0" cy="231.0" r="17.5" fill="#d5f3f6" opacity="0.28" />
    <ellipse cx="283.4" cy="182.5" rx="11.1" ry="9.9" fill="#a09370" opacity="0.51" transform="rotate(13.3 283.4 182.5)" />
    <ellipse cx="298.2" cy="143.5" rx="13.2" ry="10.8" fill="#a09370" opacity="0.36" transform="rotate(18.0 298.2 143.5)" />
    <ellipse cx="298.7" cy="185.0" rx="17.5" ry="6.1" fill="#b5a882" opacity="0.32" transform="rotate(-24.9 298.7 185.0)" />
    <ellipse cx="213.1" cy="147.3" rx="10.9" ry="6.6" fill="#b5a882" opacity="0.36" transform="rotate(14.0 213.1 147.3)" />
    <ellipse cx="267.6" cy="182.2" rx="9.7" ry="5.1" fill="#a09370" opacity="0.54" transform="rotate(-6.4 267.6 182.2)" />
    <ellipse cx="229.0" cy="167.9" rx="9.8" ry="6.0" fill="#b5a882" opacity="0.54" transform="rotate(24.4 229.0 167.9)" />
    <ellipse cx="256.7" cy="209.5" rx="13.3" ry="10.3" fill="#8c8060" opacity="0.37" transform="rotate(-6.6 256.7 209.5)" />
  </g>
</svg>
