<svg xmlns="http://www.w3.org/2000/svg" width="512" height="512" viewBox="0 0 512 512">
  <defs>
    <clipPath id="hex-clip">
      <polygon points="48.0,256.0 152.0,75.9 360.0,75.9 464.0,256.0 360.0,436.1 152.0,436.1" />
    </clipPath>
    <linearGradient id="water-fill" x1="0%" y1="0%" x2="100%" y2="0%">
      <stop offset="0%" stop-color="#295f69" />
      <stop offset="20%" stop-color="#327884" />
      <stop offset="50%" stop-color="#5ea4af" />
      <stop offset="80%" stop-color="#327884" />
      <stop offset="100%" stop-color="#295f69" />
    </linearGradient>
    <linearGradient id="water-shade" x1="0%" y1="0%" x2="0%" y2="100%">
      <stop offset="0%" stop-color="#8dd6de" stop-opacity="0.38" />
      <stop offset="35%" stop-color="#ffffff" stop-opacity="0.06" />
      <stop offset="100%" stop-color="#11343e" stop-opacity="0.24" />
    </linearGradient>
  </defs>
  <g clip-path="url(#hex-clip)">
<ellipse cx="323.4" cy="93.2" rx="3.9" ry="3.1" fill="#ada295" opacity="0.56" transform="rotate(160.2 323.4 93.2)" />
<ellipse cx="311.2" cy="158.1" rx="3.3" ry="4.0" fill="#ada295" opacity="0.50" transform="rotate(30.3 311.2 158.1)" />
<ellipse cx="302.8" cy="153.4" rx="3.1" ry="1.6" fill="#ada295" opacity="0.50" transform="rotate(112.8 302.8 153.4)" />
<ellipse cx="209.2" cy="135.4" rx="3.6" ry="1.7" fill="#ddd4c7" opacity="0.59" transform="rotate(166.8 209.2 135.4)" />
<ellipse cx="281.3" cy="230.1" rx="2.5" ry="3.4" fill="#c4baac" opacity="0.64" transform="rotate(66.5 281.3 230.1)" />
<ellipse cx="213.2" cy="162.6" rx="3.8" ry="3.7" fill="#c4baac" opacity="0.30" transform="rotate(67.6 213.2 162.6)" />
<ellipse cx="281.8" cy="235.0" rx="2.9" ry="2.8" fill="#ada295" opacity="0.59" transform="rotate(98.6 281.8 235.0)" />
<ellipse cx="189.4" cy="100.4" rx="3.3" ry="3.4" fill="#ddd4c7" opacity="0.37" transform="rotate(143.8 189.4 100.4)" />
<ellipse cx="283.2" cy="221.0" rx="2.4" ry="3.5" fill="#ada295" opacity="0.31" transform="rotate(108.2 283.2 221.0)" />
<ellipse cx="202.3" cy="108.5" rx="5.0" ry="2.5" fill="#c4baac" opacity="0.46" transform="rotate(99.6 202.3 108.5)" />
<ellipse cx="299.3" cy="176.2" rx="3.1" ry="1.6" fill="#8e857b" opacity="0.37" transform="rotate(2.3 299.3 176.2)" />
<ellipse cx="322.2" cy="124.5" rx="3.1" ry="2.3" fill="#c4baac" opacity="0.40" transform="rotate(50.9 322.2 124.5)" />
<ellipse cx="216.9" cy="187.6" rx="3.9" ry="1.4" fill="#ddd4c7" opacity="0.38" transform="rotate(172.7 216.9 187.6)" />
<ellipse cx="198.8" cy="111.0" rx="3.3" ry="2.7" fill="#ddd4c7" opacity="0.43" transform="rotate(132.3 198.8 111.0)" />
<ellipse cx="322.3" cy="99.0" rx="2.3" ry="2.1" fill="#c4baac" opacity="0.63" transform="rotate(157.7 322.3 99.0)" />
<ellipse cx="302.7" cy="159.2" rx="2.9" ry="3.7" fill="#8e857b" opacity="0.49" transform="rotate(78.5 302.7 159.2)" />
<ellipse cx="309.4" cy="142.4" rx="2.3" ry="2.5" fill="#c4baac" opacity="0.59" transform="rotate(21.3 309.4 142.4)" />
<ellipse cx="288.4" cy="209.9" rx="2.9" ry="1.5" fill="#8e857b" opacity="0.60" transform="rotate(40.9 288.4 209.9)" />
<ellipse cx="234.3" cy="240.7" rx="3.2" ry="3.3" fill="#ada295" opacity="0.59" transform="rotate(114.3 234.3 240.7)" />
<ellipse cx="200.1" cy="112.6" rx="4.8" ry="1.4" fill="#ddd4c7" opacity="0.47" transform="rotate(174.9 200.1 112.6)" />
<ellipse cx="307.0" cy="139.3" rx="5.3" ry="3.4" fill="#8e857b" opacity="0.30" transform="rotate(75.2 307.0 139.3)" />
<ellipse cx="212.1" cy="167.8" rx="4.8" ry="1.6" fill="#8e857b" opacity="0.69" transform="rotate(120.3 212.1 167.8)" />
<ellipse cx="236.5" cy="247.9" rx="2.2" ry="2.7" fill="#c4baac" opacity="0.58" transform="rotate(35.3 236.5 247.9)" />
<ellipse cx="212.3" cy="159.8" rx="3.8" ry="4.0" fill="#ada295" opacity="0.59" transform="rotate(59.5 212.3 159.8)" />
<ellipse cx="320.1" cy="103.4" rx="3.0" ry="3.7" fill="#8e857b" opacity="0.42" transform="rotate(77.1 320.1 103.4)" />
<ellipse cx="292.1" cy="196.4" rx="4.8" ry="3.1" fill="#ddd4c7" opacity="0.67" transform="rotate(74.6 292.1 196.4)" />
<ellipse cx="321.6" cy="98.2" rx="4.6" ry="3.8" fill="#ddd4c7" opacity="0.66" transform="rotate(12.9 321.6 98.2)" />
<ellipse cx="212.8" cy="184.0" rx="4.7" ry="2.6" fill="#c4baac" opacity="0.49" transform="rotate(172.5 212.8 184.0)" />
<ellipse cx="284.5" cy="230.0" rx="5.5" ry="1.5" fill="#ada295" opacity="0.40" transform="rotate(90.8 284.5 230.0)" />
<ellipse cx="212.3" cy="151.6" rx="2.3" ry="3.0" fill="#ddd4c7" opacity="0.67" transform="rotate(95.6 212.3 151.6)" />
<ellipse cx="222.9" cy="205.6" rx="2.2" ry="2.8" fill="#ada295" opacity="0.55" transform="rotate(173.1 222.9 205.6)" />
<ellipse cx="193.4" cy="97.0" rx="3.6" ry="2.5" fill="#ddd4c7" opacity="0.62" transform="rotate(22.3 193.4 97.0)" />
<ellipse cx="318.0" cy="101.5" rx="2.7" ry="3.0" fill="#8e857b" opacity="0.57" transform="rotate(77.2 318.0 101.5)" />
<ellipse cx="201.1" cy="126.1" rx="2.0" ry="3.5" fill="#ddd4c7" opacity="0.35" transform="rotate(171.1 201.1 126.1)" />
<ellipse cx="229.8" cy="232.6" rx="3.8" ry="3.8" fill="#c4baac" opacity="0.38" transform="rotate(52.3 229.8 232.6)" />
<ellipse cx="227.6" cy="223.0" rx="5.0" ry="2.7" fill="#8e857b" opacity="0.52" transform="rotate(7.9 227.6 223.0)" />
<ellipse cx="282.0" cy="236.0" rx="2.3" ry="3.6" fill="#c4baac" opacity="0.41" transform="rotate(29.7 282.0 236.0)" />
<ellipse cx="220.3" cy="206.4" rx="5.2" ry="3.1" fill="#ada295" opacity="0.29" transform="rotate(179.1 220.3 206.4)" />
<ellipse cx="322.2" cy="119.8" rx="4.0" ry="3.1" fill="#ddd4c7" opacity="0.31" transform="rotate(99.1 322.2 119.8)" />
<ellipse cx="276.2" cy="251.8" rx="2.3" ry="3.7" fill="#c4baac" opacity="0.60" transform="rotate(88.7 276.2 251.8)" />
<ellipse cx="213.1" cy="167.9" rx="3.8" ry="1.6" fill="#8e857b" opacity="0.45" transform="rotate(1.5 213.1 167.9)" />
<ellipse cx="225.2" cy="219.3" rx="4.9" ry="2.0" fill="#c4baac" opacity="0.57" transform="rotate(70.1 225.2 219.3)" />
<ellipse cx="214.9" cy="179.5" rx="3.8" ry="2.3" fill="#c4baac" opacity="0.62" transform="rotate(15.7 214.9 179.5)" />
<ellipse cx="282.9" cy="228.3" rx="2.6" ry="2.8" fill="#c4baac" opacity="0.59" transform="rotate(149.8 282.9 228.3)" />
<ellipse cx="339.0" cy="83.6" rx="4.0" ry="3.7" fill="#8e857b" opacity="0.68" transform="rotate(96.6 339.0 83.6)" />
<ellipse cx="204.8" cy="123.6" rx="4.9" ry="1.6" fill="#ada295" opacity="0.55" transform="rotate(67.3 204.8 123.6)" />
<ellipse cx="210.5" cy="144.8" rx="2.1" ry="2.2" fill="#c4baac" opacity="0.55" transform="rotate(98.3 210.5 144.8)" />
<ellipse cx="286.5" cy="209.2" rx="3.8" ry="1.9" fill="#ada295" opacity="0.68" transform="rotate(104.0 286.5 209.2)" />
<ellipse cx="189.8" cy="106.5" rx="4.0" ry="3.7" fill="#ddd4c7" opacity="0.42" transform="rotate(4.8 189.8 106.5)" />
<ellipse cx="222.7" cy="210.6" rx="3.4" ry="2.4" fill="#8e857b" opacity="0.52" transform="rotate(83.8 222.7 210.6)" />
<ellipse cx="276.4" cy="252.3" rx="2.5" ry="1.9" fill="#8e857b" opacity="0.32" transform="rotate(78.1 276.4 252.3)" />
<ellipse cx="232.7" cy="230.2" rx="4.3" ry="3.3" fill="#8e857b" opacity="0.42" transform="rotate(156.0 232.7 230.2)" />
<ellipse cx="345.3" cy="81.3" rx="2.1" ry="1.5" fill="#ada295" opacity="0.39" transform="rotate(59.6 345.3 81.3)" />
<ellipse cx="215.4" cy="170.4" rx="4.0" ry="3.4" fill="#8e857b" opacity="0.38" transform="rotate(60.5 215.4 170.4)" />
<ellipse cx="319.9" cy="105.5" rx="4.8" ry="2.8" fill="#8e857b" opacity="0.43" transform="rotate(116.7 319.9 105.5)" />
<ellipse cx="209.7" cy="153.0" rx="3.7" ry="1.8" fill="#c4baac" opacity="0.46" transform="rotate(167.8 209.7 153.0)" />
<ellipse cx="293.5" cy="193.5" rx="2.9" ry="4.0" fill="#ada295" opacity="0.58" transform="rotate(145.4 293.5 193.5)" />
<ellipse cx="234.9" cy="249.8" rx="2.7" ry="2.5" fill="#c4baac" opacity="0.30" transform="rotate(142.6 234.9 249.8)" />
<ellipse cx="215.3" cy="188.7" rx="3.2" ry="2.5" fill="#ddd4c7" opacity="0.68" transform="rotate(81.3 215.3 188.7)" />
<ellipse cx="193.7" cy="131.4" rx="3.2" ry="3.2" fill="#ddd4c7" opacity="0.52" transform="rotate(109.7 193.7 131.4)" />
<ellipse cx="183.8" cy="105.6" rx="2.9" ry="2.1" fill="#ddd4c7" opacity="0.53" transform="rotate(70.9 183.8 105.6)" />
<ellipse cx="307.1" cy="154.3" rx="5.2" ry="1.9" fill="#8e857b" opacity="0.69" transform="rotate(0.1 307.1 154.3)" />
<ellipse cx="236.0" cy="246.2" rx="4.6" ry="2.6" fill="#c4baac" opacity="0.66" transform="rotate(48.0 236.0 246.2)" />
<ellipse cx="314.0" cy="136.1" rx="5.2" ry="3.7" fill="#ada295" opacity="0.49" transform="rotate(135.4 314.0 136.1)" />
<ellipse cx="331.8" cy="90.5" rx="4.5" ry="3.8" fill="#ada295" opacity="0.34" transform="rotate(84.0 331.8 90.5)" />
<ellipse cx="190.2" cy="80.7" rx="3.1" ry="3.5" fill="#8e857b" opacity="0.32" transform="rotate(96.6 190.2 80.7)" />
<ellipse cx="303.0" cy="187.0" rx="3.9" ry="1.5" fill="#8e857b" opacity="0.48" transform="rotate(164.7 303.0 187.0)" />
<ellipse cx="297.7" cy="177.6" rx="3.5" ry="3.9" fill="#8e857b" opacity="0.56" transform="rotate(87.9 297.7 177.6)" />
<ellipse cx="225.7" cy="211.6" rx="4.3" ry="2.0" fill="#c4baac" opacity="0.44" transform="rotate(169.0 225.7 211.6)" />
<ellipse cx="322.0" cy="131.0" rx="5.4" ry="3.3" fill="#ada295" opacity="0.42" transform="rotate(134.6 322.0 131.0)" />
<ellipse cx="313.3" cy="149.0" rx="3.7" ry="2.9" fill="#8e857b" opacity="0.57" transform="rotate(3.8 313.3 149.0)" />
<ellipse cx="299.8" cy="168.2" rx="3.1" ry="2.8" fill="#ada295" opacity="0.55" transform="rotate(140.0 299.8 168.2)" />
<ellipse cx="193.4" cy="119.6" rx="2.1" ry="2.5" fill="#ddd4c7" opacity="0.67" transform="rotate(97.0 193.4 119.6)" />
<ellipse cx="280.3" cy="234.1" rx="3.2" ry="2.4" fill="#8e857b" opacity="0.64" transform="rotate(0.7 280.3 234.1)" />
<ellipse cx="210.4" cy="179.6" rx="5.0" ry="2.3" fill="#ada295" opacity="0.36" transform="rotate(60.8 210.4 179.6)" />
<ellipse cx="278.6" cy="242.1" rx="4.1" ry="2.3" fill="#ddd4c7" opacity="0.33" transform="rotate(25.9 278.6 242.1)" />
<ellipse cx="175.3" cy="96.6" rx="3.9" ry="1.6" fill="#8e857b" opacity="0.51" transform="rotate(2.8 175.3 96.6)" />
<ellipse cx="235.2" cy="250.4" rx="2.6" ry="3.8" fill="#c4baac" opacity="0.69" transform="rotate(99.7 235.2 250.4)" />
<ellipse cx="208.9" cy="177.9" rx="5.4" ry="2.1" fill="#8e857b" opacity="0.44" transform="rotate(88.0 208.9 177.9)" />
<ellipse cx="291.1" cy="205.2" rx="3.5" ry="3.1" fill="#ddd4c7" opacity="0.38" transform="rotate(46.5 291.1 205.2)" />
<ellipse cx="189.3" cy="88.0" rx="2.2" ry="3.5" fill="#8e857b" opacity="0.59" transform="rotate(65.2 189.3 88.0)" />
<ellipse cx="306.0" cy="147.8" rx="5.2" ry="3.6" fill="#ada295" opacity="0.29" transform="rotate(136.0 306.0 147.8)" />
<ellipse cx="332.2" cy="88.3" rx="5.2" ry="3.4" fill="#ada295" opacity="0.50" transform="rotate(34.7 332.2 88.3)" />
<ellipse cx="203.8" cy="163.5" rx="4.2" ry="3.6" fill="#ddd4c7" opacity="0.33" transform="rotate(48.7 203.8 163.5)" />
<ellipse cx="298.1" cy="157.9" rx="3.3" ry="3.3" fill="#8e857b" opacity="0.68" transform="rotate(28.8 298.1 157.9)" />
<ellipse cx="202.3" cy="114.7" rx="5.1" ry="3.2" fill="#c4baac" opacity="0.31" transform="rotate(80.4 202.3 114.7)" />
<ellipse cx="316.1" cy="94.4" rx="2.3" ry="3.7" fill="#c4baac" opacity="0.57" transform="rotate(75.5 316.1 94.4)" />
<ellipse cx="189.3" cy="97.9" rx="3.1" ry="1.9" fill="#c4baac" opacity="0.46" transform="rotate(106.2 189.3 97.9)" />
<ellipse cx="218.9" cy="194.9" rx="5.4" ry="3.6" fill="#ddd4c7" opacity="0.69" transform="rotate(99.7 218.9 194.9)" />
<ellipse cx="234.3" cy="246.4" rx="2.0" ry="3.8" fill="#8e857b" opacity="0.65" transform="rotate(113.0 234.3 246.4)" />
<ellipse cx="218.0" cy="172.1" rx="5.1" ry="3.5" fill="#c4baac" opacity="0.28" transform="rotate(67.5 218.0 172.1)" />
<ellipse cx="280.8" cy="232.2" rx="5.3" ry="3.1" fill="#ddd4c7" opacity="0.49" transform="rotate(57.8 280.8 232.2)" />
<ellipse cx="220.6" cy="204.1" rx="4.8" ry="1.7" fill="#8e857b" opacity="0.30" transform="rotate(126.3 220.6 204.1)" />
<ellipse cx="218.8" cy="204.4" rx="2.4" ry="2.7" fill="#ddd4c7" opacity="0.55" transform="rotate(135.7 218.8 204.4)" />
<ellipse cx="211.5" cy="171.3" rx="5.5" ry="1.9" fill="#8e857b" opacity="0.47" transform="rotate(107.8 211.5 171.3)" />
<ellipse cx="279.7" cy="235.0" rx="2.3" ry="2.4" fill="#8e857b" opacity="0.39" transform="rotate(118.0 279.7 235.0)" />
<ellipse cx="318.5" cy="89.9" rx="3.6" ry="2.7" fill="#c4baac" opacity="0.64" transform="rotate(123.9 318.5 89.9)" />
<ellipse cx="301.1" cy="166.7" rx="3.4" ry="3.8" fill="#ddd4c7" opacity="0.42" transform="rotate(167.8 301.1 166.7)" />
<ellipse cx="222.6" cy="220.0" rx="5.1" ry="3.1" fill="#ada295" opacity="0.34" transform="rotate(155.8 222.6 220.0)" />
<ellipse cx="197.0" cy="105.3" rx="2.1" ry="3.5" fill="#8e857b" opacity="0.56" transform="rotate(129.5 197.0 105.3)" />
<ellipse cx="299.9" cy="186.9" rx="3.0" ry="2.8" fill="#c4baac" opacity="0.42" transform="rotate(95.1 299.9 186.9)" />
<ellipse cx="231.2" cy="236.4" rx="4.1" ry="3.2" fill="#c4baac" opacity="0.55" transform="rotate(104.0 231.2 236.4)" />
<ellipse cx="280.3" cy="234.4" rx="3.4" ry="3.9" fill="#ddd4c7" opacity="0.61" transform="rotate(96.2 280.3 234.4)" />
<ellipse cx="291.2" cy="194.4" rx="3.0" ry="2.0" fill="#8e857b" opacity="0.61" transform="rotate(15.4 291.2 194.4)" />
<ellipse cx="226.5" cy="214.1" rx="4.4" ry="2.7" fill="#ada295" opacity="0.61" transform="rotate(177.8 226.5 214.1)" />
<ellipse cx="235.7" cy="245.6" rx="3.9" ry="1.4" fill="#8e857b" opacity="0.47" transform="rotate(89.5 235.7 245.6)" />
<ellipse cx="206.2" cy="137.0" rx="4.1" ry="3.3" fill="#ada295" opacity="0.49" transform="rotate(28.8 206.2 137.0)" />
<ellipse cx="186.6" cy="105.1" rx="5.1" ry="1.9" fill="#ada295" opacity="0.46" transform="rotate(116.6 186.6 105.1)" />
<ellipse cx="275.5" cy="254.6" rx="4.2" ry="3.6" fill="#8e857b" opacity="0.69" transform="rotate(130.5 275.5 254.6)" />
<ellipse cx="173.0" cy="84.8" rx="5.2" ry="3.5" fill="#ada295" opacity="0.64" transform="rotate(94.3 173.0 84.8)" />
<ellipse cx="324.1" cy="99.8" rx="4.4" ry="2.0" fill="#c4baac" opacity="0.42" transform="rotate(44.6 324.1 99.8)" />
<ellipse cx="212.2" cy="162.3" rx="2.5" ry="2.7" fill="#ada295" opacity="0.65" transform="rotate(81.7 212.2 162.3)" />
<ellipse cx="300.0" cy="164.1" rx="2.4" ry="3.3" fill="#c4baac" opacity="0.37" transform="rotate(9.0 300.0 164.1)" />
<ellipse cx="218.1" cy="203.4" rx="2.3" ry="3.7" fill="#8e857b" opacity="0.32" transform="rotate(172.8 218.1 203.4)" />
<ellipse cx="183.1" cy="102.9" rx="2.2" ry="2.4" fill="#ada295" opacity="0.41" transform="rotate(171.5 183.1 102.9)" />
<ellipse cx="314.0" cy="146.5" rx="2.0" ry="1.4" fill="#8e857b" opacity="0.49" transform="rotate(82.4 314.0 146.5)" />
<ellipse cx="312.6" cy="156.0" rx="4.7" ry="3.9" fill="#ada295" opacity="0.60" transform="rotate(19.1 312.6 156.0)" />
<ellipse cx="310.6" cy="130.9" rx="2.9" ry="1.7" fill="#ddd4c7" opacity="0.67" transform="rotate(56.5 310.6 130.9)" />
<ellipse cx="287.8" cy="223.6" rx="5.0" ry="3.0" fill="#ada295" opacity="0.31" transform="rotate(31.9 287.8 223.6)" />
<ellipse cx="306.4" cy="139.3" rx="4.0" ry="2.3" fill="#ddd4c7" opacity="0.44" transform="rotate(113.8 306.4 139.3)" />
<ellipse cx="300.9" cy="161.7" rx="5.0" ry="2.9" fill="#8e857b" opacity="0.28" transform="rotate(33.3 300.9 161.7)" />
<ellipse cx="213.5" cy="180.2" rx="3.2" ry="2.8" fill="#ddd4c7" opacity="0.52" transform="rotate(159.3 213.5 180.2)" />
<ellipse cx="226.9" cy="224.1" rx="2.5" ry="3.5" fill="#ddd4c7" opacity="0.62" transform="rotate(136.2 226.9 224.1)" />
<ellipse cx="202.6" cy="149.1" rx="5.0" ry="2.8" fill="#ada295" opacity="0.34" transform="rotate(143.5 202.6 149.1)" />
<ellipse cx="294.0" cy="181.1" rx="4.3" ry="3.0" fill="#ddd4c7" opacity="0.66" transform="rotate(171.5 294.0 181.1)" />
<ellipse cx="233.6" cy="245.0" rx="3.3" ry="3.0" fill="#c4baac" opacity="0.38" transform="rotate(21.1 233.6 245.0)" />
<ellipse cx="187.9" cy="126.1" rx="5.0" ry="1.9" fill="#ddd4c7" opacity="0.69" transform="rotate(170.8 187.9 126.1)" />
<ellipse cx="301.4" cy="154.4" rx="3.4" ry="3.7" fill="#c4baac" opacity="0.67" transform="rotate(109.6 301.4 154.4)" />
<ellipse cx="180.9" cy="72.1" rx="4.5" ry="1.6" fill="#c4baac" opacity="0.51" transform="rotate(145.7 180.9 72.1)" />
<ellipse cx="319.1" cy="77.0" rx="4.9" ry="2.6" fill="#ddd4c7" opacity="0.51" transform="rotate(93.1 319.1 77.0)" />
<ellipse cx="293.2" cy="179.2" rx="3.2" ry="2.3" fill="#ddd4c7" opacity="0.41" transform="rotate(83.3 293.2 179.2)" />
<ellipse cx="279.4" cy="245.9" rx="2.8" ry="3.0" fill="#ddd4c7" opacity="0.30" transform="rotate(25.9 279.4 245.9)" />
<ellipse cx="321.1" cy="88.1" rx="2.3" ry="1.6" fill="#c4baac" opacity="0.70" transform="rotate(76.9 321.1 88.1)" />
<ellipse cx="293.7" cy="196.6" rx="5.1" ry="2.3" fill="#ada295" opacity="0.40" transform="rotate(18.4 293.7 196.6)" />
<ellipse cx="223.1" cy="205.1" rx="3.2" ry="1.9" fill="#ddd4c7" opacity="0.61" transform="rotate(150.9 223.1 205.1)" />
<ellipse cx="201.5" cy="148.8" rx="2.7" ry="3.6" fill="#ddd4c7" opacity="0.67" transform="rotate(137.4 201.5 148.8)" />
<ellipse cx="300.7" cy="175.6" rx="4.3" ry="1.9" fill="#c4baac" opacity="0.42" transform="rotate(178.8 300.7 175.6)" />
<ellipse cx="312.7" cy="152.5" rx="4.4" ry="3.7" fill="#8e857b" opacity="0.52" transform="rotate(112.1 312.7 152.5)" />
<ellipse cx="332.2" cy="97.0" rx="5.4" ry="1.5" fill="#c4baac" opacity="0.44" transform="rotate(149.5 332.2 97.0)" />
<ellipse cx="180.5" cy="98.0" rx="3.0" ry="2.7" fill="#ddd4c7" opacity="0.42" transform="rotate(95.1 180.5 98.0)" />
<path d="M 179.7 166.8 Q 173.6 165.6 168.5 163.3" stroke="#63875e" stroke-width="2.4" stroke-linecap="round" opacity="0.32" fill="none" />
<path d="M 316.1 204.4 Q 321.4 203.4 325.7 201.4" stroke="#63875e" stroke-width="2.4" stroke-linecap="round" opacity="0.32" fill="none" />
<path d="M 202.4 208.9 Q 197.4 208.8 193.4 208.7" stroke="#63875e" stroke-width="2.4" stroke-linecap="round" opacity="0.32" fill="none" />
<path d="M 178.8 137.9 Q 171.9 136.9 166.2 135.0" stroke="#63875e" stroke-width="2.4" stroke-linecap="round" opacity="0.32" fill="none" />
<path d="M 363.8 78.1 Q 369.5 77.1 374.2 75.2" stroke="#63875e" stroke-width="2.4" stroke-linecap="round" opacity="0.32" fill="none" />
<path d="M 346.9 115.8 Q 352.6 115.5 357.3 114.9" stroke="#63875e" stroke-width="2.4" stroke-linecap="round" opacity="0.32" fill="none" />
<path d="M 168.2 124.6 Q 161.7 125.5 156.3 127.0" stroke="#63875e" stroke-width="2.4" stroke-linecap="round" opacity="0.32" fill="none" />
<path d="M 306.5 231.0 Q 311.6 230.4 315.7 229.3" stroke="#63875e" stroke-width="2.4" stroke-linecap="round" opacity="0.32" fill="none" />
<path d="M 318.6 193.4 Q 325.4 194.5 331.0 196.7" stroke="#63875e" stroke-width="2.4" stroke-linecap="round" opacity="0.32" fill="none" />
<path d="M 332.8 140.2 Q 337.6 139.6 341.6 138.7" stroke="#63875e" stroke-width="2.4" stroke-linecap="round" opacity="0.32" fill="none" />
<path d="M 337.0 131.3 Q 342.5 130.5 346.9 129.1" stroke="#63875e" stroke-width="2.4" stroke-linecap="round" opacity="0.32" fill="none" />
<path d="M 148.7 75.9 Q 142.7 75.2 137.7 74.1" stroke="#63875e" stroke-width="2.4" stroke-linecap="round" opacity="0.32" fill="none" />
<path d="M 173.3 124.6 Q 165.8 124.8 159.7 125.2" stroke="#63875e" stroke-width="2.4" stroke-linecap="round" opacity="0.32" fill="none" />
<path d="M 189.7 171.2 Q 185.2 170.6 181.4 169.5" stroke="#63875e" stroke-width="2.4" stroke-linecap="round" opacity="0.32" fill="none" />
<path d="M 185.7 173.4 Q 180.3 172.1 175.9 169.6" stroke="#63875e" stroke-width="2.4" stroke-linecap="round" opacity="0.32" fill="none" />
<path d="M 361.7 87.0 Q 365.5 87.1 368.7 87.5" stroke="#63875e" stroke-width="2.4" stroke-linecap="round" opacity="0.32" fill="none" />
<path d="M 345.0 133.5 Q 349.4 132.2 352.9 129.7" stroke="#63875e" stroke-width="2.4" stroke-linecap="round" opacity="0.32" fill="none" />
<path d="M 163.8 113.6 Q 158.9 114.2 155.0 115.4" stroke="#63875e" stroke-width="2.4" stroke-linecap="round" opacity="0.32" fill="none" />
<path d="M 188.9 184.5 Q 183.9 185.9 179.9 188.6" stroke="#63875e" stroke-width="2.4" stroke-linecap="round" opacity="0.32" fill="none" />
<path d="M 295.3 251.0 Q 300.3 251.2 304.3 251.5" stroke="#63875e" stroke-width="2.4" stroke-linecap="round" opacity="0.32" fill="none" />
<path d="M 157.2 87.0 Q 152.9 86.1 149.3 84.4" stroke="#63875e" stroke-width="2.4" stroke-linecap="round" opacity="0.32" fill="none" />
<path d="M 356.2 98.0 Q 361.0 98.2 364.9 98.5" stroke="#63875e" stroke-width="2.4" stroke-linecap="round" opacity="0.32" fill="none" />
<path d="M 345.8 124.6 Q 349.6 123.9 352.8 122.6" stroke="#63875e" stroke-width="2.4" stroke-linecap="round" opacity="0.32" fill="none" />
<path d="M 300.0 233.3 Q 305.0 232.5 309.0 231.1" stroke="#63875e" stroke-width="2.4" stroke-linecap="round" opacity="0.32" fill="none" />
<path d="M 312.4 213.3 Q 316.4 213.3 319.8 213.4" stroke="#63875e" stroke-width="2.4" stroke-linecap="round" opacity="0.32" fill="none" />
<path d="M 334.3 155.7 Q 340.9 156.5 346.2 157.9" stroke="#63875e" stroke-width="2.4" stroke-linecap="round" opacity="0.32" fill="none" />
<path d="M 332.7 155.7 Q 338.2 156.2 342.7 157.1" stroke="#63875e" stroke-width="2.4" stroke-linecap="round" opacity="0.32" fill="none" />
<path d="M 203.8 224.4 Q 200.0 223.8 196.8 222.7" stroke="#63875e" stroke-width="2.4" stroke-linecap="round" opacity="0.32" fill="none" />
<path d="M 326.9 171.2 Q 332.3 170.1 336.7 168.0" stroke="#63875e" stroke-width="2.4" stroke-linecap="round" opacity="0.32" fill="none" />
<path d="M 153.9 93.6 Q 148.2 92.0 143.5 88.9" stroke="#63875e" stroke-width="2.4" stroke-linecap="round" opacity="0.32" fill="none" />
    <path d="M 206.0 55.9 L 248.5 251.0 L 263.5 251.0 L 306.0 55.9 Z" fill="url(#water-fill)" />
    <path d="M 206.0 55.9 L 248.5 251.0 L 263.5 251.0 L 306.0 55.9 Z" fill="url(#water-shade)" />
    <path d="M 206.0 55.9 L 248.5 251.0 L 263.5 251.0 L 306.0 55.9 Z" fill="#d5f3f6" opacity="0.28" />
<path d="M 241.7 109.1 Q 256.0 111.6 270.3 109.1" stroke="#c6eef8" stroke-width="1.88" stroke-linecap="round" opacity="0.17" fill="none" />
<path d="M 248.5 186.7 Q 256.0 185.5 263.5 186.7" stroke="#81cbd8" stroke-width="1.20" stroke-linecap="round" opacity="0.29" fill="none" />
<path d="M 242.5 195.6 Q 256.0 195.9 269.5 195.6" stroke="#81cbd8" stroke-width="1.52" stroke-linecap="round" opacity="0.28" fill="none" />
<path d="M 250.9 233.3 Q 256.0 232.7 261.1 233.3" stroke="#a6dde9" stroke-width="1.06" stroke-linecap="round" opacity="0.22" fill="none" />
<path d="M 229.5 126.9 Q 256.0 130.4 282.5 126.9" stroke="#81cbd8" stroke-width="1.27" stroke-linecap="round" opacity="0.27" fill="none" />
<path d="M 235.4 160.1 Q 256.0 163.7 276.6 160.1" stroke="#81cbd8" stroke-width="1.49" stroke-linecap="round" opacity="0.17" fill="none" />
<path d="M 244.6 135.7 Q 256.0 134.3 267.4 135.7" stroke="#c6eef8" stroke-width="1.26" stroke-linecap="round" opacity="0.26" fill="none" />
<path d="M 250.1 244.3 Q 256.0 242.0 261.9 244.3" stroke="#c6eef8" stroke-width="1.00" stroke-linecap="round" opacity="0.17" fill="none" />
<path d="M 238.0 184.5 Q 256.0 186.0 274.0 184.5" stroke="#a6dde9" stroke-width="1.62" stroke-linecap="round" opacity="0.27" fill="none" />
<path d="M 229.5 131.3 Q 256.0 131.6 282.5 131.3" stroke="#a6dde9" stroke-width="1.48" stroke-linecap="round" opacity="0.17" fill="none" />
<path d="M 239.0 186.7 Q 256.0 188.5 273.0 186.7" stroke="#c6eef8" stroke-width="1.90" stroke-linecap="round" opacity="0.21" fill="none" />
<path d="M 229.7 137.9 Q 256.0 138.9 282.3 137.9" stroke="#c6eef8" stroke-width="1.15" stroke-linecap="round" opacity="0.26" fill="none" />
<path d="M 228.1 135.7 Q 256.0 133.2 283.9 135.7" stroke="#81cbd8" stroke-width="1.65" stroke-linecap="round" opacity="0.30" fill="none" />
<path d="M 241.6 184.5 Q 256.0 187.8 270.4 184.5" stroke="#a6dde9" stroke-width="1.23" stroke-linecap="round" opacity="0.18" fill="none" />
<path d="M 240.0 188.9 Q 256.0 190.6 272.0 188.9" stroke="#c6eef8" stroke-width="1.89" stroke-linecap="round" opacity="0.28" fill="none" />
<path d="M 243.2 186.7 Q 256.0 186.7 268.8 186.7" stroke="#81cbd8" stroke-width="1.11" stroke-linecap="round" opacity="0.16" fill="none" />
    <ellipse cx="260.5" cy="258.2" rx="6.8" ry="3.9" fill="#9e9688" opacity="0.72" transform="rotate(54.8 260.5 258.2)" />
    <ellipse cx="272.6" cy="252.7" rx="5.5" ry="3.8" fill="#b3ab9e" opacity="0.69" transform="rotate(94.4 272.6 252.7)" />
    <ellipse cx="263.0" cy="244.5" rx="6.1" ry="6.2" fill="#b3ab9e" opacity="0.76" transform="rotate(96.9 263.0 244.5)" />
    <ellipse cx="272.1" cy="236.6" rx="5.7" ry="4.8" fill="#9e9688" opacity="0.56" transform="rotate(51.5 272.1 236.6)" />
    <ellipse cx="241.7" cy="233.4" rx="6.4" ry="4.4" fill="#b3ab9e" opacity="0.74" transform="rotate(135.3 241.7 233.4)" />
    <ellipse cx="263.5" cy="262.6" rx="6.3" ry="3.5" fill="#9e9688" opacity="0.76" transform="rotate(24.1 263.5 262.6)" />
    <circle cx="256.0" cy="251.0" r="8" fill="none" stroke="#81cbd8" stroke-width="1.2" opacity="0.22" />
    <circle cx="256.0" cy="251.0" r="15" fill="none" stroke="#81cbd8" stroke-width="1.2" opacity="0.17" />
    <circle cx="256.0" cy="251.0" r="22" fill="none" stroke="#81cbd8" stroke-width="1.2" opacity="0.12" />
  </g>
</svg>
