<svg xmlns="http://www.w3.org/2000/svg" width="512" height="512" viewBox="0 0 512 512">
  <defs>
    <clipPath id="hex-clip">
      <polygon points="48.0,256.0 152.0,75.9 360.0,75.9 464.0,256.0 360.0,436.1 152.0,436.1" />
    </clipPath>
    <linearGradient id="water-fill" x1="0%" y1="0%" x2="100%" y2="0%">
      <stop offset="0%" stop-color="#295f69" />
      <stop offset="20%" stop-color="#327884" />
      <stop offset="50%" stop-color="#5ea4af" />
      <stop offset="80%" stop-color="#327884" />
      <stop offset="100%" stop-color="#295f69" />
    </linearGradient>
    <linearGradient id="water-shade" x1="0%" y1="0%" x2="0%" y2="100%">
      <stop offset="0%" stop-color="#8dd6de" stop-opacity="0.38" />
      <stop offset="35%" stop-color="#ffffff" stop-opacity="0.06" />
      <stop offset="100%" stop-color="#11343e" stop-opacity="0.24" />
    </linearGradient>
  </defs>
  <g clip-path="url(#hex-clip)">
<ellipse cx="306.8" cy="220.8" rx="4.5" ry="2.2" fill="#ddd4c7" opacity="0.50" transform="rotate(150.3 306.8 220.8)" />
<ellipse cx="209.2" cy="241.1" rx="2.3" ry="2.7" fill="#ada295" opacity="0.65" transform="rotate(97.0 209.2 241.1)" />
<ellipse cx="184.7" cy="125.1" rx="4.8" ry="2.9" fill="#ddd4c7" opacity="0.34" transform="rotate(43.7 184.7 125.1)" />
<ellipse cx="218.6" cy="202.4" rx="4.3" ry="2.2" fill="#8e857b" opacity="0.66" transform="rotate(153.9 218.6 202.4)" />
<ellipse cx="214.9" cy="233.2" rx="4.8" ry="1.7" fill="#c4baac" opacity="0.34" transform="rotate(7.9 214.9 233.2)" />
<ellipse cx="201.7" cy="197.8" rx="5.2" ry="2.3" fill="#ada295" opacity="0.53" transform="rotate(146.5 201.7 197.8)" />
<ellipse cx="218.1" cy="212.8" rx="2.1" ry="1.5" fill="#ada295" opacity="0.35" transform="rotate(64.2 218.1 212.8)" />
<ellipse cx="202.2" cy="204.0" rx="2.1" ry="1.7" fill="#c4baac" opacity="0.34" transform="rotate(156.4 202.2 204.0)" />
<ellipse cx="195.0" cy="162.7" rx="2.9" ry="2.9" fill="#ada295" opacity="0.68" transform="rotate(115.7 195.0 162.7)" />
<ellipse cx="305.3" cy="175.1" rx="4.6" ry="2.0" fill="#ddd4c7" opacity="0.66" transform="rotate(89.4 305.3 175.1)" />
<ellipse cx="209.5" cy="211.8" rx="3.4" ry="1.8" fill="#8e857b" opacity="0.32" transform="rotate(34.2 209.5 211.8)" />
<ellipse cx="193.1" cy="139.3" rx="3.6" ry="2.0" fill="#c4baac" opacity="0.29" transform="rotate(136.5 193.1 139.3)" />
<ellipse cx="186.3" cy="84.5" rx="4.5" ry="3.0" fill="#c4baac" opacity="0.35" transform="rotate(90.8 186.3 84.5)" />
<ellipse cx="305.4" cy="176.8" rx="3.5" ry="3.0" fill="#8e857b" opacity="0.29" transform="rotate(160.6 305.4 176.8)" />
<ellipse cx="200.0" cy="154.1" rx="4.3" ry="1.8" fill="#c4baac" opacity="0.33" transform="rotate(65.5 200.0 154.1)" />
<ellipse cx="202.9" cy="151.3" rx="3.1" ry="3.3" fill="#8e857b" opacity="0.34" transform="rotate(26.3 202.9 151.3)" />
<ellipse cx="321.5" cy="136.1" rx="3.4" ry="2.6" fill="#ddd4c7" opacity="0.32" transform="rotate(19.6 321.5 136.1)" />
<ellipse cx="318.0" cy="104.7" rx="2.4" ry="2.2" fill="#ada295" opacity="0.68" transform="rotate(80.7 318.0 104.7)" />
<ellipse cx="225.1" cy="231.5" rx="3.8" ry="2.6" fill="#c4baac" opacity="0.50" transform="rotate(13.3 225.1 231.5)" />
<ellipse cx="185.9" cy="117.9" rx="3.6" ry="1.4" fill="#8e857b" opacity="0.60" transform="rotate(162.4 185.9 117.9)" />
<ellipse cx="198.4" cy="115.7" rx="2.1" ry="1.6" fill="#8e857b" opacity="0.45" transform="rotate(109.1 198.4 115.7)" />
<ellipse cx="295.9" cy="207.9" rx="4.9" ry="2.4" fill="#8e857b" opacity="0.65" transform="rotate(46.0 295.9 207.9)" />
<ellipse cx="307.9" cy="172.0" rx="2.3" ry="3.1" fill="#ada295" opacity="0.51" transform="rotate(124.0 307.9 172.0)" />
<ellipse cx="297.2" cy="233.8" rx="3.0" ry="2.3" fill="#ada295" opacity="0.38" transform="rotate(60.2 297.2 233.8)" />
<ellipse cx="182.2" cy="94.4" rx="2.5" ry="1.8" fill="#c4baac" opacity="0.58" transform="rotate(154.6 182.2 94.4)" />
<ellipse cx="199.8" cy="166.2" rx="3.0" ry="1.9" fill="#ada295" opacity="0.58" transform="rotate(123.1 199.8 166.2)" />
<ellipse cx="304.6" cy="152.3" rx="3.8" ry="2.4" fill="#ada295" opacity="0.50" transform="rotate(12.3 304.6 152.3)" />
<ellipse cx="197.1" cy="156.6" rx="3.6" ry="2.5" fill="#ada295" opacity="0.43" transform="rotate(48.8 197.1 156.6)" />
<ellipse cx="320.9" cy="163.8" rx="2.2" ry="2.6" fill="#c4baac" opacity="0.67" transform="rotate(173.9 320.9 163.8)" />
<ellipse cx="194.5" cy="139.2" rx="3.3" ry="1.9" fill="#8e857b" opacity="0.41" transform="rotate(153.3 194.5 139.2)" />
<ellipse cx="310.8" cy="159.8" rx="4.9" ry="2.4" fill="#ddd4c7" opacity="0.60" transform="rotate(68.3 310.8 159.8)" />
<ellipse cx="184.3" cy="120.6" rx="3.3" ry="1.7" fill="#c4baac" opacity="0.37" transform="rotate(38.3 184.3 120.6)" />
<ellipse cx="307.4" cy="202.2" rx="2.6" ry="1.7" fill="#ada295" opacity="0.65" transform="rotate(88.4 307.4 202.2)" />
<ellipse cx="205.0" cy="156.0" rx="2.8" ry="2.5" fill="#ddd4c7" opacity="0.42" transform="rotate(33.5 205.0 156.0)" />
<ellipse cx="201.1" cy="180.9" rx="3.1" ry="2.5" fill="#c4baac" opacity="0.50" transform="rotate(53.4 201.1 180.9)" />
<ellipse cx="314.1" cy="170.4" rx="5.2" ry="1.5" fill="#8e857b" opacity="0.63" transform="rotate(61.5 314.1 170.4)" />
<ellipse cx="315.8" cy="149.3" rx="3.8" ry="1.7" fill="#ada295" opacity="0.60" transform="rotate(58.5 315.8 149.3)" />
<ellipse cx="188.6" cy="100.2" rx="3.1" ry="1.7" fill="#c4baac" opacity="0.68" transform="rotate(73.5 188.6 100.2)" />
<ellipse cx="201.7" cy="143.2" rx="2.9" ry="3.5" fill="#ada295" opacity="0.66" transform="rotate(152.8 201.7 143.2)" />
<ellipse cx="219.6" cy="219.3" rx="2.4" ry="1.6" fill="#ddd4c7" opacity="0.47" transform="rotate(127.2 219.6 219.3)" />
<ellipse cx="316.5" cy="136.2" rx="2.6" ry="3.4" fill="#ddd4c7" opacity="0.39" transform="rotate(149.3 316.5 136.2)" />
<ellipse cx="202.2" cy="123.7" rx="2.9" ry="2.5" fill="#8e857b" opacity="0.35" transform="rotate(112.6 202.2 123.7)" />
<ellipse cx="323.4" cy="85.1" rx="2.2" ry="3.6" fill="#ddd4c7" opacity="0.60" transform="rotate(76.3 323.4 85.1)" />
<ellipse cx="325.9" cy="105.3" rx="4.8" ry="2.6" fill="#ddd4c7" opacity="0.67" transform="rotate(174.5 325.9 105.3)" />
<ellipse cx="198.4" cy="136.9" rx="2.6" ry="1.9" fill="#ddd4c7" opacity="0.64" transform="rotate(5.3 198.4 136.9)" />
<ellipse cx="335.3" cy="88.2" rx="3.2" ry="1.5" fill="#ddd4c7" opacity="0.68" transform="rotate(22.0 335.3 88.2)" />
<ellipse cx="306.0" cy="191.0" rx="3.1" ry="3.4" fill="#8e857b" opacity="0.42" transform="rotate(107.7 306.0 191.0)" />
<ellipse cx="226.1" cy="244.4" rx="5.1" ry="3.3" fill="#ada295" opacity="0.40" transform="rotate(15.4 226.1 244.4)" />
<ellipse cx="193.7" cy="108.3" rx="4.3" ry="2.4" fill="#8e857b" opacity="0.41" transform="rotate(154.2 193.7 108.3)" />
<ellipse cx="192.7" cy="71.1" rx="2.1" ry="3.6" fill="#ddd4c7" opacity="0.64" transform="rotate(85.5 192.7 71.1)" />
<ellipse cx="202.8" cy="160.4" rx="4.0" ry="2.0" fill="#ada295" opacity="0.45" transform="rotate(51.3 202.8 160.4)" />
<ellipse cx="303.4" cy="160.9" rx="4.9" ry="1.7" fill="#c4baac" opacity="0.49" transform="rotate(26.0 303.4 160.9)" />
<ellipse cx="295.8" cy="235.2" rx="3.0" ry="1.7" fill="#c4baac" opacity="0.43" transform="rotate(93.8 295.8 235.2)" />
<ellipse cx="184.2" cy="88.5" rx="2.3" ry="3.2" fill="#ada295" opacity="0.49" transform="rotate(160.9 184.2 88.5)" />
<ellipse cx="308.2" cy="219.6" rx="3.0" ry="1.7" fill="#ddd4c7" opacity="0.52" transform="rotate(162.8 308.2 219.6)" />
<ellipse cx="310.5" cy="134.2" rx="3.6" ry="1.9" fill="#ada295" opacity="0.62" transform="rotate(111.4 310.5 134.2)" />
<ellipse cx="211.5" cy="176.6" rx="2.8" ry="3.0" fill="#8e857b" opacity="0.62" transform="rotate(151.5 211.5 176.6)" />
<ellipse cx="292.0" cy="217.5" rx="2.0" ry="2.9" fill="#8e857b" opacity="0.68" transform="rotate(59.1 292.0 217.5)" />
<ellipse cx="190.4" cy="104.9" rx="3.1" ry="2.2" fill="#ada295" opacity="0.36" transform="rotate(129.6 190.4 104.9)" />
<ellipse cx="225.3" cy="244.5" rx="4.9" ry="3.2" fill="#ddd4c7" opacity="0.50" transform="rotate(125.1 225.3 244.5)" />
<ellipse cx="302.4" cy="176.9" rx="5.2" ry="2.7" fill="#8e857b" opacity="0.55" transform="rotate(43.0 302.4 176.9)" />
<ellipse cx="326.2" cy="85.4" rx="3.8" ry="3.5" fill="#ddd4c7" opacity="0.43" transform="rotate(106.7 326.2 85.4)" />
<ellipse cx="204.2" cy="141.3" rx="2.7" ry="3.0" fill="#8e857b" opacity="0.33" transform="rotate(49.3 204.2 141.3)" />
<ellipse cx="305.2" cy="172.0" rx="3.7" ry="1.4" fill="#c4baac" opacity="0.55" transform="rotate(34.0 305.2 172.0)" />
<ellipse cx="328.3" cy="105.7" rx="4.6" ry="2.1" fill="#ddd4c7" opacity="0.32" transform="rotate(147.6 328.3 105.7)" />
<ellipse cx="194.8" cy="90.0" rx="4.4" ry="2.5" fill="#ddd4c7" opacity="0.54" transform="rotate(75.2 194.8 90.0)" />
<ellipse cx="315.0" cy="98.9" rx="4.6" ry="2.0" fill="#8e857b" opacity="0.62" transform="rotate(73.7 315.0 98.9)" />
<ellipse cx="205.1" cy="235.9" rx="4.5" ry="3.5" fill="#8e857b" opacity="0.51" transform="rotate(1.1 205.1 235.9)" />
<ellipse cx="198.1" cy="116.4" rx="5.1" ry="3.3" fill="#8e857b" opacity="0.67" transform="rotate(20.1 198.1 116.4)" />
<ellipse cx="194.3" cy="122.1" rx="4.3" ry="3.4" fill="#8e857b" opacity="0.64" transform="rotate(113.5 194.3 122.1)" />
<ellipse cx="306.2" cy="196.0" rx="3.8" ry="2.8" fill="#c4baac" opacity="0.37" transform="rotate(14.4 306.2 196.0)" />
<ellipse cx="319.7" cy="117.1" rx="2.0" ry="2.2" fill="#ddd4c7" opacity="0.43" transform="rotate(115.5 319.7 117.1)" />
<ellipse cx="208.9" cy="232.1" rx="4.8" ry="2.9" fill="#ada295" opacity="0.36" transform="rotate(96.1 208.9 232.1)" />
<ellipse cx="190.4" cy="119.7" rx="4.2" ry="2.4" fill="#8e857b" opacity="0.68" transform="rotate(64.9 190.4 119.7)" />
<ellipse cx="335.6" cy="88.3" rx="2.2" ry="2.3" fill="#8e857b" opacity="0.34" transform="rotate(122.9 335.6 88.3)" />
<ellipse cx="292.9" cy="227.6" rx="3.3" ry="2.9" fill="#8e857b" opacity="0.63" transform="rotate(176.5 292.9 227.6)" />
<ellipse cx="185.3" cy="115.3" rx="2.8" ry="3.2" fill="#ada295" opacity="0.46" transform="rotate(81.5 185.3 115.3)" />
<ellipse cx="320.3" cy="114.4" rx="3.6" ry="3.1" fill="#ada295" opacity="0.31" transform="rotate(45.9 320.3 114.4)" />
<ellipse cx="220.1" cy="226.4" rx="3.6" ry="2.2" fill="#8e857b" opacity="0.66" transform="rotate(31.5 220.1 226.4)" />
<ellipse cx="208.3" cy="214.3" rx="2.1" ry="2.7" fill="#ada295" opacity="0.47" transform="rotate(138.2 208.3 214.3)" />
<ellipse cx="203.5" cy="150.0" rx="5.1" ry="3.4" fill="#c4baac" opacity="0.35" transform="rotate(79.7 203.5 150.0)" />
<ellipse cx="315.2" cy="166.0" rx="2.7" ry="2.0" fill="#ada295" opacity="0.44" transform="rotate(27.5 315.2 166.0)" />
<ellipse cx="198.6" cy="157.5" rx="2.8" ry="2.8" fill="#ada295" opacity="0.31" transform="rotate(174.3 198.6 157.5)" />
<ellipse cx="300.7" cy="178.8" rx="3.5" ry="1.9" fill="#ada295" opacity="0.49" transform="rotate(160.5 300.7 178.8)" />
<ellipse cx="188.3" cy="111.3" rx="4.0" ry="3.1" fill="#8e857b" opacity="0.54" transform="rotate(7.5 188.3 111.3)" />
<ellipse cx="202.6" cy="181.0" rx="4.7" ry="3.6" fill="#c4baac" opacity="0.61" transform="rotate(92.4 202.6 181.0)" />
<ellipse cx="207.6" cy="234.6" rx="3.6" ry="2.5" fill="#ada295" opacity="0.62" transform="rotate(80.7 207.6 234.6)" />
<ellipse cx="324.7" cy="132.3" rx="2.4" ry="2.8" fill="#c4baac" opacity="0.46" transform="rotate(23.0 324.7 132.3)" />
<ellipse cx="202.5" cy="196.3" rx="2.1" ry="1.8" fill="#8e857b" opacity="0.54" transform="rotate(62.0 202.5 196.3)" />
<ellipse cx="312.3" cy="194.9" rx="4.2" ry="3.6" fill="#ddd4c7" opacity="0.66" transform="rotate(98.7 312.3 194.9)" />
<ellipse cx="318.9" cy="163.5" rx="4.8" ry="2.1" fill="#c4baac" opacity="0.58" transform="rotate(76.1 318.9 163.5)" />
<ellipse cx="321.1" cy="124.5" rx="5.1" ry="1.4" fill="#8e857b" opacity="0.54" transform="rotate(103.2 321.1 124.5)" />
<ellipse cx="316.0" cy="137.4" rx="4.6" ry="3.3" fill="#ada295" opacity="0.54" transform="rotate(16.2 316.0 137.4)" />
<ellipse cx="191.0" cy="152.6" rx="4.2" ry="1.4" fill="#8e857b" opacity="0.59" transform="rotate(165.9 191.0 152.6)" />
<ellipse cx="179.7" cy="90.0" rx="4.4" ry="1.9" fill="#8e857b" opacity="0.29" transform="rotate(88.3 179.7 90.0)" />
<ellipse cx="201.2" cy="154.5" rx="4.0" ry="1.8" fill="#8e857b" opacity="0.30" transform="rotate(81.1 201.2 154.5)" />
<ellipse cx="337.6" cy="81.4" rx="2.3" ry="2.1" fill="#8e857b" opacity="0.31" transform="rotate(135.2 337.6 81.4)" />
<ellipse cx="219.9" cy="222.8" rx="3.5" ry="3.4" fill="#ddd4c7" opacity="0.42" transform="rotate(82.9 219.9 222.8)" />
<ellipse cx="189.5" cy="146.4" rx="4.1" ry="2.6" fill="#ada295" opacity="0.67" transform="rotate(29.4 189.5 146.4)" />
<ellipse cx="314.0" cy="200.2" rx="3.9" ry="2.1" fill="#ddd4c7" opacity="0.65" transform="rotate(28.6 314.0 200.2)" />
<ellipse cx="186.0" cy="93.8" rx="3.4" ry="3.6" fill="#8e857b" opacity="0.66" transform="rotate(89.3 186.0 93.8)" />
<ellipse cx="198.6" cy="156.9" rx="4.6" ry="2.3" fill="#8e857b" opacity="0.61" transform="rotate(51.4 198.6 156.9)" />
<ellipse cx="312.4" cy="116.3" rx="2.3" ry="3.3" fill="#ddd4c7" opacity="0.61" transform="rotate(141.8 312.4 116.3)" />
<ellipse cx="187.7" cy="74.9" rx="4.6" ry="1.5" fill="#ddd4c7" opacity="0.47" transform="rotate(16.8 187.7 74.9)" />
<ellipse cx="301.6" cy="220.7" rx="2.0" ry="3.2" fill="#ada295" opacity="0.70" transform="rotate(133.6 301.6 220.7)" />
<ellipse cx="317.8" cy="157.0" rx="2.2" ry="3.2" fill="#c4baac" opacity="0.37" transform="rotate(39.7 317.8 157.0)" />
<ellipse cx="320.8" cy="151.6" rx="3.2" ry="3.4" fill="#ddd4c7" opacity="0.44" transform="rotate(69.8 320.8 151.6)" />
<ellipse cx="200.2" cy="151.7" rx="2.6" ry="2.5" fill="#c4baac" opacity="0.38" transform="rotate(100.6 200.2 151.7)" />
<ellipse cx="305.6" cy="197.0" rx="3.1" ry="2.1" fill="#8e857b" opacity="0.40" transform="rotate(122.1 305.6 197.0)" />
<ellipse cx="214.4" cy="227.7" rx="2.1" ry="2.1" fill="#ada295" opacity="0.69" transform="rotate(34.5 214.4 227.7)" />
<ellipse cx="292.3" cy="242.4" rx="2.2" ry="1.5" fill="#8e857b" opacity="0.52" transform="rotate(73.0 292.3 242.4)" />
<ellipse cx="201.4" cy="149.3" rx="4.6" ry="1.5" fill="#c4baac" opacity="0.66" transform="rotate(89.0 201.4 149.3)" />
<ellipse cx="180.0" cy="89.1" rx="3.9" ry="2.4" fill="#ddd4c7" opacity="0.57" transform="rotate(81.9 180.0 89.1)" />
<ellipse cx="207.4" cy="179.2" rx="2.5" ry="2.0" fill="#8e857b" opacity="0.68" transform="rotate(136.6 207.4 179.2)" />
<ellipse cx="316.4" cy="140.1" rx="2.7" ry="3.0" fill="#c4baac" opacity="0.53" transform="rotate(71.4 316.4 140.1)" />
<ellipse cx="213.5" cy="175.4" rx="5.0" ry="1.5" fill="#ada295" opacity="0.50" transform="rotate(128.2 213.5 175.4)" />
<ellipse cx="313.1" cy="192.4" rx="2.3" ry="3.2" fill="#ddd4c7" opacity="0.55" transform="rotate(127.4 313.1 192.4)" />
<ellipse cx="318.2" cy="158.5" rx="4.9" ry="2.3" fill="#ddd4c7" opacity="0.40" transform="rotate(8.0 318.2 158.5)" />
<ellipse cx="206.6" cy="189.7" rx="4.5" ry="2.3" fill="#ada295" opacity="0.48" transform="rotate(56.8 206.6 189.7)" />
<ellipse cx="297.9" cy="226.1" rx="2.1" ry="3.3" fill="#8e857b" opacity="0.35" transform="rotate(151.5 297.9 226.1)" />
<path d="M 182.1 180.4 Q 176.3 180.8 171.6 181.5" stroke="#63875e" stroke-width="2.4" stroke-linecap="round" opacity="0.32" fill="none" />
<path d="M 340.3 155.3 Q 345.2 155.5 349.3 155.7" stroke="#63875e" stroke-width="2.4" stroke-linecap="round" opacity="0.32" fill="none" />
<path d="M 184.6 232.6 Q 178.0 233.5 172.6 235.2" stroke="#63875e" stroke-width="2.4" stroke-linecap="round" opacity="0.32" fill="none" />
<path d="M 350.8 82.1 Q 357.4 82.5 362.8 83.1" stroke="#63875e" stroke-width="2.4" stroke-linecap="round" opacity="0.32" fill="none" />
<path d="M 326.3 236.8 Q 333.4 236.0 339.2 234.3" stroke="#63875e" stroke-width="2.4" stroke-linecap="round" opacity="0.32" fill="none" />
<path d="M 331.0 220.1 Q 337.6 218.5 343.1 215.4" stroke="#63875e" stroke-width="2.4" stroke-linecap="round" opacity="0.32" fill="none" />
<path d="M 338.8 159.5 Q 344.1 160.1 348.4 161.2" stroke="#63875e" stroke-width="2.4" stroke-linecap="round" opacity="0.32" fill="none" />
<path d="M 163.6 132.3 Q 157.1 130.8 151.9 128.1" stroke="#63875e" stroke-width="2.4" stroke-linecap="round" opacity="0.32" fill="none" />
<path d="M 338.2 161.6 Q 343.0 163.1 346.9 166.1" stroke="#63875e" stroke-width="2.4" stroke-linecap="round" opacity="0.32" fill="none" />
<path d="M 330.1 188.7 Q 334.7 188.9 338.5 189.2" stroke="#63875e" stroke-width="2.4" stroke-linecap="round" opacity="0.32" fill="none" />
<path d="M 173.8 176.2 Q 168.4 176.5 164.0 176.9" stroke="#63875e" stroke-width="2.4" stroke-linecap="round" opacity="0.32" fill="none" />
<path d="M 187.6 207.6 Q 181.6 208.7 176.7 210.7" stroke="#63875e" stroke-width="2.4" stroke-linecap="round" opacity="0.32" fill="none" />
<path d="M 183.4 232.6 Q 176.0 232.2 169.9 231.3" stroke="#63875e" stroke-width="2.4" stroke-linecap="round" opacity="0.32" fill="none" />
<path d="M 341.4 161.6 Q 347.3 160.5 352.2 158.5" stroke="#63875e" stroke-width="2.4" stroke-linecap="round" opacity="0.32" fill="none" />
<path d="M 326.7 203.4 Q 330.8 203.3 334.1 203.2" stroke="#63875e" stroke-width="2.4" stroke-linecap="round" opacity="0.32" fill="none" />
<path d="M 171.5 142.8 Q 164.1 143.5 158.1 144.8" stroke="#63875e" stroke-width="2.4" stroke-linecap="round" opacity="0.32" fill="none" />
<path d="M 327.5 218.0 Q 332.5 217.1 336.6 215.4" stroke="#63875e" stroke-width="2.4" stroke-linecap="round" opacity="0.32" fill="none" />
<path d="M 185.7 197.1 Q 181.0 196.7 177.1 195.8" stroke="#63875e" stroke-width="2.4" stroke-linecap="round" opacity="0.32" fill="none" />
<path d="M 180.0 199.2 Q 173.2 198.6 167.7 197.6" stroke="#63875e" stroke-width="2.4" stroke-linecap="round" opacity="0.32" fill="none" />
<path d="M 186.7 220.1 Q 182.2 219.1 178.5 217.3" stroke="#63875e" stroke-width="2.4" stroke-linecap="round" opacity="0.32" fill="none" />
<path d="M 355.0 101.0 Q 360.1 102.4 364.2 105.1" stroke="#63875e" stroke-width="2.4" stroke-linecap="round" opacity="0.32" fill="none" />
<path d="M 350.2 82.1 Q 357.0 82.0 362.5 81.6" stroke="#63875e" stroke-width="2.4" stroke-linecap="round" opacity="0.32" fill="none" />
<path d="M 181.7 178.3 Q 177.6 177.0 174.2 174.7" stroke="#63875e" stroke-width="2.4" stroke-linecap="round" opacity="0.32" fill="none" />
<path d="M 155.6 75.9 Q 148.9 76.9 143.4 78.9" stroke="#63875e" stroke-width="2.4" stroke-linecap="round" opacity="0.32" fill="none" />
<path d="M 158.3 101.0 Q 154.1 101.7 150.6 103.1" stroke="#63875e" stroke-width="2.4" stroke-linecap="round" opacity="0.32" fill="none" />
<path d="M 163.0 88.4 Q 159.0 86.9 155.6 84.0" stroke="#63875e" stroke-width="2.4" stroke-linecap="round" opacity="0.32" fill="none" />
<path d="M 357.5 78.0 Q 364.9 77.1 370.9 75.5" stroke="#63875e" stroke-width="2.4" stroke-linecap="round" opacity="0.32" fill="none" />
<path d="M 351.4 111.4 Q 358.9 110.0 365.0 107.3" stroke="#63875e" stroke-width="2.4" stroke-linecap="round" opacity="0.32" fill="none" />
<path d="M 339.5 132.3 Q 344.5 131.4 348.6 129.7" stroke="#63875e" stroke-width="2.4" stroke-linecap="round" opacity="0.32" fill="none" />
<path d="M 156.1 94.7 Q 151.4 93.6 147.6 91.6" stroke="#63875e" stroke-width="2.4" stroke-linecap="round" opacity="0.32" fill="none" />
    <path d="M 205.0 55.9 L 239.0 241.0 L 273.0 241.0 L 307.0 55.9 Z" fill="url(#water-fill)" />
    <path d="M 205.0 55.9 L 239.0 241.0 L 273.0 241.0 L 307.0 55.9 Z" fill="url(#water-shade)" />
    <path d="M 205.0 55.9 L 239.0 241.0 L 273.0 241.0 L 307.0 55.9 Z" fill="#d5f3f6" opacity="0.28" />
    <ellipse cx="274.7" cy="114.7" rx="13.0" ry="8.5" fill="#bfb28c" opacity="0.43" transform="rotate(9.1 274.7 114.7)" />
    <ellipse cx="254.9" cy="109.4" rx="13.5" ry="6.9" fill="#c9bc9a" opacity="0.63" transform="rotate(16.4 254.9 109.4)" />
    <ellipse cx="236.7" cy="97.7" rx="18.8" ry="4.9" fill="#c9bc9a" opacity="0.61" transform="rotate(-1.0 236.7 97.7)" />
    <ellipse cx="286.6" cy="103.2" rx="22.7" ry="6.6" fill="#d4c8a8" opacity="0.50" transform="rotate(-9.8 286.6 103.2)" />
<path d="M 240.9 117.7 Q 256.0 120.6 271.1 117.7" stroke="#c6eef8" stroke-width="1.58" stroke-linecap="round" opacity="0.17" fill="none" />
<path d="M 233.9 178.3 Q 256.0 178.9 278.1 178.3" stroke="#a6dde9" stroke-width="1.63" stroke-linecap="round" opacity="0.29" fill="none" />
<path d="M 235.0 75.9 Q 256.0 77.3 277.0 75.9" stroke="#a6dde9" stroke-width="1.89" stroke-linecap="round" opacity="0.22" fill="none" />
<path d="M 242.4 238.9 Q 256.0 236.4 269.6 238.9" stroke="#81cbd8" stroke-width="1.18" stroke-linecap="round" opacity="0.23" fill="none" />
<path d="M 224.5 80.0 Q 256.0 81.7 287.5 80.0" stroke="#a6dde9" stroke-width="1.74" stroke-linecap="round" opacity="0.19" fill="none" />
<path d="M 232.6 123.9 Q 256.0 124.9 279.4 123.9" stroke="#81cbd8" stroke-width="1.71" stroke-linecap="round" opacity="0.21" fill="none" />
<path d="M 243.4 159.5 Q 256.0 157.8 268.6 159.5" stroke="#a6dde9" stroke-width="1.40" stroke-linecap="round" opacity="0.20" fill="none" />
<path d="M 232.4 169.9 Q 256.0 170.1 279.6 169.9" stroke="#a6dde9" stroke-width="1.82" stroke-linecap="round" opacity="0.19" fill="none" />
<path d="M 245.9 203.4 Q 256.0 202.2 266.1 203.4" stroke="#c6eef8" stroke-width="1.08" stroke-linecap="round" opacity="0.29" fill="none" />
<path d="M 239.3 113.5 Q 256.0 112.2 272.7 113.5" stroke="#c6eef8" stroke-width="1.30" stroke-linecap="round" opacity="0.22" fill="none" />
<path d="M 236.5 192.9 Q 256.0 190.9 275.5 192.9" stroke="#81cbd8" stroke-width="1.27" stroke-linecap="round" opacity="0.26" fill="none" />
<path d="M 229.9 84.2 Q 256.0 88.1 282.1 84.2" stroke="#c6eef8" stroke-width="1.12" stroke-linecap="round" opacity="0.15" fill="none" />
<path d="M 218.2 90.5 Q 256.0 88.9 293.8 90.5" stroke="#c6eef8" stroke-width="1.92" stroke-linecap="round" opacity="0.16" fill="none" />
<path d="M 234.4 184.6 Q 256.0 183.8 277.6 184.6" stroke="#c6eef8" stroke-width="1.80" stroke-linecap="round" opacity="0.20" fill="none" />
<path d="M 250.2 234.7 Q 256.0 231.5 261.8 234.7" stroke="#a6dde9" stroke-width="1.79" stroke-linecap="round" opacity="0.27" fill="none" />
<path d="M 245.4 218.0 Q 256.0 214.8 266.6 218.0" stroke="#c6eef8" stroke-width="1.63" stroke-linecap="round" opacity="0.16" fill="none" />
    <path d="M 237.9 80.6 Q 256.0 81.7 274.1 80.6" stroke="#e8f4f8" stroke-width="2.6" stroke-linecap="round" opacity="0.21" fill="none" />
    <path d="M 219.5 95.4 Q 256.0 93.6 292.5 95.4" stroke="#e8f4f8" stroke-width="1.7" stroke-linecap="round" opacity="0.25" fill="none" />
    <path d="M 217.0 83.7 Q 256.0 85.1 295.0 83.7" stroke="#e8f4f8" stroke-width="2.0" stroke-linecap="round" opacity="0.21" fill="none" />
    <path d="M 229.7 89.6 Q 256.0 87.8 282.3 89.6" stroke="#e8f4f8" stroke-width="1.8" stroke-linecap="round" opacity="0.25" fill="none" />
    <path d="M 218.9 85.5 Q 256.0 87.8 293.1 85.5" stroke="#e8f4f8" stroke-width="2.4" stroke-linecap="round" opacity="0.20" fill="none" />
  </g>
</svg>
