<svg xmlns="http://www.w3.org/2000/svg" width="512" height="512" viewBox="0 0 512 512">
  <defs>
    <clipPath id="hex-clip">
      <polygon points="48.0,256.0 152.0,75.9 360.0,75.9 464.0,256.0 360.0,436.1 152.0,436.1" />
    </clipPath>
    <linearGradient id="water-fill" x1="0%" y1="0%" x2="100%" y2="0%">
      <stop offset="0%" stop-color="#295f69" />
      <stop offset="20%" stop-color="#327884" />
      <stop offset="50%" stop-color="#5ea4af" />
      <stop offset="80%" stop-color="#327884" />
      <stop offset="100%" stop-color="#295f69" />
    </linearGradient>
    <linearGradient id="water-shade" x1="0%" y1="0%" x2="0%" y2="100%">
      <stop offset="0%" stop-color="#8dd6de" stop-opacity="0.38" />
      <stop offset="35%" stop-color="#ffffff" stop-opacity="0.06" />
      <stop offset="100%" stop-color="#11343e" stop-opacity="0.24" />
    </linearGradient>
  </defs>
  <g clip-path="url(#hex-clip)">
<ellipse cx="221.2" cy="143.8" rx="4.8" ry="2.7" fill="#8e857b" opacity="0.70" transform="rotate(175.7 221.2 143.8)" />
<ellipse cx="289.8" cy="130.9" rx="4.5" ry="1.6" fill="#c4baac" opacity="0.29" transform="rotate(150.5 289.8 130.9)" />
<ellipse cx="216.7" cy="134.6" rx="4.1" ry="3.2" fill="#ddd4c7" opacity="0.70" transform="rotate(8.5 216.7 134.6)" />
<ellipse cx="215.6" cy="97.1" rx="3.9" ry="2.3" fill="#8e857b" opacity="0.70" transform="rotate(115.3 215.6 97.1)" />
<ellipse cx="223.5" cy="180.4" rx="4.3" ry="1.8" fill="#c4baac" opacity="0.56" transform="rotate(147.1 223.5 180.4)" />
<ellipse cx="220.6" cy="141.0" rx="3.0" ry="2.8" fill="#8e857b" opacity="0.59" transform="rotate(72.1 220.6 141.0)" />
<ellipse cx="288.8" cy="85.5" rx="4.3" ry="2.3" fill="#ddd4c7" opacity="0.36" transform="rotate(83.6 288.8 85.5)" />
<ellipse cx="290.1" cy="219.1" rx="3.6" ry="2.4" fill="#c4baac" opacity="0.30" transform="rotate(78.6 290.1 219.1)" />
<ellipse cx="292.1" cy="134.8" rx="2.3" ry="2.4" fill="#c4baac" opacity="0.54" transform="rotate(5.7 292.1 134.8)" />
<ellipse cx="222.0" cy="174.9" rx="2.7" ry="1.7" fill="#ddd4c7" opacity="0.37" transform="rotate(113.2 222.0 174.9)" />
<ellipse cx="294.5" cy="167.6" rx="3.6" ry="2.7" fill="#c4baac" opacity="0.69" transform="rotate(110.9 294.5 167.6)" />
<ellipse cx="220.4" cy="213.9" rx="2.0" ry="2.4" fill="#ada295" opacity="0.46" transform="rotate(82.4 220.4 213.9)" />
<ellipse cx="219.9" cy="82.9" rx="2.5" ry="1.8" fill="#ddd4c7" opacity="0.57" transform="rotate(75.4 219.9 82.9)" />
<ellipse cx="292.1" cy="122.9" rx="3.6" ry="1.7" fill="#8e857b" opacity="0.45" transform="rotate(17.2 292.1 122.9)" />
<ellipse cx="219.9" cy="120.4" rx="4.6" ry="2.4" fill="#ddd4c7" opacity="0.38" transform="rotate(42.6 219.9 120.4)" />
<ellipse cx="218.7" cy="155.9" rx="4.7" ry="2.7" fill="#ada295" opacity="0.49" transform="rotate(16.8 218.7 155.9)" />
<ellipse cx="288.8" cy="115.5" rx="3.0" ry="3.2" fill="#c4baac" opacity="0.35" transform="rotate(8.5 288.8 115.5)" />
<ellipse cx="293.0" cy="129.4" rx="4.3" ry="2.3" fill="#8e857b" opacity="0.30" transform="rotate(30.1 293.0 129.4)" />
<ellipse cx="222.4" cy="158.3" rx="4.7" ry="1.7" fill="#c4baac" opacity="0.50" transform="rotate(22.0 222.4 158.3)" />
<ellipse cx="219.4" cy="142.2" rx="2.4" ry="2.2" fill="#c4baac" opacity="0.69" transform="rotate(151.3 219.4 142.2)" />
<ellipse cx="215.7" cy="210.9" rx="3.4" ry="1.9" fill="#c4baac" opacity="0.63" transform="rotate(93.0 215.7 210.9)" />
<ellipse cx="293.7" cy="89.2" rx="4.4" ry="1.6" fill="#ddd4c7" opacity="0.33" transform="rotate(118.8 293.7 89.2)" />
<ellipse cx="220.7" cy="85.3" rx="3.6" ry="2.2" fill="#ddd4c7" opacity="0.28" transform="rotate(67.0 220.7 85.3)" />
<ellipse cx="220.2" cy="75.4" rx="2.1" ry="3.2" fill="#ddd4c7" opacity="0.32" transform="rotate(52.4 220.2 75.4)" />
<ellipse cx="295.3" cy="208.0" rx="2.3" ry="3.0" fill="#ddd4c7" opacity="0.38" transform="rotate(137.2 295.3 208.0)" />
<ellipse cx="294.9" cy="108.5" rx="3.3" ry="2.3" fill="#ada295" opacity="0.44" transform="rotate(127.1 294.9 108.5)" />
<ellipse cx="293.0" cy="194.2" rx="4.1" ry="1.7" fill="#ddd4c7" opacity="0.69" transform="rotate(113.6 293.0 194.2)" />
<ellipse cx="296.3" cy="160.9" rx="3.8" ry="2.5" fill="#ada295" opacity="0.57" transform="rotate(61.4 296.3 160.9)" />
<ellipse cx="290.2" cy="225.9" rx="2.6" ry="2.2" fill="#ddd4c7" opacity="0.60" transform="rotate(83.6 290.2 225.9)" />
<ellipse cx="292.3" cy="96.3" rx="2.4" ry="3.2" fill="#c4baac" opacity="0.34" transform="rotate(169.4 292.3 96.3)" />
<ellipse cx="216.6" cy="177.2" rx="3.9" ry="2.2" fill="#ada295" opacity="0.63" transform="rotate(120.8 216.6 177.2)" />
<ellipse cx="219.6" cy="136.3" rx="3.6" ry="2.1" fill="#8e857b" opacity="0.66" transform="rotate(149.8 219.6 136.3)" />
<ellipse cx="290.6" cy="159.6" rx="2.7" ry="3.0" fill="#c4baac" opacity="0.68" transform="rotate(10.6 290.6 159.6)" />
<ellipse cx="291.1" cy="194.2" rx="4.7" ry="1.6" fill="#ada295" opacity="0.37" transform="rotate(19.4 291.1 194.2)" />
<ellipse cx="223.1" cy="209.7" rx="3.2" ry="1.4" fill="#8e857b" opacity="0.35" transform="rotate(5.0 223.1 209.7)" />
<ellipse cx="220.4" cy="211.4" rx="2.8" ry="2.3" fill="#ddd4c7" opacity="0.58" transform="rotate(140.3 220.4 211.4)" />
<ellipse cx="296.1" cy="217.1" rx="4.0" ry="2.7" fill="#ada295" opacity="0.33" transform="rotate(105.8 296.1 217.1)" />
<ellipse cx="292.9" cy="104.5" rx="4.2" ry="1.4" fill="#ddd4c7" opacity="0.47" transform="rotate(174.3 292.9 104.5)" />
<ellipse cx="288.6" cy="236.1" rx="3.7" ry="3.0" fill="#c4baac" opacity="0.32" transform="rotate(75.3 288.6 236.1)" />
<ellipse cx="288.9" cy="112.6" rx="2.3" ry="2.4" fill="#ada295" opacity="0.30" transform="rotate(93.2 288.9 112.6)" />
<ellipse cx="294.8" cy="228.1" rx="4.6" ry="2.5" fill="#ddd4c7" opacity="0.49" transform="rotate(108.6 294.8 228.1)" />
<ellipse cx="223.2" cy="137.5" rx="4.5" ry="2.6" fill="#ddd4c7" opacity="0.70" transform="rotate(56.2 223.2 137.5)" />
<ellipse cx="219.8" cy="102.6" rx="2.0" ry="2.0" fill="#c4baac" opacity="0.56" transform="rotate(146.7 219.8 102.6)" />
<ellipse cx="221.7" cy="224.9" rx="2.9" ry="3.2" fill="#c4baac" opacity="0.60" transform="rotate(45.4 221.7 224.9)" />
<ellipse cx="293.0" cy="151.7" rx="3.7" ry="2.2" fill="#ddd4c7" opacity="0.56" transform="rotate(44.1 293.0 151.7)" />
<ellipse cx="288.8" cy="137.3" rx="2.7" ry="1.9" fill="#ddd4c7" opacity="0.38" transform="rotate(100.7 288.8 137.3)" />
<ellipse cx="223.0" cy="199.7" rx="4.4" ry="2.9" fill="#c4baac" opacity="0.32" transform="rotate(78.0 223.0 199.7)" />
<ellipse cx="292.3" cy="89.1" rx="2.4" ry="2.7" fill="#c4baac" opacity="0.64" transform="rotate(105.8 292.3 89.1)" />
<ellipse cx="289.3" cy="132.8" rx="3.7" ry="1.5" fill="#ddd4c7" opacity="0.46" transform="rotate(164.8 289.3 132.8)" />
<ellipse cx="216.0" cy="88.4" rx="2.2" ry="1.6" fill="#c4baac" opacity="0.45" transform="rotate(64.5 216.0 88.4)" />
<ellipse cx="295.6" cy="198.9" rx="4.4" ry="1.6" fill="#c4baac" opacity="0.53" transform="rotate(148.7 295.6 198.9)" />
<ellipse cx="288.6" cy="198.8" rx="3.4" ry="1.6" fill="#ada295" opacity="0.66" transform="rotate(175.6 288.6 198.8)" />
<ellipse cx="223.4" cy="113.8" rx="4.1" ry="3.2" fill="#c4baac" opacity="0.48" transform="rotate(130.8 223.4 113.8)" />
<ellipse cx="218.2" cy="135.3" rx="3.5" ry="2.9" fill="#c4baac" opacity="0.52" transform="rotate(86.1 218.2 135.3)" />
<ellipse cx="219.9" cy="176.9" rx="3.3" ry="3.1" fill="#c4baac" opacity="0.31" transform="rotate(166.7 219.9 176.9)" />
<ellipse cx="222.9" cy="109.4" rx="2.6" ry="2.0" fill="#8e857b" opacity="0.51" transform="rotate(27.2 222.9 109.4)" />
<ellipse cx="217.8" cy="210.1" rx="2.3" ry="2.4" fill="#8e857b" opacity="0.31" transform="rotate(131.1 217.8 210.1)" />
<ellipse cx="220.0" cy="160.7" rx="2.1" ry="2.1" fill="#c4baac" opacity="0.57" transform="rotate(88.4 220.0 160.7)" />
<ellipse cx="290.0" cy="140.8" rx="3.7" ry="3.0" fill="#c4baac" opacity="0.67" transform="rotate(50.8 290.0 140.8)" />
<ellipse cx="223.2" cy="91.8" rx="3.7" ry="2.0" fill="#ada295" opacity="0.36" transform="rotate(169.6 223.2 91.8)" />
<ellipse cx="216.4" cy="155.2" rx="2.2" ry="1.9" fill="#8e857b" opacity="0.62" transform="rotate(87.2 216.4 155.2)" />
<ellipse cx="296.0" cy="89.7" rx="2.5" ry="2.1" fill="#ada295" opacity="0.43" transform="rotate(130.0 296.0 89.7)" />
<ellipse cx="219.4" cy="136.3" rx="2.9" ry="1.7" fill="#c4baac" opacity="0.63" transform="rotate(49.3 219.4 136.3)" />
<ellipse cx="221.6" cy="182.3" rx="3.8" ry="2.3" fill="#c4baac" opacity="0.36" transform="rotate(119.3 221.6 182.3)" />
<ellipse cx="222.9" cy="85.3" rx="3.7" ry="2.4" fill="#ada295" opacity="0.38" transform="rotate(0.1 222.9 85.3)" />
<ellipse cx="223.3" cy="188.8" rx="4.7" ry="2.6" fill="#ada295" opacity="0.67" transform="rotate(34.2 223.3 188.8)" />
<ellipse cx="217.1" cy="216.6" rx="4.5" ry="2.4" fill="#8e857b" opacity="0.30" transform="rotate(140.0 217.1 216.6)" />
<ellipse cx="222.9" cy="177.2" rx="2.3" ry="2.1" fill="#ddd4c7" opacity="0.35" transform="rotate(94.0 222.9 177.2)" />
<ellipse cx="217.1" cy="148.1" rx="3.5" ry="2.4" fill="#ddd4c7" opacity="0.55" transform="rotate(179.0 217.1 148.1)" />
<ellipse cx="219.0" cy="85.2" rx="4.5" ry="1.8" fill="#ada295" opacity="0.42" transform="rotate(24.7 219.0 85.2)" />
<ellipse cx="222.7" cy="88.1" rx="3.9" ry="1.9" fill="#c4baac" opacity="0.48" transform="rotate(62.7 222.7 88.1)" />
<ellipse cx="292.8" cy="198.8" rx="2.9" ry="2.8" fill="#ddd4c7" opacity="0.55" transform="rotate(43.9 292.8 198.8)" />
<ellipse cx="220.3" cy="179.1" rx="3.5" ry="2.3" fill="#8e857b" opacity="0.47" transform="rotate(13.7 220.3 179.1)" />
<ellipse cx="216.9" cy="194.5" rx="2.4" ry="3.0" fill="#ddd4c7" opacity="0.56" transform="rotate(25.7 216.9 194.5)" />
<ellipse cx="289.8" cy="115.2" rx="3.5" ry="2.1" fill="#ada295" opacity="0.59" transform="rotate(171.5 289.8 115.2)" />
<ellipse cx="220.0" cy="190.6" rx="4.0" ry="2.4" fill="#8e857b" opacity="0.40" transform="rotate(110.6 220.0 190.6)" />
<ellipse cx="294.6" cy="194.3" rx="2.9" ry="2.7" fill="#ddd4c7" opacity="0.49" transform="rotate(149.3 294.6 194.3)" />
<ellipse cx="220.3" cy="219.6" rx="3.5" ry="2.0" fill="#ada295" opacity="0.51" transform="rotate(13.4 220.3 219.6)" />
<ellipse cx="219.6" cy="172.2" rx="4.5" ry="2.1" fill="#8e857b" opacity="0.55" transform="rotate(114.9 219.6 172.2)" />
<ellipse cx="221.0" cy="213.1" rx="2.2" ry="1.8" fill="#ddd4c7" opacity="0.65" transform="rotate(157.7 221.0 213.1)" />
<ellipse cx="295.2" cy="229.8" rx="2.1" ry="2.2" fill="#ddd4c7" opacity="0.59" transform="rotate(91.0 295.2 229.8)" />
<ellipse cx="295.4" cy="213.7" rx="3.4" ry="1.7" fill="#8e857b" opacity="0.56" transform="rotate(100.8 295.4 213.7)" />
<ellipse cx="220.9" cy="179.8" rx="2.4" ry="2.3" fill="#8e857b" opacity="0.64" transform="rotate(172.4 220.9 179.8)" />
<ellipse cx="220.4" cy="181.4" rx="3.5" ry="2.0" fill="#ada295" opacity="0.69" transform="rotate(177.0 220.4 181.4)" />
<ellipse cx="289.0" cy="163.3" rx="2.6" ry="1.8" fill="#ada295" opacity="0.35" transform="rotate(90.7 289.0 163.3)" />
<ellipse cx="290.4" cy="112.4" rx="2.8" ry="2.7" fill="#8e857b" opacity="0.55" transform="rotate(163.5 290.4 112.4)" />
<ellipse cx="291.2" cy="178.2" rx="3.5" ry="3.1" fill="#ddd4c7" opacity="0.69" transform="rotate(9.0 291.2 178.2)" />
<ellipse cx="220.5" cy="125.2" rx="3.5" ry="1.6" fill="#ddd4c7" opacity="0.29" transform="rotate(64.0 220.5 125.2)" />
<ellipse cx="291.8" cy="161.4" rx="2.6" ry="3.0" fill="#ddd4c7" opacity="0.64" transform="rotate(110.8 291.8 161.4)" />
<ellipse cx="217.0" cy="150.5" rx="4.3" ry="2.0" fill="#8e857b" opacity="0.69" transform="rotate(63.0 217.0 150.5)" />
<ellipse cx="295.4" cy="208.8" rx="4.3" ry="2.6" fill="#8e857b" opacity="0.49" transform="rotate(59.5 295.4 208.8)" />
<ellipse cx="220.1" cy="115.9" rx="4.6" ry="1.6" fill="#8e857b" opacity="0.70" transform="rotate(78.6 220.1 115.9)" />
<ellipse cx="216.6" cy="84.9" rx="4.0" ry="1.7" fill="#ada295" opacity="0.65" transform="rotate(102.1 216.6 84.9)" />
<ellipse cx="222.7" cy="104.0" rx="2.9" ry="2.3" fill="#8e857b" opacity="0.51" transform="rotate(48.7 222.7 104.0)" />
<ellipse cx="292.0" cy="112.8" rx="2.5" ry="2.9" fill="#ada295" opacity="0.56" transform="rotate(137.5 292.0 112.8)" />
<ellipse cx="218.5" cy="136.2" rx="4.6" ry="3.0" fill="#ddd4c7" opacity="0.41" transform="rotate(130.5 218.5 136.2)" />
<ellipse cx="218.6" cy="151.0" rx="3.1" ry="1.6" fill="#8e857b" opacity="0.64" transform="rotate(167.9 218.6 151.0)" />
<ellipse cx="290.4" cy="236.7" rx="2.6" ry="2.5" fill="#ddd4c7" opacity="0.44" transform="rotate(109.2 290.4 236.7)" />
<ellipse cx="294.1" cy="185.8" rx="4.6" ry="1.5" fill="#ddd4c7" opacity="0.38" transform="rotate(29.1 294.1 185.8)" />
<ellipse cx="215.9" cy="206.4" rx="4.2" ry="1.8" fill="#c4baac" opacity="0.66" transform="rotate(127.3 215.9 206.4)" />
<path d="M 310.7 138.7 Q 315.3 137.3 319.1 134.8" stroke="#63875e" stroke-width="2.4" stroke-linecap="round" opacity="0.32" fill="none" />
<path d="M 309.6 95.5 Q 316.8 94.4 322.7 92.4" stroke="#63875e" stroke-width="2.4" stroke-linecap="round" opacity="0.32" fill="none" />
<path d="M 309.4 142.6 Q 313.5 142.3 316.9 141.7" stroke="#63875e" stroke-width="2.4" stroke-linecap="round" opacity="0.32" fill="none" />
<path d="M 193.4 134.8 Q 186.1 136.2 180.1 138.9" stroke="#63875e" stroke-width="2.4" stroke-linecap="round" opacity="0.32" fill="none" />
<path d="M 317.8 101.4 Q 323.8 102.7 328.8 105.1" stroke="#63875e" stroke-width="2.4" stroke-linecap="round" opacity="0.32" fill="none" />
<path d="M 310.9 213.3 Q 315.7 214.7 319.7 217.2" stroke="#63875e" stroke-width="2.4" stroke-linecap="round" opacity="0.32" fill="none" />
<path d="M 197.7 150.5 Q 190.6 151.6 184.7 153.8" stroke="#63875e" stroke-width="2.4" stroke-linecap="round" opacity="0.32" fill="none" />
<path d="M 193.3 205.5 Q 186.0 207.1 180.0 210.2" stroke="#63875e" stroke-width="2.4" stroke-linecap="round" opacity="0.32" fill="none" />
<path d="M 310.8 75.9 Q 317.6 74.4 323.2 71.7" stroke="#63875e" stroke-width="2.4" stroke-linecap="round" opacity="0.32" fill="none" />
<path d="M 200.6 123.0 Q 193.8 123.0 188.2 123.1" stroke="#63875e" stroke-width="2.4" stroke-linecap="round" opacity="0.32" fill="none" />
<path d="M 318.3 223.1 Q 323.5 224.4 327.8 226.7" stroke="#63875e" stroke-width="2.4" stroke-linecap="round" opacity="0.32" fill="none" />
<path d="M 319.3 211.4 Q 326.9 211.5 333.1 211.7" stroke="#63875e" stroke-width="2.4" stroke-linecap="round" opacity="0.32" fill="none" />
<path d="M 317.6 75.9 Q 321.5 74.1 324.7 70.9" stroke="#63875e" stroke-width="2.4" stroke-linecap="round" opacity="0.32" fill="none" />
<path d="M 308.6 134.8 Q 316.3 135.1 322.5 135.6" stroke="#63875e" stroke-width="2.4" stroke-linecap="round" opacity="0.32" fill="none" />
<path d="M 308.7 162.3 Q 314.2 160.7 318.7 157.9" stroke="#63875e" stroke-width="2.4" stroke-linecap="round" opacity="0.32" fill="none" />
<path d="M 198.6 125.0 Q 192.9 126.4 188.3 129.1" stroke="#63875e" stroke-width="2.4" stroke-linecap="round" opacity="0.32" fill="none" />
<path d="M 313.3 142.6 Q 317.5 143.1 321.0 144.1" stroke="#63875e" stroke-width="2.4" stroke-linecap="round" opacity="0.32" fill="none" />
<path d="M 202.9 229.0 Q 197.2 230.8 192.6 234.0" stroke="#63875e" stroke-width="2.4" stroke-linecap="round" opacity="0.32" fill="none" />
<path d="M 314.8 205.5 Q 320.8 206.8 325.6 209.2" stroke="#63875e" stroke-width="2.4" stroke-linecap="round" opacity="0.32" fill="none" />
<path d="M 313.7 207.4 Q 318.3 208.8 322.1 211.3" stroke="#63875e" stroke-width="2.4" stroke-linecap="round" opacity="0.32" fill="none" />
    <line x1="256.0" y1="231.0" x2="124.7" y2="55.9" stroke="url(#water-fill)" stroke-width="12.3" stroke-linecap="round" opacity="0.85" />
    <line x1="256.0" y1="231.0" x2="124.7" y2="55.9" stroke="#d5f3f6" stroke-width="12.3" stroke-linecap="round" opacity="0.28" />
    <line x1="256.0" y1="231.0" x2="140.1" y2="55.9" stroke="url(#water-fill)" stroke-width="7.8" stroke-linecap="round" opacity="0.85" />
    <line x1="256.0" y1="231.0" x2="140.1" y2="55.9" stroke="#d5f3f6" stroke-width="7.8" stroke-linecap="round" opacity="0.28" />
    <line x1="256.0" y1="231.0" x2="262.9" y2="55.9" stroke="url(#water-fill)" stroke-width="8.1" stroke-linecap="round" opacity="0.85" />
    <line x1="256.0" y1="231.0" x2="262.9" y2="55.9" stroke="#d5f3f6" stroke-width="8.1" stroke-linecap="round" opacity="0.28" />
    <line x1="256.0" y1="231.0" x2="279.4" y2="55.9" stroke="url(#water-fill)" stroke-width="12.2" stroke-linecap="round" opacity="0.85" />
    <line x1="256.0" y1="231.0" x2="279.4" y2="55.9" stroke="#d5f3f6" stroke-width="12.2" stroke-linecap="round" opacity="0.28" />
    <line x1="256.0" y1="231.0" x2="290.2" y2="55.9" stroke="url(#water-fill)" stroke-width="10.9" stroke-linecap="round" opacity="0.85" />
    <line x1="256.0" y1="231.0" x2="290.2" y2="55.9" stroke="#d5f3f6" stroke-width="10.9" stroke-linecap="round" opacity="0.28" />
    <circle cx="256.0" cy="231.0" r="11.9" fill="url(#water-fill)" opacity="0.85" />
    <circle cx="256.0" cy="231.0" r="11.9" fill="url(#water-shade)" />
    <circle cx="256.0" cy="231.0" r="11.9" fill="#d5f3f6" opacity="0.28" />
    <ellipse cx="284.9" cy="101.0" rx="15.6" ry="9.8" fill="#a09370" opacity="0.42" transform="rotate(-26.1 284.9 101.0)" />
    <ellipse cx="256.1" cy="190.9" rx="9.9" ry="4.3" fill="#b5a882" opacity="0.48" transform="rotate(-22.9 256.1 190.9)" />
    <ellipse cx="271.4" cy="165.1" rx="10.9" ry="5.5" fill="#a09370" opacity="0.54" transform="rotate(24.2 271.4 165.1)" />
    <ellipse cx="235.3" cy="129.6" rx="12.5" ry="5.0" fill="#8c8060" opacity="0.46" transform="rotate(9.9 235.3 129.6)" />
    <ellipse cx="247.0" cy="163.7" rx="11.2" ry="8.9" fill="#8c8060" opacity="0.31" transform="rotate(-0.9 247.0 163.7)" />
    <ellipse cx="286.6" cy="99.3" rx="15.6" ry="6.1" fill="#b5a882" opacity="0.44" transform="rotate(14.9 286.6 99.3)" />
    <ellipse cx="278.6" cy="192.8" rx="12.1" ry="9.5" fill="#a09370" opacity="0.48" transform="rotate(-9.3 278.6 192.8)" />
  </g>
</svg>
