<svg xmlns="http://www.w3.org/2000/svg" width="512" height="512" viewBox="0 0 512 512">
  <defs>
    <clipPath id="hex-clip">
      <polygon points="48.0,256.0 152.0,75.9 360.0,75.9 464.0,256.0 360.0,436.1 152.0,436.1" />
    </clipPath>
    <linearGradient id="water-fill" x1="0%" y1="0%" x2="100%" y2="0%">
      <stop offset="0%" stop-color="#295f69" />
      <stop offset="20%" stop-color="#327884" />
      <stop offset="50%" stop-color="#5ea4af" />
      <stop offset="80%" stop-color="#327884" />
      <stop offset="100%" stop-color="#295f69" />
    </linearGradient>
    <linearGradient id="water-shade" x1="0%" y1="0%" x2="0%" y2="100%">
      <stop offset="0%" stop-color="#8dd6de" stop-opacity="0.38" />
      <stop offset="35%" stop-color="#ffffff" stop-opacity="0.06" />
      <stop offset="100%" stop-color="#11343e" stop-opacity="0.24" />
    </linearGradient>
  </defs>
  <g clip-path="url(#hex-clip)">
<ellipse cx="219.1" cy="148.7" rx="4.4" ry="2.9" fill="#8e857b" opacity="0.69" transform="rotate(14.9 219.1 148.7)" />
<ellipse cx="230.6" cy="212.8" rx="4.5" ry="2.2" fill="#ada295" opacity="0.45" transform="rotate(57.3 230.6 212.8)" />
<ellipse cx="289.1" cy="187.3" rx="4.0" ry="2.5" fill="#8e857b" opacity="0.65" transform="rotate(28.5 289.1 187.3)" />
<ellipse cx="293.9" cy="126.2" rx="3.5" ry="3.2" fill="#ada295" opacity="0.66" transform="rotate(146.4 293.9 126.2)" />
<ellipse cx="285.5" cy="199.0" rx="4.7" ry="3.4" fill="#8e857b" opacity="0.40" transform="rotate(125.9 285.5 199.0)" />
<ellipse cx="279.5" cy="214.7" rx="2.3" ry="3.4" fill="#ada295" opacity="0.32" transform="rotate(22.9 279.5 214.7)" />
<ellipse cx="230.6" cy="214.4" rx="2.3" ry="3.3" fill="#8e857b" opacity="0.60" transform="rotate(73.2 230.6 214.4)" />
<ellipse cx="230.9" cy="212.8" rx="4.6" ry="3.2" fill="#8e857b" opacity="0.62" transform="rotate(118.9 230.9 212.8)" />
<ellipse cx="279.0" cy="223.2" rx="2.4" ry="3.0" fill="#c4baac" opacity="0.37" transform="rotate(6.7 279.0 223.2)" />
<ellipse cx="279.6" cy="227.6" rx="2.5" ry="1.6" fill="#ddd4c7" opacity="0.49" transform="rotate(41.6 279.6 227.6)" />
<ellipse cx="285.9" cy="191.4" rx="2.1" ry="2.9" fill="#ddd4c7" opacity="0.57" transform="rotate(76.1 285.9 191.4)" />
<ellipse cx="223.5" cy="183.2" rx="4.3" ry="1.7" fill="#ada295" opacity="0.38" transform="rotate(150.8 223.5 183.2)" />
<ellipse cx="301.3" cy="130.0" rx="3.7" ry="1.9" fill="#ada295" opacity="0.42" transform="rotate(69.9 301.3 130.0)" />
<ellipse cx="282.4" cy="210.5" rx="2.7" ry="2.6" fill="#ada295" opacity="0.41" transform="rotate(178.3 282.4 210.5)" />
<ellipse cx="198.2" cy="97.1" rx="2.6" ry="1.4" fill="#8e857b" opacity="0.33" transform="rotate(127.7 198.2 97.1)" />
<ellipse cx="280.3" cy="216.9" rx="4.4" ry="2.5" fill="#8e857b" opacity="0.44" transform="rotate(85.8 280.3 216.9)" />
<ellipse cx="298.4" cy="128.2" rx="2.3" ry="2.2" fill="#c4baac" opacity="0.28" transform="rotate(85.6 298.4 128.2)" />
<ellipse cx="234.9" cy="238.7" rx="2.5" ry="2.0" fill="#c4baac" opacity="0.59" transform="rotate(79.8 234.9 238.7)" />
<ellipse cx="234.8" cy="233.5" rx="3.2" ry="2.6" fill="#ada295" opacity="0.66" transform="rotate(40.0 234.8 233.5)" />
<ellipse cx="208.0" cy="97.4" rx="5.1" ry="2.3" fill="#ddd4c7" opacity="0.28" transform="rotate(59.0 208.0 97.4)" />
<ellipse cx="216.8" cy="123.5" rx="2.7" ry="3.3" fill="#8e857b" opacity="0.36" transform="rotate(64.9 216.8 123.5)" />
<ellipse cx="275.0" cy="245.9" rx="3.7" ry="2.3" fill="#8e857b" opacity="0.30" transform="rotate(1.0 275.0 245.9)" />
<ellipse cx="210.7" cy="95.0" rx="4.2" ry="3.4" fill="#ddd4c7" opacity="0.64" transform="rotate(165.4 210.7 95.0)" />
<ellipse cx="293.5" cy="172.3" rx="2.8" ry="3.3" fill="#ddd4c7" opacity="0.30" transform="rotate(78.3 293.5 172.3)" />
<ellipse cx="275.9" cy="235.9" rx="5.1" ry="2.9" fill="#8e857b" opacity="0.43" transform="rotate(35.6 275.9 235.9)" />
<ellipse cx="298.7" cy="161.5" rx="2.1" ry="1.5" fill="#c4baac" opacity="0.51" transform="rotate(157.9 298.7 161.5)" />
<ellipse cx="235.7" cy="232.0" rx="4.0" ry="2.0" fill="#ada295" opacity="0.35" transform="rotate(162.8 235.7 232.0)" />
<ellipse cx="204.0" cy="93.1" rx="3.0" ry="3.6" fill="#ada295" opacity="0.62" transform="rotate(114.2 204.0 93.1)" />
<ellipse cx="210.3" cy="76.9" rx="3.9" ry="2.2" fill="#ddd4c7" opacity="0.38" transform="rotate(178.6 210.3 76.9)" />
<ellipse cx="294.7" cy="124.5" rx="2.8" ry="3.2" fill="#ada295" opacity="0.37" transform="rotate(40.6 294.7 124.5)" />
<ellipse cx="302.8" cy="126.6" rx="4.5" ry="2.4" fill="#ddd4c7" opacity="0.28" transform="rotate(162.1 302.8 126.6)" />
<ellipse cx="299.0" cy="147.9" rx="3.0" ry="2.3" fill="#8e857b" opacity="0.53" transform="rotate(119.2 299.0 147.9)" />
<ellipse cx="275.2" cy="240.7" rx="2.1" ry="3.3" fill="#c4baac" opacity="0.49" transform="rotate(149.3 275.2 240.7)" />
<ellipse cx="311.0" cy="100.5" rx="4.8" ry="1.6" fill="#c4baac" opacity="0.43" transform="rotate(51.1 311.0 100.5)" />
<ellipse cx="207.3" cy="123.1" rx="4.9" ry="2.4" fill="#ada295" opacity="0.30" transform="rotate(11.3 207.3 123.1)" />
<ellipse cx="211.8" cy="106.0" rx="2.8" ry="1.6" fill="#ddd4c7" opacity="0.66" transform="rotate(154.9 211.8 106.0)" />
<ellipse cx="217.1" cy="152.9" rx="5.1" ry="3.1" fill="#ddd4c7" opacity="0.29" transform="rotate(74.9 217.1 152.9)" />
<ellipse cx="209.5" cy="104.5" rx="4.3" ry="2.0" fill="#ddd4c7" opacity="0.40" transform="rotate(153.7 209.5 104.5)" />
<ellipse cx="286.5" cy="185.5" rx="5.2" ry="1.8" fill="#8e857b" opacity="0.40" transform="rotate(155.3 286.5 185.5)" />
<ellipse cx="206.0" cy="114.1" rx="5.2" ry="2.6" fill="#ddd4c7" opacity="0.68" transform="rotate(67.1 206.0 114.1)" />
<ellipse cx="274.1" cy="241.4" rx="2.3" ry="2.2" fill="#8e857b" opacity="0.68" transform="rotate(87.7 274.1 241.4)" />
<ellipse cx="282.3" cy="198.7" rx="2.4" ry="3.3" fill="#ddd4c7" opacity="0.54" transform="rotate(22.5 282.3 198.7)" />
<ellipse cx="237.4" cy="239.6" rx="5.2" ry="2.1" fill="#ddd4c7" opacity="0.55" transform="rotate(131.4 237.4 239.6)" />
<ellipse cx="235.5" cy="233.4" rx="4.6" ry="2.1" fill="#ddd4c7" opacity="0.30" transform="rotate(33.2 235.5 233.4)" />
<ellipse cx="277.6" cy="221.2" rx="4.2" ry="1.8" fill="#ada295" opacity="0.41" transform="rotate(105.5 277.6 221.2)" />
<ellipse cx="235.6" cy="227.7" rx="2.7" ry="3.4" fill="#ddd4c7" opacity="0.53" transform="rotate(49.3 235.6 227.7)" />
<ellipse cx="296.9" cy="115.6" rx="5.0" ry="2.6" fill="#ddd4c7" opacity="0.37" transform="rotate(53.9 296.9 115.6)" />
<ellipse cx="229.0" cy="211.1" rx="4.6" ry="3.4" fill="#ada295" opacity="0.33" transform="rotate(142.9 229.0 211.1)" />
<ellipse cx="234.6" cy="238.6" rx="4.2" ry="2.0" fill="#ada295" opacity="0.62" transform="rotate(136.9 234.6 238.6)" />
<ellipse cx="207.0" cy="76.6" rx="3.1" ry="2.8" fill="#ddd4c7" opacity="0.65" transform="rotate(110.9 207.0 76.6)" />
<ellipse cx="297.1" cy="150.9" rx="3.6" ry="1.5" fill="#ada295" opacity="0.39" transform="rotate(161.2 297.1 150.9)" />
<ellipse cx="274.1" cy="242.3" rx="2.1" ry="3.6" fill="#8e857b" opacity="0.55" transform="rotate(38.8 274.1 242.3)" />
<ellipse cx="311.9" cy="104.6" rx="4.0" ry="2.5" fill="#c4baac" opacity="0.44" transform="rotate(170.1 311.9 104.6)" />
<ellipse cx="196.0" cy="83.7" rx="4.4" ry="3.4" fill="#c4baac" opacity="0.49" transform="rotate(64.3 196.0 83.7)" />
<ellipse cx="283.8" cy="205.3" rx="3.8" ry="3.4" fill="#c4baac" opacity="0.63" transform="rotate(56.4 283.8 205.3)" />
<ellipse cx="206.1" cy="125.8" rx="3.1" ry="2.3" fill="#ddd4c7" opacity="0.32" transform="rotate(135.6 206.1 125.8)" />
<ellipse cx="227.3" cy="201.4" rx="2.1" ry="1.7" fill="#c4baac" opacity="0.67" transform="rotate(136.7 227.3 201.4)" />
<ellipse cx="224.0" cy="169.8" rx="5.1" ry="2.8" fill="#c4baac" opacity="0.43" transform="rotate(140.1 224.0 169.8)" />
<ellipse cx="212.9" cy="134.7" rx="2.9" ry="3.1" fill="#ada295" opacity="0.53" transform="rotate(90.2 212.9 134.7)" />
<ellipse cx="276.3" cy="228.2" rx="3.2" ry="1.6" fill="#ddd4c7" opacity="0.33" transform="rotate(179.4 276.3 228.2)" />
<ellipse cx="223.5" cy="183.5" rx="4.6" ry="2.0" fill="#8e857b" opacity="0.65" transform="rotate(170.8 223.5 183.5)" />
<ellipse cx="276.8" cy="229.3" rx="4.4" ry="2.6" fill="#ddd4c7" opacity="0.29" transform="rotate(177.9 276.8 229.3)" />
<ellipse cx="201.4" cy="92.6" rx="5.0" ry="3.0" fill="#ada295" opacity="0.58" transform="rotate(64.9 201.4 92.6)" />
<ellipse cx="291.0" cy="164.0" rx="3.1" ry="1.7" fill="#ada295" opacity="0.51" transform="rotate(80.9 291.0 164.0)" />
<ellipse cx="295.2" cy="112.4" rx="2.1" ry="2.0" fill="#ddd4c7" opacity="0.68" transform="rotate(99.0 295.2 112.4)" />
<ellipse cx="219.2" cy="168.8" rx="4.4" ry="3.0" fill="#ddd4c7" opacity="0.48" transform="rotate(57.4 219.2 168.8)" />
<ellipse cx="195.6" cy="82.8" rx="4.7" ry="1.7" fill="#c4baac" opacity="0.58" transform="rotate(19.0 195.6 82.8)" />
<ellipse cx="281.7" cy="209.8" rx="2.1" ry="2.6" fill="#ddd4c7" opacity="0.61" transform="rotate(111.0 281.7 209.8)" />
<ellipse cx="295.6" cy="134.8" rx="5.0" ry="2.3" fill="#ada295" opacity="0.70" transform="rotate(58.0 295.6 134.8)" />
<ellipse cx="216.7" cy="135.1" rx="4.5" ry="1.8" fill="#8e857b" opacity="0.41" transform="rotate(148.3 216.7 135.1)" />
<ellipse cx="212.3" cy="156.0" rx="5.0" ry="2.0" fill="#ddd4c7" opacity="0.50" transform="rotate(109.4 212.3 156.0)" />
<ellipse cx="228.1" cy="184.6" rx="4.6" ry="2.0" fill="#c4baac" opacity="0.63" transform="rotate(85.3 228.1 184.6)" />
<ellipse cx="281.4" cy="223.9" rx="2.7" ry="1.8" fill="#ddd4c7" opacity="0.42" transform="rotate(41.3 281.4 223.9)" />
<ellipse cx="277.1" cy="235.8" rx="2.1" ry="3.3" fill="#c4baac" opacity="0.62" transform="rotate(70.4 277.1 235.8)" />
<ellipse cx="298.4" cy="128.5" rx="2.6" ry="1.9" fill="#ddd4c7" opacity="0.56" transform="rotate(156.5 298.4 128.5)" />
<ellipse cx="285.9" cy="185.0" rx="2.8" ry="1.7" fill="#8e857b" opacity="0.29" transform="rotate(88.8 285.9 185.0)" />
<ellipse cx="225.6" cy="185.1" rx="3.9" ry="3.5" fill="#c4baac" opacity="0.60" transform="rotate(60.3 225.6 185.1)" />
<ellipse cx="225.1" cy="198.1" rx="2.8" ry="2.3" fill="#c4baac" opacity="0.47" transform="rotate(142.5 225.1 198.1)" />
<ellipse cx="236.0" cy="241.7" rx="2.3" ry="3.5" fill="#ada295" opacity="0.29" transform="rotate(130.2 236.0 241.7)" />
<ellipse cx="282.1" cy="217.5" rx="3.8" ry="3.3" fill="#ddd4c7" opacity="0.38" transform="rotate(178.0 282.1 217.5)" />
<ellipse cx="226.6" cy="191.3" rx="2.3" ry="2.5" fill="#ada295" opacity="0.67" transform="rotate(6.4 226.6 191.3)" />
<ellipse cx="224.6" cy="170.9" rx="4.7" ry="3.2" fill="#8e857b" opacity="0.66" transform="rotate(150.5 224.6 170.9)" />
<ellipse cx="286.7" cy="202.6" rx="2.2" ry="1.5" fill="#c4baac" opacity="0.32" transform="rotate(153.1 286.7 202.6)" />
<ellipse cx="292.4" cy="173.5" rx="4.9" ry="2.1" fill="#c4baac" opacity="0.43" transform="rotate(38.4 292.4 173.5)" />
<ellipse cx="214.1" cy="106.8" rx="2.1" ry="3.1" fill="#c4baac" opacity="0.48" transform="rotate(20.3 214.1 106.8)" />
<ellipse cx="203.5" cy="119.0" rx="3.9" ry="2.4" fill="#ada295" opacity="0.56" transform="rotate(156.0 203.5 119.0)" />
<ellipse cx="273.1" cy="256.7" rx="2.6" ry="2.1" fill="#ada295" opacity="0.65" transform="rotate(113.4 273.1 256.7)" />
<ellipse cx="288.9" cy="185.2" rx="2.7" ry="3.0" fill="#8e857b" opacity="0.69" transform="rotate(11.5 288.9 185.2)" />
<ellipse cx="229.3" cy="212.2" rx="3.7" ry="2.1" fill="#ddd4c7" opacity="0.66" transform="rotate(71.7 229.3 212.2)" />
<ellipse cx="283.9" cy="206.9" rx="4.8" ry="2.0" fill="#ada295" opacity="0.29" transform="rotate(32.7 283.9 206.9)" />
<ellipse cx="236.5" cy="238.9" rx="2.8" ry="3.0" fill="#ddd4c7" opacity="0.43" transform="rotate(30.3 236.5 238.9)" />
<ellipse cx="225.5" cy="191.3" rx="3.5" ry="2.2" fill="#c4baac" opacity="0.66" transform="rotate(51.4 225.5 191.3)" />
<ellipse cx="216.5" cy="130.6" rx="5.0" ry="3.3" fill="#ddd4c7" opacity="0.37" transform="rotate(163.2 216.5 130.6)" />
<ellipse cx="231.8" cy="206.0" rx="4.0" ry="2.4" fill="#ada295" opacity="0.34" transform="rotate(8.5 231.8 206.0)" />
<ellipse cx="219.1" cy="171.4" rx="4.4" ry="1.7" fill="#c4baac" opacity="0.49" transform="rotate(34.5 219.1 171.4)" />
<ellipse cx="218.9" cy="155.7" rx="3.3" ry="2.8" fill="#ada295" opacity="0.30" transform="rotate(51.5 218.9 155.7)" />
<ellipse cx="234.3" cy="226.7" rx="4.0" ry="2.5" fill="#ada295" opacity="0.34" transform="rotate(134.6 234.3 226.7)" />
<ellipse cx="202.4" cy="95.8" rx="2.9" ry="2.7" fill="#8e857b" opacity="0.53" transform="rotate(25.6 202.4 95.8)" />
<ellipse cx="236.1" cy="235.0" rx="2.6" ry="3.1" fill="#c4baac" opacity="0.49" transform="rotate(135.9 236.1 235.0)" />
<ellipse cx="219.3" cy="152.1" rx="2.4" ry="2.1" fill="#ddd4c7" opacity="0.41" transform="rotate(177.8 219.3 152.1)" />
<ellipse cx="209.6" cy="102.3" rx="3.6" ry="1.8" fill="#ada295" opacity="0.30" transform="rotate(132.4 209.6 102.3)" />
<ellipse cx="278.2" cy="220.9" rx="3.6" ry="3.5" fill="#8e857b" opacity="0.55" transform="rotate(116.6 278.2 220.9)" />
<ellipse cx="281.9" cy="216.6" rx="4.8" ry="1.7" fill="#ada295" opacity="0.65" transform="rotate(43.2 281.9 216.6)" />
<ellipse cx="300.2" cy="121.8" rx="3.9" ry="1.8" fill="#8e857b" opacity="0.54" transform="rotate(126.8 300.2 121.8)" />
<ellipse cx="210.3" cy="106.1" rx="4.9" ry="3.4" fill="#ddd4c7" opacity="0.67" transform="rotate(68.6 210.3 106.1)" />
<ellipse cx="293.9" cy="173.1" rx="4.2" ry="2.0" fill="#ada295" opacity="0.64" transform="rotate(121.3 293.9 173.1)" />
<ellipse cx="289.8" cy="186.0" rx="3.3" ry="3.3" fill="#c4baac" opacity="0.55" transform="rotate(26.3 289.8 186.0)" />
<ellipse cx="296.8" cy="115.0" rx="4.6" ry="1.9" fill="#ddd4c7" opacity="0.47" transform="rotate(79.8 296.8 115.0)" />
<ellipse cx="283.0" cy="203.7" rx="2.8" ry="2.5" fill="#ada295" opacity="0.57" transform="rotate(167.7 283.0 203.7)" />
<ellipse cx="311.3" cy="102.0" rx="2.1" ry="3.6" fill="#ddd4c7" opacity="0.41" transform="rotate(75.8 311.3 102.0)" />
<ellipse cx="305.7" cy="112.9" rx="2.5" ry="3.4" fill="#8e857b" opacity="0.70" transform="rotate(83.7 305.7 112.9)" />
<ellipse cx="207.1" cy="125.7" rx="3.9" ry="2.5" fill="#ddd4c7" opacity="0.54" transform="rotate(70.0 207.1 125.7)" />
<ellipse cx="194.8" cy="83.1" rx="4.2" ry="2.6" fill="#ada295" opacity="0.37" transform="rotate(50.3 194.8 83.1)" />
<ellipse cx="290.9" cy="143.9" rx="3.9" ry="1.6" fill="#c4baac" opacity="0.46" transform="rotate(109.7 290.9 143.9)" />
<ellipse cx="311.0" cy="88.5" rx="2.3" ry="2.4" fill="#c4baac" opacity="0.52" transform="rotate(132.3 311.0 88.5)" />
<ellipse cx="211.6" cy="103.2" rx="2.0" ry="2.4" fill="#8e857b" opacity="0.42" transform="rotate(147.8 211.6 103.2)" />
<ellipse cx="198.0" cy="98.5" rx="4.8" ry="2.6" fill="#ddd4c7" opacity="0.62" transform="rotate(10.4 198.0 98.5)" />
<ellipse cx="228.1" cy="209.0" rx="2.3" ry="1.9" fill="#ada295" opacity="0.62" transform="rotate(90.2 228.1 209.0)" />
<ellipse cx="281.8" cy="214.9" rx="4.5" ry="2.2" fill="#c4baac" opacity="0.44" transform="rotate(44.4 281.8 214.9)" />
<ellipse cx="277.4" cy="239.2" rx="4.7" ry="3.0" fill="#ddd4c7" opacity="0.56" transform="rotate(126.5 277.4 239.2)" />
<path d="M 328.5 100.3 Q 334.5 101.8 339.5 104.8" stroke="#63875e" stroke-width="2.4" stroke-linecap="round" opacity="0.32" fill="none" />
<path d="M 190.5 151.2 Q 183.7 149.9 178.2 147.4" stroke="#63875e" stroke-width="2.4" stroke-linecap="round" opacity="0.32" fill="none" />
<path d="M 320.9 126.9 Q 327.4 128.3 332.7 130.9" stroke="#63875e" stroke-width="2.4" stroke-linecap="round" opacity="0.32" fill="none" />
<path d="M 328.0 106.9 Q 334.0 107.6 338.9 109.0" stroke="#63875e" stroke-width="2.4" stroke-linecap="round" opacity="0.32" fill="none" />
<path d="M 335.9 100.3 Q 343.0 99.7 348.9 98.7" stroke="#63875e" stroke-width="2.4" stroke-linecap="round" opacity="0.32" fill="none" />
<path d="M 300.5 206.7 Q 305.3 205.8 309.2 204.3" stroke="#63875e" stroke-width="2.4" stroke-linecap="round" opacity="0.32" fill="none" />
<path d="M 315.2 149.0 Q 320.7 148.1 325.2 146.3" stroke="#63875e" stroke-width="2.4" stroke-linecap="round" opacity="0.32" fill="none" />
<path d="M 180.6 100.3 Q 175.6 100.2 171.5 100.0" stroke="#63875e" stroke-width="2.4" stroke-linecap="round" opacity="0.32" fill="none" />
<path d="M 324.1 113.6 Q 330.3 112.5 335.3 110.6" stroke="#63875e" stroke-width="2.4" stroke-linecap="round" opacity="0.32" fill="none" />
<path d="M 198.1 164.5 Q 192.6 165.3 188.1 166.7" stroke="#63875e" stroke-width="2.4" stroke-linecap="round" opacity="0.32" fill="none" />
<path d="M 184.6 129.1 Q 178.4 129.5 173.3 130.3" stroke="#63875e" stroke-width="2.4" stroke-linecap="round" opacity="0.32" fill="none" />
<path d="M 301.5 226.6 Q 306.7 225.3 310.9 222.7" stroke="#63875e" stroke-width="2.4" stroke-linecap="round" opacity="0.32" fill="none" />
<path d="M 318.3 146.8 Q 323.6 145.6 327.9 143.3" stroke="#63875e" stroke-width="2.4" stroke-linecap="round" opacity="0.32" fill="none" />
<path d="M 182.2 104.7 Q 178.2 105.3 174.9 106.4" stroke="#63875e" stroke-width="2.4" stroke-linecap="round" opacity="0.32" fill="none" />
<path d="M 320.1 164.5 Q 327.1 164.7 332.8 164.9" stroke="#63875e" stroke-width="2.4" stroke-linecap="round" opacity="0.32" fill="none" />
<path d="M 331.9 84.7 Q 339.3 85.5 345.4 87.0" stroke="#63875e" stroke-width="2.4" stroke-linecap="round" opacity="0.32" fill="none" />
<path d="M 319.6 160.1 Q 323.5 161.4 326.6 163.8" stroke="#63875e" stroke-width="2.4" stroke-linecap="round" opacity="0.32" fill="none" />
<path d="M 311.7 171.2 Q 317.2 169.5 321.7 166.3" stroke="#63875e" stroke-width="2.4" stroke-linecap="round" opacity="0.32" fill="none" />
<path d="M 315.6 173.4 Q 322.7 172.7 328.6 171.5" stroke="#63875e" stroke-width="2.4" stroke-linecap="round" opacity="0.32" fill="none" />
<path d="M 181.2 93.6 Q 174.6 92.3 169.2 89.8" stroke="#63875e" stroke-width="2.4" stroke-linecap="round" opacity="0.32" fill="none" />
<path d="M 188.9 137.9 Q 183.6 136.9 179.3 134.9" stroke="#63875e" stroke-width="2.4" stroke-linecap="round" opacity="0.32" fill="none" />
<path d="M 211.3 215.5 Q 205.9 217.0 201.5 219.9" stroke="#63875e" stroke-width="2.4" stroke-linecap="round" opacity="0.32" fill="none" />
<path d="M 186.7 126.9 Q 180.1 125.5 174.8 123.1" stroke="#63875e" stroke-width="2.4" stroke-linecap="round" opacity="0.32" fill="none" />
<path d="M 186.7 115.8 Q 179.2 116.2 173.0 116.9" stroke="#63875e" stroke-width="2.4" stroke-linecap="round" opacity="0.32" fill="none" />
<path d="M 295.7 220.0 Q 300.8 221.4 305.0 224.0" stroke="#63875e" stroke-width="2.4" stroke-linecap="round" opacity="0.32" fill="none" />
<path d="M 194.4 151.2 Q 187.2 151.6 181.3 152.4" stroke="#63875e" stroke-width="2.4" stroke-linecap="round" opacity="0.32" fill="none" />
<path d="M 178.8 93.6 Q 172.5 92.1 167.4 89.4" stroke="#63875e" stroke-width="2.4" stroke-linecap="round" opacity="0.32" fill="none" />
<path d="M 287.2 246.6 Q 292.2 245.4 296.2 243.2" stroke="#63875e" stroke-width="2.4" stroke-linecap="round" opacity="0.32" fill="none" />
<path d="M 325.8 111.3 Q 333.2 111.6 339.3 112.0" stroke="#63875e" stroke-width="2.4" stroke-linecap="round" opacity="0.32" fill="none" />
<path d="M 300.2 217.7 Q 306.0 218.6 310.8 220.1" stroke="#63875e" stroke-width="2.4" stroke-linecap="round" opacity="0.32" fill="none" />
    <path d="M 222.0 55.9 L 250.9 251.0 L 261.1 251.0 L 290.0 55.9 Z" fill="url(#water-fill)" />
    <path d="M 222.0 55.9 L 250.9 251.0 L 261.1 251.0 L 290.0 55.9 Z" fill="url(#water-shade)" />
    <path d="M 222.0 55.9 L 250.9 251.0 L 261.1 251.0 L 290.0 55.9 Z" fill="#d5f3f6" opacity="0.28" />
<path d="M 248.8 182.3 Q 256.0 186.3 263.2 182.3" stroke="#81cbd8" stroke-width="1.98" stroke-linecap="round" opacity="0.28" fill="none" />
<path d="M 236.2 115.8 Q 256.0 114.9 275.8 115.8" stroke="#81cbd8" stroke-width="1.90" stroke-linecap="round" opacity="0.24" fill="none" />
<path d="M 250.5 211.1 Q 256.0 213.9 261.5 211.1" stroke="#a6dde9" stroke-width="1.63" stroke-linecap="round" opacity="0.24" fill="none" />
<path d="M 247.2 129.1 Q 256.0 126.8 264.8 129.1" stroke="#c6eef8" stroke-width="1.54" stroke-linecap="round" opacity="0.18" fill="none" />
<path d="M 246.4 153.5 Q 256.0 152.4 265.6 153.5" stroke="#c6eef8" stroke-width="1.43" stroke-linecap="round" opacity="0.24" fill="none" />
<path d="M 241.9 98.0 Q 256.0 96.0 270.1 98.0" stroke="#81cbd8" stroke-width="1.03" stroke-linecap="round" opacity="0.15" fill="none" />
<path d="M 243.9 157.9 Q 256.0 156.5 268.1 157.9" stroke="#c6eef8" stroke-width="1.92" stroke-linecap="round" opacity="0.19" fill="none" />
<path d="M 246.7 191.1 Q 256.0 189.1 265.3 191.1" stroke="#81cbd8" stroke-width="1.90" stroke-linecap="round" opacity="0.29" fill="none" />
<path d="M 247.6 177.8 Q 256.0 176.6 264.4 177.8" stroke="#c6eef8" stroke-width="1.82" stroke-linecap="round" opacity="0.20" fill="none" />
<path d="M 251.2 233.3 Q 256.0 231.6 260.8 233.3" stroke="#81cbd8" stroke-width="1.10" stroke-linecap="round" opacity="0.15" fill="none" />
<path d="M 246.0 157.9 Q 256.0 155.9 266.0 157.9" stroke="#c6eef8" stroke-width="1.98" stroke-linecap="round" opacity="0.18" fill="none" />
<path d="M 244.4 133.5 Q 256.0 135.7 267.6 133.5" stroke="#81cbd8" stroke-width="1.00" stroke-linecap="round" opacity="0.27" fill="none" />
<path d="M 234.3 102.5 Q 256.0 105.1 277.7 102.5" stroke="#81cbd8" stroke-width="1.54" stroke-linecap="round" opacity="0.28" fill="none" />
<path d="M 234.3 78.1 Q 256.0 76.6 277.7 78.1" stroke="#c6eef8" stroke-width="1.27" stroke-linecap="round" opacity="0.16" fill="none" />
    <ellipse cx="261.6" cy="252.1" rx="8.1" ry="4.3" fill="#9e9688" opacity="0.51" transform="rotate(55.1 261.6 252.1)" />
    <ellipse cx="264.1" cy="234.0" rx="6.5" ry="4.4" fill="#b3ab9e" opacity="0.54" transform="rotate(98.1 264.1 234.0)" />
    <ellipse cx="253.3" cy="242.6" rx="8.6" ry="6.1" fill="#8a8578" opacity="0.73" transform="rotate(161.4 253.3 242.6)" />
    <ellipse cx="247.6" cy="252.4" rx="8.6" ry="3.8" fill="#b3ab9e" opacity="0.62" transform="rotate(16.4 247.6 252.4)" />
    <ellipse cx="247.1" cy="249.0" rx="6.3" ry="6.5" fill="#9e9688" opacity="0.50" transform="rotate(86.2 247.1 249.0)" />
    <ellipse cx="251.3" cy="246.2" rx="7.8" ry="4.9" fill="#8a8578" opacity="0.57" transform="rotate(90.0 251.3 246.2)" />
    <circle cx="256.0" cy="251.0" r="8" fill="none" stroke="#81cbd8" stroke-width="1.2" opacity="0.22" />
    <circle cx="256.0" cy="251.0" r="15" fill="none" stroke="#81cbd8" stroke-width="1.2" opacity="0.17" />
    <circle cx="256.0" cy="251.0" r="22" fill="none" stroke="#81cbd8" stroke-width="1.2" opacity="0.12" />
  </g>
</svg>
